<?xml version="1.0" encoding="utf-8"?>
<!-- Generator: Adobe Illustrator 19.0.0, SVG Export Plug-In . SVG Version: 6.00 Build 0)  -->
<svg version="1.1" id="Make2D::visible::lines::Default"
	 xmlns="http://www.w3.org/2000/svg" xmlns:xlink="http://www.w3.org/1999/xlink" x="0px" y="0px" viewBox="0 0 1024 768"
	 style="enable-background:new 0 0 1024 768;" xml:space="preserve">
<style type="text/css">
	.st0{fill:#F5F7F7;}
	.st1{fill:#D1D3D3;}
	.st2{fill:none;stroke:#000000;stroke-linecap:round;stroke-linejoin:round;}
</style>
<g id="XMLID_1_">
	<g>
		<polygon class="st0" points="719.6,246.7 685.8,263.6 686.3,243.7 873.8,154.6 873.1,170 785.2,213.9 779.6,216.7 		"/>
		<polygon class="st1" points="785.2,213.9 785.2,214 771.9,592 766.5,597.5 779.6,216.8 779.6,216.7 		"/>
		<polygon class="st0" points="353.6,230.9 359.2,519.1 351.5,523.6 345.5,230.1 345.5,230.1 353.6,230.9 		"/>
		<polygon class="st0" points="413.4,236.8 418.3,650 402.9,646.8 397.2,235.2 397.2,235.2 413.4,236.8 		"/>
		<polygon class="st1" points="627.2,257.8 623.5,498.5 610.4,496.5 613.7,256.5 613.7,256.5 		"/>
		<polygon class="st1" points="627.2,257.8 613.7,256.5 505.2,245.8 413.4,236.8 397.2,235.2 353.6,230.9 345.5,230.1 310.7,226.6 
			145,210.3 144.2,193 686.3,243.7 685.8,263.6 642.2,259.3 		"/>
		<polygon points="642.2,259.3 638.3,487.6 623.5,498.5 627.2,257.8 		"/>
		<polygon points="345.5,230.1 351.5,523.6 317.9,517.6 310.7,226.6 345.5,230.1 		"/>
		<polygon points="779.6,216.7 779.6,216.8 766.5,597.5 725,590.1 734.8,248.2 719.6,246.7 		"/>
		<polygon points="505.2,245.8 437.8,272 440.9,633.3 418.3,650 413.4,236.8 413.4,236.8 		"/>
		<polygon points="873.8,154.6 686.3,243.7 144.2,193 426.3,124 		"/>
	</g>
	<g>
		<line class="st2" x1="145" y1="210.3" x2="144.2" y2="193"/>
		<line class="st2" x1="610.4" y1="496.5" x2="623.5" y2="498.5"/>
		<line class="st2" x1="771.9" y1="592" x2="766.5" y2="597.5"/>
		<line class="st2" x1="725" y1="590.1" x2="766.5" y2="597.5"/>
		<line class="st2" x1="351.5" y1="523.6" x2="359.2" y2="519.1"/>
		<line class="st2" x1="351.5" y1="523.6" x2="317.9" y2="517.6"/>
		<line class="st2" x1="402.9" y1="646.8" x2="418.3" y2="650"/>
		<line class="st2" x1="418.3" y1="650" x2="440.9" y2="633.3"/>
		<polyline class="st2" points="145,210.3 310.7,226.6 345.5,230.1 353.6,230.9 397.2,235.2 413.4,236.8 505.2,245.8 613.7,256.5 
			627.2,257.8 642.2,259.3 685.8,263.6 		"/>
		<line class="st2" x1="685.8" y1="263.6" x2="686.3" y2="243.7"/>
		<line class="st2" x1="144.2" y1="193" x2="686.3" y2="243.7"/>
		<polyline class="st2" points="685.8,263.6 719.6,246.7 779.6,216.7 785.2,213.9 873.1,170 		"/>
		<line class="st2" x1="873.1" y1="170" x2="873.8" y2="154.6"/>
		<line class="st2" x1="686.3" y1="243.7" x2="873.8" y2="154.6"/>
		<line class="st2" x1="873.8" y1="154.6" x2="426.3" y2="124"/>
		<line class="st2" x1="426.3" y1="124" x2="144.2" y2="193"/>
		<line class="st2" x1="613.7" y1="256.5" x2="610.4" y2="496.5"/>
		<polyline class="st2" points="627.2,257.8 627.2,257.8 623.5,498.5 		"/>
		<line class="st2" x1="623.5" y1="498.5" x2="638.3" y2="487.6"/>
		<line class="st2" x1="638.3" y1="487.6" x2="642.2" y2="259.3"/>
		<polyline class="st2" points="719.6,246.7 719.6,246.7 734.8,248.2 		"/>
		<line class="st2" x1="734.8" y1="248.2" x2="725" y2="590.1"/>
		<line class="st2" x1="771.9" y1="592" x2="785.2" y2="214"/>
		<line class="st2" x1="766.5" y1="597.5" x2="779.6" y2="216.8"/>
		<line class="st2" x1="345.5" y1="230.1" x2="351.5" y2="523.6"/>
		<line class="st2" x1="353.6" y1="230.9" x2="359.2" y2="519.1"/>
		<polyline class="st2" points="317.9,517.6 310.7,226.6 310.7,226.6 		"/>
		<line class="st2" x1="397.2" y1="235.2" x2="402.9" y2="646.8"/>
		<line class="st2" x1="413.4" y1="236.8" x2="418.3" y2="650"/>
		<line class="st2" x1="440.9" y1="633.3" x2="437.8" y2="272"/>
		<line class="st2" x1="437.8" y1="272" x2="505.2" y2="245.8"/>
	</g>
</g>
</svg>
