<?xml version="1.0" encoding="utf-8"?>
<!-- Generator: Adobe Illustrator 19.0.0, SVG Export Plug-In . SVG Version: 6.00 Build 0)  -->
<svg version="1.1" id="Layer_1" xmlns="http://www.w3.org/2000/svg" xmlns:xlink="http://www.w3.org/1999/xlink" x="0px" y="0px"
	 viewBox="0 0 1024 768" style="enable-background:new 0 0 1024 768;" xml:space="preserve">
<style type="text/css">
	.st0{fill:#394DA1;}
	.st1{fill:#FFFFFF;}
	.st2{fill:none;stroke:#394DA1;stroke-miterlimit:10;}
</style>
<g id="XMLID_206_">
	<g id="XMLID_30_">
		<g id="XMLID_356_">
			<path id="XMLID_58_" class="st0" d="M847.4,153.6C847.4,153.7,847.4,153.7,847.4,153.6c-0.1,0.4-0.1,0.8-0.2,1.1c0,0,0,0.1,0,0.1
				c-0.9,4.5-4.2,8.4-8.1,11.8c4.6-4,8.1-8.8,8.4-14.2C847.5,152.9,847.5,153.2,847.4,153.6z"/>
			<path id="XMLID_57_" class="st0" d="M846.2,183.2c0-0.1,0.1-0.2,0.1-0.3C846.3,182.9,846.3,183.1,846.2,183.2z"/>
			<path id="XMLID_56_" class="st0" d="M845.9,182.8c0.1-0.4,0.2-0.9,0.2-1.4C846.1,181.9,846,182.4,845.9,182.8z"/>
			<path id="XMLID_55_" class="st0" d="M845.1,186.3c0.2-0.4,0.4-0.8,0.5-1.3C845.5,185.5,845.3,185.9,845.1,186.3z"/>
			<path id="XMLID_54_" class="st0" d="M844.8,186c0.2-0.4,0.4-0.8,0.5-1.3C845.1,185.1,845,185.5,844.8,186z"/>
			<path id="XMLID_53_" class="st0" d="M847.2,154.8c-2,10-14.9,17.6-23.5,21.6c3.9-1.9,8.7-4.6,13-7.9c0.8-0.6,1.6-1.2,2.3-1.9
				C843.1,163.3,846.3,159.3,847.2,154.8z"/>
			<path id="XMLID_52_" class="st0" d="M836.8,168.6c-4.3,3.3-9.1,6-13,7.9c-1.3,0.6-2.5,1.2-3.6,1.7
				C824.4,176.1,831.1,172.8,836.8,168.6z"/>
			<path id="XMLID_51_" class="st0" d="M842.4,190.6c-2.8,3.5-6.5,6.4-9.9,8.7C835.8,197,839.6,194.1,842.4,190.6z"/>
			<path id="XMLID_50_" class="st0" d="M842.1,190.2c-2.8,3.5-6.5,6.4-9.9,8.7C835.5,196.7,839.3,193.8,842.1,190.2z"/>
			<path id="XMLID_49_" class="st0" d="M820.2,178.1c1-0.5,2.3-1,3.6-1.7C822.4,177.1,821.2,177.7,820.2,178.1z"/>
			<path id="XMLID_48_" class="st0" d="M788.1,189.7c10.9-3.1,21.8-6.8,32.1-11.5C809.8,183.2,799,186.6,788.1,189.7z"/>
			<path id="XMLID_47_" class="st0" d="M176.5,150.8h-0.3c0-0.2,0-0.4,0-0.7c0,0,0,0,0-0.1c0.4-9.8,10.8-16.5,17.6-20.5
				c1.9-1.1,3.8-2.1,5.7-3.1c1-0.5,1.9-1,2.9-1.4c12.6-6,25.9-9.8,39.3-13.4c3.2-0.8,6.4-1.7,9.6-2.4c22.5-5.4,45.3-9.2,68.4-12.4
				c52.7-7.1,105-10.1,158-11.1c3.7-0.1,7.6-0.1,11.6-0.1c0.4,0,0.9,0,1.3,0c2,0,3.9,0,5.9,0c86.3-0.3,209,6,289.9,28.9
				c1.9,0.5,3.8,1,5.7,1.6c-2.3-0.7-4.6-1.4-6.9-2c-0.2,0-0.3-0.1-0.5-0.1l-6.6-2.1c4.9,1.2,9.6,2.6,14.2,3.9
				c31.7,10.5,50.3,23,55.4,36.8c-0.3,5.4-3.8,10.2-8.4,14.2c-0.7,0.7-1.5,1.3-2.3,1.9c-5.7,4.3-12.4,7.5-16.6,9.6
				c-10.3,4.7-21.2,8.4-32.1,11.5c-1.6,0.4-3.1,0.9-4.7,1.3c-25.3,6.8-50.6,11.1-76.6,14.9c-6.4,0.7-12.8,1.7-19.2,2.4
				c-77.6,9.1-166.1,11.1-244,7.8c-61.4-2.7-181.3-12.2-240-39.5C195.7,172.7,176.8,162.9,176.5,150.8z"/>
			<path id="XMLID_46_" class="st0" d="M792,116c-1.9-0.6-3.8-1.1-5.7-1.6l-1.2-0.4C787.5,114.6,789.8,115.3,792,116z"/>
			<path id="XMLID_45_" class="st0" d="M828.1,201.5c-14.3,8.7-32.1,14.3-47.6,18.4C796,215.5,813.8,210.2,828.1,201.5z"/>
			<path id="XMLID_44_" class="st0" d="M828.4,201.9c-7.2,4.4-15.3,7.9-23.4,10.9c-8.2,3-16.5,5.4-24.3,7.5
				C796.1,215.9,814,210.6,828.4,201.9z"/>
			<path id="XMLID_43_" class="st0" d="M760.4,225.4c-0.1,0-0.2,0-0.3,0.1C760.2,225.4,760.3,225.4,760.4,225.4z"/>
			<path id="XMLID_42_" class="st0" d="M760.1,225.5c0.1,0,0.2,0,0.3-0.1c3.4-0.8,6.8-1.6,10.2-2.4c3.4-0.8,6.8-1.7,10.1-2.7
				c7.7-2.1,16.1-4.5,24.3-7.5l0,0.1l-8.8,369.9l-43.5,7.4l7.4-364.5V225.5C760.1,225.5,760.1,225.5,760.1,225.5z"/>
			<path id="XMLID_41_" class="st0" d="M750.2,227.6c3.3-0.7,6.6-1.4,9.9-2.1C756.7,226.2,753.5,227,750.2,227.6z"/>
			<path id="XMLID_40_" class="st0" d="M760,225.1c-3.4,0.8-6.8,1.5-10.2,2.2C753.2,226.6,756.6,225.9,760,225.1z"/>
			<path id="XMLID_39_" class="st0" d="M750.2,227.6c-0.2,0.1-0.4,0.1-0.6,0.1C749.8,227.7,750,227.7,750.2,227.6z"/>
			<path id="XMLID_38_" class="st0" d="M749.8,227.3L749.8,227.3c-3.3,0.7-6.7,1.4-10.1,2C743.1,228.7,746.5,228,749.8,227.3z"/>
			<path id="XMLID_37_" class="st0" d="M749.5,227.7c-0.1,0.1-0.2,0.1-0.3,0.1C749.3,227.8,749.4,227.8,749.5,227.7z"/>
			<path id="XMLID_36_" class="st1" d="M750.2,227.6c3.3-0.6,6.6-1.4,9.9-2.1l0,0.2l-7.4,364.5l-10.5-5.4l7.1-356.8l-0.1-0.3
				c0.1,0,0.2,0,0.3-0.1h0C749.8,227.7,750,227.7,750.2,227.6z"/>
			<path id="XMLID_35_" class="st0" d="M729.3,231.2c3.4-0.6,6.9-1.2,10.4-1.9C736.2,230,732.7,230.6,729.3,231.2z"/>
			<path id="XMLID_34_" class="st0" d="M726.9,232c4.4-0.7,8.7-1.5,13.1-2.3C735.6,230.5,731.3,231.3,726.9,232z"/>
			<path id="XMLID_33_" class="st0" d="M726.9,232c0,0-0.1,0-0.1,0C726.8,232,726.9,232,726.9,232z"/>
			<path id="XMLID_32_" class="st0" d="M725.3,232.2c-5.3,0.9-10.6,1.7-15.9,2.5C714.7,234,720,233.1,725.3,232.2z"/>
			<path id="XMLID_31_" class="st0" d="M729.3,231.2c-6.7,1.2-13.5,2.2-20.3,3.2C715.8,233.4,722.5,232.3,729.3,231.2z"/>
			<path id="XMLID_29_" class="st0" d="M706.8,205.8c26-3.7,51.3-8.1,76.6-14.9c-11.1,3.2-22.4,5.8-33.8,8
				C735.5,201.8,721.2,203.9,706.8,205.8z"/>
			<path id="XMLID_28_" class="st0" d="M708.9,234.4c-3.3,0.5-6.6,1-10,1.4C702.3,235.4,705.6,234.9,708.9,234.4z"/>
			<path id="XMLID_27_" class="st1" d="M707.1,235c0.7-0.1,1.5-0.2,2.3-0.3c5.3-0.8,10.6-1.6,15.9-2.5l0,0.2l-9.1,495.2l-18.6,3.4
				l8.1-495.5l0-0.3C706.2,235.2,706.6,235.1,707.1,235z"/>
			<path id="XMLID_26_" class="st0" d="M707.1,235c-0.5,0.1-0.9,0.2-1.4,0.2C706.1,235.2,706.6,235.1,707.1,235z"/>
			<path id="XMLID_25_" class="st0" d="M618,244.1c27-1.8,54-4.4,81-8c2.2-0.3,4.5-0.6,6.7-0.9l0,0.3L697.6,731l-30-17.6l6.4-447.9
				l-56-21.3V244.1z"/>
			<path id="XMLID_24_" class="st0" d="M786.3,114.4c-80.9-22.9-203.6-29.2-289.9-28.9c85.7-0.3,207.2,5.6,288.2,28.4
				c0.2,0,0.3,0.1,0.5,0.1L786.3,114.4z"/>
			<path id="XMLID_23_" class="st0" d="M532.3,247.3c-37,0.4-73.9-0.3-110.7-2.6v-0.1C458.3,246.8,495.2,247.8,532.3,247.3z"/>
			<path id="XMLID_22_" class="st0" d="M477.6,85.6c3.8-0.1,7.6-0.1,11.6-0.1C485.2,85.5,481.3,85.6,477.6,85.6z"/>
			<path id="XMLID_21_" class="st1" d="M421.5,244.8l1,312.4l-16.5,2.7l-2-316.3v0C409.8,244,415.7,244.4,421.5,244.8z"/>
			<path id="XMLID_20_" class="st0" d="M404,243.6l2,316.3l-23-13.5l-2-304.7C388.7,242.4,396.3,243,404,243.6L404,243.6z"/>
			<path id="XMLID_19_" class="st0" d="M404,243.6c-7.7-0.5-15.3-1.2-23-1.9v-0.1c13.5,1.2,27,2.2,40.5,3v0.1
				C415.7,244.4,409.8,244,404,243.6z"/>
			<path id="XMLID_18_" class="st0" d="M366.2,239.9c55.2,5.4,110.5,7.7,166,7.1C476.7,247.7,421.4,245.6,366.2,239.9z"/>
			<path id="XMLID_17_" class="st0" d="M381,241.6L381,241.6c-5-0.4-9.9-0.8-14.9-1.4C371.1,240.7,376.1,241.2,381,241.6z"/>
			<path id="XMLID_16_" class="st0" d="M440.5,216.1c-51.4-2.4-140-9.3-201.9-26.8C300.5,206.7,389.2,213.5,440.5,216.1z"/>
			<path id="XMLID_15_" class="st0" d="M312.6,233.5l-37.2,4.3l6.4,434.4l-50.6,8.8l-8.8-468.3C248.7,222.1,281.9,228.8,312.6,233.5
				z"/>
			<path id="XMLID_14_" class="st0" d="M251.3,109.2c22.5-5.5,45.3-9.5,68.4-12.4C296.6,100,273.8,103.8,251.3,109.2z"/>
			<path id="XMLID_13_" class="st0" d="M213.6,209.2c22.9,9.2,52.4,16.1,81.2,21.2c-16.6-2.9-33.4-6.4-49.1-10.6
				c-0.1,0-0.1,0-0.2-0.1C234.1,216.5,223.2,213.1,213.6,209.2L213.6,209.2z"/>
			<path id="XMLID_12_" class="st1" d="M222.4,212.8l8.8,468.3l-8.8-6.1l-8.8-465.6c2.4,1,4.9,1.9,7.5,2.9
				C221.5,212.4,222,212.6,222.4,212.8z"/>
			<path id="XMLID_11_" class="st0" d="M202.3,125c12.6-6,25.6-9.8,39.3-13.4C228.2,115.2,215,119,202.3,125z"/>
			<path id="XMLID_10_" class="st0" d="M224.8,185.1c2.2,0.7,4.5,1.5,6.8,2.2C229.3,186.6,227,185.9,224.8,185.1z"/>
			<path id="XMLID_9_" class="st0" d="M213.6,209.2L213.6,209.2c-2.1-0.8-4.1-1.6-6-2.5C209.5,207.5,211.5,208.4,213.6,209.2z"/>
			<path id="XMLID_8_" class="st0" d="M195.1,200.4c2.3,1.2,4.4,2.5,6.5,3.6C199.3,202.9,197.1,201.7,195.1,200.4z"/>
			<path id="XMLID_7_" class="st0" d="M199.1,202.6c0.7,0.4,1.4,0.8,2.1,1.1c-2.1-1-4.2-2.2-6.1-3.4
				C196.5,201.1,197.8,201.8,199.1,202.6z"/>
			<path id="XMLID_6_" class="st0" d="M176.2,149.8c0.3-9.8,10.8-16.5,17.6-20.6c15.2-8.8,31.4-13.5,47.9-17.9
				c25.7-6.8,51.6-11.5,78-14.9c52.7-7.1,105-10.1,158-11.1c83.6-1.3,212.9,3.8,300.1,26.3l0.3,0.1l6.6,2.1
				c-81-22.7-202.5-28.7-288.2-28.4c-2,0-4,0-5.9,0c-0.4,0-0.9,0-1.3,0c-3.9,0-7.8,0.1-11.6,0.1c-53,1-105.3,4.1-158,11.1
				c-23.1,3-45.8,7-68.4,12.4c-3.2,0.8-6.4,1.6-9.6,2.4c-13.7,3.6-26.7,7.4-39.3,13.4c-1,0.4-1.9,0.9-2.9,1.4c-1.9,1-3.8,2-5.7,3.1
				c-6.8,4.1-17.2,10.8-17.6,20.5C176.2,149.9,176.2,149.9,176.2,149.8z"/>
			<path id="XMLID_1_" class="st1" d="M440.5,216.1c-51.4-2.6-140-9.4-201.9-26.8C300.5,206.8,389.2,213.8,440.5,216.1z
				 M231.6,187.3c-2.3-0.7-4.6-1.4-6.8-2.2C227,185.9,229.3,186.6,231.6,187.3z M177.9,180.2c2.9,7.6,11.3,13.5,16.8,16.8
				C189.3,193.5,180.9,187.7,177.9,180.2z M176.8,178.1c-0.3-9.1-0.3-18.2-0.6-27.3h0.3c0.3,12.2,19.2,21.9,27,25.7
				c58.7,27.3,178.6,36.8,240,39.5c78,3.4,166.4,1.4,244-7.8c6.4-0.7,12.8-1.7,19.2-2.4c14.4-1.9,28.7-4.1,42.9-6.9
				c11.4-2.2,22.6-4.8,33.8-8c1.6-0.4,3.1-0.8,4.7-1.3c10.9-3,21.8-6.5,32.1-11.5c1-0.5,2.3-1,3.6-1.7c8.6-4.1,21.5-11.6,23.5-21.6
				c0,0,0,0,0-0.1c0.1-0.4,0.1-0.7,0.2-1.1c0,0,0,0,0,0c0-0.4,0.1-0.7,0.1-1.1h0.2l-0.9,22.3l-0.7,2.7c0.1,0.7,0.1,1.3,0.1,2
				c0,0.6,0,1.1-0.1,1.7c0,0,0,0,0,0c0,0.1,0,0.2-0.1,0.3c0,0.5-0.1,0.9-0.2,1.4c-0.1,0.5-0.3,1-0.4,1.5c0,0.1-0.1,0.2-0.1,0.4
				c-0.2,0.4-0.3,0.8-0.5,1.3c-0.4,1-1,1.9-1.6,2.8c-0.1,0.1-0.1,0.2-0.2,0.3c-0.3,0.4-0.5,0.7-0.8,1.1c-2.8,3.5-6.6,6.4-9.9,8.7
				c-0.4,0.3-0.8,0.5-1.2,0.8c-0.9,0.6-1.9,1.2-2.8,1.8c-14.3,8.7-32.1,14-47.6,18.4c-0.1,0-0.2,0-0.2,0.1
				c-3.4,0.9-6.8,1.8-10.1,2.7c-3.4,0.8-6.8,1.7-10.2,2.4c-3.4,0.8-6.8,1.5-10.2,2.2c-3.3,0.7-6.7,1.4-10.1,2c0,0-0.1,0-0.1,0
				c-3.5,0.7-6.9,1.3-10.4,1.9c-6.8,1.1-13.5,2.2-20.3,3.2c0,0-0.1,0-0.1,0c-3.3,0.5-6.6,1-10,1.4c-0.1,0-0.2,0-0.3,0
				c-55.4,7.4-110.7,10.5-166.4,11.1c-55.6,0.7-110.8-1.7-166-7.1c-0.1,0-0.2,0-0.4,0c-16.8-1.7-37.9-4.2-60-7.7
				c-1.8-0.3-3.6-0.6-5.4-0.9c-1.9-0.3-3.7-0.6-5.6-0.9c-28.8-5.1-58.3-12-81.2-21.2c-2.1-0.8-4.1-1.7-6-2.5c0,0,0,0,0,0
				c-1.4-0.6-2.7-1.2-4.1-1.9c-0.8-0.3-1.5-0.7-2.3-1.1c-0.7-0.4-1.4-0.8-2.1-1.1c-1.3-0.7-2.6-1.5-4-2.3c-0.1-0.1-0.3-0.2-0.4-0.2
				C188,196,177.2,188.2,176.8,178.1z"/>
		</g>
		<g id="XMLID_261_">
			<path id="XMLID_152_" class="st2" d="M177.9,180.2c2.9,7.6,11.3,13.5,16.8,16.8C189.3,193.5,180.9,187.7,177.9,180.2z"/>
			<path id="XMLID_151_" class="st2" d="M177.9,180.2c-0.7-1.7-1.1-3.5-1.1-5.5"/>
			<polyline id="XMLID_145_" class="st2" points="752.7,590.2 796.2,582.8 805,212.9 			"/>
			<path id="XMLID_150_" class="st2" d="M231.6,187.3c-2.3-0.7-4.6-1.4-6.8-2.2c-7.7-2.6-14.9-5.3-21.3-8.3"/>
			<path id="XMLID_149_" class="st2" d="M687.5,208.5c-77.6,9.1-166.1,11.1-244,7.8c-0.9,0-1.9-0.1-2.9-0.1
				c-51.4-2.6-140-9.4-201.9-26.8"/>
			<path id="XMLID_148_" class="st2" d="M238.6,189.3c61.9,17.5,150.6,24.4,201.9,26.8"/>
			<path id="XMLID_147_" class="st2" d="M238.6,189.3c-2.4-0.7-4.7-1.4-7-2.1"/>
			<path id="XMLID_146_" class="st2" d="M224.8,185.1c2.2,0.7,4.5,1.5,6.8,2.2"/>
			<path id="XMLID_144_" class="st2" d="M294.8,230.3c-28.8-5.1-58.3-12-81.2-21.2c-2.1-0.8-4.1-1.7-6-2.5"/>
			<path id="XMLID_143_" class="st2" d="M532.3,247c-55.6,0.7-110.8-1.7-166-7.1"/>
			<path id="XMLID_142_" class="st2" d="M708.9,234.4c-3.3,0.5-6.6,1-10,1.4"/>
			<path id="XMLID_141_" class="st2" d="M739.6,229.3c-3.5,0.7-6.9,1.3-10.4,1.9c-6.8,1.1-13.5,2.2-20.3,3.2"/>
			<path id="XMLID_140_" class="st2" d="M760,225.1c-3.4,0.8-6.8,1.5-10.2,2.2c-3.3,0.7-6.7,1.4-10.1,2"/>
			<path id="XMLID_139_" class="st2" d="M828.1,201.5c-14.3,8.7-32.1,14-47.6,18.4"/>
			<path id="XMLID_138_" class="st2" d="M842.1,190.2c-2.8,3.5-6.6,6.4-9.9,8.7"/>
			<path id="XMLID_137_" class="st2" d="M845.3,184.7c-0.2,0.4-0.3,0.8-0.5,1.3"/>
			<path id="XMLID_136_" class="st2" d="M846.1,181.5c0,0.5-0.1,0.9-0.2,1.4"/>
			<path id="XMLID_135_" class="st2" d="M207.6,206.6c2,0.9,3.9,1.8,6,2.6c9.6,3.9,20.5,7.3,31.9,10.4c0.1,0,0.1,0,0.2,0.1
				c15.6,4.2,32.5,7.7,49.1,10.6c1.9,0.3,3.7,0.6,5.6,0.9c1.8,0.3,3.6,0.6,5.4,0.9c22,3.5,43.1,6,60,7.7c0.1,0,0.2,0,0.4,0
				c55.2,5.7,110.5,7.7,166,7.1c55.7-0.7,111-3.7,166.4-11.1c0.1,0,0.2,0,0.3,0c3.3-0.4,6.6-0.9,10-1.4c0,0,0.1,0,0.1,0
				c6.8-1,13.5-2,20.3-3.2c3.5-0.6,6.9-1.2,10.4-1.9c0,0,0.1,0,0.1,0c3.4-0.6,6.8-1.3,10.1-2v0c3.4-0.7,6.8-1.4,10.2-2.2
				s6.8-1.6,10.2-2.4c3.4-0.8,6.8-1.7,10.1-2.7c0.1,0,0.2,0,0.2-0.1c15.5-4.1,33.2-9.7,47.6-18.4c0.9-0.6,1.9-1.2,2.8-1.8
				c0.4-0.3,0.8-0.5,1.2-0.8c3.4-2.2,7.1-5.1,9.9-8.7c0.3-0.4,0.6-0.7,0.8-1.1c0.1-0.1,0.1-0.2,0.2-0.3c0.6-0.9,1.2-1.9,1.6-2.8
				c0.2-0.4,0.4-0.8,0.5-1.3c0-0.1,0.1-0.3,0.1-0.4c0.2-0.5,0.3-1,0.4-1.5c0.1-0.4,0.2-0.9,0.2-1.4c0-0.1,0.1-0.2,0.1-0.3
				c0,0,0,0,0,0c0.1-0.5,0.1-1.1,0.1-1.7c0-0.6,0-1.3-0.1-2"/>
			<path id="XMLID_134_" class="st2" d="M201.2,203.7c-2.1-1-4.2-2.2-6.1-3.4"/>
			<path id="XMLID_133_" class="st2" d="M176.2,150.8c0.3,9.1,0.3,18.2,0.6,27.3c0.3,10.1,11.1,17.9,17.9,21.9
				c0.1,0.1,0.3,0.2,0.4,0.2c1.4,0.8,2.7,1.5,4,2.3c0.7,0.4,1.4,0.8,2.1,1.1c0.7,0.4,1.5,0.7,2.3,1.1c1.3,0.6,2.7,1.2,4.1,1.9
				c0,0,0,0,0,0"/>
			<path id="XMLID_132_" class="st2" d="M777.6,111.6C690.5,89.1,561.2,84,477.6,85.3c-53,1-105.3,4.1-158,11.1
				c-26.3,3.4-52.3,8.1-78,14.9c-16.5,4.4-32.7,9.1-47.9,17.9c-6.8,4.1-17.2,10.8-17.6,20.6c0,0.1,0,0.2,0,0.3"/>
			<path id="XMLID_131_" class="st2" d="M839.1,166.6c4.6-4,8.1-8.8,8.4-14.2c-5.1-13.8-23.6-26.3-55.4-36.8
				c-4.6-1.4-9.3-2.7-14.2-3.9"/>
			<path id="XMLID_130_" class="st2" d="M820.2,178.1c1-0.5,2.3-1,3.6-1.7c3.9-1.9,8.7-4.6,13-7.9"/>
			<path id="XMLID_129_" class="st2" d="M176.5,150.8c0.3,12.2,19.2,21.9,27,25.7c58.7,27.3,178.6,36.8,240,39.5
				c78,3.4,166.4,1.4,244-7.8c6.4-0.7,12.8-1.7,19.2-2.4"/>
			<polyline id="XMLID_128_" class="st2" points="313.2,233.5 312.6,233.5 275.4,237.9 281.8,672.3 231.2,681 222.4,212.8 
				222.4,212.6 			"/>
			<polyline id="XMLID_127_" class="st2" points="231.2,681 222.4,675 213.6,209.4 213.6,209.2 213.6,209.2 			"/>
			<path id="XMLID_126_" class="st2" d="M201.6,204c-2.3-1.1-4.5-2.4-6.5-3.6C197.3,201.6,199.4,202.9,201.6,204z"/>
			<polyline id="XMLID_125_" class="st2" points="406,559.9 422.6,557.2 421.5,244.8 421.5,244.6 			"/>
			<polyline id="XMLID_124_" class="st2" points="406,559.9 383.1,546.4 381,241.6 381,241.6 			"/>
			<line id="XMLID_123_" class="st2" x1="406" y1="559.9" x2="404" y2="243.6"/>
			<polyline id="XMLID_122_" class="st2" points="618,244.3 674,265.5 667.6,713.4 697.6,731 705.7,235.5 			"/>
			<polyline id="XMLID_121_" class="st2" points="697.6,731 716.2,727.6 725.3,232.5 			"/>
			<polyline id="XMLID_120_" class="st2" points="749.3,228.1 742.2,584.8 752.7,590.2 760.1,225.7 			"/>
			<polyline id="XMLID_119_" class="st2" points="749.6,198.7 749.6,198.9 749.6,199.1 			"/>
			<line id="XMLID_118_" class="st2" x1="788.4" y1="115" x2="786.3" y2="114.4"/>
			<line id="XMLID_117_" class="st2" x1="786.3" y1="114.4" x2="785.1" y2="114"/>
			<line id="XMLID_116_" class="st2" x1="784.6" y1="113.8" x2="778" y2="111.7"/>
			<line id="XMLID_115_" class="st2" x1="778" y1="111.7" x2="777.6" y2="111.6"/>
			<line id="XMLID_97_" class="st2" x1="706.8" y1="206.1" x2="687.5" y2="208.5"/>
			<path id="XMLID_114_" class="st2" d="M496.4,85.5c85.7-0.3,207.2,5.6,288.2,28.4c0.2,0,0.3,0.1,0.5,0.1c2.3,0.7,4.7,1.4,6.9,2
				c0,0,0.1,0,0.1,0"/>
			<path id="XMLID_113_" class="st2" d="M477.6,85.6c3.8-0.1,7.6-0.1,11.6-0.1"/>
			<path id="XMLID_112_" class="st2" d="M251.3,109.2c22.5-5.4,45.3-9.2,68.4-12.4"/>
			<path id="XMLID_111_" class="st2" d="M202.3,125c12.6-6,25.6-9.8,39.3-13.4"/>
			<path id="XMLID_110_" class="st2" d="M176.2,150.8c0-0.2,0-0.4,0-0.7c0,0,0,0,0-0.1"/>
			<path id="XMLID_109_" class="st2" d="M176.2,150c0.4-9.8,10.8-16.5,17.6-20.5c1.9-1.1,3.8-2.1,5.7-3.1c1-0.5,1.9-1,2.9-1.4"/>
			<path id="XMLID_108_" class="st2" d="M241.6,111.6c-13.4,3.6-26.7,7.4-39.3,13.4"/>
			<path id="XMLID_107_" class="st2" d="M241.6,111.6c3.2-0.8,6.4-1.7,9.6-2.4"/>
			<path id="XMLID_106_" class="st2" d="M319.6,96.8c-23.1,3-45.8,7-68.4,12.4"/>
			<path id="XMLID_105_" class="st2" d="M319.6,96.8c52.7-7.1,105-10.1,158-11.1"/>
			<path id="XMLID_104_" class="st2" d="M489.1,85.5c-3.9,0-7.8,0.1-11.6,0.1"/>
			<path id="XMLID_103_" class="st2" d="M489.1,85.5c0.4,0,0.9,0,1.3,0c2,0,3.9,0,5.9,0"/>
			<path id="XMLID_102_" class="st2" d="M792,116c-1.9-0.6-3.8-1.1-5.7-1.6c-80.9-22.9-203.6-29.2-289.9-28.9"/>
			<path id="XMLID_101_" class="st2" d="M783.4,191c-11.1,3.2-22.4,5.8-33.8,8c-14.1,2.8-28.5,5-42.9,6.9
				C732.7,202.1,758.1,197.7,783.4,191"/>
			<path id="XMLID_100_" class="st2" d="M847.5,152.5c0,0.4,0,0.8-0.1,1.1c0,0,0,0,0,0c-0.1,0.4-0.1,0.7-0.2,1.1c0,0,0,0.1,0,0.1
				c-0.9,4.5-4.2,8.4-8.1,11.8c-0.7,0.7-1.5,1.3-2.3,1.9c-5.7,4.3-12.4,7.5-16.6,9.6c-10.3,4.7-21.2,8.4-32.1,11.5"/>
			<path id="XMLID_99_" class="st2" d="M788.1,189.7c10.9-3,21.8-6.5,32.1-11.5c1-0.5,2.3-1,3.6-1.7c8.6-4.1,21.5-11.6,23.5-21.6"/>
			<path id="XMLID_98_" class="st2" d="M788.1,189.7c-1.6,0.4-3.1,0.9-4.7,1.3"/>
			<path id="XMLID_96_" class="st2" d="M532.3,247.3c-37,0.4-73.9-0.5-110.7-2.7c-13.5-0.8-27-1.8-40.5-3c-5-0.4-9.9-0.9-14.9-1.4"
				/>
			<path id="XMLID_95_" class="st2" d="M707.1,235c-0.5,0.1-0.9,0.1-1.4,0.2"/>
			<path id="XMLID_94_" class="st2" d="M725.3,232.2c-5.3,0.9-10.6,1.7-15.9,2.5"/>
			<path id="XMLID_93_" class="st2" d="M740,229.6c-4.4,0.8-8.7,1.6-13.1,2.3c0,0-0.1,0-0.1,0"/>
			<path id="XMLID_92_" class="st2" d="M749.5,227.7c-0.1,0-0.2,0.1-0.3,0.1"/>
			<path id="XMLID_91_" class="st2" d="M760.1,225.5c-3.3,0.7-6.6,1.5-9.9,2.1c-0.2,0.1-0.4,0.1-0.6,0.1"/>
			<path id="XMLID_90_" class="st2" d="M760.4,225.4c-0.1,0-0.2,0-0.3,0.1"/>
			<path id="XMLID_89_" class="st2" d="M828.4,201.9c-14.4,8.7-32.2,14-47.7,18.4"/>
			<path id="XMLID_88_" class="st2" d="M842.4,190.6c-2.8,3.5-6.6,6.4-9.9,8.7"/>
			<path id="XMLID_87_" class="st2" d="M845.6,185c-0.2,0.4-0.3,0.8-0.5,1.3"/>
			<path id="XMLID_86_" class="st2" d="M846.5,177.8c0.1,0.7,0.1,1.3,0.1,2c0,0.6,0,1.1-0.1,1.7c0,0,0,0,0,0
				c-0.1,0.5-0.1,0.9-0.2,1.4c0,0.1,0,0.2-0.1,0.3"/>
			<path id="XMLID_85_" class="st2" d="M846.2,183.2c0-0.1,0.1-0.2,0.1-0.3"/>
			<path id="XMLID_84_" class="st2" d="M846.2,183.2c-0.1,0.5-0.3,1-0.4,1.5c0,0.1-0.1,0.2-0.1,0.4"/>
			<path id="XMLID_83_" class="st2" d="M845.1,186.3c0.2-0.4,0.4-0.8,0.5-1.3"/>
			<path id="XMLID_82_" class="st2" d="M845.1,186.3c-0.4,1-1,1.9-1.6,2.8c-0.1,0.1-0.1,0.2-0.2,0.3c-0.3,0.4-0.5,0.7-0.8,1.1"/>
			<path id="XMLID_81_" class="st2" d="M832.6,199.3c3.4-2.2,7.1-5.1,9.9-8.7"/>
			<path id="XMLID_80_" class="st2" d="M832.6,199.3c-0.4,0.3-0.8,0.5-1.2,0.8c-0.9,0.6-1.9,1.2-2.8,1.8c0,0-0.1,0-0.1,0.1"/>
			<path id="XMLID_79_" class="st2" d="M780.7,220.3c7.7-2.1,16.1-4.5,24.3-7.5c8.2-3,16.2-6.5,23.4-10.9"/>
			<path id="XMLID_78_" class="st2" d="M780.7,220.3c-3.4,0.9-6.8,1.8-10.1,2.7c-3.4,0.8-6.8,1.7-10.2,2.4"/>
			<path id="XMLID_77_" class="st2" d="M760.1,225.5c0.1,0,0.2,0,0.3-0.1"/>
			<path id="XMLID_76_" class="st2" d="M760.1,225.5C760.1,225.5,760.1,225.5,760.1,225.5"/>
			<path id="XMLID_75_" class="st2" d="M749.6,227.7c0.2,0,0.4-0.1,0.6-0.1c3.3-0.6,6.6-1.4,9.9-2.1"/>
			<line id="XMLID_74_" class="st2" x1="749.6" y1="227.7" x2="749.5" y2="227.7"/>
			<path id="XMLID_73_" class="st2" d="M749.2,227.8c0.1,0,0.2,0,0.3-0.1"/>
			<path id="XMLID_72_" class="st2" d="M749.2,227.8c-3.1,0.7-6.2,1.3-9.2,1.8"/>
			<path id="XMLID_71_" class="st2" d="M726.8,232c0,0,0.1,0,0.1,0c4.4-0.7,8.7-1.5,13.1-2.3"/>
			<path id="XMLID_70_" class="st2" d="M726.8,232c-0.5,0.1-1,0.2-1.5,0.2"/>
			<path id="XMLID_69_" class="st2" d="M709.4,234.7c5.3-0.8,10.6-1.6,15.9-2.5"/>
			<path id="XMLID_68_" class="st2" d="M709.4,234.7c-0.8,0.1-1.5,0.2-2.3,0.3"/>
			<path id="XMLID_67_" class="st2" d="M705.7,235.2c0.5,0,0.9-0.1,1.4-0.2"/>
			<path id="XMLID_66_" class="st2" d="M705.7,235.2c-2.2,0.3-4.5,0.6-6.7,0.9c-27,3.6-54,6.2-81,8"/>
			<path id="XMLID_65_" class="st2" d="M618,244.1c-28.4,1.9-56.9,2.8-85.4,3.2c-0.1,0-0.2,0-0.3,0"/>
			<path id="XMLID_64_" class="st2" d="M366.2,240.2c5,0.5,9.9,1,14.9,1.4c7.6,0.7,15.3,1.4,23,1.9c5.8,0.4,11.7,0.8,17.6,1.2
				c36.8,2.3,73.7,3,110.7,2.6"/>
			<path id="XMLID_63_" class="st2" d="M366.2,240.2c-15.2-1.5-33.9-3.7-53.6-6.7"/>
			<path id="XMLID_62_" class="st2" d="M312.6,233.5c-30.7-4.7-63.9-11.5-90.2-20.8"/>
			<path id="XMLID_61_" class="st2" d="M222.4,212.8c-0.4-0.2-0.9-0.3-1.3-0.5c-2.6-0.9-5.1-1.9-7.5-2.9"/>
			<path id="XMLID_60_" class="st2" d="M201.6,204c0.7,0.4,1.5,0.7,2.3,1.1c3.1,1.5,6.3,2.9,9.8,4.3"/>
			<polyline id="XMLID_59_" class="st2" points="847.8,149.4 847.7,152.5 846.8,174.7 			"/>
		</g>
	</g>
</g>
</svg>
