<?xml version="1.0" encoding="utf-8"?>
<!-- Generator: Adobe Illustrator 19.0.0, SVG Export Plug-In . SVG Version: 6.00 Build 0)  -->
<svg version="1.1" id="Make2D::visible::lines::Default"
	 xmlns="http://www.w3.org/2000/svg" xmlns:xlink="http://www.w3.org/1999/xlink" x="0px" y="0px" viewBox="0 0 1024 768"
	 style="enable-background:new 0 0 1024 768;" xml:space="preserve">
<style type="text/css">
	.st0{fill:#EAE5E1;}
	.st1{fill:#8C8C8C;}
	.st2{fill:none;stroke:#8C8C8C;stroke-linecap:round;stroke-linejoin:round;}
</style>
<g id="XMLID_1_">
	<g>
		<path class="st0" d="M685.5,257.4l-6.1,290.4l-7.1-3.8l5.7-285.4C680.5,258.2,683,257.8,685.5,257.4z"/>
		<polygon class="st0" points="647.2,262.6 641.1,643.7 627.1,646.1 632.5,264 		"/>
		<polygon class="st0" points="441,270.2 443.7,523.1 431.3,524.8 428.2,271.4 428.2,271.4 		"/>
		<path class="st0" d="M279.4,242.4l11.5,365.4l-5.5-4.4l-11.7-363.5c1,0.6,2.1,1,3.2,1.4L279.4,242.4z"/>
		<path class="st0" d="M685.5,257.4c-2.5,0.4-5,0.8-7.5,1.2c-10.2,1.5-20.5,2.8-30.8,3.9v0.1l-14.7,1.4c-36,3.3-71.9,5-107.9,5.3
			c-21.2,0.2-42.5-0.1-63.8-0.9c-2-0.1-4-0.1-6-0.2c-41.2-1.6-135.3-7.5-175.3-25.8l-2.5-1.1l-3.2-1.4v0c-4.3-2.4-7.6-6.4-9-11.2
			l-0.5-14.4l0.1,0c0.6,2.9,3,5.3,5.8,7.3c3.7,2.7,7.8,4.5,12,6.1c6.1,2.4,12.3,4.2,18.6,5.9c68.4,17.7,186.3,20.1,255.3,18.1
			c42.8-1.3,85.2-3.9,127.7-10.5c17.5-2.7,34.7-5.8,51.6-11.4c5.4-1.8,10.7-3.8,15.7-6.7c3.1-1.8,6-3.6,7.9-6.9
			c0.4-0.7,0.7-1.4,0.9-2.1l-0.5,14.2l0.1,0.1c-0.2,5.3-5.9,8.9-9.5,11c-4.4,2.5-9,4.4-13.8,6.1c-5.6,2-11.2,3.6-16.9,5.1
			c-4.1,1-8.2,2-12.3,2.8C699.8,254.9,692.7,256.2,685.5,257.4z"/>
		<path class="st1" d="M719.2,250.6l-7.4,292.2l-32.4,5l6.1-290.4c7.2-1.2,14.3-2.5,21.4-4C711,252.5,715.1,251.6,719.2,250.6z"/>
		<polygon class="st1" points="428.2,271.4 431.3,524.8 416.3,515.6 412.8,272.8 412.8,272.8 428.2,271.4 		"/>
		<path class="st1" d="M632.5,264l-5.4,382.1l-20.5-12.7l3.7-332.9l-85.7-31.2C560.6,269,596.5,267.3,632.5,264z"/>
		<path class="st1" d="M441,270.2l-12.8,1.2l-15.4,1.4l-92.4,8.4l8.5,320.8l-38,5.8l-11.5-365.4c40,18.3,134.1,24.2,175.3,25.8
			c2,0.1,4,0.1,6,0.2L441,270.2z"/>
		<path class="st1" d="M759.8,214.1c-0.2,0.7-0.5,1.4-0.9,2.1c-1.9,3.3-4.8,5.1-7.9,6.9c-5,2.9-10.3,4.9-15.7,6.7
			c-16.9,5.6-34.1,8.7-51.6,11.4c-42.5,6.6-84.9,9.2-127.7,10.5c-69,2-186.9-0.4-255.3-18.1c-6.3-1.7-12.5-3.5-18.6-5.9
			c-4.2-1.6-8.3-3.4-12-6.1c-2.8-2-5.3-4.5-5.8-7.3c-0.4-1.9,0.1-3.9,1.7-6.1c2.4-3.1,5.6-4.9,9-6.7c5.2-2.7,10.6-4.7,16.1-6.4
			c16.2-5.1,32.6-8,49.2-10.6c42.5-6.6,85-9.2,127.8-10.5c69-2.1,186.8,0.3,255.2,18c9.3,2.4,20.7,5.7,29.2,10.9
			C756.3,205.4,761,209.3,759.8,214.1z"/>
	</g>
	<g>
		<path class="st2" d="M279.4,242.4c40,18.3,134.1,24.2,175.3,25.8c2,0.1,4,0.1,6,0.2c21.3,0.8,42.6,1.1,63.8,0.9
			c36-0.3,71.9-2,107.9-5.3"/>
		<path class="st2" d="M647.2,262.5c10.3-1.1,20.6-2.4,30.8-3.9c2.5-0.4,5-0.8,7.5-1.2c7.2-1.2,14.3-2.5,21.4-4
			c4.1-0.9,8.2-1.8,12.3-2.8c5.7-1.4,11.3-3.1,16.9-5.1c4.8-1.7,9.4-3.6,13.8-6.1c3.6-2.1,9.3-5.7,9.5-11"/>
		<line class="st2" x1="632.5" y1="264" x2="627.1" y2="646.1"/>
		<line class="st2" x1="627.1" y1="646.1" x2="641.1" y2="643.7"/>
		<line class="st2" x1="647.2" y1="262.6" x2="641.1" y2="643.7"/>
		<line class="st2" x1="632.5" y1="264" x2="647.2" y2="262.6"/>
		<line class="st2" x1="627.1" y1="646.1" x2="606.6" y2="633.4"/>
		<line class="st2" x1="606.6" y1="633.4" x2="610.3" y2="300.5"/>
		<polyline class="st2" points="610.3,300.5 524.6,269.3 524.3,269.2 		"/>
		<line class="st2" x1="428.2" y1="271.4" x2="431.3" y2="524.8"/>
		<line class="st2" x1="431.3" y1="524.8" x2="443.7" y2="523.1"/>
		<polyline class="st2" points="441,270.2 441,270.2 443.7,523.1 		"/>
		<line class="st2" x1="431.3" y1="524.8" x2="416.3" y2="515.6"/>
		<line class="st2" x1="416.3" y1="515.6" x2="412.8" y2="272.8"/>
		<line class="st2" x1="273.7" y1="239.9" x2="274.5" y2="239.9"/>
		<polyline class="st2" points="279.4,242.4 276.9,241.3 273.7,239.9 		"/>
		<polyline class="st2" points="461,268.4 460.8,268.4 441,270.2 428.2,271.4 412.8,272.8 320.4,281.2 		"/>
		<line class="st2" x1="320.4" y1="281.2" x2="328.9" y2="602"/>
		<line class="st2" x1="328.9" y1="602" x2="290.9" y2="607.8"/>
		<line class="st2" x1="290.9" y1="607.8" x2="285.4" y2="603.4"/>
		<line class="st2" x1="290.9" y1="607.8" x2="279.4" y2="242.4"/>
		<polyline class="st2" points="285.4,603.4 273.7,239.9 273.7,239.9 		"/>
		<polyline class="st2" points="678,258.5 678,258.6 672.3,544 		"/>
		<line class="st2" x1="672.3" y1="544" x2="679.4" y2="547.8"/>
		<polyline class="st2" points="685.5,257.3 685.5,257.4 679.4,547.8 		"/>
		<line class="st2" x1="679.4" y1="547.8" x2="711.8" y2="542.8"/>
		<polyline class="st2" points="711.8,542.8 719.2,250.6 719.2,250.5 		"/>
		<path class="st2" d="M264.7,228.7c1.4,4.9,4.7,8.9,9,11.2c1,0.6,2.1,1,3.2,1.4c0.2,0.1,0.4,0.1,0.6,0.2"/>
		<path class="st2" d="M759.8,214.1c1.2-4.8-3.5-8.7-7.3-11.2c-8.5-5.2-19.9-8.5-29.2-10.9c-68.4-17.7-186.2-20.1-255.2-18
			c-42.8,1.3-85.3,3.9-127.8,10.5c-16.6,2.6-33,5.5-49.2,10.6c-5.5,1.7-10.9,3.7-16.1,6.4c-3.4,1.8-6.6,3.6-9,6.7
			c-1.7,2.2-2.1,4.2-1.7,6.1c0.6,2.9,3,5.3,5.8,7.3c3.7,2.7,7.8,4.5,12,6.1c6.1,2.4,12.3,4.2,18.6,5.9
			c68.4,17.7,186.3,20.1,255.3,18.1c42.8-1.3,85.2-3.9,127.7-10.5c17.5-2.7,34.7-5.8,51.6-11.4c5.4-1.8,10.7-3.8,15.7-6.7
			c3.1-1.8,6-3.6,7.9-6.9C759.3,215.5,759.6,214.8,759.8,214.1z"/>
		<line class="st2" x1="264.7" y1="228.7" x2="264.2" y2="214.3"/>
		<polyline class="st2" points="759.8,213.3 759.8,214.1 759.3,228.3 		"/>
	</g>
</g>
</svg>
