<?xml version="1.0" encoding="utf-8"?>
<!-- Generator: Adobe Illustrator 19.0.0, SVG Export Plug-In . SVG Version: 6.00 Build 0)  -->
<svg version="1.1" xmlns="http://www.w3.org/2000/svg" xmlns:xlink="http://www.w3.org/1999/xlink" x="0px" y="0px"
	 viewBox="0 0 1024 768" style="enable-background:new 0 0 1024 768;" xml:space="preserve">
<style type="text/css">
	.st0{fill:none;stroke:#000000;stroke-miterlimit:10;}
</style>
<g id="Default">
	<polyline class="st0" points="5228.6,14709.3 5214.9,14705.7 5211,14537 5210.7,14524.2 5206.1,14328.8 5205.8,14315.6 
		5201,14114.1 5200.7,14100.5 5399.7,14055.6 5407.3,14053.9 5421,14055.4 5416.6,14451.7 5418,14621.3 	"/>
	<polyline class="st0" points="5417.7,14584 5418,14621.3 5228.6,14709.3 5224.8,14540.1 5215.3,14116 5215,14102.3 5200.7,14100.5 
			"/>
	<polyline class="st0" points="11736.2,10301.1 11735.9,10267.2 11736.2,10301.1 	"/>
	<polyline class="st0" points="11736.2,10301.1 11735.9,10267.2 11736.2,10301.1 	"/>
	<polyline class="st0" points="11736.2,10301.1 11735.9,10267.2 11736.2,10301.1 	"/>
	<line class="st0" x1="7626.8" y1="10553" x2="7622.1" y2="10307.5"/>
	<polyline class="st0" points="7890.2,10307.9 7889.9,10322.2 7886.2,10508.2 7891.4,10510.8 7913.3,10507 7917.8,10316.2 
		7918.7,10278.6 	"/>
	<polyline class="st0" points="7631.1,10556.1 7626.5,10309.4 7622.1,10307.5 7622.6,10307.4 7773.7,10291.5 7913.3,10276.9 
		7918.7,10278.5 7778.8,10293.3 7773.7,10291.5 	"/>
	<polyline class="st0" points="7626.5,10309.4 7778.8,10293.3 7778.7,10320.5 	"/>
	<polyline class="st0" points="7656.4,10551.7 7653.2,10334.8 7718.6,10327.4 7778.7,10320.5 7895.6,10307.2 7895.4,10321.3 
		7891.4,10510.8 	"/>
	<polyline class="st0" points="9733.4,10309.4 9885.6,10293.3 9885.6,10320.5 9959.1,10348.7 9955.9,10572.3 9970.9,10581.1 
		9975.2,10325.2 9984.8,10324.1 9894.4,10292.3 	"/>
	<polyline class="st0" points="11760.7,14621.3 11760.5,14592.1 11760.7,14621.3 11571.3,14709.3 11557.7,14705.7 11553.7,14537 
		11553.4,14524.2 11548.8,14328.8 11548.5,14315.6 11543.8,14114.1 11543.4,14100.5 11742.4,14055.6 11543.4,14100.5 
		11557.7,14102.3 	"/>
	<polyline class="st0" points="11553.9,14544.8 11553.3,14545 11553.9,14545.2 	"/>
	<polyline class="st0" points="9997.1,10307.9 9996.8,10322.2 9993.1,10508.2 9998.3,10510.8 10002.2,10321.3 10002.5,10307.2 
		9952.9,10312.9 	"/>
	<polyline class="st0" points="9998.3,10510.8 10020.2,10507 10024.7,10316.2 10025.6,10278.6 	"/>
	<polyline class="st0" points="9970.9,10581.1 9980.2,10579.3 9984.8,10324.1 	"/>
	<polyline class="st0" points="9738,10556.1 9733.7,10553 9728.9,10307.5 	"/>
	<polyline class="st0" points="10199.9,14584.1 10200.2,14613.3 10199.9,14584.1 	"/>
	<polyline class="st0" points="11034.5,14618.4 10198.3,14451.7 10012.6,14528.7 	"/>
	<polyline class="st0" points="9755.6,10332.7 9760.1,10334.8 9763.3,10551.7 9738,10556.1 9733.4,10309.4 9728.9,10307.5 
		9729.5,10307.4 9880.6,10291.5 	"/>
	<polyline class="st0" points="9887.2,10321.2 9885.6,10320.5 9825.4,10327.4 9760.1,10334.8 	"/>
	<polyline class="st0" points="9885.6,10293.3 9887.3,10293.9 9975.2,10325.2 	"/>
	<polygon class="st0" points="9880.6,10291.5 9885.6,10293.3 10025.6,10278.5 10020.1,10276.9 	"/>
	<polyline class="st0" points="8655.9,14584.1 8656.1,14613.3 8655.9,14584.1 	"/>
	<line class="st0" x1="5648.5" y1="10291.5" x2="5653.6" y2="10293.3"/>
	<polyline class="st0" points="9490.4,14618.4 8654.3,14451.7 8468.6,14528.7 	"/>
	<line class="st0" x1="5653.6" y1="10293.3" x2="5653.5" y2="10320.5"/>
	<line class="st0" x1="5501.3" y1="10309.4" x2="5653.6" y2="10293.3"/>
	<polyline class="st0" points="10010.7,14701.2 9997.1,14697.6 9993.1,14528.9 9992.8,14516.1 9988.2,14320.8 9987.9,14307.5 
		9983.2,14106 9982.9,14092.4 10181.8,14047.5 10189.4,14045.8 10203.2,14047.4 10200.9,14249.8 	"/>
	<line class="st0" x1="5496.9" y1="10307.5" x2="5497.4" y2="10307.4"/>
	<line class="st0" x1="5497.4" y1="10307.4" x2="5648.5" y2="10291.5"/>
	<line class="st0" x1="5501.3" y1="10309.4" x2="5496.9" y2="10307.5"/>
	<line class="st0" x1="11762.8" y1="14143.4" x2="11761.5" y2="14257.9"/>
	<line class="st0" x1="5653.5" y1="10320.5" x2="5593.4" y2="10327.4"/>
	<line class="st0" x1="5593.4" y1="10327.4" x2="5528" y2="10334.8"/>
	<line class="st0" x1="5528" y1="10334.8" x2="5531.2" y2="10551.7"/>
	<line class="st0" x1="5505.9" y1="10556.1" x2="5501.3" y2="10309.4"/>
	<line class="st0" x1="5501.6" y1="10553" x2="5496.9" y2="10307.5"/>
	<polyline class="st0" points="11736.2,10301.1 11735.9,10267.2 11736.2,10301.1 	"/>
	<polyline class="st0" points="11748,10327.5 11748.9,10495.6 11748,10327.5 	"/>
	<polyline class="st0" points="11760.3,14367.1 11759.3,14451.7 11759.4,14459.9 	"/>
	<line class="st0" x1="-761.4" y1="789.6" x2="-764.2" y2="644.1"/>
	<polyline class="st0" points="10199.7,14359.1 10198.8,14443.7 10198.8,14451.8 	"/>
	<polyline class="st0" points="11809.2,10320.5 11749.1,10327.4 11809.2,10320.5 	"/>
	<polyline class="st0" points="11809.2,10320.5 11749.1,10327.4 11809.2,10320.5 	"/>
	<polygon class="st0" points="11748.9,10495.6 11748,10327.5 11748.9,10495.6 11737.5,10488.9 11736.4,10328.8 11737.5,10488.9 
		11748.9,10495.6 11757.3,10494.2 11756.6,10327.9 11757.3,10494.2 	"/>
	<polyline class="st0" points="11748,10327.5 11748.9,10495.6 11748,10327.5 	"/>
	<polyline class="st0" points="11809.2,10320.5 11749.1,10327.4 11809.2,10320.5 	"/>
	<polyline class="st0" points="11748,10327.5 11748.9,10495.6 11748,10327.5 	"/>
	<polygon class="st0" points="11804.3,10291.5 11735.9,10267.2 11804.3,10291.5 11809.3,10293.3 11809.2,10320.5 11809.3,10293.3 	
		"/>
	<polyline class="st0" points="11809.2,10320.5 11749.1,10327.4 11809.2,10320.5 	"/>
	<polyline class="st0" points="11748,10327.5 11748.9,10495.6 11748,10327.5 	"/>
	<polyline class="st0" points="11809.2,10320.5 11749.1,10327.4 11809.2,10320.5 	"/>
	<polyline class="st0" points="11833.1,10329.7 11810.9,10321.2 11833.1,10329.7 	"/>
	<polyline class="st0" points="11833.1,10329.7 11810.9,10321.2 11833.1,10329.7 	"/>
	<rect x="-1237.3" y="13947.7" class="st0" width="1440" height="864"/>
	<rect x="-1237.3" y="13011.7" class="st0" width="1440" height="864"/>
	<rect x="-1237.3" y="12003.7" class="st0" width="1440" height="864"/>
	<rect x="346.7" y="12147.7" class="st0" width="1440" height="2664"/>
	<rect x="-4189.3" y="12003.7" class="st0" width="2664" height="864"/>
	<rect x="-4189.3" y="13011.7" class="st0" width="2664" height="864"/>
	<rect x="-4189.3" y="13947.7" class="st0" width="2664" height="864"/>
	<rect x="-4333.3" y="11499.7" class="st0" width="6912" height="3456"/>
	<polyline class="st0" points="13840.1,10510.8 13861.9,10507 13866.3,10323.5 	"/>
	<polyline class="st0" points="13838.3,10337.6 13834.9,10508.2 13840.1,10510.8 13843.7,10334.8 	"/>
	<polyline class="st0" points="13812.7,10581.1 13821.9,10579.3 13826.2,10343.6 	"/>
	<polyline class="st0" points="13779.3,10340.4 13800.9,10348.7 13797.6,10572.3 13812.7,10581.1 13816.6,10344.1 	"/>
	<polygon class="st0" points="13674.7,10330.1 13675.4,10494.2 13667,10495.6 13666.1,10329.3 13667,10495.6 13655.6,10488.9 
		13654.4,10328.8 13655.6,10488.9 13667,10495.6 13675.4,10494.2 	"/>
	<polygon class="st0" points="13674.7,10330.1 13675.4,10494.2 13667,10495.6 13655.6,10488.9 13654.4,10328.8 13655.6,10488.9 
		13667,10495.6 13675.4,10494.2 	"/>
	<polygon class="st0" points="13674.7,10330.1 13675.4,10494.2 13667,10495.6 13655.6,10488.9 13654.4,10328.8 13655.6,10488.9 
		13654.4,10328.8 13655.6,10488.9 13654.4,10328.8 13655.6,10488.9 13667,10495.6 13675.4,10494.2 	"/>
	<polygon class="st0" points="13674.7,10330.1 13675.4,10494.2 13667,10495.6 13655.6,10488.9 13667,10495.6 13675.4,10494.2 	"/>
	<polygon class="st0" points="13674.7,10330.1 13675.4,10494.2 13667,10495.6 13655.6,10488.9 13667,10495.6 13675.4,10494.2 	"/>
	<polyline class="st0" points="13657.7,10328.4 13601.9,10334.8 13605.1,10551.7 13579.7,10556.1 13575.4,10320.3 	"/>
	<polyline class="st0" points="13666.1,10329.3 13667,10495.6 13666.1,10329.3 	"/>
	<polyline class="st0" points="13666.1,10329.3 13667,10495.6 13666.1,10329.3 	"/>
	<polyline class="st0" points="13666.1,10329.3 13667,10495.6 13666.1,10329.3 	"/>
	<polyline class="st0" points="13666.1,10329.3 13667,10495.6 13666.1,10329.3 	"/>
	<polyline class="st0" points="11744.6,10266.4 11820.1,10293 11744.6,10266.4 	"/>
	<polyline class="st0" points="13579.7,10556.1 13575.4,10553 13570.9,10319.9 	"/>
	<polygon class="st0" points="11809.3,10293.3 11811,10293.9 11809.3,10293.3 11809.2,10320.5 	"/>
	<polygon class="st0" points="11809.3,10293.3 11809.2,10320.5 11809.3,10293.3 11811,10293.9 	"/>
	<polyline class="st0" points="13940.5,11303.2 13662.5,11284.2 13487.4,11327 13487.8,11337.8 13823.8,11370.9 13940.1,11312.8 
		13940.5,11303.2 13824,11358.6 13823.8,11370.9 	"/>
	<polyline class="st0" points="13940.5,10277.1 13662.5,10258.1 13487.4,10300.9 13487.8,10311.7 13823.8,10344.8 13940.1,10286.7 
		13940.5,10277.1 13824,10332.5 13823.8,10344.8 	"/>
	<polyline class="st0" points="11744.6,10266.4 11820.1,10293 11744.6,10266.4 	"/>
	<polygon class="st0" points="11809.3,10293.3 11809.2,10320.5 11809.3,10293.3 11811,10293.9 	"/>
	<polyline class="st0" points="11744.6,10266.4 11820.1,10293 11744.6,10266.4 	"/>
	<polygon class="st0" points="11737.5,10488.9 11736.4,10328.8 11737.5,10488.9 11736.4,10328.8 11737.5,10488.9 11736.4,10328.8 
		11737.5,10488.9 11748.9,10495.6 11757.3,10494.2 11756.6,10327.9 11757.3,10494.2 11748.9,10495.6 11737.5,10488.9 
		11748.9,10495.6 11757.3,10494.2 11756.6,10327.9 11757.3,10494.2 11748.9,10495.6 11737.5,10488.9 11748.9,10495.6 
		11757.3,10494.2 11756.6,10327.9 11757.3,10494.2 11748.9,10495.6 	"/>
	<polyline class="st0" points="11735.9,10267.2 11804.3,10291.5 11735.9,10267.2 	"/>
	<polygon class="st0" points="11737.5,10488.9 11736.4,10328.8 11737.5,10488.9 11748.9,10495.6 11757.3,10494.2 11756.6,10327.9 
		11757.3,10494.2 11748.9,10495.6 	"/>
	<polyline class="st0" points="11744.6,10266.4 11820.1,10293 11744.6,10266.4 	"/>
	<polyline class="st0" points="11661.7,10556.1 11657.3,10553 11652.6,10307.5 	"/>
	<polyline class="st0" points="11894.6,10581.1 11903.9,10579.3 11908.5,10324.1 	"/>
	<polyline class="st0" points="11922,10510.8 11943.8,10507 11948.4,10316.2 11949.3,10278.6 	"/>
	<polyline class="st0" points="11920.8,10307.9 11920.5,10322.2 11916.8,10508.2 11922,10510.8 11925.9,10321.3 11926.2,10307.2 
		11876.6,10312.9 	"/>
	<polyline class="st0" points="11657.1,10309.4 11809.3,10293.3 11809.2,10320.5 11882.8,10348.7 11879.6,10572.3 11894.6,10581.1 
		11898.9,10325.2 11908.5,10324.1 11818,10292.3 	"/>
	<polyline class="st0" points="11753.6,10299.2 11809.3,10293.3 11811,10293.9 11898.9,10325.2 	"/>
	<polyline class="st0" points="11810.9,10321.2 11809.2,10320.5 11810.9,10321.2 11809.2,10320.5 11810.9,10321.2 11809.2,10320.5 
		11810.9,10321.2 11809.2,10320.5 11810.9,10321.2 11809.2,10320.5 11810.9,10321.2 11809.2,10320.5 11749.1,10327.4 
		11683.8,10334.8 11687,10551.7 11661.7,10556.1 11657.1,10309.4 11652.6,10307.5 11653.2,10307.4 11804.3,10291.5 11735.9,10267.2 
		11744.6,10266.4 11820.1,10293 11744.6,10266.4 	"/>
	<polyline class="st0" points="11735.9,10267.2 11804.3,10291.5 11809.3,10293.3 11811,10293.9 11809.3,10293.3 11809.2,10320.5 
		11809.3,10293.3 11811,10293.9 11809.3,10293.3 11804.3,10291.5 11809.3,10293.3 11804.3,10291.5 11735.9,10267.2 11804.3,10291.5 
		11809.3,10293.3 11804.3,10291.5 11735.9,10267.2 11804.3,10291.5 11809.3,10293.3 11804.3,10291.5 11809.3,10293.3 
		11949.3,10278.5 11943.8,10276.9 11813.4,10290.6 	"/>
	<line class="st0" x1="13845.8" y1="7989" x2="13845.8" y2="7989"/>
	<polyline class="st0" points="13819.3,8191.7 13841.1,8187.9 13845.5,8003.3 	"/>
	<path class="st0" d="M13545,7985.2c29.4,13.6,89.3,18.3,119.9,19.7c39,1.7,83.1,0.7,121.9-3.8c-38.8,4.6-82.9,5.5-121.9,3.8
		C13634.3,8003.5,13574.4,7998.8,13545,7985.2z"/>
	<path class="st0" d="M13545,7985.2c29.4,13.6,89.3,18.3,119.9,19.7c39,1.7,83.1,0.7,121.9-3.8c-38.8,4.6-82.9,5.5-121.9,3.8
		C13634.3,8003.5,13574.4,7998.8,13545,7985.2z"/>
	<line class="st0" x1="16063.6" y1="7903.4" x2="16063.9" y2="7917.8"/>
	<line class="st0" x1="16398.9" y1="7904.8" x2="16398.4" y2="7917.5"/>
	<path class="st0" d="M16371.2,7886.4c16,5.3,25.2,11.5,27.7,18.4"/>
	<path class="st0" d="M13531.5,7972.3c0.1,6,9.6,10.9,13.5,12.9c29.4,13.6,89.3,18.3,119.9,19.7c39,1.7,83.1,0.7,121.9-3.8
		c3.2-0.4,6.4-0.8,9.6-1.2c12.9-1.8,25.7-4,38.3-7.4c6.3-1.7,12.5-3.6,18.5-6.4c4.2-1.9,13.4-6.5,13.6-12.8
		c-2.5-6.9-11.8-13.1-27.7-18.4c-43.4-13.1-112.9-15.9-157.1-15.1c-26.4,0.5-52.7,2-78.9,5.6c-13.1,1.8-26.1,4-38.9,7.4
		c-8.3,2.2-16.3,4.6-23.9,9c-3.4,2-8.6,5.3-8.8,10.2c0.1,4.7,0.2,9.5,0.3,14.2c0.1,5,5.6,8.9,9,10.9c1.5,0.9,2.9,1.7,4.5,2.4
		c-1.5-0.7-3-1.5-4.5-2.4c1.5,0.9,2.9,1.7,4.5,2.4c21.1,10.1,58.7,15.3,81,17.6c27.7,2.8,55.3,3.8,83.1,3.6
		c27.8-0.3,55.4-1.8,83.1-5.5c13.8-1.9,27.4-4.2,40.8-7.8c8.3-2.3,17.9-5.3,25.4-10.1c3.5-2.2,8.3-6,7.6-11.2
		c0.7,5.2-4.1,8.9-7.6,11.2c-7.4,4.8-17,7.8-25.3,10.1c-13.5,3.7-27.1,6-40.8,7.8c-27.6,3.7-55.2,5.2-83.1,5.5
		c-27.8,0.3-55.5-0.8-83.2-3.6c-22.4-2.3-59.9-7.4-81-17.6c21.1,10.1,58.7,15.3,81,17.6c27.7,2.8,55.3,3.8,83.1,3.6
		c27.8-0.3,55.4-1.8,83.1-5.5c13.8-1.9,27.4-4.2,40.8-7.8c8.3-2.3,17.9-5.3,25.4-10.1c3.5-2.2,8.3-6,7.6-11.2"/>
	<polyline class="st0" points="13599.8,8013.6 13581,8015.7 13584.2,8232.6 13558.9,8237 13554.6,8003.1 	"/>
	<polyline class="st0" points="13558.9,8237 13554.6,8234 13550.1,8001.5 	"/>
	<path class="st0" d="M13531.8,7985.8c0,5.1,5.5,9.1,9,11.1C13537.3,7994.9,13531.8,7990.9,13531.8,7985.8z"/>
	<path class="st0" d="M13531.8,7985.8c0,5.1,5.5,9.1,9,11.1C13537.3,7994.9,13531.8,7990.9,13531.8,7985.8z"/>
	<line class="st0" x1="-758.8" y1="791.4" x2="-761.5" y2="645.2"/>
	<path class="st0" d="M13540.8,7997c1.5,0.9,2.9,1.7,4.5,2.4C13543.8,7998.6,13542.3,7997.8,13540.8,7997z"/>
	<line class="st0" x1="13673.7" y1="8005.2" x2="13673.7" y2="8005.2"/>
	<line class="st0" x1="-758.8" y1="791.4" x2="-761.4" y2="789.6"/>
	<polyline class="st0" points="13673.7,8005.2 13673.7,8005.2 13673.7,8005.2 	"/>
	<line class="st0" x1="-743.8" y1="788.8" x2="-758.8" y2="791.4"/>
	<polyline class="st0" points="13673.7,8005.2 13673.7,8005.2 13673.7,8005.2 	"/>
	<line class="st0" x1="-745.7" y1="660.2" x2="-743.8" y2="788.8"/>
	<polyline class="st0" points="13673.7,8005.2 13673.7,8005.2 13673.7,8005.2 	"/>
	<line class="st0" x1="-707" y1="655.8" x2="-745.7" y2="660.2"/>
	<polyline class="st0" points="13673.7,8005.2 13673.7,8005.2 13673.7,8005.2 	"/>
	<line class="st0" x1="-671.4" y1="651.8" x2="-707" y2="655.8"/>
	<polyline class="st0" points="13673.7,8005.2 13673.7,8005.2 13673.7,8005.2 	"/>
	<polyline class="st0" points="13653.9,8019.1 13654.5,8175.2 13646.1,8176.5 13634.7,8169.8 13633.7,8017.6 	"/>
	<polyline class="st0" points="13633.7,8017.6 13634.7,8169.8 13646.1,8176.5 13654.5,8175.2 13653.9,8019.1 	"/>
	<polyline class="st0" points="13653.9,8019.1 13654.5,8175.2 13646.1,8176.5 13634.7,8169.8 13633.7,8017.6 	"/>
	<line class="st0" x1="-761.5" y1="645.2" x2="-764.2" y2="644.1"/>
	<polygon class="st0" points="13653.9,8019.1 13654.5,8175.2 13646.1,8176.5 13634.7,8169.8 13646.1,8176.5 13654.5,8175.2 	"/>
	<line class="st0" x1="-763.9" y1="644" x2="-674.3" y2="634.6"/>
	<polygon class="st0" points="13653.9,8019.1 13654.5,8175.2 13646.1,8176.5 13634.7,8169.8 13646.1,8176.5 13654.5,8175.2 	"/>
	<line class="st0" x1="-764.2" y1="644.1" x2="-763.9" y2="644"/>
	<polyline class="st0" points="13633.7,8017.6 13634.7,8169.8 13646.1,8176.5 13654.5,8175.2 13653.9,8019.1 	"/>
	<line class="st0" x1="-761.5" y1="645.2" x2="-671.3" y2="635.7"/>
	<polyline class="st0" points="13633.7,8017.6 13634.7,8169.8 13633.7,8017.6 	"/>
	<polyline class="st0" points="13633.7,8017.6 13634.7,8169.8 13633.7,8017.6 	"/>
	<line class="st0" x1="-671.3" y1="635.7" x2="-671.4" y2="651.8"/>
	<line class="st0" x1="-674.3" y1="634.6" x2="-671.3" y2="635.7"/>
	<polyline class="st0" points="13645.3,8018.6 13646.1,8176.5 13645.3,8018.6 	"/>
	<polyline class="st0" points="13645.3,8018.6 13646.1,8176.5 13645.3,8018.6 	"/>
	<polyline class="st0" points="13645.3,8018.6 13646.1,8176.5 13645.3,8018.6 	"/>
	<polyline class="st0" points="13653.9,8019.1 13654.5,8175.2 13646.1,8176.5 13645.3,8018.6 	"/>
	<polyline class="st0" points="13633.7,8017.6 13634.7,8169.8 13646.1,8176.5 13654.5,8175.2 13653.9,8019.1 	"/>
	<polyline class="st0" points="13645.3,8018.6 13646.1,8176.5 13634.7,8169.8 13633.7,8017.6 	"/>
	<polyline class="st0" points="13645.3,8018.6 13646.1,8176.5 13645.3,8018.6 	"/>
	<line class="st0" x1="439.2" y1="344.9" x2="436.6" y2="343.1"/>
	<line class="st0" x1="454.2" y1="342.3" x2="439.2" y2="344.9"/>
	<polyline class="st0" points="13752.1,8018.9 13780,8029.6 13776.8,8253.2 13791.8,8262.1 13796,8014.5 	"/>
	<line class="st0" x1="13717" y1="8005.5" x2="13717" y2="8005.5"/>
	<line class="st0" x1="13717" y1="8005.5" x2="13717" y2="8005.5"/>
	<line class="st0" x1="13792.4" y1="8000.3" x2="13792.3" y2="8000.3"/>
	<line class="st0" x1="13805.7" y1="8005" x2="13805.7" y2="8005"/>
	<polyline class="st0" points="13791.8,8262.1 13801.1,8260.3 13805.6,8013 	"/>
	<line class="st0" x1="13823.3" y1="7995.2" x2="13823.3" y2="7995.1"/>
	<polyline class="st0" points="13817.6,8010.8 13814.1,8189.1 13819.3,8191.7 13823,8009.7 	"/>
	<line class="st0" x1="13817.9" y1="7996.3" x2="13817.9" y2="7996.3"/>
	<line class="st0" x1="13831.8" y1="7952.6" x2="13837.2" y2="7954.3"/>
	<polyline class="st0" points="13831.8,7952.6 13837.2,7954.3 13831.8,7952.6 	"/>
	<polyline class="st0" points="13786.8,8001 13796.4,7999.9 13786.8,8001 	"/>
	<polyline class="st0" points="13831.8,7952.6 13837.2,7954.3 13831.8,7952.6 	"/>
	<polyline class="st0" points="13786.8,8001 13796.4,7999.9 13786.8,8001 	"/>
	<path class="st0" d="M13839.1,7954.8c-43.4-13.1-112.9-15.9-157.1-15.1c-26.4,0.5-52.7,2-78.9,5.6c-13.1,1.8-26.1,4-38.9,7.4
		c-8.3,2.2-16.3,4.6-23.9,9c-3.4,2-8.6,5.3-8.8,10.2c0.2-4.9,5.4-8.2,8.8-10.2c7.5-4.4,15.6-6.8,23.9-9c12.8-3.4,25.8-5.6,38.9-7.4
		c26.2-3.5,52.5-5.1,78.9-5.6C13726.1,7939,13795.7,7941.8,13839.1,7954.8z"/>
	<path class="st0" d="M13796.4,7999.8c12.9-1.8,25.7-4,38.3-7.4c6.3-1.7,12.5-3.6,18.5-6.3c4.2-1.9,13.4-6.5,13.6-12.8
		c-0.2,6.3-9.4,10.9-13.6,12.8c-6,2.7-12.1,4.6-18.5,6.3C13822.1,7995.8,13809.3,7998,13796.4,7999.8z"/>
	<path class="st0" d="M13839.1,7954.8c-43.4-13.1-112.9-15.9-157.1-15.1c-26.4,0.5-52.7,2-78.9,5.6c-13.1,1.8-26.1,4-38.9,7.4
		c-8.3,2.2-16.3,4.6-23.9,9c-3.4,2-8.6,5.3-8.8,10.2c0.2-4.9,5.4-8.2,8.8-10.2c7.5-4.4,15.6-6.8,23.9-9c12.8-3.4,25.8-5.6,38.9-7.4
		c26.2-3.5,52.5-5.1,78.9-5.6C13726.1,7939,13795.7,7941.8,13839.1,7954.8z"/>
	<path class="st0" d="M13796.4,7999.8c12.9-1.8,25.7-4,38.3-7.4c6.3-1.7,12.5-3.6,18.5-6.3c4.2-1.9,13.4-6.5,13.6-12.8
		c-0.2,6.3-9.4,10.9-13.6,12.8c-6,2.7-12.1,4.6-18.5,6.3C13822.1,7995.8,13809.3,7998,13796.4,7999.8z"/>
	<path class="st0" d="M13545.3,7999.4c21.1,10.1,58.7,15.3,81,17.6c27.7,2.8,55.3,3.8,83.1,3.6c27.8-0.3,55.4-1.8,83.1-5.5
		c13.8-1.9,27.4-4.2,40.8-7.8c8.3-2.3,17.9-5.3,25.4-10.1c3.5-2.2,8.3-6,7.6-11.2c0.7,5.2-4.1,8.9-7.6,11.2
		c-7.4,4.8-17,7.8-25.3,10.1c-13.5,3.7-27.1,6-40.8,7.8c-27.6,3.7-55.2,5.2-83.1,5.5c-27.8,0.3-55.5-0.8-83.2-3.6
		C13603.9,8014.6,13566.4,8009.5,13545.3,7999.4z"/>
	<line class="st0" x1="13866.8" y1="7973.3" x2="13866.3" y2="7985.9"/>
	<line class="st0" x1="11963.5" y1="9052.2" x2="11963" y2="9064.8"/>
	<path class="st0" d="M11628.5,9064.8c0,5.1,5.5,9.1,9,11.1C11634,9073.8,11628.5,9069.9,11628.5,9064.8z"/>
	<path class="st0" d="M11641.7,9064.1c29.4,13.6,89.3,18.3,119.9,19.7c39,1.7,83.1,0.7,121.9-3.8c-38.8,4.6-82.9,5.5-121.9,3.8
		C11731,9082.4,11671.1,9077.7,11641.7,9064.1z"/>
	<path class="st0" d="M11628.5,9064.8c0,5.1,5.5,9.1,9,11.1C11634,9073.8,11628.5,9069.9,11628.5,9064.8z"/>
	<path class="st0" d="M11642,9078.3c21.1,10.1,58.7,15.3,81,17.6c27.7,2.8,55.3,3.8,83.1,3.6c27.8-0.3,55.4-1.8,83.1-5.5
		c13.8-1.9,27.4-4.2,40.8-7.8c8.3-2.3,17.9-5.3,25.4-10.1c3.5-2.2,8.3-6,7.6-11.2c0.7,5.2-4.1,8.9-7.6,11.2
		c-7.4,4.8-17,7.8-25.3,10.1c-13.5,3.7-27.1,6-40.8,7.8c-27.6,3.7-55.2,5.2-83.1,5.5c-27.8,0.3-55.5-0.8-83.2-3.6
		C11700.6,9093.6,11663.1,9088.4,11642,9078.3z"/>
	<path class="st0" d="M11641.7,9064.1c29.4,13.6,89.3,18.3,119.9,19.7c39,1.7,83.1,0.7,121.9-3.8c-38.8,4.6-82.9,5.5-121.9,3.8
		C11731,9082.4,11671.1,9077.7,11641.7,9064.1z"/>
	<path class="st0" d="M11893.1,9078.7c12.9-1.8,25.7-4,38.3-7.4c6.3-1.7,12.5-3.6,18.5-6.3c4.2-1.9,13.4-6.5,13.6-12.8
		c-0.2,6.3-9.4,10.9-13.6,12.8c-6,2.7-12.1,4.6-18.5,6.3C11918.8,9074.7,11906,9076.9,11893.1,9078.7z"/>
	<path class="st0" d="M11935.8,9033.8c-43.4-13.1-112.9-15.9-157.1-15.1c-26.4,0.5-52.7,2-78.9,5.6c-13.1,1.8-26.1,4-38.9,7.4
		c-8.3,2.2-16.3,4.6-23.9,9c-3.4,2-8.6,5.3-8.8,10.2c0.2-4.9,5.4-8.2,8.8-10.2c7.5-4.4,15.6-6.8,23.9-9c12.8-3.4,25.8-5.6,38.9-7.4
		c26.2-3.5,52.5-5.1,78.9-5.6C11822.8,9017.9,11892.4,9020.7,11935.8,9033.8z"/>
	<path class="st0" d="M11893.1,9078.7c12.9-1.8,25.7-4,38.3-7.4c6.3-1.7,12.5-3.6,18.5-6.3c4.2-1.9,13.4-6.5,13.6-12.8
		c-0.2,6.3-9.4,10.9-13.6,12.8c-6,2.7-12.1,4.6-18.5,6.3C11918.8,9074.7,11906,9076.9,11893.1,9078.7z"/>
	<path class="st0" d="M11935.8,9033.8c-43.4-13.1-112.9-15.9-157.1-15.1c-26.4,0.5-52.7,2-78.9,5.6c-13.1,1.8-26.1,4-38.9,7.4
		c-8.3,2.2-16.3,4.6-23.9,9c-3.4,2-8.6,5.3-8.8,10.2c0.2-4.9,5.4-8.2,8.8-10.2c7.5-4.4,15.6-6.8,23.9-9c12.8-3.4,25.8-5.6,38.9-7.4
		c26.2-3.5,52.5-5.1,78.9-5.6C11822.8,9017.9,11892.4,9020.7,11935.8,9033.8z"/>
	<path class="st0" d="M11637.5,9075.9c1.5,0.9,2.9,1.7,4.5,2.4C11640.5,9077.6,11639,9076.8,11637.5,9075.9z"/>
	<polyline class="st0" points="11883.5,9079.9 11893.1,9078.8 11883.5,9079.9 	"/>
	<polyline class="st0" points="11928.4,9031.6 11933.9,9033.2 11928.4,9031.6 	"/>
	<polyline class="st0" points="11883.5,9079.9 11893.1,9078.8 11883.5,9079.9 	"/>
	<polyline class="st0" points="11928.4,9031.6 11933.9,9033.2 11928.4,9031.6 	"/>
	<path class="st0" d="M11628.2,9051.2c0.1,6,9.6,10.9,13.5,12.9c29.4,13.6,89.3,18.3,119.9,19.7c39,1.7,83.1,0.7,121.9-3.8
		c3.2-0.4,6.4-0.8,9.6-1.2c12.9-1.8,25.7-4,38.3-7.4c6.3-1.7,12.5-3.6,18.5-6.4c4.2-1.9,13.4-6.5,13.6-12.8
		c-2.5-6.9-11.8-13.1-27.7-18.4c-43.4-13.1-112.9-15.9-157.1-15.1c-26.4,0.5-52.7,2-78.9,5.6c-13.1,1.8-26.1,4-38.9,7.4
		c-8.3,2.2-16.3,4.6-23.9,9c-3.4,2-8.6,5.3-8.8,10.2c0.1,4.7,0.2,9.5,0.3,14.2c0.1,5,5.6,8.9,9,10.9c1.5,0.9,2.9,1.7,4.5,2.4
		c-1.5-0.7-3-1.5-4.5-2.4c1.5,0.9,2.9,1.7,4.5,2.4c21.1,10.1,58.7,15.3,81,17.6c27.7,2.8,55.3,3.8,83.1,3.6
		c27.8-0.3,55.4-1.8,83.1-5.5c13.8-1.9,27.4-4.2,40.8-7.8c8.3-2.3,17.9-5.3,25.4-10.1c3.5-2.2,8.3-6,7.6-11.2
		c0.7,5.2-4.1,8.9-7.6,11.2c-7.4,4.8-17,7.8-25.3,10.1c-13.5,3.7-27.1,6-40.8,7.8c-27.6,3.7-55.2,5.2-83.1,5.5
		c-27.8,0.3-55.5-0.8-83.2-3.6c-22.4-2.3-59.9-7.4-81-17.6c21.1,10.1,58.7,15.3,81,17.6c27.7,2.8,55.3,3.8,83.1,3.6
		c27.8-0.3,55.4-1.8,83.1-5.5c13.8-1.9,27.4-4.2,40.8-7.8c8.3-2.3,17.9-5.3,25.4-10.1c3.5-2.2,8.3-6,7.6-11.2"/>
	<line class="st0" x1="11928.4" y1="9031.6" x2="11933.9" y2="9033.2"/>
	<polyline class="st0" points="11735.9,7973 11804.3,7997.4 11809.3,7999.2 11811,7999.8 11809.3,7999.2 11809.2,8026.4 
		11809.3,7999.2 11811,7999.8 11809.3,7999.2 11804.3,7997.4 11809.3,7999.2 11804.3,7997.4 11735.9,7973 11804.3,7997.4 
		11809.3,7999.2 11804.3,7997.4 11735.9,7973 11804.3,7997.4 11809.3,7999.2 11804.3,7997.4 11809.3,7999.2 11949.3,7984.4 
		11943.8,7982.7 11813.4,7996.4 	"/>
	<polyline class="st0" points="11810.9,8027 11809.2,8026.4 11810.9,8027 11809.2,8026.4 11810.9,8027 11809.2,8026.4 11810.9,8027 
		11809.2,8026.4 11810.9,8027 11809.2,8026.4 11810.9,8027 11809.2,8026.4 11749.1,8033.2 11683.8,8040.6 11687,8257.5 
		11661.7,8261.9 11657.1,8015.3 11652.6,8013.3 11653.2,8013.3 11804.3,7997.4 11735.9,7973 11744.6,7972.2 11820.1,7998.8 
		11744.6,7972.2 	"/>
	<polyline class="st0" points="11753.6,8005.1 11809.3,7999.2 11811,7999.8 11898.9,8031.1 	"/>
	<polyline class="st0" points="11657.1,8015.3 11809.3,7999.2 11809.2,8026.4 11882.8,8054.5 11879.6,8278.1 11894.6,8287 
		11898.9,8031.1 11908.5,8029.9 11818,7998.1 	"/>
	<polyline class="st0" points="11920.8,8013.7 11920.5,8028 11916.8,8214 11922,8216.6 11925.9,8027.1 11926.2,8013.1 
		11876.6,8018.7 	"/>
	<polyline class="st0" points="11922,8216.6 11943.8,8212.8 11948.4,8022.1 11949.3,7984.4 	"/>
	<polyline class="st0" points="11894.6,8287 11903.9,8285.2 11908.5,8029.9 	"/>
	<polygon class="st0" points="3534.5,3957.3 3539.5,3959.1 3679.4,3944.3 3674,3942.6 	"/>
	<polyline class="st0" points="11661.7,8261.9 11657.3,8258.9 11652.6,8013.3 	"/>
	<polyline class="st0" points="11744.6,7972.2 11820.1,7998.8 11744.6,7972.2 	"/>
	<polygon class="st0" points="11737.5,8194.7 11736.4,8034.6 11737.5,8194.7 11748.9,8201.4 11757.3,8200.1 11756.6,8033.8 
		11757.3,8200.1 11748.9,8201.4 	"/>
	<polyline class="st0" points="11735.9,7973 11804.3,7997.4 11735.9,7973 	"/>
	<polygon class="st0" points="11737.5,8194.7 11736.4,8034.6 11737.5,8194.7 11736.4,8034.6 11737.5,8194.7 11736.4,8034.6 
		11737.5,8194.7 11748.9,8201.4 11757.3,8200.1 11756.6,8033.8 11757.3,8200.1 11748.9,8201.4 11737.5,8194.7 11748.9,8201.4 
		11757.3,8200.1 11756.6,8033.8 11757.3,8200.1 11748.9,8201.4 11737.5,8194.7 11748.9,8201.4 11757.3,8200.1 11756.6,8033.8 
		11757.3,8200.1 11748.9,8201.4 	"/>
	<polyline class="st0" points="11744.6,7972.2 11820.1,7998.8 11744.6,7972.2 	"/>
	<polygon class="st0" points="11809.3,7999.2 11809.2,8026.4 11809.3,7999.2 11811,7999.8 	"/>
	<polyline class="st0" points="11744.6,7972.2 11820.1,7998.8 11744.6,7972.2 	"/>
	<polygon class="st0" points="11809.3,7999.2 11809.2,8026.4 11809.3,7999.2 11811,7999.8 	"/>
	<polygon class="st0" points="11809.3,7999.2 11811,7999.8 11809.3,7999.2 11809.2,8026.4 	"/>
	<polyline class="st0" points="11744.6,7972.2 11820.1,7998.8 11744.6,7972.2 	"/>
	<polyline class="st0" points="11833.1,8035.5 11810.9,8027 11833.1,8035.5 	"/>
	<polyline class="st0" points="11833.1,8035.5 11810.9,8027 11833.1,8035.5 	"/>
	<polyline class="st0" points="11809.2,8026.4 11749.1,8033.2 11809.2,8026.4 	"/>
	<polyline class="st0" points="11748,8033.3 11748.9,8201.4 11748,8033.3 	"/>
	<polyline class="st0" points="11809.2,8026.4 11749.1,8033.2 11809.2,8026.4 	"/>
	<polygon class="st0" points="11804.3,7997.4 11735.9,7973 11804.3,7997.4 11809.3,7999.2 11809.2,8026.4 11809.3,7999.2 	"/>
	<polyline class="st0" points="11748,8033.3 11748.9,8201.4 11748,8033.3 	"/>
	<polyline class="st0" points="11809.2,8026.4 11749.1,8033.2 11809.2,8026.4 	"/>
	<polyline class="st0" points="11748,8033.3 11748.9,8201.4 11748,8033.3 	"/>
	<polygon class="st0" points="11748.9,8201.4 11748,8033.3 11748.9,8201.4 11737.5,8194.7 11736.4,8034.6 11737.5,8194.7 
		11748.9,8201.4 11757.3,8200.1 11756.6,8033.8 11757.3,8200.1 	"/>
	<polyline class="st0" points="11809.2,8026.4 11749.1,8033.2 11809.2,8026.4 	"/>
	<polyline class="st0" points="11809.2,8026.4 11749.1,8033.2 11809.2,8026.4 	"/>
	<polyline class="st0" points="11748,8033.3 11748.9,8201.4 11748,8033.3 	"/>
	<polyline class="st0" points="11736.2,8006.9 11735.9,7973 11736.2,8006.9 	"/>
	<polyline class="st0" points="11736.2,8006.9 11735.9,7973 11736.2,8006.9 	"/>
	<polyline class="st0" points="11736.2,8006.9 11735.9,7973 11736.2,8006.9 	"/>
	<polyline class="st0" points="11736.2,8006.9 11735.9,7973 11736.2,8006.9 	"/>
	<polyline class="st0" points="11736.2,8006.9 11735.9,7973 11736.2,8006.9 	"/>
	<line class="st0" x1="436.6" y1="343.1" x2="433.8" y2="197.6"/>
	<polyline class="st0" points="592.7,197.8 592.6,206.3 590.4,316.5 593.5,318.1 606.4,315.8 609.1,202.7 609.6,180.4 	"/>
	<polyline class="st0" points="439.2,344.9 436.5,198.7 433.8,197.6 434.1,197.5 523.7,188.1 606.4,179.4 609.6,180.4 526.7,189.2 
		523.7,188.1 	"/>
	<polyline class="st0" points="436.5,198.7 526.7,189.2 526.6,205.3 	"/>
	<polyline class="st0" points="454.2,342.3 452.3,213.7 491,209.3 526.6,205.3 595.9,197.4 595.8,205.7 593.5,318.1 	"/>
	<polyline class="st0" points="3387.2,3975.2 3539.5,3959.1 3539.4,3986.3 3612.9,4014.4 3609.7,4238.1 3624.7,4246.9 3629,3991 
		3638.6,3989.9 3548.2,3958 	"/>
	<polyline class="st0" points="3650.9,3973.6 3650.7,3988 3647,4173.9 3652.2,4176.6 3656.1,3987 3656.4,3973 3606.7,3978.6 	"/>
	<polyline class="st0" points="3652.2,4176.6 3674,4172.8 3678.5,3982 3679.4,3944.3 	"/>
	<polyline class="st0" points="3624.7,4246.9 3634,4245.1 3638.6,3989.9 	"/>
	<path class="st0" d="M15101.4,7979.7c16,5.3,25.2,11.5,27.7,18.4"/>
	<line class="st0" x1="15129.1" y1="7998.2" x2="15128.6" y2="8010.8"/>
	<line class="st0" x1="14793.8" y1="7996.7" x2="14794.1" y2="8011.1"/>
	<polyline class="st0" points="3391.8,4221.9 3387.5,4218.8 3382.8,3973.2 	"/>
	<polyline class="st0" points="14812.3,8261.9 14808,8258.9 14803.3,8013.3 	"/>
	<polyline class="st0" points="15045.2,8287 15054.5,8285.2 15059.1,8029.9 	"/>
	<polyline class="st0" points="3409.4,3998.5 3413.9,4000.5 3417.1,4217.5 3391.8,4221.9 3387.2,3975.2 3382.8,3973.2 
		3383.3,3973.2 3534.5,3957.3 	"/>
	<polyline class="st0" points="3541.1,3986.9 3539.4,3986.3 3479.3,3993.1 3413.9,4000.5 	"/>
	<polyline class="st0" points="15072.7,8216.6 15094.5,8212.8 15099,8022.1 15099.9,7984.4 	"/>
	<polyline class="st0" points="15071.4,8013.7 15071.1,8028 15067.5,8214 15072.7,8216.6 15076.6,8027.1 15076.9,8013.1 
		15027.2,8018.7 	"/>
	<polyline class="st0" points="14807.7,8015.3 14960,7999.2 14959.9,8026.4 15033.4,8054.5 15030.2,8278.1 15045.2,8287 
		15049.5,8031.1 15059.1,8029.9 14968.7,7998.1 	"/>
	<polyline class="st0" points="14895.2,7972.2 14970.8,7998.8 14895.2,7972.2 	"/>
	<polygon class="st0" points="14888.1,8194.7 14887,8034.6 14888.1,8194.7 14899.5,8201.4 14907.9,8200.1 14907.3,8033.8 
		14907.9,8200.1 14899.5,8201.4 	"/>
	<polyline class="st0" points="14886.6,7973 14955,7997.4 14886.6,7973 	"/>
	<polyline class="st0" points="3539.5,3959.1 3541.2,3959.7 3629,3991 	"/>
	<polygon class="st0" points="14888.1,8194.7 14887,8034.6 14888.1,8194.7 14887,8034.6 14888.1,8194.7 14887,8034.6 
		14888.1,8194.7 14899.5,8201.4 14907.9,8200.1 14907.3,8033.8 14907.9,8200.1 14899.5,8201.4 14888.1,8194.7 14899.5,8201.4 
		14907.9,8200.1 14907.3,8033.8 14907.9,8200.1 14899.5,8201.4 14888.1,8194.7 14899.5,8201.4 14907.9,8200.1 14907.3,8033.8 
		14907.9,8200.1 14899.5,8201.4 	"/>
	<polyline class="st0" points="14895.2,7972.2 14970.8,7998.8 14895.2,7972.2 	"/>
	<polyline class="st0" points="14886.8,8006.9 14886.6,7973 14886.8,8006.9 	"/>
	<polyline class="st0" points="14886.8,8006.9 14886.6,7973 14886.8,8006.9 	"/>
	<polyline class="st0" points="14886.8,8006.9 14886.6,7973 14886.8,8006.9 	"/>
	<polyline class="st0" points="14886.8,8006.9 14886.6,7973 14886.8,8006.9 	"/>
	<polyline class="st0" points="14886.8,8006.9 14886.6,7973 14886.8,8006.9 	"/>
	<polygon class="st0" points="14960,7999.2 14959.9,8026.4 14960,7999.2 14961.7,7999.8 	"/>
	<polyline class="st0" points="14895.2,7972.2 14970.8,7998.8 14895.2,7972.2 	"/>
	<polyline class="st0" points="14898.6,8033.3 14899.5,8201.4 14898.6,8033.3 	"/>
	<polygon class="st0" points="14960,7999.2 14959.9,8026.4 14960,7999.2 14961.7,7999.8 	"/>
	<polygon class="st0" points="14960,7999.2 14961.7,7999.8 14960,7999.2 14959.9,8026.4 	"/>
	<polyline class="st0" points="14959.9,8026.4 14899.8,8033.2 14959.9,8026.4 	"/>
	<polyline class="st0" points="14959.9,8026.4 14899.8,8033.2 14959.9,8026.4 	"/>
	<polyline class="st0" points="14895.2,7972.2 14970.8,7998.8 14895.2,7972.2 	"/>
	<polygon class="st0" points="14899.5,8201.4 14898.6,8033.3 14899.5,8201.4 14888.1,8194.7 14887,8034.6 14888.1,8194.7 
		14899.5,8201.4 14907.9,8200.1 14907.3,8033.8 14907.9,8200.1 	"/>
	<polyline class="st0" points="14898.6,8033.3 14899.5,8201.4 14898.6,8033.3 	"/>
	<polyline class="st0" points="14983.7,8035.5 14961.6,8027 14983.7,8035.5 	"/>
	<polyline class="st0" points="14983.7,8035.5 14961.6,8027 14983.7,8035.5 	"/>
	<polyline class="st0" points="14904.2,8005.1 14960,7999.2 14961.7,7999.8 15049.5,8031.1 	"/>
	<polyline class="st0" points="14961.6,8027 14959.9,8026.4 14961.6,8027 14959.9,8026.4 14961.6,8027 14959.9,8026.4 14961.6,8027 
		14959.9,8026.4 14961.6,8027 14959.9,8026.4 14961.6,8027 14959.9,8026.4 14899.8,8033.2 14834.4,8040.6 14837.6,8257.5 
		14812.3,8261.9 14807.7,8015.3 14803.3,8013.3 14803.8,8013.3 14955,7997.4 14886.6,7973 14895.2,7972.2 14970.8,7998.8 
		14895.2,7972.2 	"/>
	<polyline class="st0" points="14959.9,8026.4 14899.8,8033.2 14959.9,8026.4 	"/>
	<polyline class="st0" points="14898.6,8033.3 14899.5,8201.4 14898.6,8033.3 	"/>
	<polyline class="st0" points="14959.9,8026.4 14899.8,8033.2 14959.9,8026.4 	"/>
	<polygon class="st0" points="14955,7997.4 14886.6,7973 14955,7997.4 14960,7999.2 14959.9,8026.4 14960,7999.2 	"/>
	<polyline class="st0" points="14898.6,8033.3 14899.5,8201.4 14898.6,8033.3 	"/>
	<polyline class="st0" points="14959.9,8026.4 14899.8,8033.2 14959.9,8026.4 	"/>
	<polyline class="st0" points="14886.6,7973 14955,7997.4 14960,7999.2 14961.7,7999.8 14960,7999.2 14959.9,8026.4 14960,7999.2 
		14961.7,7999.8 14960,7999.2 14955,7997.4 14960,7999.2 14955,7997.4 14886.6,7973 14955,7997.4 14960,7999.2 14955,7997.4 
		14886.6,7973 14955,7997.4 14960,7999.2 14955,7997.4 14960,7999.2 15099.9,7984.4 15094.5,7982.7 14964,7996.4 	"/>
	<polyline class="st0" points="11736.2,10301.1 11735.9,10267.2 11736.2,10301.1 	"/>
</g>
<g id="Make2D::visible::lines::Default">
	<line class="st0" x1="16077.4" y1="8160.3" x2="16072.7" y2="7914.8"/>
	<line class="st0" x1="16081.7" y1="8163.4" x2="16077.1" y2="7916.8"/>
	<line class="st0" x1="16168.9" y1="8102.9" x2="16177.3" y2="8101.5"/>
	<line class="st0" x1="16081.7" y1="8163.4" x2="16077.4" y2="8160.3"/>
	<line class="st0" x1="16107" y1="8159" x2="16081.7" y2="8163.4"/>
	<line class="st0" x1="16176.7" y1="7935.2" x2="16177.3" y2="8101.5"/>
	<line class="st0" x1="16168.9" y1="8102.9" x2="16157.5" y2="8096.2"/>
	<line class="st0" x1="16103.8" y1="7942.1" x2="16107" y2="8159"/>
	<line class="st0" x1="16157.5" y1="8096.2" x2="16156.4" y2="7936.1"/>
	<line class="st0" x1="16318.9" y1="7932.6" x2="16314.6" y2="8188.5"/>
	<line class="st0" x1="16169.2" y1="7934.7" x2="16103.8" y2="7942.1"/>
	<line class="st0" x1="16314.6" y1="8188.5" x2="16323.9" y2="8186.7"/>
	<line class="st0" x1="16077.1" y1="7916.8" x2="16072.7" y2="7914.8"/>
	<line class="st0" x1="16328.5" y1="7931.4" x2="16323.9" y2="8186.7"/>
	<line class="st0" x1="16072.7" y1="7914.8" x2="16073.2" y2="7914.7"/>
	<line class="st0" x1="16318.9" y1="7932.6" x2="16328.5" y2="7931.4"/>
	<line class="st0" x1="16314.6" y1="8188.5" x2="16299.6" y2="8179.6"/>
	<line class="st0" x1="16363.9" y1="8114.3" x2="16368.4" y2="7923.5"/>
	<line class="st0" x1="16299.6" y1="8179.6" x2="16302.8" y2="7956"/>
	<line class="st0" x1="16342.1" y1="8118.1" x2="16363.9" y2="8114.3"/>
	<rect x="15340.6" y="7584" class="st0" width="1728" height="869.7"/>
	<rect x="15340.6" y="7584" class="st0" width="1728" height="869.7"/>
	<line class="st0" x1="16346" y1="7928.6" x2="16342.1" y2="8118.1"/>
	<path class="st0" d="M14807.3,8010.1c30,13.9,93.6,18.2,124.7,19.3c40.6,1.4,86.2,0.1,126.7-4.7"/>
	<line class="st0" x1="16336.8" y1="8115.5" x2="16342.1" y2="8118.1"/>
	<line class="st0" x1="16340.5" y1="7929.5" x2="16336.8" y2="8115.5"/>
	<path class="st0" d="M14807.6,8024.3c21.5,10.3,60,15.5,82.7,17.7c28.3,2.8,56.5,3.8,84.9,3.4c28.4-0.4,56.5-2.1,84.7-6.2
		c14.1-2.1,27.9-4.6,41.5-8.8c5.3-1.6,10.4-3.5,15.3-6c3.4-1.7,6.6-3.6,9.2-6.5c4-4.5,3.5-8.9-0.6-13"/>
	<path class="st0" d="M14807.6,8024.3c21.5,10.3,60,15.5,82.7,17.7c28.3,2.8,56.5,3.8,84.9,3.4c28.4-0.4,56.5-2.1,84.7-6.2
		c14.1-2.1,27.9-4.6,41.5-8.8c5.3-1.6,10.4-3.5,15.3-6c3.4-1.7,6.6-3.6,9.2-6.5c4-4.5,3.5-8.9-0.6-13"/>
	<path class="st0" d="M14807.6,8024.3c21.5,10.3,60,15.5,82.7,17.7c28.3,2.8,56.5,3.8,84.9,3.4c28.4-0.4,56.5-2.1,84.7-6.2
		c14.1-2.1,27.9-4.6,41.5-8.8c5.3-1.6,10.4-3.5,15.3-6c3.4-1.7,6.6-3.6,9.2-6.5c4-4.5,3.5-8.9-0.6-13"/>
	<path class="st0" d="M14807.6,8024.3c21.5,10.3,60,15.5,82.7,17.7c28.3,2.8,56.5,3.8,84.9,3.4c28.4-0.4,56.5-2.1,84.7-6.2
		c14.1-2.1,27.9-4.6,41.5-8.8c5.3-1.6,10.4-3.5,15.3-6c3.4-1.7,6.6-3.6,9.2-6.5c4-4.5,3.5-8.9-0.6-13"/>
	<path class="st0" d="M14807.6,8024.3c21.5,10.3,60,15.5,82.7,17.7c28.3,2.8,56.5,3.8,84.9,3.4c28.4-0.4,56.5-2.1,84.7-6.2
		c14.1-2.1,27.9-4.6,41.5-8.8c5.3-1.6,10.4-3.5,15.3-6c3.4-1.7,6.6-3.6,9.2-6.5c4-4.5,3.5-8.9-0.6-13"/>
	<line class="st0" x1="16340.5" y1="7929.5" x2="16336.8" y2="8115.5"/>
	<line class="st0" x1="16336.8" y1="8115.5" x2="16342.1" y2="8118.1"/>
	<path class="st0" d="M14807.3,8010.1c29.4,13.6,89.3,18.3,119.9,19.7c39,1.7,83.1,0.7,121.9-3.8"/>
	<line class="st0" x1="16346" y1="7928.6" x2="16342.1" y2="8118.1"/>
	<path class="st0" d="M15058.7,8024.7c12.9-1.8,25.7-4,38.3-7.4c6.3-1.7,12.5-3.6,18.5-6.3c4.2-1.9,13.4-6.5,13.6-12.8"/>
	<path class="st0" d="M15058.7,8024.7c12.9-1.8,25.7-4,38.3-7.4c6.3-1.7,12.5-3.6,18.5-6.3c4.2-1.9,13.4-6.5,13.6-12.8"/>
	<rect x="15340.6" y="7584" class="st0" width="1728" height="869.7"/>
	<rect x="15340.6" y="7584" class="st0" width="1728" height="869.7"/>
	<line class="st0" x1="16342.1" y1="8118.1" x2="16363.9" y2="8114.3"/>
	<path class="st0" d="M15058.7,8024.7c12.9-1.8,25.7-4,38.3-7.4c6.3-1.7,12.5-3.6,18.5-6.3c4.2-1.9,13.4-6.5,13.6-12.8"/>
	<line class="st0" x1="16363.9" y1="8114.3" x2="16368.4" y2="7923.5"/>
	<path class="st0" d="M15058.7,8024.7c12.9-1.8,25.7-4,38.3-7.4c6.3-1.7,12.5-3.6,18.5-6.3c4.2-1.9,13.4-6.5,13.6-12.8"/>
	<path class="st0" d="M15058.7,8024.7c12.9-1.8,25.7-4,38.3-7.4c6.3-1.7,12.5-3.6,18.5-6.3c4.2-1.9,13.4-6.5,13.6-12.8"/>
	<line class="st0" x1="16072.7" y1="7914.8" x2="16073.2" y2="7914.7"/>
	<line class="st0" x1="16299.6" y1="8179.6" x2="16302.8" y2="7956"/>
	<path class="st0" d="M14807.3,8010.1c29.4,13.6,89.3,18.3,119.9,19.7c39,1.7,83.1,0.7,121.9-3.8"/>
	<line class="st0" x1="16077.1" y1="7916.8" x2="16072.7" y2="7914.8"/>
	<line class="st0" x1="16314.6" y1="8188.5" x2="16299.6" y2="8179.6"/>
	<line class="st0" x1="16318.9" y1="7932.6" x2="16328.5" y2="7931.4"/>
	<line class="st0" x1="16328.5" y1="7931.4" x2="16323.9" y2="8186.7"/>
	<line class="st0" x1="16314.6" y1="8188.5" x2="16323.9" y2="8186.7"/>
	<line class="st0" x1="16318.9" y1="7932.6" x2="16314.6" y2="8188.5"/>
	<path class="st0" d="M14807.3,8010.1c29.4,13.6,89.3,18.3,119.9,19.7c39,1.7,83.1,0.7,121.9-3.8"/>
	<line class="st0" x1="16169.2" y1="7934.7" x2="16103.8" y2="7942.1"/>
	<line class="st0" x1="16157.5" y1="8096.2" x2="16156.4" y2="7936.1"/>
	<line class="st0" x1="14793.8" y1="7997.2" x2="14793.6" y2="7988"/>
	<line class="st0" x1="14793.8" y1="7997.2" x2="14793.6" y2="7988"/>
	<line class="st0" x1="16168.9" y1="8102.9" x2="16157.5" y2="8096.2"/>
	<line class="st0" x1="16176.7" y1="7935.2" x2="16177.3" y2="8101.5"/>
	<line class="st0" x1="16103.8" y1="7942.1" x2="16107" y2="8159"/>
	<line class="st0" x1="16168.9" y1="8102.9" x2="16177.3" y2="8101.5"/>
	<line class="st0" x1="16168" y1="7934.8" x2="16168.9" y2="8102.9"/>
	<line class="st0" x1="14793.8" y1="7997.2" x2="14793.6" y2="7988"/>
	<line class="st0" x1="14793.8" y1="7997.2" x2="14793.6" y2="7988"/>
	<line class="st0" x1="16107" y1="8159" x2="16081.7" y2="8163.4"/>
	<line class="st0" x1="16081.7" y1="8163.4" x2="16077.4" y2="8160.3"/>
	<line class="st0" x1="14793.8" y1="7997.2" x2="14793.6" y2="7988"/>
	<line class="st0" x1="16081.7" y1="8163.4" x2="16077.1" y2="7916.8"/>
	<line class="st0" x1="16077.4" y1="8160.3" x2="16072.7" y2="7914.8"/>
	<path class="st0" d="M14797.5,8003.9c-7.4,7.4-1.6,13.6,5.6,17.9"/>
	<path class="st0" d="M14793.8,7997.2c0.1,5.8,8,10.2,11.9,12.1"/>
	<path class="st0" d="M14793.8,7997.2c0.1,5.8,8,10.2,11.9,12.1"/>
	<path class="st0" d="M14793.8,7997.2c0.1,5.8,8,10.2,11.9,12.1"/>
	<path class="st0" d="M14793.8,7997.2c0.1,5.8,8,10.2,11.9,12.1"/>
	<line class="st0" x1="16077.4" y1="8160.3" x2="16072.7" y2="7914.8"/>
	<line class="st0" x1="16081.7" y1="8163.4" x2="16077.1" y2="7916.8"/>
	<path class="st0" d="M14793.8,7997.2c0.1,5.8,8,10.2,11.9,12.1"/>
	<line class="st0" x1="16081.7" y1="8163.4" x2="16077.4" y2="8160.3"/>
	<line class="st0" x1="16107" y1="8159" x2="16081.7" y2="8163.4"/>
	<line class="st0" x1="14807.3" y1="8010.1" x2="14802.9" y2="8008.1"/>
	<rect x="10920.6" y="7682.5" class="st0" width="1728" height="869.7"/>
	<line class="st0" x1="16103.8" y1="7942.1" x2="16107" y2="8159"/>
	<rect x="10920.6" y="7682.5" class="st0" width="1728" height="869.7"/>
	<rect x="10920.6" y="7682.5" class="st0" width="1728" height="869.7"/>
	<line class="st0" x1="16169.2" y1="7934.7" x2="16103.8" y2="7942.1"/>
	<rect x="10920.6" y="7682.5" class="st0" width="1728" height="869.7"/>
	<line class="st0" x1="16077.1" y1="7916.8" x2="16072.7" y2="7914.8"/>
	<line class="st0" x1="16168" y1="7934.8" x2="16168.9" y2="8102.9"/>
	<line class="st0" x1="16072.7" y1="7914.8" x2="16073.2" y2="7914.7"/>
	<line class="st0" x1="16168.9" y1="8102.9" x2="16177.3" y2="8101.5"/>
	<rect x="10920.6" y="7682.5" class="st0" width="1728" height="869.7"/>
	<line class="st0" x1="16363.9" y1="8114.3" x2="16368.4" y2="7923.5"/>
	<line class="st0" x1="16176.7" y1="7935.2" x2="16177.3" y2="8101.5"/>
	<line class="st0" x1="16342.1" y1="8118.1" x2="16363.9" y2="8114.3"/>
	<line class="st0" x1="16168.9" y1="8102.9" x2="16157.5" y2="8096.2"/>
	<rect x="10920.6" y="7682.5" class="st0" width="1728" height="869.7"/>
	<line class="st0" x1="16346" y1="7928.6" x2="16342.1" y2="8118.1"/>
	<rect x="10920.6" y="7682.5" class="st0" width="1728" height="869.7"/>
	<line class="st0" x1="16336.8" y1="8115.5" x2="16342.1" y2="8118.1"/>
	<line class="st0" x1="16340.5" y1="7929.5" x2="16336.8" y2="8115.5"/>
	<line class="st0" x1="16157.5" y1="8096.2" x2="16156.4" y2="7936.1"/>
	<rect x="10920.6" y="7682.5" class="st0" width="1728" height="869.7"/>
	<rect x="10920.6" y="7682.5" class="st0" width="1728" height="869.7"/>
	<line class="st0" x1="16318.9" y1="7932.6" x2="16314.6" y2="8188.5"/>
	<line class="st0" x1="16314.6" y1="8188.5" x2="16323.9" y2="8186.7"/>
	<line class="st0" x1="16328.5" y1="7931.4" x2="16323.9" y2="8186.7"/>
	<line class="st0" x1="16318.9" y1="7932.6" x2="16328.5" y2="7931.4"/>
	<line class="st0" x1="16314.6" y1="8188.5" x2="16299.6" y2="8179.6"/>
	<rect x="10920.6" y="7682.5" class="st0" width="1728" height="869.7"/>
	<rect x="10920.6" y="7682.5" class="st0" width="1728" height="869.7"/>
	<line class="st0" x1="16299.6" y1="8179.6" x2="16302.8" y2="7956"/>
	<rect x="15340.6" y="7584" class="st0" width="1728" height="869.7"/>
	<rect x="15340.6" y="7584" class="st0" width="1728" height="869.7"/>
	<rect x="10920.6" y="7682.5" class="st0" width="1728" height="869.7"/>
	<rect x="10920.6" y="7682.5" class="st0" width="1728" height="869.7"/>
	<rect x="10905.2" y="8731.3" class="st0" width="1728" height="869.7"/>
	<rect x="10905.2" y="8731.3" class="st0" width="1728" height="869.7"/>
	<rect x="10905.2" y="8731.3" class="st0" width="1728" height="869.7"/>
	<rect x="10905.2" y="8731.3" class="st0" width="1728" height="869.7"/>
	<line class="st0" x1="16299.6" y1="8179.6" x2="16302.8" y2="7956"/>
	<rect x="10905.2" y="8731.3" class="st0" width="1728" height="869.7"/>
	<rect x="10905.2" y="8731.3" class="st0" width="1728" height="869.7"/>
	<line class="st0" x1="16314.6" y1="8188.5" x2="16299.6" y2="8179.6"/>
	<line class="st0" x1="16318.9" y1="7932.6" x2="16328.5" y2="7931.4"/>
	<line class="st0" x1="16328.5" y1="7931.4" x2="16323.9" y2="8186.7"/>
	<line class="st0" x1="16314.6" y1="8188.5" x2="16323.9" y2="8186.7"/>
	<line class="st0" x1="16318.9" y1="7932.6" x2="16314.6" y2="8188.5"/>
	<rect x="10905.2" y="8731.3" class="st0" width="1728" height="869.7"/>
	<rect x="10905.2" y="8731.3" class="st0" width="1728" height="869.7"/>
	<line class="st0" x1="16157.5" y1="8096.2" x2="16156.4" y2="7936.1"/>
	<rect x="10905.2" y="8731.3" class="st0" width="1728" height="869.7"/>
	<rect x="10905.2" y="8731.3" class="st0" width="1728" height="869.7"/>
	<line class="st0" x1="16168.9" y1="8102.9" x2="16157.5" y2="8096.2"/>
	<line class="st0" x1="16176.7" y1="7935.2" x2="16177.3" y2="8101.5"/>
	<rect x="12830.6" y="7682.5" class="st0" width="1728" height="869.7"/>
	<line class="st0" x1="16168.9" y1="8102.9" x2="16177.3" y2="8101.5"/>
	<line class="st0" x1="16168" y1="7934.8" x2="16168.9" y2="8102.9"/>
	<rect x="10920.6" y="7682.5" class="st0" width="1728" height="869.7"/>
	<rect x="10920.6" y="7682.5" class="st0" width="1728" height="869.7"/>
	<rect x="10920.6" y="7682.5" class="st0" width="1728" height="869.7"/>
	<rect x="10920.6" y="7682.5" class="st0" width="1728" height="869.7"/>
	<rect x="15340.6" y="7584" class="st0" width="1728" height="869.7"/>
	<path class="st0" d="M16067.3,7910.6c-7.4,7.4-1.6,13.6,5.6,17.9"/>
	<path class="st0" d="M16063.6,7903.9c0.1,5.8,8,10.2,11.9,12.1"/>
	<path class="st0" d="M16063.6,7903.9c0.1,5.8,8,10.2,11.9,12.1"/>
	<path class="st0" d="M16063.6,7903.9c0.1,5.8,8,10.2,11.9,12.1"/>
	<path class="st0" d="M16067.3,7910.6c-7.4,7.4-1.6,13.6,5.6,17.9"/>
	<path class="st0" d="M16063.6,7903.9c0.1,5.8,8,10.2,11.9,12.1"/>
	<path class="st0" d="M16063.6,7903.9c0.1,5.8,8,10.2,11.9,12.1"/>
	<line class="st0" x1="16077.4" y1="8160.3" x2="16072.7" y2="7914.8"/>
	<line class="st0" x1="16081.7" y1="8163.4" x2="16077.1" y2="7916.8"/>
	<path class="st0" d="M16067.3,7910.6c-7.4,7.4-1.6,13.6,5.6,17.9"/>
	<line class="st0" x1="16081.7" y1="8163.4" x2="16077.4" y2="8160.3"/>
	<line class="st0" x1="16107" y1="8159" x2="16081.7" y2="8163.4"/>
	<path class="st0" d="M16067.3,7910.6c-7.4,7.4-1.6,13.6,5.6,17.9"/>
	<path class="st0" d="M16067.3,7910.6c-7.4,7.4-1.6,13.6,5.6,17.9"/>
	<line class="st0" x1="16103.8" y1="7942.1" x2="16107" y2="8159"/>
	<line class="st0" x1="16063.6" y1="7903.9" x2="16063.4" y2="7894.7"/>
	<line class="st0" x1="16063.6" y1="7903.9" x2="16063.4" y2="7894.7"/>
	<line class="st0" x1="16169.2" y1="7934.7" x2="16103.8" y2="7942.1"/>
	<line class="st0" x1="16077.1" y1="7916.8" x2="16072.7" y2="7914.8"/>
	<rect x="-1198" y="448" class="st0" width="1024" height="515.4"/>
	<line class="st0" x1="16072.7" y1="7914.8" x2="16073.2" y2="7914.7"/>
	<line class="st0" x1="16063.6" y1="7903.9" x2="16063.4" y2="7894.7"/>
	<line class="st0" x1="16063.6" y1="7903.9" x2="16063.4" y2="7894.7"/>
	<line class="st0" x1="16363.9" y1="8114.3" x2="16368.4" y2="7923.5"/>
	<line class="st0" x1="16063.6" y1="7903.9" x2="16063.4" y2="7894.7"/>
	<line class="st0" x1="16342.1" y1="8118.1" x2="16363.9" y2="8114.3"/>
	<rect x="10920.6" y="7682.5" class="st0" width="1728" height="869.7"/>
	<rect x="10920.6" y="7682.5" class="st0" width="1728" height="869.7"/>
	<line class="st0" x1="16346" y1="7928.6" x2="16342.1" y2="8118.1"/>
	<rect x="2650.7" y="3642.4" class="st0" width="1728" height="869.7"/>
	<line class="st0" x1="16336.8" y1="8115.5" x2="16342.1" y2="8118.1"/>
	<line class="st0" x1="16340.5" y1="7929.5" x2="16336.8" y2="8115.5"/>
	<rect x="2650.7" y="3642.4" class="st0" width="1728" height="869.7"/>
	<line class="st0" x1="16302.8" y1="7956" x2="16253.1" y2="7937"/>
	<line class="st0" x1="16302.8" y1="7956" x2="16253.1" y2="7937"/>
	<line class="st0" x1="16302.8" y1="7956" x2="16253.1" y2="7937"/>
	<line class="st0" x1="16302.8" y1="7956" x2="16253.1" y2="7937"/>
	<line class="st0" x1="16302.8" y1="7956" x2="16253.1" y2="7937"/>
	<path class="st0" d="M16077.1,7916.7c29.4,13.6,89.3,18.3,119.9,19.7c39,1.7,83.1,0.7,121.9-3.8"/>
	<path class="st0" d="M16077.1,7916.7c29.4,13.6,89.3,18.3,119.9,19.7c39,1.7,83.1,0.7,121.9-3.8"/>
	<rect x="15340.6" y="7584" class="st0" width="1728" height="869.7"/>
	<rect x="15340.6" y="7584" class="st0" width="1728" height="869.7"/>
	<path class="st0" d="M16077.1,7916.7c29.4,13.6,89.3,18.3,119.9,19.7c39,1.7,83.1,0.7,121.9-3.8"/>
	<path class="st0" d="M16077.1,7916.7c29.4,13.6,89.3,18.3,119.9,19.7c39,1.7,83.1,0.7,121.9-3.8"/>
	<path class="st0" d="M16328.5,7931.3c12.9-1.8,25.7-4,38.3-7.4c6.3-1.7,12.5-3.6,18.5-6.3c4.2-1.9,13.4-6.5,13.6-12.8"/>
	<path class="st0" d="M16328.5,7931.3c12.9-1.8,25.7-4,38.3-7.4c6.3-1.7,12.5-3.6,18.5-6.3c4.2-1.9,13.4-6.5,13.6-12.8"/>
	<path class="st0" d="M16328.5,7931.3c12.9-1.8,25.7-4,38.3-7.4c6.3-1.7,12.5-3.6,18.5-6.3c4.2-1.9,13.4-6.5,13.6-12.8"/>
	<path class="st0" d="M16328.5,7931.3c12.9-1.8,25.7-4,38.3-7.4c6.3-1.7,12.5-3.6,18.5-6.3c4.2-1.9,13.4-6.5,13.6-12.8"/>
	<path class="st0" d="M16328.5,7931.3c12.9-1.8,25.7-4,38.3-7.4c6.3-1.7,12.5-3.6,18.5-6.3c4.2-1.9,13.4-6.5,13.6-12.8"/>
	<path class="st0" d="M16077.1,7916.7c29.4,13.6,89.3,18.3,119.9,19.7c39,1.7,83.1,0.7,121.9-3.8"/>
	<path class="st0" d="M16077.4,7930.9c21.5,10.3,60,15.5,82.7,17.7c28.3,2.8,56.5,3.8,84.9,3.4c28.4-0.4,56.5-2.1,84.7-6.2
		c14.1-2,27.9-4.6,41.5-8.8c5.2-1.6,10.4-3.5,15.3-6c3.4-1.7,6.6-3.6,9.2-6.5c4-4.5,3.5-8.9-0.6-13"/>
	<path class="st0" d="M16077.4,7930.9c21.5,10.3,60,15.5,82.7,17.7c28.3,2.8,56.5,3.8,84.9,3.4c28.4-0.4,56.5-2.1,84.7-6.2
		c14.1-2,27.9-4.6,41.5-8.8c5.2-1.6,10.4-3.5,15.3-6c3.4-1.7,6.6-3.6,9.2-6.5c4-4.5,3.5-8.9-0.6-13"/>
	<path class="st0" d="M16077.4,7930.9c21.5,10.3,60,15.5,82.7,17.7c28.3,2.8,56.5,3.8,84.9,3.4c28.4-0.4,56.5-2.1,84.7-6.2
		c14.1-2,27.9-4.6,41.5-8.8c5.2-1.6,10.4-3.5,15.3-6c3.4-1.7,6.6-3.6,9.2-6.5c4-4.5,3.5-8.9-0.6-13"/>
	<line class="st0" x1="16340.5" y1="7929.5" x2="16336.8" y2="8115.5"/>
	<line class="st0" x1="16336.8" y1="8115.5" x2="16342.1" y2="8118.1"/>
	<path class="st0" d="M16077.4,7930.9c21.5,10.3,60,15.5,82.7,17.7c28.3,2.8,56.5,3.8,84.9,3.4c28.4-0.4,56.5-2.1,84.7-6.2
		c14.1-2,27.9-4.6,41.5-8.8c5.2-1.6,10.4-3.5,15.3-6c3.4-1.7,6.6-3.6,9.2-6.5c4-4.5,3.5-8.9-0.6-13"/>
	<line class="st0" x1="16346" y1="7928.6" x2="16342.1" y2="8118.1"/>
	<path class="st0" d="M16077.4,7930.9c21.5,10.3,60,15.5,82.7,17.7c28.3,2.8,56.5,3.8,84.9,3.4c28.4-0.4,56.5-2.1,84.7-6.2
		c14.1-2,27.9-4.6,41.5-8.8c5.2-1.6,10.4-3.5,15.3-6c3.4-1.7,6.6-3.6,9.2-6.5c4-4.5,3.5-8.9-0.6-13"/>
	<rect x="12838.6" y="9976.6" class="st0" width="1728" height="869.7"/>
	<line class="st0" x1="16342.1" y1="8118.1" x2="16363.9" y2="8114.3"/>
	<rect x="12838.6" y="9976.6" class="st0" width="1728" height="869.7"/>
	<line class="st0" x1="16363.9" y1="8114.3" x2="16368.4" y2="7923.5"/>
	<rect x="12838.6" y="9976.6" class="st0" width="1728" height="869.7"/>
	<rect x="12838.6" y="9976.6" class="st0" width="1728" height="869.7"/>
	<line class="st0" x1="16072.7" y1="7914.8" x2="16073.2" y2="7914.7"/>
	<rect x="12838.6" y="9976.6" class="st0" width="1728" height="869.7"/>
	<line class="st0" x1="16077.1" y1="7916.8" x2="16072.7" y2="7914.8"/>
	<rect x="12838.6" y="9976.6" class="st0" width="1728" height="869.7"/>
	<line class="st0" x1="16169.2" y1="7934.7" x2="16103.8" y2="7942.1"/>
	<rect x="12838.6" y="9976.6" class="st0" width="1728" height="869.7"/>
	<rect x="12838.6" y="9976.6" class="st0" width="1728" height="869.7"/>
	<line class="st0" x1="16103.8" y1="7942.1" x2="16107" y2="8159"/>
	<rect x="12838.6" y="9976.6" class="st0" width="1728" height="869.7"/>
	<rect x="12838.6" y="9976.6" class="st0" width="1728" height="869.7"/>
	<line class="st0" x1="16107" y1="8159" x2="16081.7" y2="8163.4"/>
	<line class="st0" x1="16081.7" y1="8163.4" x2="16077.4" y2="8160.3"/>
	<rect x="12838.6" y="9976.6" class="st0" width="1728" height="869.7"/>
	<line class="st0" x1="16081.7" y1="8163.4" x2="16077.1" y2="7916.8"/>
	<line class="st0" x1="16077.4" y1="8160.3" x2="16072.7" y2="7914.8"/>
	<rect x="12838.6" y="9976.6" class="st0" width="1728" height="869.7"/>
	<rect x="12838.6" y="9976.6" class="st0" width="1728" height="869.7"/>
	<rect x="12838.6" y="9976.6" class="st0" width="1728" height="869.7"/>
	<rect x="12838.6" y="9976.6" class="st0" width="1728" height="869.7"/>
	<rect x="12838.6" y="9976.6" class="st0" width="1728" height="869.7"/>
	<rect x="12838.6" y="9976.6" class="st0" width="1728" height="869.7"/>
	<rect x="12838.6" y="9976.6" class="st0" width="1728" height="869.7"/>
	<rect x="12838.6" y="9976.6" class="st0" width="1728" height="869.7"/>
	<line class="st0" x1="13487.4" y1="11327" x2="13824" y2="11358.6"/>
	<rect x="12838.6" y="11002.8" class="st0" width="1728" height="869.7"/>
	<line class="st0" x1="13487.4" y1="10300.9" x2="13824" y2="10332.5"/>
	<line class="st0" x1="8453.1" y1="14094.3" x2="8659.1" y2="14047.4"/>
	<line class="st0" x1="16168" y1="7934.8" x2="16168.9" y2="8102.9"/>
	<line class="st0" x1="16168.9" y1="8102.9" x2="16177.3" y2="8101.5"/>
	<line class="st0" x1="9997.1" y1="14094.3" x2="10203.2" y2="14047.4"/>
	<line class="st0" x1="16176.7" y1="7935.2" x2="16177.3" y2="8101.5"/>
	<line class="st0" x1="16168.9" y1="8102.9" x2="16157.5" y2="8096.2"/>
	<line class="st0" x1="8448.3" y1="14524.2" x2="8449" y2="14524.3"/>
	<line class="st0" x1="9503.9" y1="14761.2" x2="9503.9" y2="14761.2"/>
	<line class="st0" x1="16157.5" y1="8096.2" x2="16156.4" y2="7936.1"/>
	<line class="st0" x1="9503" y1="14776.7" x2="9503" y2="14776.7"/>
	<line class="st0" x1="9641.4" y1="14663" x2="9641.5" y2="14663"/>
	<line class="st0" x1="16318.9" y1="7932.6" x2="16314.6" y2="8188.5"/>
	<line class="st0" x1="16314.6" y1="8188.5" x2="16323.9" y2="8186.7"/>
	<line class="st0" x1="16328.5" y1="7931.4" x2="16323.9" y2="8186.7"/>
	<line class="st0" x1="16318.9" y1="7932.6" x2="16328.5" y2="7931.4"/>
	<line class="st0" x1="16314.6" y1="8188.5" x2="16299.6" y2="8179.6"/>
	<line class="st0" x1="9992.4" y1="14524.2" x2="9993" y2="14524.3"/>
	<line class="st0" x1="10007.1" y1="14540.3" x2="11026.2" y2="14772"/>
	<line class="st0" x1="16299.6" y1="8179.6" x2="16302.8" y2="7956"/>
	<line class="st0" x1="11047.1" y1="14776.7" x2="11047.1" y2="14776.7"/>
	<line class="st0" x1="10006.8" y1="14527.4" x2="11027" y2="14756.5"/>
	<line class="st0" x1="11048" y1="14761.2" x2="11048" y2="14761.2"/>
	<line class="st0" x1="10002.3" y1="14323.3" x2="11040.3" y2="14511.5"/>
	<line class="st0" x1="11562.8" y1="14331.3" x2="12600.9" y2="14519.6"/>
	<line class="st0" x1="12608.5" y1="14769.2" x2="12608.5" y2="14769.2"/>
	<rect x="15340.6" y="7584" class="st0" width="1728" height="869.7"/>
	<rect x="4764.8" y="9976.6" class="st0" width="1728" height="869.7"/>
	<line class="st0" x1="11567.4" y1="14535.4" x2="12587.6" y2="14764.5"/>
	<line class="st0" x1="12607.7" y1="14784.8" x2="12607.7" y2="14784.8"/>
	<line class="st0" x1="11567.7" y1="14548.3" x2="12586.8" y2="14780"/>
	<line class="st0" x1="11553" y1="14532.2" x2="11553.6" y2="14532.3"/>
	<line class="st0" x1="12747.5" y1="14648.7" x2="12777.6" y2="14190.7"/>
	<polyline class="st0" points="11187,14640.7 11217,14182.6 11195.8,14181.1 11054.5,14249.3 	"/>
	<polyline class="st0" points="8466.7,14701.2 8453,14697.6 8449.1,14528.9 8448.8,14516.1 8444.2,14320.8 8443.9,14307.5 
		8439.1,14106 8438.8,14092.4 	"/>
	<polyline class="st0" points="9982.9,14092.4 9997.1,14094.3 9997.4,14107.9 10006.9,14532.1 10010.7,14701.2 10200.2,14613.3 	"/>
	<polyline class="st0" points="11036.2,14972.6 11015.6,14967.1 11026.6,14763.9 11054.5,14249.3 11076.3,14252.2 11048.4,14753.1 
		11047.5,14768.7 11036.2,14972.6 11173.7,14842.3 11186,14654.9 11187,14640.7 11217,14182.6 11076.3,14252.2 	"/>
	<polyline class="st0" points="8656.1,14613.3 8466.7,14701.2 8463.1,14540.3 9482.1,14772 	"/>
	<polyline class="st0" points="8654.8,14451.8 8654.7,14443.7 8659.1,14047.4 8645.4,14045.8 8637.8,14047.5 8438.8,14092.4 
		8453.1,14094.3 8453.4,14107.9 8462.8,14527.4 9483,14756.5 	"/>
	<rect x="4764.8" y="9976.6" class="st0" width="1728" height="869.7"/>
	<rect x="6890" y="9976.6" class="st0" width="1728" height="869.7"/>
	<rect x="6890" y="9976.6" class="st0" width="1728" height="869.7"/>
	<rect x="8996.9" y="9976.6" class="st0" width="1728" height="869.7"/>
	<rect x="8996.9" y="9976.6" class="st0" width="1728" height="869.7"/>
	<rect x="10920.6" y="9976.6" class="st0" width="1728" height="869.7"/>
	<rect x="10920.6" y="9976.6" class="st0" width="1728" height="869.7"/>
	<rect x="10920.6" y="9976.6" class="st0" width="1728" height="869.7"/>
	<rect x="10920.6" y="9976.6" class="st0" width="1728" height="869.7"/>
	<rect x="10920.6" y="9976.6" class="st0" width="1728" height="869.7"/>
	<rect x="10920.6" y="9976.6" class="st0" width="1728" height="869.7"/>
	<rect x="10920.6" y="9976.6" class="st0" width="1728" height="869.7"/>
	<rect x="10920.6" y="9976.6" class="st0" width="1728" height="869.7"/>
	<rect x="10920.6" y="9976.6" class="st0" width="1728" height="869.7"/>
	<rect x="10920.6" y="9976.6" class="st0" width="1728" height="869.7"/>
	<rect x="10920.6" y="9976.6" class="st0" width="1728" height="869.7"/>
	<rect x="10920.6" y="9976.6" class="st0" width="1728" height="869.7"/>
	<rect x="10920.6" y="9976.6" class="st0" width="1728" height="869.7"/>
	<rect x="10920.6" y="9976.6" class="st0" width="1728" height="869.7"/>
	<rect x="10920.6" y="9976.6" class="st0" width="1728" height="869.7"/>
	<rect x="10920.6" y="9976.6" class="st0" width="1728" height="869.7"/>
	<rect x="10920.6" y="9976.6" class="st0" width="1728" height="869.7"/>
	<rect x="10920.6" y="9976.6" class="st0" width="1728" height="869.7"/>
	<rect x="10920.6" y="9976.6" class="st0" width="1728" height="869.7"/>
	<polyline class="st0" points="8449.3,14536.7 8448.6,14537 8449.3,14537.1 	"/>
	<polyline class="st0" points="9673,14182.6 9642.9,14640.7 9642,14654.9 9629.7,14842.3 9492.1,14972.6 9503.5,14768.7 
		9504.4,14753.1 9532.3,14252.2 	"/>
	<polyline class="st0" points="9492.1,14972.6 9471.6,14967.1 9482.6,14763.9 9510.4,14249.3 9651.8,14181.1 9673,14182.6 
		9532.3,14252.2 9510.4,14249.3 	"/>
	<polyline class="st0" points="9993.3,14536.7 9992.7,14537 9993.3,14537.1 	"/>
	<polyline class="st0" points="11047.2,14383.6 10197.2,14249.2 10002,14310 11041.2,14495.4 	"/>
	<polyline class="st0" points="12637.8,14243.5 12778.6,14175.4 11742.4,14055.6 	"/>
	<polyline class="st0" points="12607.8,14391.6 11757.8,14257.3 11562.5,14318.1 12601.7,14503.5 	"/>
	<polyline class="st0" points="12595.1,14626.5 11758.9,14459.8 11573.2,14536.8 	"/>
	<polyline class="st0" points="11571.3,14709.3 11567.5,14540.1 11558,14116 12615.1,14257.3 12636.9,14260.3 12777.6,14190.7 
		12778.6,14175.4 	"/>
	<polyline class="st0" points="11543.8,14114.1 11543.4,14100.5 12637.8,14243.5 12636.9,14260.3 12777.6,14190.7 12747.5,14648.7 
		12746.6,14663 12734.3,14850.4 12596.7,14980.6 12576.2,14975.2 12587.2,14772 12615.1,14257.3 12636.9,14260.3 12609,14761.2 
		12608.1,14776.7 12596.7,14980.6 	"/>
	<line class="st0" x1="6964.4" y1="14575.9" x2="6964.7" y2="14613.3"/>
	<line class="st0" x1="6761.7" y1="14094.3" x2="6967.7" y2="14047.4"/>
	<polyline class="st0" points="7950.6,14654.9 7951.5,14640.7 7981.6,14182.6 	"/>
	<polyline class="st0" points="7800.7,14972.6 7812.1,14768.7 7813,14753.1 7840.9,14252.2 	"/>
	<polyline class="st0" points="7955.8,14650.6 7950.6,14654.9 7938.3,14842.3 7800.7,14972.6 7780.2,14967.1 7791.2,14763.9 
		7819,14249.3 7960.4,14181.1 7981.6,14182.6 7840.9,14252.2 7819,14249.3 	"/>
	<polyline class="st0" points="6775.3,14701.2 6771.5,14532.1 6762,14107.9 6761.7,14094.3 6747.4,14092.4 6946.4,14047.5 
		6954,14045.8 6967.7,14047.4 6963.3,14443.7 6964.7,14613.3 6775.3,14701.2 6761.6,14697.6 6757.7,14528.9 6757.4,14516.1 
		6752.8,14320.8 6752.5,14307.5 6747.7,14106 6747.4,14092.4 	"/>
	<line class="st0" x1="5215" y1="14102.3" x2="5421" y2="14055.4"/>
	<line class="st0" x1="16168" y1="7934.8" x2="16168.9" y2="8102.9"/>
</g>
<g id="Make2D::visible::lines::Make2D::visible::lines::Default">
	<line class="st0" x1="12856.5" y1="14377.1" x2="12860.1" y2="14374.6"/>
</g>
<g id="Make2D::hidden::lines::Default">
	<line class="st0" x1="16240.1" y1="7900.3" x2="16328.5" y2="7931.4"/>
	<line class="st0" x1="16231" y1="7901.3" x2="16318.9" y2="7932.6"/>
	<line class="st0" x1="16312.3" y1="7954.8" x2="16240" y2="7927.5"/>
	<line class="st0" x1="16308.8" y1="8177.9" x2="16312.3" y2="7954.8"/>
	<line class="st0" x1="16302.8" y1="7956" x2="16312.3" y2="7954.8"/>
	<line class="st0" x1="16323.9" y1="8186.7" x2="16308.8" y2="8177.9"/>
	<line class="st0" x1="16299.6" y1="8179.6" x2="16308.8" y2="8177.9"/>
	<line class="st0" x1="16165.9" y1="8094.9" x2="16164.6" y2="7873.7"/>
	<line class="st0" x1="16156.4" y1="7936.1" x2="16156" y2="7874.5"/>
	<line class="st0" x1="16177.3" y1="8101.5" x2="16165.9" y2="8094.9"/>
	<line class="st0" x1="16157.5" y1="8096.2" x2="16165.9" y2="8094.9"/>
	<line class="st0" x1="16176.5" y1="7903.4" x2="16176.7" y2="7935.2"/>
	<line class="st0" x1="16167.9" y1="7904.3" x2="16168" y2="7934.8"/>
	<line class="st0" x1="16240" y1="7927.5" x2="16176.5" y2="7903.4"/>
	<line class="st0" x1="16167.9" y1="7904.3" x2="16176.5" y2="7903.4"/>
	<line class="st0" x1="16224.3" y1="7925.9" x2="16167.9" y2="7904.3"/>
	<line class="st0" x1="16230.9" y1="7928.5" x2="16229.3" y2="7927.8"/>
	<line class="st0" x1="16240.1" y1="7900.3" x2="16240" y2="7927.5"/>
	<line class="st0" x1="16230.9" y1="7928.5" x2="16240" y2="7927.5"/>
	<line class="st0" x1="16231" y1="7901.3" x2="16230.9" y2="7928.5"/>
	<line class="st0" x1="16164.6" y1="7873.7" x2="16240.1" y2="7900.3"/>
	<line class="st0" x1="16231" y1="7901.3" x2="16240.1" y2="7900.3"/>
	<line class="st0" x1="16229.4" y1="7900.7" x2="16231" y2="7901.3"/>
	<line class="st0" x1="16156" y1="7874.5" x2="16224.3" y2="7898.9"/>
	<line class="st0" x1="16102.6" y1="8156" x2="16077.4" y2="8160.3"/>
	<line class="st0" x1="16099.3" y1="7940" x2="16102.6" y2="8156"/>
	<line class="st0" x1="16107" y1="8159" x2="16102.6" y2="8156"/>
	<line class="st0" x1="16224.3" y1="7925.9" x2="16099.3" y2="7940"/>
	<line class="st0" x1="16103.8" y1="7942.1" x2="16099.3" y2="7940"/>
	<line class="st0" x1="16229.3" y1="7927.8" x2="16169.2" y2="7934.7"/>
	<line class="st0" x1="16073.2" y1="7914.7" x2="16224.3" y2="7898.9"/>
	<line class="st0" x1="16077.1" y1="7916.8" x2="16229.4" y2="7900.7"/>
	<line class="st0" x1="16368.4" y1="7923.5" x2="16369.3" y2="7885.9"/>
	<line class="st0" x1="16358.6" y1="8111.7" x2="16363.9" y2="7884.2"/>
	<line class="st0" x1="16358.6" y1="8111.7" x2="16363.9" y2="8114.3"/>
	<line class="st0" x1="16336.8" y1="8115.5" x2="16358.6" y2="8111.7"/>
	<line class="st0" x1="16346.2" y1="7914.6" x2="16346" y2="7928.6"/>
	<line class="st0" x1="16340.9" y1="7912.8" x2="16340.5" y2="7929.5"/>
	<line class="st0" x1="16229.3" y1="7927.8" x2="16346.2" y2="7914.6"/>
	<line class="st0" x1="16340.9" y1="7912.8" x2="16346.2" y2="7914.6"/>
	<line class="st0" x1="16224.3" y1="7925.9" x2="16340.9" y2="7912.8"/>
	<line class="st0" x1="16229.4" y1="7900.7" x2="16229.3" y2="7927.8"/>
	<line class="st0" x1="16224.3" y1="7925.9" x2="16229.3" y2="7927.8"/>
	<line class="st0" x1="16224.3" y1="7898.9" x2="16224.3" y2="7925.9"/>
	<line class="st0" x1="16363.9" y1="7884.2" x2="16369.3" y2="7885.9"/>
	<line class="st0" x1="16369.3" y1="7885.9" x2="16229.4" y2="7900.7"/>
	<line class="st0" x1="16224.3" y1="7898.9" x2="16229.4" y2="7900.7"/>
	<line class="st0" x1="16363.9" y1="7884.2" x2="16224.3" y2="7898.9"/>
	<line class="st0" x1="16363.9" y1="7884.2" x2="16224.3" y2="7898.9"/>
	<line class="st0" x1="16224.3" y1="7898.9" x2="16229.4" y2="7900.7"/>
	<line class="st0" x1="16369.3" y1="7885.9" x2="16229.4" y2="7900.7"/>
	<line class="st0" x1="16363.9" y1="7884.2" x2="16369.3" y2="7885.9"/>
	<line class="st0" x1="16224.3" y1="7898.9" x2="16224.3" y2="7925.9"/>
	<line class="st0" x1="16224.3" y1="7925.9" x2="16229.3" y2="7927.8"/>
	<line class="st0" x1="16229.4" y1="7900.7" x2="16229.3" y2="7927.8"/>
	<line class="st0" x1="16224.3" y1="7925.9" x2="16340.9" y2="7912.8"/>
	<line class="st0" x1="16340.9" y1="7912.8" x2="16346.2" y2="7914.6"/>
	<line class="st0" x1="16229.3" y1="7927.8" x2="16346.2" y2="7914.6"/>
	<line class="st0" x1="16340.9" y1="7912.8" x2="16340.5" y2="7929.5"/>
	<line class="st0" x1="16346.2" y1="7914.6" x2="16346" y2="7928.6"/>
	<line class="st0" x1="16336.8" y1="8115.5" x2="16358.6" y2="8111.7"/>
	<line class="st0" x1="16358.6" y1="8111.7" x2="16363.9" y2="8114.3"/>
	<line class="st0" x1="16358.6" y1="8111.7" x2="16363.9" y2="7884.2"/>
	<line class="st0" x1="16368.4" y1="7923.5" x2="16369.3" y2="7885.9"/>
	<line class="st0" x1="16077.1" y1="7916.8" x2="16229.4" y2="7900.7"/>
	<line class="st0" x1="16103.8" y1="7942.1" x2="16099.3" y2="7940"/>
	<line class="st0" x1="16224.3" y1="7925.9" x2="16099.3" y2="7940"/>
	<line class="st0" x1="16107" y1="8159" x2="16102.6" y2="8156"/>
	<line class="st0" x1="16099.3" y1="7940" x2="16102.6" y2="8156"/>
	<line class="st0" x1="16102.6" y1="8156" x2="16077.4" y2="8160.3"/>
	<line class="st0" x1="16156" y1="7874.5" x2="16224.3" y2="7898.9"/>
	<line class="st0" x1="16229.4" y1="7900.7" x2="16231" y2="7901.3"/>
	<line class="st0" x1="16231" y1="7901.3" x2="16240.1" y2="7900.3"/>
	<line class="st0" x1="16164.6" y1="7873.7" x2="16240.1" y2="7900.3"/>
	<line class="st0" x1="16231" y1="7901.3" x2="16230.9" y2="7928.5"/>
	<line class="st0" x1="16230.9" y1="7928.5" x2="16240" y2="7927.5"/>
	<line class="st0" x1="16240.1" y1="7900.3" x2="16240" y2="7927.5"/>
	<line class="st0" x1="16230.9" y1="7928.5" x2="16229.3" y2="7927.8"/>
	<line class="st0" x1="16224.3" y1="7925.9" x2="16167.9" y2="7904.3"/>
	<line class="st0" x1="16167.9" y1="7904.3" x2="16176.5" y2="7903.4"/>
	<line class="st0" x1="16240" y1="7927.5" x2="16176.5" y2="7903.4"/>
	<line class="st0" x1="16167.9" y1="7904.3" x2="16168" y2="7934.8"/>
	<line class="st0" x1="16176.5" y1="7903.4" x2="16176.7" y2="7935.2"/>
	<line class="st0" x1="16157.5" y1="8096.2" x2="16165.9" y2="8094.9"/>
	<line class="st0" x1="16177.3" y1="8101.5" x2="16165.9" y2="8094.9"/>
	<line class="st0" x1="16156.4" y1="7936.1" x2="16156" y2="7874.5"/>
	<line class="st0" x1="16165.9" y1="8094.9" x2="16164.6" y2="7873.7"/>
	<line class="st0" x1="16299.6" y1="8179.6" x2="16308.8" y2="8177.9"/>
	<line class="st0" x1="16323.9" y1="8186.7" x2="16308.8" y2="8177.9"/>
	<line class="st0" x1="16302.8" y1="7956" x2="16312.3" y2="7954.8"/>
	<line class="st0" x1="16308.8" y1="8177.9" x2="16312.3" y2="7954.8"/>
	<line class="st0" x1="16312.3" y1="7954.8" x2="16240" y2="7927.5"/>
	<line class="st0" x1="16231" y1="7901.3" x2="16318.9" y2="7932.6"/>
	<line class="st0" x1="16240.1" y1="7900.3" x2="16328.5" y2="7931.4"/>
	<path class="st0" d="M16072.9,7928.5c1.5,0.9,2.9,1.7,4.5,2.4"/>
	<line class="st0" x1="16363.9" y1="7884.2" x2="16224.3" y2="7898.9"/>
	<line class="st0" x1="16224.3" y1="7898.9" x2="16229.4" y2="7900.7"/>
	<line class="st0" x1="16369.3" y1="7885.9" x2="16229.4" y2="7900.7"/>
	<line class="st0" x1="16363.9" y1="7884.2" x2="16369.3" y2="7885.9"/>
	<line class="st0" x1="16224.3" y1="7898.9" x2="16224.3" y2="7925.9"/>
	<line class="st0" x1="16224.3" y1="7925.9" x2="16229.3" y2="7927.8"/>
	<line class="st0" x1="16229.4" y1="7900.7" x2="16229.3" y2="7927.8"/>
	<line class="st0" x1="16224.3" y1="7925.9" x2="16340.9" y2="7912.8"/>
	<line class="st0" x1="16340.9" y1="7912.8" x2="16346.2" y2="7914.6"/>
	<line class="st0" x1="16229.3" y1="7927.8" x2="16346.2" y2="7914.6"/>
	<line class="st0" x1="16340.9" y1="7912.8" x2="16340.5" y2="7929.5"/>
	<line class="st0" x1="16346.2" y1="7914.6" x2="16346" y2="7928.6"/>
	<line class="st0" x1="16336.8" y1="8115.5" x2="16358.6" y2="8111.7"/>
	<line class="st0" x1="16358.6" y1="8111.7" x2="16363.9" y2="8114.3"/>
	<line class="st0" x1="16358.6" y1="8111.7" x2="16363.9" y2="7884.2"/>
	<line class="st0" x1="16368.4" y1="7923.5" x2="16369.3" y2="7885.9"/>
	<line class="st0" x1="16077.1" y1="7916.8" x2="16229.4" y2="7900.7"/>
	<line class="st0" x1="16073.2" y1="7914.7" x2="16224.3" y2="7898.9"/>
	<line class="st0" x1="16229.3" y1="7927.8" x2="16169.2" y2="7934.7"/>
	<line class="st0" x1="16103.8" y1="7942.1" x2="16099.3" y2="7940"/>
	<line class="st0" x1="16224.3" y1="7925.9" x2="16099.3" y2="7940"/>
	<line class="st0" x1="16107" y1="8159" x2="16102.6" y2="8156"/>
	<line class="st0" x1="16099.3" y1="7940" x2="16102.6" y2="8156"/>
	<line class="st0" x1="16102.6" y1="8156" x2="16077.4" y2="8160.3"/>
	<line class="st0" x1="16156" y1="7874.5" x2="16224.3" y2="7898.9"/>
	<line class="st0" x1="16229.4" y1="7900.7" x2="16231" y2="7901.3"/>
	<line class="st0" x1="16231" y1="7901.3" x2="16240.1" y2="7900.3"/>
	<line class="st0" x1="16164.6" y1="7873.7" x2="16240.1" y2="7900.3"/>
	<line class="st0" x1="16231" y1="7901.3" x2="16230.9" y2="7928.5"/>
	<line class="st0" x1="16230.9" y1="7928.5" x2="16240" y2="7927.5"/>
	<line class="st0" x1="16240.1" y1="7900.3" x2="16240" y2="7927.5"/>
	<line class="st0" x1="16230.9" y1="7928.5" x2="16229.3" y2="7927.8"/>
	<line class="st0" x1="16224.3" y1="7925.9" x2="16167.9" y2="7904.3"/>
	<line class="st0" x1="16167.9" y1="7904.3" x2="16176.5" y2="7903.4"/>
	<line class="st0" x1="16240" y1="7927.5" x2="16176.5" y2="7903.4"/>
	<line class="st0" x1="16167.9" y1="7904.3" x2="16168" y2="7934.8"/>
	<line class="st0" x1="16176.5" y1="7903.4" x2="16176.7" y2="7935.2"/>
	<line class="st0" x1="16157.5" y1="8096.2" x2="16165.9" y2="8094.9"/>
	<line class="st0" x1="16177.3" y1="8101.5" x2="16165.9" y2="8094.9"/>
	<line class="st0" x1="16156.4" y1="7936.1" x2="16156" y2="7874.5"/>
	<line class="st0" x1="16165.9" y1="8094.9" x2="16164.6" y2="7873.7"/>
	<line class="st0" x1="16299.6" y1="8179.6" x2="16308.8" y2="8177.9"/>
	<line class="st0" x1="16323.9" y1="8186.7" x2="16308.8" y2="8177.9"/>
	<line class="st0" x1="16302.8" y1="7956" x2="16312.3" y2="7954.8"/>
	<line class="st0" x1="16308.8" y1="8177.9" x2="16312.3" y2="7954.8"/>
	<line class="st0" x1="16312.3" y1="7954.8" x2="16240" y2="7927.5"/>
	<line class="st0" x1="16231" y1="7901.3" x2="16318.9" y2="7932.6"/>
	<line class="st0" x1="16240.1" y1="7900.3" x2="16328.5" y2="7931.4"/>
	<path class="st0" d="M16072.9,7928.5c1.5,0.9,2.9,1.7,4.5,2.4"/>
	<line class="st0" x1="16363.9" y1="7884.2" x2="16224.3" y2="7898.9"/>
	<line class="st0" x1="16224.3" y1="7898.9" x2="16229.4" y2="7900.7"/>
	<line class="st0" x1="16369.3" y1="7885.9" x2="16229.4" y2="7900.7"/>
	<line class="st0" x1="16363.9" y1="7884.2" x2="16369.3" y2="7885.9"/>
	<line class="st0" x1="16224.3" y1="7898.9" x2="16224.3" y2="7925.9"/>
	<line class="st0" x1="16224.3" y1="7925.9" x2="16229.3" y2="7927.8"/>
	<line class="st0" x1="16229.4" y1="7900.7" x2="16229.3" y2="7927.8"/>
	<line class="st0" x1="16224.3" y1="7925.9" x2="16340.9" y2="7912.8"/>
	<line class="st0" x1="16340.9" y1="7912.8" x2="16346.2" y2="7914.6"/>
	<line class="st0" x1="16229.3" y1="7927.8" x2="16346.2" y2="7914.6"/>
	<line class="st0" x1="16340.9" y1="7912.8" x2="16340.5" y2="7929.5"/>
	<line class="st0" x1="16346.2" y1="7914.6" x2="16346" y2="7928.6"/>
	<line class="st0" x1="16336.8" y1="8115.5" x2="16358.6" y2="8111.7"/>
	<line class="st0" x1="16358.6" y1="8111.7" x2="16363.9" y2="8114.3"/>
	<line class="st0" x1="16358.6" y1="8111.7" x2="16363.9" y2="7884.2"/>
	<line class="st0" x1="16368.4" y1="7923.5" x2="16369.3" y2="7885.9"/>
	<line class="st0" x1="16077.1" y1="7916.8" x2="16229.4" y2="7900.7"/>
	<line class="st0" x1="16073.2" y1="7914.7" x2="16224.3" y2="7898.9"/>
	<line class="st0" x1="16229.3" y1="7927.8" x2="16169.2" y2="7934.7"/>
	<line class="st0" x1="16103.8" y1="7942.1" x2="16099.3" y2="7940"/>
	<line class="st0" x1="16224.3" y1="7925.9" x2="16099.3" y2="7940"/>
	<line class="st0" x1="16107" y1="8159" x2="16102.6" y2="8156"/>
	<line class="st0" x1="16099.3" y1="7940" x2="16102.6" y2="8156"/>
	<line class="st0" x1="16102.6" y1="8156" x2="16077.4" y2="8160.3"/>
	<line class="st0" x1="16156" y1="7874.5" x2="16224.3" y2="7898.9"/>
	<line class="st0" x1="16229.4" y1="7900.7" x2="16231" y2="7901.3"/>
	<line class="st0" x1="16231" y1="7901.3" x2="16240.1" y2="7900.3"/>
	<line class="st0" x1="16164.6" y1="7873.7" x2="16240.1" y2="7900.3"/>
	<line class="st0" x1="16231" y1="7901.3" x2="16230.9" y2="7928.5"/>
	<line class="st0" x1="16230.9" y1="7928.5" x2="16240" y2="7927.5"/>
	<line class="st0" x1="16240.1" y1="7900.3" x2="16240" y2="7927.5"/>
	<line class="st0" x1="16230.9" y1="7928.5" x2="16229.3" y2="7927.8"/>
	<line class="st0" x1="16224.3" y1="7925.9" x2="16167.9" y2="7904.3"/>
	<line class="st0" x1="16167.9" y1="7904.3" x2="16176.5" y2="7903.4"/>
	<line class="st0" x1="16240" y1="7927.5" x2="16176.5" y2="7903.4"/>
	<line class="st0" x1="16167.9" y1="7904.3" x2="16168" y2="7934.8"/>
	<line class="st0" x1="16176.5" y1="7903.4" x2="16176.7" y2="7935.2"/>
	<line class="st0" x1="16157.5" y1="8096.2" x2="16165.9" y2="8094.9"/>
	<line class="st0" x1="16177.3" y1="8101.5" x2="16165.9" y2="8094.9"/>
	<line class="st0" x1="16156.4" y1="7936.1" x2="16156" y2="7874.5"/>
	<line class="st0" x1="16165.9" y1="8094.9" x2="16164.6" y2="7873.7"/>
	<line class="st0" x1="16299.6" y1="8179.6" x2="16308.8" y2="8177.9"/>
	<line class="st0" x1="16323.9" y1="8186.7" x2="16308.8" y2="8177.9"/>
	<line class="st0" x1="16302.8" y1="7956" x2="16312.3" y2="7954.8"/>
	<line class="st0" x1="16308.8" y1="8177.9" x2="16312.3" y2="7954.8"/>
	<line class="st0" x1="16312.3" y1="7954.8" x2="16240" y2="7927.5"/>
	<line class="st0" x1="16231" y1="7901.3" x2="16318.9" y2="7932.6"/>
	<line class="st0" x1="16240.1" y1="7900.3" x2="16328.5" y2="7931.4"/>
	<path class="st0" d="M16072.9,7928.5c1.5,0.9,2.9,1.7,4.5,2.4"/>
	<line class="st0" x1="16363.9" y1="7884.2" x2="16224.3" y2="7898.9"/>
	<line class="st0" x1="16224.3" y1="7898.9" x2="16229.4" y2="7900.7"/>
	<line class="st0" x1="16369.3" y1="7885.9" x2="16229.4" y2="7900.7"/>
	<line class="st0" x1="16363.9" y1="7884.2" x2="16369.3" y2="7885.9"/>
	<line class="st0" x1="16224.3" y1="7898.9" x2="16224.3" y2="7925.9"/>
	<line class="st0" x1="16224.3" y1="7925.9" x2="16229.3" y2="7927.8"/>
	<line class="st0" x1="16229.4" y1="7900.7" x2="16229.3" y2="7927.8"/>
	<line class="st0" x1="16224.3" y1="7925.9" x2="16340.9" y2="7912.8"/>
	<line class="st0" x1="16340.9" y1="7912.8" x2="16346.2" y2="7914.6"/>
	<line class="st0" x1="16229.3" y1="7927.8" x2="16346.2" y2="7914.6"/>
	<line class="st0" x1="16340.9" y1="7912.8" x2="16340.5" y2="7929.5"/>
	<line class="st0" x1="16346.2" y1="7914.6" x2="16346" y2="7928.6"/>
	<line class="st0" x1="16336.8" y1="8115.5" x2="16358.6" y2="8111.7"/>
	<path class="st0" d="M15125.3,8004.9c-5.7-5.7-17.1-9.8-24.3-12.1"/>
	<line class="st0" x1="16358.6" y1="8111.7" x2="16363.9" y2="8114.3"/>
	<path class="st0" d="M15125.3,8004.9c-5.7-5.7-17.1-9.8-24.3-12.1"/>
	<line class="st0" x1="16358.6" y1="8111.7" x2="16363.9" y2="7884.2"/>
	<path class="st0" d="M15125.3,8004.9c-5.7-5.7-17.1-9.8-24.3-12.1"/>
	<line class="st0" x1="16368.4" y1="7923.5" x2="16369.3" y2="7885.9"/>
	<path class="st0" d="M15125.3,8004.9c-5.7-5.7-17.1-9.8-24.3-12.1"/>
	<line class="st0" x1="16077.1" y1="7916.8" x2="16229.4" y2="7900.7"/>
	<path class="st0" d="M15125.3,8004.9c-5.7-5.7-17.1-9.8-24.3-12.1"/>
	<line class="st0" x1="16073.2" y1="7914.7" x2="16224.3" y2="7898.9"/>
	<line class="st0" x1="16229.3" y1="7927.8" x2="16169.2" y2="7934.7"/>
	<path class="st0" d="M15101,7992.9c-42.4-13.2-110-16.3-153.2-15.7c-25.8,0.4-51.4,1.8-77,5.1c-15.5,2-60,8.5-73.3,21.7"/>
	<path class="st0" d="M15101.4,7979.7c-43.4-13.1-112.9-15.9-157.1-15.1c-26.4,0.5-52.7,2-78.9,5.6c-13.1,1.8-26.1,4-38.9,7.4
		c-8.3,2.2-16.3,4.6-23.9,9c-3.4,2-8.6,5.3-8.8,10.2"/>
	<path class="st0" d="M15101,7992.9c-42.4-13.2-110-16.3-153.2-15.7c-25.8,0.4-51.4,1.8-77,5.1c-15.5,2-60,8.5-73.3,21.7"/>
	<path class="st0" d="M15101.4,7979.7c-43.4-13.1-112.9-15.9-157.1-15.1c-26.4,0.5-52.7,2-78.9,5.6c-13.1,1.8-26.1,4-38.9,7.4
		c-8.3,2.2-16.3,4.6-23.9,9c-3.4,2-8.6,5.3-8.8,10.2"/>
	<path class="st0" d="M15101,7992.9c-42.4-13.2-110-16.3-153.2-15.7c-25.8,0.4-51.4,1.8-77,5.1c-15.5,2-60,8.5-73.3,21.7"/>
	<path class="st0" d="M15101.4,7979.7c-43.4-13.1-112.9-15.9-157.1-15.1c-26.4,0.5-52.7,2-78.9,5.6c-13.1,1.8-26.1,4-38.9,7.4
		c-8.3,2.2-16.3,4.6-23.9,9c-3.4,2-8.6,5.3-8.8,10.2"/>
	<path class="st0" d="M15101,7992.9c-42.4-13.2-110-16.3-153.2-15.7c-25.8,0.4-51.4,1.8-77,5.1c-15.5,2-60,8.5-73.3,21.7"/>
	<path class="st0" d="M15101.4,7979.7c-43.4-13.1-112.9-15.9-157.1-15.1c-26.4,0.5-52.7,2-78.9,5.6c-13.1,1.8-26.1,4-38.9,7.4
		c-8.3,2.2-16.3,4.6-23.9,9c-3.4,2-8.6,5.3-8.8,10.2"/>
	<path class="st0" d="M15101.4,7979.7c-43.4-13.1-112.9-15.9-157.1-15.1c-26.4,0.5-52.7,2-78.9,5.6c-13.1,1.8-26.1,4-38.9,7.4
		c-8.3,2.2-16.3,4.6-23.9,9c-3.4,2-8.6,5.3-8.8,10.2"/>
	<path class="st0" d="M15101,7992.9c-42.4-13.2-110-16.3-153.2-15.7c-25.8,0.4-51.4,1.8-77,5.1c-15.5,2-60,8.5-73.3,21.7"/>
	<line class="st0" x1="16103.8" y1="7942.1" x2="16099.3" y2="7940"/>
	<line class="st0" x1="16224.3" y1="7925.9" x2="16099.3" y2="7940"/>
	<line class="st0" x1="16107" y1="8159" x2="16102.6" y2="8156"/>
	<line class="st0" x1="16099.3" y1="7940" x2="16102.6" y2="8156"/>
	<line class="st0" x1="16102.6" y1="8156" x2="16077.4" y2="8160.3"/>
	<line class="st0" x1="16156" y1="7874.5" x2="16224.3" y2="7898.9"/>
	<line class="st0" x1="16229.4" y1="7900.7" x2="16231" y2="7901.3"/>
	<line class="st0" x1="16231" y1="7901.3" x2="16240.1" y2="7900.3"/>
	<line class="st0" x1="16164.6" y1="7873.7" x2="16240.1" y2="7900.3"/>
	<line class="st0" x1="16231" y1="7901.3" x2="16230.9" y2="7928.5"/>
	<line class="st0" x1="16230.9" y1="7928.5" x2="16240" y2="7927.5"/>
	<path class="st0" d="M14803.1,8021.9c1.5,0.9,2.9,1.7,4.5,2.4"/>
	<line class="st0" x1="16240.1" y1="7900.3" x2="16240" y2="7927.5"/>
	<line class="st0" x1="16230.9" y1="7928.5" x2="16229.3" y2="7927.8"/>
	<line class="st0" x1="16224.3" y1="7925.9" x2="16167.9" y2="7904.3"/>
	<line class="st0" x1="16167.9" y1="7904.3" x2="16176.5" y2="7903.4"/>
	<line class="st0" x1="16240" y1="7927.5" x2="16176.5" y2="7903.4"/>
	<line class="st0" x1="16167.9" y1="7904.3" x2="16168" y2="7934.8"/>
	<line class="st0" x1="16176.5" y1="7903.4" x2="16176.7" y2="7935.2"/>
	<line class="st0" x1="16157.5" y1="8096.2" x2="16165.9" y2="8094.9"/>
	<line class="st0" x1="16177.3" y1="8101.5" x2="16165.9" y2="8094.9"/>
	<line class="st0" x1="16156.4" y1="7936.1" x2="16156" y2="7874.5"/>
	<line class="st0" x1="16165.9" y1="8094.9" x2="16164.6" y2="7873.7"/>
	<line class="st0" x1="16299.6" y1="8179.6" x2="16308.8" y2="8177.9"/>
	<line class="st0" x1="16323.9" y1="8186.7" x2="16308.8" y2="8177.9"/>
	<line class="st0" x1="16302.8" y1="7956" x2="16312.3" y2="7954.8"/>
	<line class="st0" x1="16308.8" y1="8177.9" x2="16312.3" y2="7954.8"/>
	<line class="st0" x1="16312.3" y1="7954.8" x2="16240" y2="7927.5"/>
	<line class="st0" x1="16231" y1="7901.3" x2="16318.9" y2="7932.6"/>
	<line class="st0" x1="16240.1" y1="7900.3" x2="16328.5" y2="7931.4"/>
	<path class="st0" d="M16072.9,7928.5c1.5,0.9,2.9,1.7,4.5,2.4"/>
	<path class="st0" d="M16370.9,7899.5c-42.4-13.2-110-16.3-153.2-15.7c-25.8,0.4-51.4,1.8-77,5.1c-15.5,2-60,8.5-73.3,21.7"/>
	<path class="st0" d="M16371.2,7886.4c-43.4-13.1-112.9-15.9-157.1-15.1c-26.4,0.5-52.7,2-78.9,5.6c-13.1,1.8-26.1,4-38.9,7.4
		c-8.3,2.2-16.3,4.6-23.9,9c-3.4,2-8.6,5.3-8.8,10.2"/>
	<path class="st0" d="M16371.2,7886.4c-43.4-13.1-112.9-15.9-157.1-15.1c-26.4,0.5-52.7,2-78.9,5.6c-13.1,1.8-26.1,4-38.9,7.4
		c-8.3,2.2-16.3,4.6-23.9,9c-3.4,2-8.6,5.3-8.8,10.2"/>
	<path class="st0" d="M16370.9,7899.5c-42.4-13.2-110-16.3-153.2-15.7c-25.8,0.4-51.4,1.8-77,5.1c-15.5,2-60,8.5-73.3,21.7"/>
	<path class="st0" d="M16371.2,7886.4c-43.4-13.1-112.9-15.9-157.1-15.1c-26.4,0.5-52.7,2-78.9,5.6c-13.1,1.8-26.1,4-38.9,7.4
		c-8.3,2.2-16.3,4.6-23.9,9c-3.4,2-8.6,5.3-8.8,10.2"/>
	<path class="st0" d="M16370.9,7899.5c-42.4-13.2-110-16.3-153.2-15.7c-25.8,0.4-51.4,1.8-77,5.1c-15.5,2-60,8.5-73.3,21.7"/>
	<path class="st0" d="M16371.2,7886.4c-43.4-13.1-112.9-15.9-157.1-15.1c-26.4,0.5-52.7,2-78.9,5.6c-13.1,1.8-26.1,4-38.9,7.4
		c-8.3,2.2-16.3,4.6-23.9,9c-3.4,2-8.6,5.3-8.8,10.2"/>
	<path class="st0" d="M16370.9,7899.5c-42.4-13.2-110-16.3-153.2-15.7c-25.8,0.4-51.4,1.8-77,5.1c-15.5,2-60,8.5-73.3,21.7"/>
	<path class="st0" d="M16371.2,7886.4c-43.4-13.1-112.9-15.9-157.1-15.1c-26.4,0.5-52.7,2-78.9,5.6c-13.1,1.8-26.1,4-38.9,7.4
		c-8.3,2.2-16.3,4.6-23.9,9c-3.4,2-8.6,5.3-8.8,10.2"/>
	<path class="st0" d="M16370.9,7899.5c-42.4-13.2-110-16.3-153.2-15.7c-25.8,0.4-51.4,1.8-77,5.1c-15.5,2-60,8.5-73.3,21.7"/>
	<line class="st0" x1="16253.1" y1="7937" x2="16230.9" y2="7928.5"/>
	<line class="st0" x1="16253.1" y1="7937" x2="16230.9" y2="7928.5"/>
	<line class="st0" x1="16253.1" y1="7937" x2="16230.9" y2="7928.5"/>
	<line class="st0" x1="16253.1" y1="7937" x2="16230.9" y2="7928.5"/>
	<line class="st0" x1="16253.1" y1="7937" x2="16230.9" y2="7928.5"/>
	<path class="st0" d="M16395.1,7911.6c-5.7-5.7-17.1-9.8-24.3-12.1"/>
	<path class="st0" d="M16395.1,7911.6c-5.7-5.7-17.1-9.8-24.3-12.1"/>
	<path class="st0" d="M16395.1,7911.6c-5.7-5.7-17.1-9.8-24.3-12.1"/>
	<path class="st0" d="M16395.1,7911.6c-5.7-5.7-17.1-9.8-24.3-12.1"/>
	<path class="st0" d="M16395.1,7911.6c-5.7-5.7-17.1-9.8-24.3-12.1"/>
	<line class="st0" x1="16229.3" y1="7927.8" x2="16169.2" y2="7934.7"/>
	<path class="st0" d="M16072.9,7928.5c1.5,0.9,2.9,1.7,4.5,2.4"/>
	<line class="st0" x1="16073.2" y1="7914.7" x2="16224.3" y2="7898.9"/>
</g>
</svg>
