<?xml version="1.0" encoding="utf-8"?>
<!-- Generator: Adobe Illustrator 19.0.0, SVG Export Plug-In . SVG Version: 6.00 Build 0)  -->
<svg version="1.1" xmlns="http://www.w3.org/2000/svg" xmlns:xlink="http://www.w3.org/1999/xlink" x="0px" y="0px"
	 viewBox="0 0 1024 768" style="enable-background:new 0 0 1024 768;" xml:space="preserve">
<style type="text/css">
	.st0{fill:none;stroke:#000000;stroke-miterlimit:10;}
</style>
<g id="Default">
	<polyline class="st0" points="5228.6,14709.3 5214.9,14705.7 5211,14537 5210.7,14524.2 5206.1,14328.8 5205.8,14315.6 
		5201,14114.1 5200.7,14100.5 5399.7,14055.6 5407.3,14053.9 5421,14055.4 5416.6,14451.7 5418,14621.3 	"/>
	<polyline class="st0" points="5417.7,14584 5418,14621.3 5228.6,14709.3 5224.8,14540.1 5215.3,14116 5215,14102.3 5200.7,14100.5 
			"/>
	<polyline class="st0" points="11736.2,10301.1 11735.9,10267.2 11736.2,10301.1 	"/>
	<polyline class="st0" points="11736.2,10301.1 11735.9,10267.2 11736.2,10301.1 	"/>
	<polyline class="st0" points="11736.2,10301.1 11735.9,10267.2 11736.2,10301.1 	"/>
	<line class="st0" x1="7626.8" y1="10553" x2="7622.1" y2="10307.5"/>
	<polyline class="st0" points="7890.2,10307.9 7889.9,10322.2 7886.2,10508.2 7891.4,10510.8 7913.3,10507 7917.8,10316.2 
		7918.7,10278.6 	"/>
	<polyline class="st0" points="7631.1,10556.1 7626.5,10309.4 7622.1,10307.5 7622.6,10307.4 7773.7,10291.5 7913.3,10276.9 
		7918.7,10278.5 7778.8,10293.3 7773.7,10291.5 	"/>
	<polyline class="st0" points="7626.5,10309.4 7778.8,10293.3 7778.7,10320.5 	"/>
	<polyline class="st0" points="7656.4,10551.7 7653.2,10334.8 7718.6,10327.4 7778.7,10320.5 7895.6,10307.2 7895.4,10321.3 
		7891.4,10510.8 	"/>
	<polyline class="st0" points="9733.4,10309.4 9885.6,10293.3 9885.6,10320.5 9959.1,10348.7 9955.9,10572.3 9970.9,10581.1 
		9975.2,10325.2 9984.8,10324.1 9894.4,10292.3 	"/>
	<polyline class="st0" points="11760.7,14621.3 11760.5,14592.1 11760.7,14621.3 11571.3,14709.3 11557.7,14705.7 11553.7,14537 
		11553.4,14524.2 11548.8,14328.8 11548.5,14315.6 11543.8,14114.1 11543.4,14100.5 11742.4,14055.6 11543.4,14100.5 
		11557.7,14102.3 	"/>
	<polyline class="st0" points="11553.9,14544.8 11553.3,14545 11553.9,14545.2 	"/>
	<polyline class="st0" points="9997.1,10307.9 9996.8,10322.2 9993.1,10508.2 9998.3,10510.8 10002.2,10321.3 10002.5,10307.2 
		9952.9,10312.9 	"/>
	<polyline class="st0" points="9998.3,10510.8 10020.2,10507 10024.7,10316.2 10025.6,10278.6 	"/>
	<polyline class="st0" points="9970.9,10581.1 9980.2,10579.3 9984.8,10324.1 	"/>
	<polyline class="st0" points="9738,10556.1 9733.7,10553 9728.9,10307.5 	"/>
	<polyline class="st0" points="10199.9,14584.1 10200.2,14613.3 10199.9,14584.1 	"/>
	<polyline class="st0" points="11034.5,14618.4 10198.3,14451.7 10012.6,14528.7 	"/>
	<polyline class="st0" points="9755.6,10332.7 9760.1,10334.8 9763.3,10551.7 9738,10556.1 9733.4,10309.4 9728.9,10307.5 
		9729.5,10307.4 9880.6,10291.5 	"/>
	<polyline class="st0" points="9887.2,10321.2 9885.6,10320.5 9825.4,10327.4 9760.1,10334.8 	"/>
	<polyline class="st0" points="9885.6,10293.3 9887.3,10293.9 9975.2,10325.2 	"/>
	<polygon class="st0" points="9880.6,10291.5 9885.6,10293.3 10025.6,10278.5 10020.1,10276.9 	"/>
	<polyline class="st0" points="8655.9,14584.1 8656.1,14613.3 8655.9,14584.1 	"/>
	<line class="st0" x1="5648.5" y1="10291.5" x2="5653.6" y2="10293.3"/>
	<polyline class="st0" points="9490.4,14618.4 8654.3,14451.7 8468.6,14528.7 	"/>
	<line class="st0" x1="5653.6" y1="10293.3" x2="5653.5" y2="10320.5"/>
	<line class="st0" x1="5501.3" y1="10309.4" x2="5653.6" y2="10293.3"/>
	<polyline class="st0" points="10010.7,14701.2 9997.1,14697.6 9993.1,14528.9 9992.8,14516.1 9988.2,14320.8 9987.9,14307.5 
		9983.2,14106 9982.9,14092.4 10181.8,14047.5 10189.4,14045.8 10203.2,14047.4 10200.9,14249.8 	"/>
	<line class="st0" x1="5496.9" y1="10307.5" x2="5497.4" y2="10307.4"/>
	<line class="st0" x1="5497.4" y1="10307.4" x2="5648.5" y2="10291.5"/>
	<line class="st0" x1="5501.3" y1="10309.4" x2="5496.9" y2="10307.5"/>
	<line class="st0" x1="11762.8" y1="14143.4" x2="11761.5" y2="14257.9"/>
	<line class="st0" x1="5653.5" y1="10320.5" x2="5593.4" y2="10327.4"/>
	<line class="st0" x1="5593.4" y1="10327.4" x2="5528" y2="10334.8"/>
	<line class="st0" x1="5528" y1="10334.8" x2="5531.2" y2="10551.7"/>
	<line class="st0" x1="5505.9" y1="10556.1" x2="5501.3" y2="10309.4"/>
	<line class="st0" x1="5501.6" y1="10553" x2="5496.9" y2="10307.5"/>
	<polyline class="st0" points="11736.2,10301.1 11735.9,10267.2 11736.2,10301.1 	"/>
	<polyline class="st0" points="11748,10327.5 11748.9,10495.6 11748,10327.5 	"/>
	<polyline class="st0" points="11760.3,14367.1 11759.3,14451.7 11759.4,14459.9 	"/>
	<line class="st0" x1="-3368.7" y1="-3072" x2="-3371.5" y2="-3217.5"/>
	<polyline class="st0" points="10199.7,14359.1 10198.8,14443.7 10198.8,14451.8 	"/>
	<polyline class="st0" points="11809.2,10320.5 11749.1,10327.4 11809.2,10320.5 	"/>
	<polyline class="st0" points="11809.2,10320.5 11749.1,10327.4 11809.2,10320.5 	"/>
	<polygon class="st0" points="11748.9,10495.6 11748,10327.5 11748.9,10495.6 11737.5,10488.9 11736.4,10328.8 11737.5,10488.9 
		11748.9,10495.6 11757.3,10494.2 11756.6,10327.9 11757.3,10494.2 	"/>
	<polyline class="st0" points="11748,10327.5 11748.9,10495.6 11748,10327.5 	"/>
	<polyline class="st0" points="11809.2,10320.5 11749.1,10327.4 11809.2,10320.5 	"/>
	<polyline class="st0" points="11748,10327.5 11748.9,10495.6 11748,10327.5 	"/>
	<polygon class="st0" points="11804.3,10291.5 11735.9,10267.2 11804.3,10291.5 11809.3,10293.3 11809.2,10320.5 11809.3,10293.3 	
		"/>
	<polyline class="st0" points="11809.2,10320.5 11749.1,10327.4 11809.2,10320.5 	"/>
	<polyline class="st0" points="11748,10327.5 11748.9,10495.6 11748,10327.5 	"/>
	<polyline class="st0" points="11809.2,10320.5 11749.1,10327.4 11809.2,10320.5 	"/>
	<polyline class="st0" points="11833.1,10329.7 11810.9,10321.2 11833.1,10329.7 	"/>
	<polyline class="st0" points="11833.1,10329.7 11810.9,10321.2 11833.1,10329.7 	"/>
	<rect x="-1237.3" y="13947.7" class="st0" width="1440" height="864"/>
	<rect x="-1237.3" y="13011.7" class="st0" width="1440" height="864"/>
	<rect x="-1237.3" y="12003.7" class="st0" width="1440" height="864"/>
	<rect x="346.7" y="12147.7" class="st0" width="1440" height="2664"/>
	<rect x="-4189.3" y="12003.7" class="st0" width="2664" height="864"/>
	<rect x="-4189.3" y="13011.7" class="st0" width="2664" height="864"/>
	<rect x="-4189.3" y="13947.7" class="st0" width="2664" height="864"/>
	<rect x="-4333.3" y="11499.7" class="st0" width="6912" height="3456"/>
	<polyline class="st0" points="13840.1,10510.8 13861.9,10507 13866.3,10323.5 	"/>
	<polyline class="st0" points="13838.3,10337.6 13834.9,10508.2 13840.1,10510.8 13843.7,10334.8 	"/>
	<polyline class="st0" points="13812.7,10581.1 13821.9,10579.3 13826.2,10343.6 	"/>
	<polyline class="st0" points="13779.3,10340.4 13800.9,10348.7 13797.6,10572.3 13812.7,10581.1 13816.6,10344.1 	"/>
	<polygon class="st0" points="13674.7,10330.1 13675.4,10494.2 13667,10495.6 13666.1,10329.3 13667,10495.6 13655.6,10488.9 
		13654.4,10328.8 13655.6,10488.9 13667,10495.6 13675.4,10494.2 	"/>
	<polygon class="st0" points="13674.7,10330.1 13675.4,10494.2 13667,10495.6 13655.6,10488.9 13654.4,10328.8 13655.6,10488.9 
		13667,10495.6 13675.4,10494.2 	"/>
	<polygon class="st0" points="13674.7,10330.1 13675.4,10494.2 13667,10495.6 13655.6,10488.9 13654.4,10328.8 13655.6,10488.9 
		13654.4,10328.8 13655.6,10488.9 13654.4,10328.8 13655.6,10488.9 13667,10495.6 13675.4,10494.2 	"/>
	<polygon class="st0" points="13674.7,10330.1 13675.4,10494.2 13667,10495.6 13655.6,10488.9 13667,10495.6 13675.4,10494.2 	"/>
	<polygon class="st0" points="13674.7,10330.1 13675.4,10494.2 13667,10495.6 13655.6,10488.9 13667,10495.6 13675.4,10494.2 	"/>
	<polyline class="st0" points="13657.7,10328.4 13601.9,10334.8 13605.1,10551.7 13579.7,10556.1 13575.4,10320.3 	"/>
	<polyline class="st0" points="13666.1,10329.3 13667,10495.6 13666.1,10329.3 	"/>
	<polyline class="st0" points="13666.1,10329.3 13667,10495.6 13666.1,10329.3 	"/>
	<polyline class="st0" points="13666.1,10329.3 13667,10495.6 13666.1,10329.3 	"/>
	<polyline class="st0" points="13666.1,10329.3 13667,10495.6 13666.1,10329.3 	"/>
	<polyline class="st0" points="11744.6,10266.4 11820.1,10293 11744.6,10266.4 	"/>
	<polyline class="st0" points="13579.7,10556.1 13575.4,10553 13570.9,10319.9 	"/>
	<polygon class="st0" points="11809.3,10293.3 11811,10293.9 11809.3,10293.3 11809.2,10320.5 	"/>
	<polygon class="st0" points="11809.3,10293.3 11809.2,10320.5 11809.3,10293.3 11811,10293.9 	"/>
	<polyline class="st0" points="13940.5,11303.2 13662.5,11284.2 13487.4,11327 13487.8,11337.8 13823.8,11370.9 13940.1,11312.8 
		13940.5,11303.2 13824,11358.6 13823.8,11370.9 	"/>
	<polyline class="st0" points="13940.5,10277.1 13662.5,10258.1 13487.4,10300.9 13487.8,10311.7 13823.8,10344.8 13940.1,10286.7 
		13940.5,10277.1 13824,10332.5 13823.8,10344.8 	"/>
	<polyline class="st0" points="11744.6,10266.4 11820.1,10293 11744.6,10266.4 	"/>
	<polygon class="st0" points="11809.3,10293.3 11809.2,10320.5 11809.3,10293.3 11811,10293.9 	"/>
	<polyline class="st0" points="11744.6,10266.4 11820.1,10293 11744.6,10266.4 	"/>
	<polygon class="st0" points="11737.5,10488.9 11736.4,10328.8 11737.5,10488.9 11736.4,10328.8 11737.5,10488.9 11736.4,10328.8 
		11737.5,10488.9 11748.9,10495.6 11757.3,10494.2 11756.6,10327.9 11757.3,10494.2 11748.9,10495.6 11737.5,10488.9 
		11748.9,10495.6 11757.3,10494.2 11756.6,10327.9 11757.3,10494.2 11748.9,10495.6 11737.5,10488.9 11748.9,10495.6 
		11757.3,10494.2 11756.6,10327.9 11757.3,10494.2 11748.9,10495.6 	"/>
	<polyline class="st0" points="11735.9,10267.2 11804.3,10291.5 11735.9,10267.2 	"/>
	<polygon class="st0" points="11737.5,10488.9 11736.4,10328.8 11737.5,10488.9 11748.9,10495.6 11757.3,10494.2 11756.6,10327.9 
		11757.3,10494.2 11748.9,10495.6 	"/>
	<polyline class="st0" points="11744.6,10266.4 11820.1,10293 11744.6,10266.4 	"/>
	<polyline class="st0" points="11661.7,10556.1 11657.3,10553 11652.6,10307.5 	"/>
	<polyline class="st0" points="11894.6,10581.1 11903.9,10579.3 11908.5,10324.1 	"/>
	<polyline class="st0" points="11922,10510.8 11943.8,10507 11948.4,10316.2 11949.3,10278.6 	"/>
	<polyline class="st0" points="11920.8,10307.9 11920.5,10322.2 11916.8,10508.2 11922,10510.8 11925.9,10321.3 11926.2,10307.2 
		11876.6,10312.9 	"/>
	<polyline class="st0" points="11657.1,10309.4 11809.3,10293.3 11809.2,10320.5 11882.8,10348.7 11879.6,10572.3 11894.6,10581.1 
		11898.9,10325.2 11908.5,10324.1 11818,10292.3 	"/>
	<polyline class="st0" points="11753.6,10299.2 11809.3,10293.3 11811,10293.9 11898.9,10325.2 	"/>
	<polyline class="st0" points="11810.9,10321.2 11809.2,10320.5 11810.9,10321.2 11809.2,10320.5 11810.9,10321.2 11809.2,10320.5 
		11810.9,10321.2 11809.2,10320.5 11810.9,10321.2 11809.2,10320.5 11810.9,10321.2 11809.2,10320.5 11749.1,10327.4 
		11683.8,10334.8 11687,10551.7 11661.7,10556.1 11657.1,10309.4 11652.6,10307.5 11653.2,10307.4 11804.3,10291.5 11735.9,10267.2 
		11744.6,10266.4 11820.1,10293 11744.6,10266.4 	"/>
	<polyline class="st0" points="11735.9,10267.2 11804.3,10291.5 11809.3,10293.3 11811,10293.9 11809.3,10293.3 11809.2,10320.5 
		11809.3,10293.3 11811,10293.9 11809.3,10293.3 11804.3,10291.5 11809.3,10293.3 11804.3,10291.5 11735.9,10267.2 11804.3,10291.5 
		11809.3,10293.3 11804.3,10291.5 11735.9,10267.2 11804.3,10291.5 11809.3,10293.3 11804.3,10291.5 11809.3,10293.3 
		11949.3,10278.5 11943.8,10276.9 11813.4,10290.6 	"/>
	<line class="st0" x1="-3189" y1="-1654.2" x2="-3189" y2="-1654.2"/>
	<polyline class="st0" points="-3204.8,-1533.9 -3191.8,-1536.2 -3189.2,-1645.7 	"/>
	<path class="st0" d="M-3367.4-1656.5c17.4,8.1,52.9,10.9,71.1,11.7c23.1,1,49.3,0.4,72.3-2.3c-23,2.7-49.2,3.3-72.3,2.3
		C-3314.5-1645.6-3350-1648.4-3367.4-1656.5z"/>
	<path class="st0" d="M-3367.4-1656.5c17.4,8.1,52.9,10.9,71.1,11.7c23.1,1,49.3,0.4,72.3-2.3c-23,2.7-49.2,3.3-72.3,2.3
		C-3314.5-1645.6-3350-1648.4-3367.4-1656.5z"/>
	<line class="st0" x1="16063.6" y1="7903.4" x2="16063.9" y2="7917.8"/>
	<line class="st0" x1="16398.9" y1="7904.8" x2="16398.4" y2="7917.5"/>
	<path class="st0" d="M16371.2,7886.4c16,5.3,25.2,11.5,27.7,18.4"/>
	<path class="st0" d="M-3375.5-1664.1c0.1,3.6,5.7,6.5,8,7.6c17.4,8.1,52.9,10.9,71.1,11.7c23.1,1,49.3,0.4,72.3-2.3
		c1.9-0.2,3.8-0.5,5.7-0.7c7.7-1.1,15.2-2.4,22.7-4.4c3.7-1,7.4-2.1,10.9-3.8c2.5-1.1,7.9-3.9,8.1-7.6c-1.5-4.1-7-7.8-16.4-10.9
		c-25.7-7.7-67-9.4-93.2-9c-15.7,0.3-31.2,1.2-46.8,3.3c-7.8,1-15.5,2.4-23.1,4.4c-4.9,1.3-9.7,2.7-14.2,5.3c-2,1.2-5.1,3.2-5.2,6.1
		c0.1,2.8,0.1,5.6,0.2,8.4c0.1,3,3.3,5.3,5.3,6.5c0.9,0.5,1.7,1,2.6,1.4c-0.9-0.4-1.8-0.9-2.6-1.4c0.9,0.5,1.7,1,2.6,1.4
		c12.5,6,34.8,9.1,48.1,10.4c16.4,1.7,32.8,2.3,49.3,2.1c16.5-0.2,32.9-1.1,49.3-3.3c8.2-1.1,16.2-2.5,24.2-4.7
		c4.9-1.3,10.6-3.1,15-6c2.1-1.3,4.9-3.6,4.5-6.6c0.4,3.1-2.5,5.3-4.5,6.6c-4.4,2.9-10.1,4.6-15,6c-8,2.2-16.1,3.6-24.2,4.7
		c-16.4,2.2-32.8,3.1-49.3,3.3c-16.5,0.2-32.9-0.5-49.3-2.1c-13.3-1.3-35.5-4.4-48.1-10.4c12.5,6,34.8,9.1,48.1,10.4
		c16.4,1.7,32.8,2.3,49.3,2.1c16.5-0.2,32.9-1.1,49.3-3.3c8.2-1.1,16.2-2.5,24.2-4.7c4.9-1.3,10.6-3.1,15-6c2.1-1.3,4.9-3.6,4.5-6.6
		"/>
	<polyline class="st0" points="-3335,-1639.6 -3346.1,-1638.4 -3344.2,-1509.7 -3359.2,-1507 -3361.8,-1645.8 	"/>
	<polyline class="st0" points="-3359.2,-1507 -3361.8,-1508.9 -3364.4,-1646.8 	"/>
	<path class="st0" d="M-3375.3-1656.1c0,3,3.3,5.4,5.3,6.6C-3372-1650.7-3375.3-1653.1-3375.3-1656.1z"/>
	<path class="st0" d="M-3375.3-1656.1c0,3,3.3,5.4,5.3,6.6C-3372-1650.7-3375.3-1653.1-3375.3-1656.1z"/>
	<line class="st0" x1="-3366.2" y1="-3070.1" x2="-3368.9" y2="-3216.3"/>
	<path class="st0" d="M-3369.9-1649.5c0.9,0.5,1.7,1,2.6,1.4C-3368.2-1648.5-3369.1-1649-3369.9-1649.5z"/>
	<line class="st0" x1="-3291.1" y1="-1644.6" x2="-3291.1" y2="-1644.6"/>
	<line class="st0" x1="-3366.2" y1="-3070.1" x2="-3368.7" y2="-3072"/>
	<polyline class="st0" points="-3291.1,-1644.6 -3291.1,-1644.6 -3291.1,-1644.6 	"/>
	<line class="st0" x1="-3351.2" y1="-3072.8" x2="-3366.2" y2="-3070.1"/>
	<polyline class="st0" points="-3291.1,-1644.6 -3291.1,-1644.6 -3291.1,-1644.6 	"/>
	<line class="st0" x1="-3353.1" y1="-3201.3" x2="-3351.2" y2="-3072.8"/>
	<polyline class="st0" points="-3291.1,-1644.6 -3291.1,-1644.6 -3291.1,-1644.6 	"/>
	<line class="st0" x1="-3314.3" y1="-3205.7" x2="-3353.1" y2="-3201.3"/>
	<polyline class="st0" points="-3291.1,-1644.6 -3291.1,-1644.6 -3291.1,-1644.6 	"/>
	<line class="st0" x1="-3278.7" y1="-3209.8" x2="-3314.3" y2="-3205.7"/>
	<polyline class="st0" points="-3291.1,-1644.6 -3291.1,-1644.6 -3291.1,-1644.6 	"/>
	<polyline class="st0" points="-3302.9,-1636.3 -3302.5,-1543.8 -3307.5,-1543 -3314.2,-1546.9 -3314.9,-1637.2 	"/>
	<polyline class="st0" points="-3314.9,-1637.2 -3314.2,-1546.9 -3307.5,-1543 -3302.5,-1543.8 -3302.9,-1636.3 	"/>
	<polyline class="st0" points="-3302.9,-1636.3 -3302.5,-1543.8 -3307.5,-1543 -3314.2,-1546.9 -3314.9,-1637.2 	"/>
	<line class="st0" x1="-3368.9" y1="-3216.3" x2="-3371.5" y2="-3217.5"/>
	<polygon class="st0" points="-3302.9,-1636.3 -3302.5,-1543.8 -3307.5,-1543 -3314.2,-1546.9 -3307.5,-1543 -3302.5,-1543.8 	"/>
	<line class="st0" x1="-3371.2" y1="-3217.5" x2="-3281.6" y2="-3226.9"/>
	<polygon class="st0" points="-3302.9,-1636.3 -3302.5,-1543.8 -3307.5,-1543 -3314.2,-1546.9 -3307.5,-1543 -3302.5,-1543.8 	"/>
	<line class="st0" x1="-3371.5" y1="-3217.5" x2="-3371.2" y2="-3217.5"/>
	<polyline class="st0" points="-3314.9,-1637.2 -3314.2,-1546.9 -3307.5,-1543 -3302.5,-1543.8 -3302.9,-1636.3 	"/>
	<line class="st0" x1="-3368.9" y1="-3216.3" x2="-3278.7" y2="-3225.9"/>
	<polyline class="st0" points="-3314.9,-1637.2 -3314.2,-1546.9 -3314.9,-1637.2 	"/>
	<polyline class="st0" points="-3314.9,-1637.2 -3314.2,-1546.9 -3314.9,-1637.2 	"/>
	<line class="st0" x1="-3278.7" y1="-3225.9" x2="-3278.7" y2="-3209.8"/>
	<line class="st0" x1="-3281.6" y1="-3226.9" x2="-3278.7" y2="-3225.9"/>
	<polyline class="st0" points="-3308,-1636.7 -3307.5,-1543 -3308,-1636.7 	"/>
	<polyline class="st0" points="-3308,-1636.7 -3307.5,-1543 -3308,-1636.7 	"/>
	<polyline class="st0" points="-3308,-1636.7 -3307.5,-1543 -3308,-1636.7 	"/>
	<polyline class="st0" points="-3302.9,-1636.3 -3302.5,-1543.8 -3307.5,-1543 -3308,-1636.7 	"/>
	<polyline class="st0" points="-3314.9,-1637.2 -3314.2,-1546.9 -3307.5,-1543 -3302.5,-1543.8 -3302.9,-1636.3 	"/>
	<polyline class="st0" points="-3308,-1636.7 -3307.5,-1543 -3314.2,-1546.9 -3314.9,-1637.2 	"/>
	<polyline class="st0" points="-3308,-1636.7 -3307.5,-1543 -3308,-1636.7 	"/>
	<line class="st0" x1="-3366.2" y1="-3586.7" x2="-3368.7" y2="-3588.5"/>
	<line class="st0" x1="-3351.2" y1="-3589.3" x2="-3366.2" y2="-3586.7"/>
	<polyline class="st0" points="-3244.6,-1636.4 -3228,-1630.1 -3229.9,-1497.4 -3221,-1492.2 -3218.6,-1639.1 	"/>
	<line class="st0" x1="-3265.4" y1="-1644.4" x2="-3265.4" y2="-1644.4"/>
	<line class="st0" x1="-3265.4" y1="-1644.4" x2="-3265.4" y2="-1644.4"/>
	<line class="st0" x1="-3220.7" y1="-1647.5" x2="-3220.7" y2="-1647.5"/>
	<line class="st0" x1="-3212.8" y1="-1644.7" x2="-3212.8" y2="-1644.7"/>
	<polyline class="st0" points="-3221,-1492.2 -3215.5,-1493.3 -3212.9,-1639.9 	"/>
	<line class="st0" x1="-3202.4" y1="-1650.5" x2="-3202.4" y2="-1650.6"/>
	<polyline class="st0" points="-3205.8,-1641.3 -3207.9,-1535.5 -3204.8,-1533.9 -3202.5,-1641.9 	"/>
	<line class="st0" x1="-3205.6" y1="-1649.9" x2="-3205.6" y2="-1649.9"/>
	<line class="st0" x1="-3197.4" y1="-1675.8" x2="-3194.1" y2="-1674.8"/>
	<polyline class="st0" points="-3197.4,-1675.8 -3194.1,-1674.8 -3197.4,-1675.8 	"/>
	<polyline class="st0" points="-3224,-1647.1 -3218.3,-1647.7 -3224,-1647.1 	"/>
	<polyline class="st0" points="-3197.4,-1675.8 -3194.1,-1674.8 -3197.4,-1675.8 	"/>
	<polyline class="st0" points="-3224,-1647.1 -3218.3,-1647.7 -3224,-1647.1 	"/>
	<path class="st0" d="M-3193-1674.5c-25.7-7.7-67-9.4-93.2-9c-15.7,0.3-31.2,1.2-46.8,3.3c-7.8,1-15.5,2.4-23.1,4.4
		c-4.9,1.3-9.7,2.7-14.2,5.3c-2,1.2-5.1,3.2-5.2,6.1c0.1-2.9,3.2-4.9,5.2-6.1c4.5-2.6,9.2-4,14.2-5.3c7.6-2,15.3-3.3,23.1-4.4
		c15.6-2.1,31.1-3,46.8-3.3C-3260-1683.9-3218.7-1682.2-3193-1674.5z"/>
	<path class="st0" d="M-3218.3-1647.8c7.7-1.1,15.2-2.4,22.7-4.4c3.7-1,7.4-2.1,10.9-3.8c2.5-1.1,8-3.8,8.1-7.6
		c-0.1,3.7-5.6,6.4-8.1,7.6c-3.5,1.6-7.2,2.8-10.9,3.8C-3203.1-1650.2-3210.7-1648.9-3218.3-1647.8z"/>
	<path class="st0" d="M-3193-1674.5c-25.7-7.7-67-9.4-93.2-9c-15.7,0.3-31.2,1.2-46.8,3.3c-7.8,1-15.5,2.4-23.1,4.4
		c-4.9,1.3-9.7,2.7-14.2,5.3c-2,1.2-5.1,3.2-5.2,6.1c0.1-2.9,3.2-4.9,5.2-6.1c4.5-2.6,9.2-4,14.2-5.3c7.6-2,15.3-3.3,23.1-4.4
		c15.6-2.1,31.1-3,46.8-3.3C-3260-1683.9-3218.7-1682.2-3193-1674.5z"/>
	<path class="st0" d="M-3218.3-1647.8c7.7-1.1,15.2-2.4,22.7-4.4c3.7-1,7.4-2.1,10.9-3.8c2.5-1.1,8-3.8,8.1-7.6
		c-0.1,3.7-5.6,6.4-8.1,7.6c-3.5,1.6-7.2,2.8-10.9,3.8C-3203.1-1650.2-3210.7-1648.9-3218.3-1647.8z"/>
	<path class="st0" d="M-3367.3-1648.1c12.5,6,34.8,9.1,48.1,10.4c16.4,1.7,32.8,2.3,49.3,2.1c16.5-0.2,32.9-1.1,49.3-3.3
		c8.2-1.1,16.2-2.5,24.2-4.7c4.9-1.3,10.6-3.1,15-6c2.1-1.3,4.9-3.6,4.5-6.6c0.4,3.1-2.5,5.3-4.5,6.6c-4.4,2.9-10.1,4.6-15,6
		c-8,2.2-16.1,3.6-24.2,4.7c-16.4,2.2-32.8,3.1-49.3,3.3c-16.5,0.2-32.9-0.5-49.3-2.1C-3332.5-1639-3354.8-1642-3367.3-1648.1z"/>
	<line class="st0" x1="-3176.6" y1="-1663.5" x2="-3176.8" y2="-1656"/>
	<polyline class="st0" points="-3309.2,-2194 -3268.4,-2179.5 -3265.4,-2178.4 -3264.4,-2178 -3265.4,-2178.4 -3265.4,-2162.2 
		-3265.4,-2178.4 -3264.4,-2178 -3265.4,-2178.4 -3268.4,-2179.5 -3265.4,-2178.4 -3268.4,-2179.5 -3309.2,-2194 -3268.4,-2179.5 
		-3265.4,-2178.4 -3268.4,-2179.5 -3309.2,-2194 -3268.4,-2179.5 -3265.4,-2178.4 -3268.4,-2179.5 -3265.4,-2178.4 -3181.9,-2187.2 
		-3185.1,-2188.2 -3263,-2180 	"/>
	<polyline class="st0" points="-3264.4,-2161.8 -3265.4,-2162.2 -3264.4,-2161.8 -3265.4,-2162.2 -3264.4,-2161.8 -3265.4,-2162.2 
		-3264.4,-2161.8 -3265.4,-2162.2 -3264.4,-2161.8 -3265.4,-2162.2 -3264.4,-2161.8 -3265.4,-2162.2 -3301.3,-2158.1 
		-3340.3,-2153.7 -3338.4,-2024.2 -3353.5,-2021.6 -3356.2,-2168.8 -3358.9,-2170 -3358.6,-2170 -3268.4,-2179.5 -3309.2,-2194 
		-3304,-2194.5 -3258.9,-2178.6 -3304,-2194.5 	"/>
	<polyline class="st0" points="-3298.6,-2174.9 -3265.4,-2178.4 -3264.4,-2178 -3212,-2159.4 	"/>
	<polyline class="st0" points="-3356.2,-2168.8 -3265.4,-2178.4 -3265.4,-2162.2 -3221.6,-2145.4 -3223.5,-2011.9 -3214.5,-2006.7 
		-3212,-2159.4 -3206.2,-2160 -3260.2,-2179 	"/>
	<polyline class="st0" points="-3198.9,-2169.7 -3199,-2161.2 -3201.2,-2050.2 -3198.1,-2048.6 -3195.8,-2161.7 -3195.6,-2170.1 
		-3225.3,-2166.7 	"/>
	<polyline class="st0" points="-3198.1,-2048.6 -3185.1,-2050.9 -3182.4,-2164.7 -3181.9,-2187.2 	"/>
	<polyline class="st0" points="-3214.5,-2006.7 -3209,-2007.7 -3206.2,-2160 	"/>
	<polygon class="st0" points="-3281.7,-2711.7 -3278.7,-2710.6 -3195.8,-2719.4 -3199,-2720.3 	"/>
	<polyline class="st0" points="-3353.5,-2021.6 -3356.1,-2023.4 -3358.9,-2170 	"/>
	<polyline class="st0" points="-3304,-2194.5 -3258.9,-2178.6 -3304,-2194.5 	"/>
	<polygon class="st0" points="-3308.2,-2061.7 -3308.9,-2157.2 -3308.2,-2061.7 -3301.4,-2057.7 -3296.4,-2058.5 -3296.8,-2157.8 
		-3296.4,-2058.5 -3301.4,-2057.7 	"/>
	<polyline class="st0" points="-3309.2,-2194 -3268.4,-2179.5 -3309.2,-2194 	"/>
	<polygon class="st0" points="-3308.2,-2061.7 -3308.9,-2157.2 -3308.2,-2061.7 -3308.9,-2157.2 -3308.2,-2061.7 -3308.9,-2157.2 
		-3308.2,-2061.7 -3301.4,-2057.7 -3296.4,-2058.5 -3296.8,-2157.8 -3296.4,-2058.5 -3301.4,-2057.7 -3308.2,-2061.7 
		-3301.4,-2057.7 -3296.4,-2058.5 -3296.8,-2157.8 -3296.4,-2058.5 -3301.4,-2057.7 -3308.2,-2061.7 -3301.4,-2057.7 
		-3296.4,-2058.5 -3296.8,-2157.8 -3296.4,-2058.5 -3301.4,-2057.7 	"/>
	<polyline class="st0" points="-3304,-2194.5 -3258.9,-2178.6 -3304,-2194.5 	"/>
	<polygon class="st0" points="-3265.4,-2178.4 -3265.4,-2162.2 -3265.4,-2178.4 -3264.4,-2178 	"/>
	<polyline class="st0" points="-3304,-2194.5 -3258.9,-2178.6 -3304,-2194.5 	"/>
	<polygon class="st0" points="-3265.4,-2178.4 -3265.4,-2162.2 -3265.4,-2178.4 -3264.4,-2178 	"/>
	<polygon class="st0" points="-3265.4,-2178.4 -3264.4,-2178 -3265.4,-2178.4 -3265.4,-2162.2 	"/>
	<polyline class="st0" points="-3304,-2194.5 -3258.9,-2178.6 -3304,-2194.5 	"/>
	<polyline class="st0" points="-3251.2,-2156.7 -3264.4,-2161.8 -3251.2,-2156.7 	"/>
	<polyline class="st0" points="-3251.2,-2156.7 -3264.4,-2161.8 -3251.2,-2156.7 	"/>
	<polyline class="st0" points="-3265.4,-2162.2 -3301.3,-2158.1 -3265.4,-2162.2 	"/>
	<polyline class="st0" points="-3302,-2158 -3301.4,-2057.7 -3302,-2158 	"/>
	<polyline class="st0" points="-3265.4,-2162.2 -3301.3,-2158.1 -3265.4,-2162.2 	"/>
	<polygon class="st0" points="-3268.4,-2179.5 -3309.2,-2194 -3268.4,-2179.5 -3265.4,-2178.4 -3265.4,-2162.2 -3265.4,-2178.4 	"/>
	<polyline class="st0" points="-3302,-2158 -3301.4,-2057.7 -3302,-2158 	"/>
	<polyline class="st0" points="-3265.4,-2162.2 -3301.3,-2158.1 -3265.4,-2162.2 	"/>
	<polyline class="st0" points="-3302,-2158 -3301.4,-2057.7 -3302,-2158 	"/>
	<polygon class="st0" points="-3301.4,-2057.7 -3302,-2158 -3301.4,-2057.7 -3308.2,-2061.7 -3308.9,-2157.2 -3308.2,-2061.7 
		-3301.4,-2057.7 -3296.4,-2058.5 -3296.8,-2157.8 -3296.4,-2058.5 	"/>
	<polyline class="st0" points="-3265.4,-2162.2 -3301.3,-2158.1 -3265.4,-2162.2 	"/>
	<polyline class="st0" points="-3265.4,-2162.2 -3301.3,-2158.1 -3265.4,-2162.2 	"/>
	<polyline class="st0" points="-3302,-2158 -3301.4,-2057.7 -3302,-2158 	"/>
	<polyline class="st0" points="-3309,-2173.8 -3309.2,-2194 -3309,-2173.8 	"/>
	<polyline class="st0" points="-3309,-2173.8 -3309.2,-2194 -3309,-2173.8 	"/>
	<polyline class="st0" points="-3309,-2173.8 -3309.2,-2194 -3309,-2173.8 	"/>
	<polyline class="st0" points="-3309,-2173.8 -3309.2,-2194 -3309,-2173.8 	"/>
	<polyline class="st0" points="-3309,-2173.8 -3309.2,-2194 -3309,-2173.8 	"/>
	<line class="st0" x1="-3368.7" y1="-3588.5" x2="-3371.5" y2="-3734"/>
	<polyline class="st0" points="-3212.6,-3733.8 -3212.8,-3725.3 -3215,-3615.1 -3211.9,-3613.5 -3199,-3615.8 -3196.3,-3728.8 
		-3195.7,-3751.1 	"/>
	<polyline class="st0" points="-3366.2,-3586.7 -3368.9,-3732.8 -3371.5,-3734 -3371.2,-3734 -3281.6,-3743.4 -3199,-3752.1 
		-3195.7,-3751.2 -3278.7,-3742.4 -3281.6,-3743.4 	"/>
	<polyline class="st0" points="-3368.9,-3732.8 -3278.7,-3742.4 -3278.7,-3726.3 	"/>
	<polyline class="st0" points="-3351.2,-3589.3 -3353.1,-3717.8 -3314.3,-3722.2 -3278.7,-3726.3 -3209.4,-3734.1 -3209.6,-3725.8 
		-3211.9,-3613.5 	"/>
	<polyline class="st0" points="-3368.8,-2701.1 -3278.7,-2710.6 -3278.7,-2694.5 -3235.2,-2677.8 -3237.1,-2545.4 -3228.2,-2540.2 
		-3225.7,-2691.7 -3220,-2692.4 -3273.5,-2711.2 	"/>
	<polyline class="st0" points="-3212.7,-2702 -3212.8,-2693.5 -3215,-2583.4 -3211.9,-2581.8 -3209.6,-2694.1 -3209.5,-2702.4 
		-3238.9,-2699 	"/>
	<polyline class="st0" points="-3211.9,-2581.8 -3199,-2584.1 -3196.3,-2697 -3195.8,-2719.3 	"/>
	<polyline class="st0" points="-3228.2,-2540.2 -3222.7,-2541.2 -3220,-2692.4 	"/>
	<path class="st0" d="M15101.4,7979.7c16,5.3,25.2,11.5,27.7,18.4"/>
	<line class="st0" x1="15129.1" y1="7998.2" x2="15128.6" y2="8010.8"/>
	<line class="st0" x1="14793.8" y1="7996.7" x2="14794.1" y2="8011.1"/>
	<polyline class="st0" points="-3366.1,-2555 -3368.7,-2556.8 -3371.5,-2702.2 	"/>
	<polyline class="st0" points="14812.3,8261.9 14808,8258.9 14803.3,8013.3 	"/>
	<polyline class="st0" points="15045.2,8287 15054.5,8285.2 15059.1,8029.9 	"/>
	<polyline class="st0" points="-3355.7,-2687.3 -3353,-2686.1 -3351.1,-2557.6 -3366.1,-2555 -3368.8,-2701.1 -3371.5,-2702.2 
		-3371.1,-2702.2 -3281.7,-2711.7 	"/>
	<polyline class="st0" points="-3277.7,-2694.1 -3278.7,-2694.5 -3314.3,-2690.4 -3353,-2686.1 	"/>
	<polyline class="st0" points="15072.7,8216.6 15094.5,8212.8 15099,8022.1 15099.9,7984.4 	"/>
	<polyline class="st0" points="15071.4,8013.7 15071.1,8028 15067.5,8214 15072.7,8216.6 15076.6,8027.1 15076.9,8013.1 
		15027.2,8018.7 	"/>
	<polyline class="st0" points="14807.7,8015.3 14960,7999.2 14959.9,8026.4 15033.4,8054.5 15030.2,8278.1 15045.2,8287 
		15049.5,8031.1 15059.1,8029.9 14968.7,7998.1 	"/>
	<polyline class="st0" points="14895.2,7972.2 14970.8,7998.8 14895.2,7972.2 	"/>
	<polygon class="st0" points="14888.1,8194.7 14887,8034.6 14888.1,8194.7 14899.5,8201.4 14907.9,8200.1 14907.3,8033.8 
		14907.9,8200.1 14899.5,8201.4 	"/>
	<polyline class="st0" points="14886.6,7973 14955,7997.4 14886.6,7973 	"/>
	<polyline class="st0" points="-3278.7,-2710.6 -3277.7,-2710.2 -3225.7,-2691.7 	"/>
	<polygon class="st0" points="14888.1,8194.7 14887,8034.6 14888.1,8194.7 14887,8034.6 14888.1,8194.7 14887,8034.6 
		14888.1,8194.7 14899.5,8201.4 14907.9,8200.1 14907.3,8033.8 14907.9,8200.1 14899.5,8201.4 14888.1,8194.7 14899.5,8201.4 
		14907.9,8200.1 14907.3,8033.8 14907.9,8200.1 14899.5,8201.4 14888.1,8194.7 14899.5,8201.4 14907.9,8200.1 14907.3,8033.8 
		14907.9,8200.1 14899.5,8201.4 	"/>
	<polyline class="st0" points="14895.2,7972.2 14970.8,7998.8 14895.2,7972.2 	"/>
	<polyline class="st0" points="14886.8,8006.9 14886.6,7973 14886.8,8006.9 	"/>
	<polyline class="st0" points="14886.8,8006.9 14886.6,7973 14886.8,8006.9 	"/>
	<polyline class="st0" points="14886.8,8006.9 14886.6,7973 14886.8,8006.9 	"/>
	<polyline class="st0" points="14886.8,8006.9 14886.6,7973 14886.8,8006.9 	"/>
	<polyline class="st0" points="14886.8,8006.9 14886.6,7973 14886.8,8006.9 	"/>
	<polygon class="st0" points="14960,7999.2 14959.9,8026.4 14960,7999.2 14961.7,7999.8 	"/>
	<polyline class="st0" points="14895.2,7972.2 14970.8,7998.8 14895.2,7972.2 	"/>
	<polyline class="st0" points="14898.6,8033.3 14899.5,8201.4 14898.6,8033.3 	"/>
	<polygon class="st0" points="14960,7999.2 14959.9,8026.4 14960,7999.2 14961.7,7999.8 	"/>
	<polygon class="st0" points="14960,7999.2 14961.7,7999.8 14960,7999.2 14959.9,8026.4 	"/>
	<polyline class="st0" points="14959.9,8026.4 14899.8,8033.2 14959.9,8026.4 	"/>
	<polyline class="st0" points="14959.9,8026.4 14899.8,8033.2 14959.9,8026.4 	"/>
	<polyline class="st0" points="14895.2,7972.2 14970.8,7998.8 14895.2,7972.2 	"/>
	<polygon class="st0" points="14899.5,8201.4 14898.6,8033.3 14899.5,8201.4 14888.1,8194.7 14887,8034.6 14888.1,8194.7 
		14899.5,8201.4 14907.9,8200.1 14907.3,8033.8 14907.9,8200.1 	"/>
	<polyline class="st0" points="14898.6,8033.3 14899.5,8201.4 14898.6,8033.3 	"/>
	<polyline class="st0" points="14983.7,8035.5 14961.6,8027 14983.7,8035.5 	"/>
	<polyline class="st0" points="14983.7,8035.5 14961.6,8027 14983.7,8035.5 	"/>
	<polyline class="st0" points="14904.2,8005.1 14960,7999.2 14961.7,7999.8 15049.5,8031.1 	"/>
	<polyline class="st0" points="14961.6,8027 14959.9,8026.4 14961.6,8027 14959.9,8026.4 14961.6,8027 14959.9,8026.4 14961.6,8027 
		14959.9,8026.4 14961.6,8027 14959.9,8026.4 14961.6,8027 14959.9,8026.4 14899.8,8033.2 14834.4,8040.6 14837.6,8257.5 
		14812.3,8261.9 14807.7,8015.3 14803.3,8013.3 14803.8,8013.3 14955,7997.4 14886.6,7973 14895.2,7972.2 14970.8,7998.8 
		14895.2,7972.2 	"/>
	<polyline class="st0" points="14959.9,8026.4 14899.8,8033.2 14959.9,8026.4 	"/>
	<polyline class="st0" points="14898.6,8033.3 14899.5,8201.4 14898.6,8033.3 	"/>
	<polyline class="st0" points="14959.9,8026.4 14899.8,8033.2 14959.9,8026.4 	"/>
	<polygon class="st0" points="14955,7997.4 14886.6,7973 14955,7997.4 14960,7999.2 14959.9,8026.4 14960,7999.2 	"/>
	<polyline class="st0" points="14898.6,8033.3 14899.5,8201.4 14898.6,8033.3 	"/>
	<polyline class="st0" points="14959.9,8026.4 14899.8,8033.2 14959.9,8026.4 	"/>
	<polyline class="st0" points="14886.6,7973 14955,7997.4 14960,7999.2 14961.7,7999.8 14960,7999.2 14959.9,8026.4 14960,7999.2 
		14961.7,7999.8 14960,7999.2 14955,7997.4 14960,7999.2 14955,7997.4 14886.6,7973 14955,7997.4 14960,7999.2 14955,7997.4 
		14886.6,7973 14955,7997.4 14960,7999.2 14955,7997.4 14960,7999.2 15099.9,7984.4 15094.5,7982.7 14964,7996.4 	"/>
	<polyline class="st0" points="11736.2,10301.1 11735.9,10267.2 11736.2,10301.1 	"/>
</g>
<g id="Make2D::visible::lines::Default">
	<line class="st0" x1="16077.4" y1="8160.3" x2="16072.7" y2="7914.8"/>
	<line class="st0" x1="16081.7" y1="8163.4" x2="16077.1" y2="7916.8"/>
	<line class="st0" x1="16168.9" y1="8102.9" x2="16177.3" y2="8101.5"/>
	<line class="st0" x1="16081.7" y1="8163.4" x2="16077.4" y2="8160.3"/>
	<line class="st0" x1="16107" y1="8159" x2="16081.7" y2="8163.4"/>
	<line class="st0" x1="16176.7" y1="7935.2" x2="16177.3" y2="8101.5"/>
	<line class="st0" x1="16168.9" y1="8102.9" x2="16157.5" y2="8096.2"/>
	<line class="st0" x1="16103.8" y1="7942.1" x2="16107" y2="8159"/>
	<line class="st0" x1="16157.5" y1="8096.2" x2="16156.4" y2="7936.1"/>
	<line class="st0" x1="16318.9" y1="7932.6" x2="16314.6" y2="8188.5"/>
	<line class="st0" x1="16169.2" y1="7934.7" x2="16103.8" y2="7942.1"/>
	<line class="st0" x1="16314.6" y1="8188.5" x2="16323.9" y2="8186.7"/>
	<line class="st0" x1="16077.1" y1="7916.8" x2="16072.7" y2="7914.8"/>
	<line class="st0" x1="16328.5" y1="7931.4" x2="16323.9" y2="8186.7"/>
	<line class="st0" x1="16072.7" y1="7914.8" x2="16073.2" y2="7914.7"/>
	<line class="st0" x1="16318.9" y1="7932.6" x2="16328.5" y2="7931.4"/>
	<line class="st0" x1="16314.6" y1="8188.5" x2="16299.6" y2="8179.6"/>
	<line class="st0" x1="16363.9" y1="8114.3" x2="16368.4" y2="7923.5"/>
	<line class="st0" x1="16299.6" y1="8179.6" x2="16302.8" y2="7956"/>
	<line class="st0" x1="16342.1" y1="8118.1" x2="16363.9" y2="8114.3"/>
	<rect x="15340.6" y="7584" class="st0" width="1728" height="869.7"/>
	<rect x="15340.6" y="7584" class="st0" width="1728" height="869.7"/>
	<line class="st0" x1="16346" y1="7928.6" x2="16342.1" y2="8118.1"/>
	<path class="st0" d="M14807.3,8010.1c30,13.9,93.6,18.2,124.7,19.3c40.6,1.4,86.2,0.1,126.7-4.7"/>
	<line class="st0" x1="16336.8" y1="8115.5" x2="16342.1" y2="8118.1"/>
	<line class="st0" x1="16340.5" y1="7929.5" x2="16336.8" y2="8115.5"/>
	<path class="st0" d="M14807.6,8024.3c21.5,10.3,60,15.5,82.7,17.7c28.3,2.8,56.5,3.8,84.9,3.4c28.4-0.4,56.5-2.1,84.7-6.2
		c14.1-2.1,27.9-4.6,41.5-8.8c5.3-1.6,10.4-3.5,15.3-6c3.4-1.7,6.6-3.6,9.2-6.5c4-4.5,3.5-8.9-0.6-13"/>
	<path class="st0" d="M14807.6,8024.3c21.5,10.3,60,15.5,82.7,17.7c28.3,2.8,56.5,3.8,84.9,3.4c28.4-0.4,56.5-2.1,84.7-6.2
		c14.1-2.1,27.9-4.6,41.5-8.8c5.3-1.6,10.4-3.5,15.3-6c3.4-1.7,6.6-3.6,9.2-6.5c4-4.5,3.5-8.9-0.6-13"/>
	<path class="st0" d="M14807.6,8024.3c21.5,10.3,60,15.5,82.7,17.7c28.3,2.8,56.5,3.8,84.9,3.4c28.4-0.4,56.5-2.1,84.7-6.2
		c14.1-2.1,27.9-4.6,41.5-8.8c5.3-1.6,10.4-3.5,15.3-6c3.4-1.7,6.6-3.6,9.2-6.5c4-4.5,3.5-8.9-0.6-13"/>
	<path class="st0" d="M14807.6,8024.3c21.5,10.3,60,15.5,82.7,17.7c28.3,2.8,56.5,3.8,84.9,3.4c28.4-0.4,56.5-2.1,84.7-6.2
		c14.1-2.1,27.9-4.6,41.5-8.8c5.3-1.6,10.4-3.5,15.3-6c3.4-1.7,6.6-3.6,9.2-6.5c4-4.5,3.5-8.9-0.6-13"/>
	<path class="st0" d="M14807.6,8024.3c21.5,10.3,60,15.5,82.7,17.7c28.3,2.8,56.5,3.8,84.9,3.4c28.4-0.4,56.5-2.1,84.7-6.2
		c14.1-2.1,27.9-4.6,41.5-8.8c5.3-1.6,10.4-3.5,15.3-6c3.4-1.7,6.6-3.6,9.2-6.5c4-4.5,3.5-8.9-0.6-13"/>
	<line class="st0" x1="16340.5" y1="7929.5" x2="16336.8" y2="8115.5"/>
	<line class="st0" x1="16336.8" y1="8115.5" x2="16342.1" y2="8118.1"/>
	<path class="st0" d="M14807.3,8010.1c29.4,13.6,89.3,18.3,119.9,19.7c39,1.7,83.1,0.7,121.9-3.8"/>
	<line class="st0" x1="16346" y1="7928.6" x2="16342.1" y2="8118.1"/>
	<path class="st0" d="M15058.7,8024.7c12.9-1.8,25.7-4,38.3-7.4c6.3-1.7,12.5-3.6,18.5-6.3c4.2-1.9,13.4-6.5,13.6-12.8"/>
	<path class="st0" d="M15058.7,8024.7c12.9-1.8,25.7-4,38.3-7.4c6.3-1.7,12.5-3.6,18.5-6.3c4.2-1.9,13.4-6.5,13.6-12.8"/>
	<rect x="15340.6" y="7584" class="st0" width="1728" height="869.7"/>
	<rect x="15340.6" y="7584" class="st0" width="1728" height="869.7"/>
	<line class="st0" x1="16342.1" y1="8118.1" x2="16363.9" y2="8114.3"/>
	<path class="st0" d="M15058.7,8024.7c12.9-1.8,25.7-4,38.3-7.4c6.3-1.7,12.5-3.6,18.5-6.3c4.2-1.9,13.4-6.5,13.6-12.8"/>
	<line class="st0" x1="16363.9" y1="8114.3" x2="16368.4" y2="7923.5"/>
	<path class="st0" d="M15058.7,8024.7c12.9-1.8,25.7-4,38.3-7.4c6.3-1.7,12.5-3.6,18.5-6.3c4.2-1.9,13.4-6.5,13.6-12.8"/>
	<path class="st0" d="M15058.7,8024.7c12.9-1.8,25.7-4,38.3-7.4c6.3-1.7,12.5-3.6,18.5-6.3c4.2-1.9,13.4-6.5,13.6-12.8"/>
	<line class="st0" x1="16072.7" y1="7914.8" x2="16073.2" y2="7914.7"/>
	<line class="st0" x1="16299.6" y1="8179.6" x2="16302.8" y2="7956"/>
	<path class="st0" d="M14807.3,8010.1c29.4,13.6,89.3,18.3,119.9,19.7c39,1.7,83.1,0.7,121.9-3.8"/>
	<line class="st0" x1="16077.1" y1="7916.8" x2="16072.7" y2="7914.8"/>
	<line class="st0" x1="16314.6" y1="8188.5" x2="16299.6" y2="8179.6"/>
	<line class="st0" x1="16318.9" y1="7932.6" x2="16328.5" y2="7931.4"/>
	<line class="st0" x1="16328.5" y1="7931.4" x2="16323.9" y2="8186.7"/>
	<line class="st0" x1="16314.6" y1="8188.5" x2="16323.9" y2="8186.7"/>
	<line class="st0" x1="16318.9" y1="7932.6" x2="16314.6" y2="8188.5"/>
	<path class="st0" d="M14807.3,8010.1c29.4,13.6,89.3,18.3,119.9,19.7c39,1.7,83.1,0.7,121.9-3.8"/>
	<line class="st0" x1="16169.2" y1="7934.7" x2="16103.8" y2="7942.1"/>
	<line class="st0" x1="16157.5" y1="8096.2" x2="16156.4" y2="7936.1"/>
	<line class="st0" x1="14793.8" y1="7997.2" x2="14793.6" y2="7988"/>
	<line class="st0" x1="14793.8" y1="7997.2" x2="14793.6" y2="7988"/>
	<line class="st0" x1="16168.9" y1="8102.9" x2="16157.5" y2="8096.2"/>
	<line class="st0" x1="16176.7" y1="7935.2" x2="16177.3" y2="8101.5"/>
	<line class="st0" x1="16103.8" y1="7942.1" x2="16107" y2="8159"/>
	<line class="st0" x1="16168.9" y1="8102.9" x2="16177.3" y2="8101.5"/>
	<line class="st0" x1="16168" y1="7934.8" x2="16168.9" y2="8102.9"/>
	<line class="st0" x1="14793.8" y1="7997.2" x2="14793.6" y2="7988"/>
	<line class="st0" x1="14793.8" y1="7997.2" x2="14793.6" y2="7988"/>
	<line class="st0" x1="16107" y1="8159" x2="16081.7" y2="8163.4"/>
	<line class="st0" x1="16081.7" y1="8163.4" x2="16077.4" y2="8160.3"/>
	<line class="st0" x1="14793.8" y1="7997.2" x2="14793.6" y2="7988"/>
	<line class="st0" x1="16081.7" y1="8163.4" x2="16077.1" y2="7916.8"/>
	<line class="st0" x1="16077.4" y1="8160.3" x2="16072.7" y2="7914.8"/>
	<path class="st0" d="M14797.5,8003.9c-7.4,7.4-1.6,13.6,5.6,17.9"/>
	<path class="st0" d="M14793.8,7997.2c0.1,5.8,8,10.2,11.9,12.1"/>
	<path class="st0" d="M14793.8,7997.2c0.1,5.8,8,10.2,11.9,12.1"/>
	<path class="st0" d="M14793.8,7997.2c0.1,5.8,8,10.2,11.9,12.1"/>
	<path class="st0" d="M14793.8,7997.2c0.1,5.8,8,10.2,11.9,12.1"/>
	<line class="st0" x1="16077.4" y1="8160.3" x2="16072.7" y2="7914.8"/>
	<line class="st0" x1="16081.7" y1="8163.4" x2="16077.1" y2="7916.8"/>
	<path class="st0" d="M14793.8,7997.2c0.1,5.8,8,10.2,11.9,12.1"/>
	<line class="st0" x1="16081.7" y1="8163.4" x2="16077.4" y2="8160.3"/>
	<line class="st0" x1="16107" y1="8159" x2="16081.7" y2="8163.4"/>
	<line class="st0" x1="14807.3" y1="8010.1" x2="14802.9" y2="8008.1"/>
	<rect x="-3795.7" y="-2367.4" class="st0" width="1031" height="518.9"/>
	<line class="st0" x1="16103.8" y1="7942.1" x2="16107" y2="8159"/>
	<rect x="-3795.7" y="-2367.4" class="st0" width="1031" height="518.9"/>
	<rect x="-3795.7" y="-2367.4" class="st0" width="1031" height="518.9"/>
	<line class="st0" x1="16169.2" y1="7934.7" x2="16103.8" y2="7942.1"/>
	<rect x="-3795.7" y="-2367.4" class="st0" width="1031" height="518.9"/>
	<line class="st0" x1="16077.1" y1="7916.8" x2="16072.7" y2="7914.8"/>
	<line class="st0" x1="16168" y1="7934.8" x2="16168.9" y2="8102.9"/>
	<line class="st0" x1="16072.7" y1="7914.8" x2="16073.2" y2="7914.7"/>
	<line class="st0" x1="16168.9" y1="8102.9" x2="16177.3" y2="8101.5"/>
	<rect x="-3795.7" y="-2367.4" class="st0" width="1031" height="518.9"/>
	<line class="st0" x1="16363.9" y1="8114.3" x2="16368.4" y2="7923.5"/>
	<line class="st0" x1="16176.7" y1="7935.2" x2="16177.3" y2="8101.5"/>
	<line class="st0" x1="16342.1" y1="8118.1" x2="16363.9" y2="8114.3"/>
	<line class="st0" x1="16168.9" y1="8102.9" x2="16157.5" y2="8096.2"/>
	<rect x="-3795.7" y="-2367.4" class="st0" width="1031" height="518.9"/>
	<line class="st0" x1="16346" y1="7928.6" x2="16342.1" y2="8118.1"/>
	<rect x="-3795.7" y="-2367.4" class="st0" width="1031" height="518.9"/>
	<line class="st0" x1="16336.8" y1="8115.5" x2="16342.1" y2="8118.1"/>
	<line class="st0" x1="16340.5" y1="7929.5" x2="16336.8" y2="8115.5"/>
	<line class="st0" x1="16157.5" y1="8096.2" x2="16156.4" y2="7936.1"/>
	<rect x="-3795.7" y="-2367.4" class="st0" width="1031" height="518.9"/>
	<rect x="-3795.7" y="-2367.4" class="st0" width="1031" height="518.9"/>
	<line class="st0" x1="16318.9" y1="7932.6" x2="16314.6" y2="8188.5"/>
	<line class="st0" x1="16314.6" y1="8188.5" x2="16323.9" y2="8186.7"/>
	<line class="st0" x1="16328.5" y1="7931.4" x2="16323.9" y2="8186.7"/>
	<line class="st0" x1="16318.9" y1="7932.6" x2="16328.5" y2="7931.4"/>
	<line class="st0" x1="16314.6" y1="8188.5" x2="16299.6" y2="8179.6"/>
	<rect x="-3795.7" y="-2367.4" class="st0" width="1031" height="518.9"/>
	<rect x="-3795.7" y="-2367.4" class="st0" width="1031" height="518.9"/>
	<line class="st0" x1="16299.6" y1="8179.6" x2="16302.8" y2="7956"/>
	<rect x="15340.6" y="7584" class="st0" width="1728" height="869.7"/>
	<rect x="15340.6" y="7584" class="st0" width="1728" height="869.7"/>
	<rect x="-3795.7" y="-2367.4" class="st0" width="1031" height="518.9"/>
	<rect x="-3795.7" y="-2367.4" class="st0" width="1031" height="518.9"/>
	<line class="st0" x1="16299.6" y1="8179.6" x2="16302.8" y2="7956"/>
	<line class="st0" x1="16314.6" y1="8188.5" x2="16299.6" y2="8179.6"/>
	<line class="st0" x1="16318.9" y1="7932.6" x2="16328.5" y2="7931.4"/>
	<line class="st0" x1="16328.5" y1="7931.4" x2="16323.9" y2="8186.7"/>
	<line class="st0" x1="16314.6" y1="8188.5" x2="16323.9" y2="8186.7"/>
	<line class="st0" x1="16318.9" y1="7932.6" x2="16314.6" y2="8188.5"/>
	<line class="st0" x1="16157.5" y1="8096.2" x2="16156.4" y2="7936.1"/>
	<line class="st0" x1="16168.9" y1="8102.9" x2="16157.5" y2="8096.2"/>
	<line class="st0" x1="16176.7" y1="7935.2" x2="16177.3" y2="8101.5"/>
	<rect x="-3791.3" y="-1836" class="st0" width="1025.1" height="516"/>
	<line class="st0" x1="16168.9" y1="8102.9" x2="16177.3" y2="8101.5"/>
	<line class="st0" x1="16168" y1="7934.8" x2="16168.9" y2="8102.9"/>
	<rect x="-3795.7" y="-2367.4" class="st0" width="1031" height="518.9"/>
	<rect x="-3795.7" y="-2367.4" class="st0" width="1031" height="518.9"/>
	<rect x="-3795.7" y="-2367.4" class="st0" width="1031" height="518.9"/>
	<rect x="-3795.7" y="-2367.4" class="st0" width="1031" height="518.9"/>
	<rect x="15340.6" y="7584" class="st0" width="1728" height="869.7"/>
	<path class="st0" d="M16067.3,7910.6c-7.4,7.4-1.6,13.6,5.6,17.9"/>
	<path class="st0" d="M16063.6,7903.9c0.1,5.8,8,10.2,11.9,12.1"/>
	<path class="st0" d="M16063.6,7903.9c0.1,5.8,8,10.2,11.9,12.1"/>
	<path class="st0" d="M16063.6,7903.9c0.1,5.8,8,10.2,11.9,12.1"/>
	<path class="st0" d="M16067.3,7910.6c-7.4,7.4-1.6,13.6,5.6,17.9"/>
	<path class="st0" d="M16063.6,7903.9c0.1,5.8,8,10.2,11.9,12.1"/>
	<path class="st0" d="M16063.6,7903.9c0.1,5.8,8,10.2,11.9,12.1"/>
	<line class="st0" x1="16077.4" y1="8160.3" x2="16072.7" y2="7914.8"/>
	<line class="st0" x1="16081.7" y1="8163.4" x2="16077.1" y2="7916.8"/>
	<path class="st0" d="M16067.3,7910.6c-7.4,7.4-1.6,13.6,5.6,17.9"/>
	<line class="st0" x1="16081.7" y1="8163.4" x2="16077.4" y2="8160.3"/>
	<line class="st0" x1="16107" y1="8159" x2="16081.7" y2="8163.4"/>
	<path class="st0" d="M16067.3,7910.6c-7.4,7.4-1.6,13.6,5.6,17.9"/>
	<path class="st0" d="M16067.3,7910.6c-7.4,7.4-1.6,13.6,5.6,17.9"/>
	<line class="st0" x1="16103.8" y1="7942.1" x2="16107" y2="8159"/>
	<line class="st0" x1="16063.6" y1="7903.9" x2="16063.4" y2="7894.7"/>
	<line class="st0" x1="16063.6" y1="7903.9" x2="16063.4" y2="7894.7"/>
	<line class="st0" x1="16169.2" y1="7934.7" x2="16103.8" y2="7942.1"/>
	<line class="st0" x1="16077.1" y1="7916.8" x2="16072.7" y2="7914.8"/>
	<rect x="-3805.3" y="-3413.5" class="st0" width="1024" height="515.4"/>
	<line class="st0" x1="16072.7" y1="7914.8" x2="16073.2" y2="7914.7"/>
	<line class="st0" x1="16063.6" y1="7903.9" x2="16063.4" y2="7894.7"/>
	<line class="st0" x1="16063.6" y1="7903.9" x2="16063.4" y2="7894.7"/>
	<line class="st0" x1="16363.9" y1="8114.3" x2="16368.4" y2="7923.5"/>
	<line class="st0" x1="16063.6" y1="7903.9" x2="16063.4" y2="7894.7"/>
	<line class="st0" x1="16342.1" y1="8118.1" x2="16363.9" y2="8114.3"/>
	<rect x="-3795.7" y="-2367.4" class="st0" width="1031" height="518.9"/>
	<rect x="-3795.7" y="-2367.4" class="st0" width="1031" height="518.9"/>
	<line class="st0" x1="16346" y1="7928.6" x2="16342.1" y2="8118.1"/>
	<rect x="-3805" y="-2898.1" class="st0" width="1023.3" height="515"/>
	<line class="st0" x1="16336.8" y1="8115.5" x2="16342.1" y2="8118.1"/>
	<line class="st0" x1="16340.5" y1="7929.5" x2="16336.8" y2="8115.5"/>
	<rect x="-3805" y="-2898.1" class="st0" width="1023.3" height="515"/>
	<rect x="-3805.3" y="-3930.1" class="st0" width="1024" height="515.4"/>
	<rect x="-3805.3" y="-3930.1" class="st0" width="1024" height="515.4"/>
	<line class="st0" x1="16302.8" y1="7956" x2="16253.1" y2="7937"/>
	<line class="st0" x1="16302.8" y1="7956" x2="16253.1" y2="7937"/>
	<line class="st0" x1="16302.8" y1="7956" x2="16253.1" y2="7937"/>
	<line class="st0" x1="16302.8" y1="7956" x2="16253.1" y2="7937"/>
	<line class="st0" x1="16302.8" y1="7956" x2="16253.1" y2="7937"/>
	<path class="st0" d="M16077.1,7916.7c29.4,13.6,89.3,18.3,119.9,19.7c39,1.7,83.1,0.7,121.9-3.8"/>
	<path class="st0" d="M16077.1,7916.7c29.4,13.6,89.3,18.3,119.9,19.7c39,1.7,83.1,0.7,121.9-3.8"/>
	<rect x="15340.6" y="7584" class="st0" width="1728" height="869.7"/>
	<rect x="15340.6" y="7584" class="st0" width="1728" height="869.7"/>
	<path class="st0" d="M16077.1,7916.7c29.4,13.6,89.3,18.3,119.9,19.7c39,1.7,83.1,0.7,121.9-3.8"/>
	<path class="st0" d="M16077.1,7916.7c29.4,13.6,89.3,18.3,119.9,19.7c39,1.7,83.1,0.7,121.9-3.8"/>
	<path class="st0" d="M16328.5,7931.3c12.9-1.8,25.7-4,38.3-7.4c6.3-1.7,12.5-3.6,18.5-6.3c4.2-1.9,13.4-6.5,13.6-12.8"/>
	<path class="st0" d="M16328.5,7931.3c12.9-1.8,25.7-4,38.3-7.4c6.3-1.7,12.5-3.6,18.5-6.3c4.2-1.9,13.4-6.5,13.6-12.8"/>
	<path class="st0" d="M16328.5,7931.3c12.9-1.8,25.7-4,38.3-7.4c6.3-1.7,12.5-3.6,18.5-6.3c4.2-1.9,13.4-6.5,13.6-12.8"/>
	<path class="st0" d="M16328.5,7931.3c12.9-1.8,25.7-4,38.3-7.4c6.3-1.7,12.5-3.6,18.5-6.3c4.2-1.9,13.4-6.5,13.6-12.8"/>
	<path class="st0" d="M16328.5,7931.3c12.9-1.8,25.7-4,38.3-7.4c6.3-1.7,12.5-3.6,18.5-6.3c4.2-1.9,13.4-6.5,13.6-12.8"/>
	<path class="st0" d="M16077.1,7916.7c29.4,13.6,89.3,18.3,119.9,19.7c39,1.7,83.1,0.7,121.9-3.8"/>
	<path class="st0" d="M16077.4,7930.9c21.5,10.3,60,15.5,82.7,17.7c28.3,2.8,56.5,3.8,84.9,3.4c28.4-0.4,56.5-2.1,84.7-6.2
		c14.1-2,27.9-4.6,41.5-8.8c5.2-1.6,10.4-3.5,15.3-6c3.4-1.7,6.6-3.6,9.2-6.5c4-4.5,3.5-8.9-0.6-13"/>
	<path class="st0" d="M16077.4,7930.9c21.5,10.3,60,15.5,82.7,17.7c28.3,2.8,56.5,3.8,84.9,3.4c28.4-0.4,56.5-2.1,84.7-6.2
		c14.1-2,27.9-4.6,41.5-8.8c5.2-1.6,10.4-3.5,15.3-6c3.4-1.7,6.6-3.6,9.2-6.5c4-4.5,3.5-8.9-0.6-13"/>
	<path class="st0" d="M16077.4,7930.9c21.5,10.3,60,15.5,82.7,17.7c28.3,2.8,56.5,3.8,84.9,3.4c28.4-0.4,56.5-2.1,84.7-6.2
		c14.1-2,27.9-4.6,41.5-8.8c5.2-1.6,10.4-3.5,15.3-6c3.4-1.7,6.6-3.6,9.2-6.5c4-4.5,3.5-8.9-0.6-13"/>
	<line class="st0" x1="16340.5" y1="7929.5" x2="16336.8" y2="8115.5"/>
	<line class="st0" x1="16336.8" y1="8115.5" x2="16342.1" y2="8118.1"/>
	<path class="st0" d="M16077.4,7930.9c21.5,10.3,60,15.5,82.7,17.7c28.3,2.8,56.5,3.8,84.9,3.4c28.4-0.4,56.5-2.1,84.7-6.2
		c14.1-2,27.9-4.6,41.5-8.8c5.2-1.6,10.4-3.5,15.3-6c3.4-1.7,6.6-3.6,9.2-6.5c4-4.5,3.5-8.9-0.6-13"/>
	<line class="st0" x1="16346" y1="7928.6" x2="16342.1" y2="8118.1"/>
	<path class="st0" d="M16077.4,7930.9c21.5,10.3,60,15.5,82.7,17.7c28.3,2.8,56.5,3.8,84.9,3.4c28.4-0.4,56.5-2.1,84.7-6.2
		c14.1-2,27.9-4.6,41.5-8.8c5.2-1.6,10.4-3.5,15.3-6c3.4-1.7,6.6-3.6,9.2-6.5c4-4.5,3.5-8.9-0.6-13"/>
	<rect x="12838.6" y="9976.6" class="st0" width="1728" height="869.7"/>
	<line class="st0" x1="16342.1" y1="8118.1" x2="16363.9" y2="8114.3"/>
	<rect x="12838.6" y="9976.6" class="st0" width="1728" height="869.7"/>
	<line class="st0" x1="16363.9" y1="8114.3" x2="16368.4" y2="7923.5"/>
	<rect x="12838.6" y="9976.6" class="st0" width="1728" height="869.7"/>
	<rect x="12838.6" y="9976.6" class="st0" width="1728" height="869.7"/>
	<line class="st0" x1="16072.7" y1="7914.8" x2="16073.2" y2="7914.7"/>
	<rect x="12838.6" y="9976.6" class="st0" width="1728" height="869.7"/>
	<line class="st0" x1="16077.1" y1="7916.8" x2="16072.7" y2="7914.8"/>
	<rect x="12838.6" y="9976.6" class="st0" width="1728" height="869.7"/>
	<line class="st0" x1="16169.2" y1="7934.7" x2="16103.8" y2="7942.1"/>
	<rect x="12838.6" y="9976.6" class="st0" width="1728" height="869.7"/>
	<rect x="12838.6" y="9976.6" class="st0" width="1728" height="869.7"/>
	<line class="st0" x1="16103.8" y1="7942.1" x2="16107" y2="8159"/>
	<rect x="12838.6" y="9976.6" class="st0" width="1728" height="869.7"/>
	<rect x="12838.6" y="9976.6" class="st0" width="1728" height="869.7"/>
	<line class="st0" x1="16107" y1="8159" x2="16081.7" y2="8163.4"/>
	<line class="st0" x1="16081.7" y1="8163.4" x2="16077.4" y2="8160.3"/>
	<rect x="12838.6" y="9976.6" class="st0" width="1728" height="869.7"/>
	<line class="st0" x1="16081.7" y1="8163.4" x2="16077.1" y2="7916.8"/>
	<line class="st0" x1="16077.4" y1="8160.3" x2="16072.7" y2="7914.8"/>
	<rect x="12838.6" y="9976.6" class="st0" width="1728" height="869.7"/>
	<rect x="12838.6" y="9976.6" class="st0" width="1728" height="869.7"/>
	<rect x="12838.6" y="9976.6" class="st0" width="1728" height="869.7"/>
	<rect x="12838.6" y="9976.6" class="st0" width="1728" height="869.7"/>
	<rect x="12838.6" y="9976.6" class="st0" width="1728" height="869.7"/>
	<rect x="12838.6" y="9976.6" class="st0" width="1728" height="869.7"/>
	<rect x="12838.6" y="9976.6" class="st0" width="1728" height="869.7"/>
	<rect x="12838.6" y="9976.6" class="st0" width="1728" height="869.7"/>
	<line class="st0" x1="13487.4" y1="11327" x2="13824" y2="11358.6"/>
	<rect x="12838.6" y="11002.8" class="st0" width="1728" height="869.7"/>
	<line class="st0" x1="13487.4" y1="10300.9" x2="13824" y2="10332.5"/>
	<line class="st0" x1="8453.1" y1="14094.3" x2="8659.1" y2="14047.4"/>
	<line class="st0" x1="16168" y1="7934.8" x2="16168.9" y2="8102.9"/>
	<line class="st0" x1="16168.9" y1="8102.9" x2="16177.3" y2="8101.5"/>
	<line class="st0" x1="9997.1" y1="14094.3" x2="10203.2" y2="14047.4"/>
	<line class="st0" x1="16176.7" y1="7935.2" x2="16177.3" y2="8101.5"/>
	<line class="st0" x1="16168.9" y1="8102.9" x2="16157.5" y2="8096.2"/>
	<line class="st0" x1="8448.3" y1="14524.2" x2="8449" y2="14524.3"/>
	<line class="st0" x1="9503.9" y1="14761.2" x2="9503.9" y2="14761.2"/>
	<line class="st0" x1="16157.5" y1="8096.2" x2="16156.4" y2="7936.1"/>
	<line class="st0" x1="9503" y1="14776.7" x2="9503" y2="14776.7"/>
	<line class="st0" x1="9641.4" y1="14663" x2="9641.5" y2="14663"/>
	<line class="st0" x1="16318.9" y1="7932.6" x2="16314.6" y2="8188.5"/>
	<line class="st0" x1="16314.6" y1="8188.5" x2="16323.9" y2="8186.7"/>
	<line class="st0" x1="16328.5" y1="7931.4" x2="16323.9" y2="8186.7"/>
	<line class="st0" x1="16318.9" y1="7932.6" x2="16328.5" y2="7931.4"/>
	<line class="st0" x1="16314.6" y1="8188.5" x2="16299.6" y2="8179.6"/>
	<line class="st0" x1="9992.4" y1="14524.2" x2="9993" y2="14524.3"/>
	<line class="st0" x1="10007.1" y1="14540.3" x2="11026.2" y2="14772"/>
	<line class="st0" x1="16299.6" y1="8179.6" x2="16302.8" y2="7956"/>
	<line class="st0" x1="11047.1" y1="14776.7" x2="11047.1" y2="14776.7"/>
	<line class="st0" x1="10006.8" y1="14527.4" x2="11027" y2="14756.5"/>
	<line class="st0" x1="11048" y1="14761.2" x2="11048" y2="14761.2"/>
	<line class="st0" x1="10002.3" y1="14323.3" x2="11040.3" y2="14511.5"/>
	<line class="st0" x1="11562.8" y1="14331.3" x2="12600.9" y2="14519.6"/>
	<line class="st0" x1="12608.5" y1="14769.2" x2="12608.5" y2="14769.2"/>
	<rect x="15340.6" y="7584" class="st0" width="1728" height="869.7"/>
	<rect x="4764.8" y="9976.6" class="st0" width="1728" height="869.7"/>
	<line class="st0" x1="11567.4" y1="14535.4" x2="12587.6" y2="14764.5"/>
	<line class="st0" x1="12607.7" y1="14784.8" x2="12607.7" y2="14784.8"/>
	<line class="st0" x1="11567.7" y1="14548.3" x2="12586.8" y2="14780"/>
	<line class="st0" x1="11553" y1="14532.2" x2="11553.6" y2="14532.3"/>
	<line class="st0" x1="12747.5" y1="14648.7" x2="12777.6" y2="14190.7"/>
	<polyline class="st0" points="11187,14640.7 11217,14182.6 11195.8,14181.1 11054.5,14249.3 	"/>
	<polyline class="st0" points="8466.7,14701.2 8453,14697.6 8449.1,14528.9 8448.8,14516.1 8444.2,14320.8 8443.9,14307.5 
		8439.1,14106 8438.8,14092.4 	"/>
	<polyline class="st0" points="9982.9,14092.4 9997.1,14094.3 9997.4,14107.9 10006.9,14532.1 10010.7,14701.2 10200.2,14613.3 	"/>
	<polyline class="st0" points="11036.2,14972.6 11015.6,14967.1 11026.6,14763.9 11054.5,14249.3 11076.3,14252.2 11048.4,14753.1 
		11047.5,14768.7 11036.2,14972.6 11173.7,14842.3 11186,14654.9 11187,14640.7 11217,14182.6 11076.3,14252.2 	"/>
	<polyline class="st0" points="8656.1,14613.3 8466.7,14701.2 8463.1,14540.3 9482.1,14772 	"/>
	<polyline class="st0" points="8654.8,14451.8 8654.7,14443.7 8659.1,14047.4 8645.4,14045.8 8637.8,14047.5 8438.8,14092.4 
		8453.1,14094.3 8453.4,14107.9 8462.8,14527.4 9483,14756.5 	"/>
	<rect x="4764.8" y="9976.6" class="st0" width="1728" height="869.7"/>
	<rect x="6890" y="9976.6" class="st0" width="1728" height="869.7"/>
	<rect x="6890" y="9976.6" class="st0" width="1728" height="869.7"/>
	<rect x="8996.9" y="9976.6" class="st0" width="1728" height="869.7"/>
	<rect x="8996.9" y="9976.6" class="st0" width="1728" height="869.7"/>
	<rect x="10920.6" y="9976.6" class="st0" width="1728" height="869.7"/>
	<rect x="10920.6" y="9976.6" class="st0" width="1728" height="869.7"/>
	<rect x="10920.6" y="9976.6" class="st0" width="1728" height="869.7"/>
	<rect x="10920.6" y="9976.6" class="st0" width="1728" height="869.7"/>
	<rect x="10920.6" y="9976.6" class="st0" width="1728" height="869.7"/>
	<rect x="10920.6" y="9976.6" class="st0" width="1728" height="869.7"/>
	<rect x="10920.6" y="9976.6" class="st0" width="1728" height="869.7"/>
	<rect x="10920.6" y="9976.6" class="st0" width="1728" height="869.7"/>
	<rect x="10920.6" y="9976.6" class="st0" width="1728" height="869.7"/>
	<rect x="10920.6" y="9976.6" class="st0" width="1728" height="869.7"/>
	<rect x="10920.6" y="9976.6" class="st0" width="1728" height="869.7"/>
	<rect x="10920.6" y="9976.6" class="st0" width="1728" height="869.7"/>
	<rect x="10920.6" y="9976.6" class="st0" width="1728" height="869.7"/>
	<rect x="10920.6" y="9976.6" class="st0" width="1728" height="869.7"/>
	<rect x="10920.6" y="9976.6" class="st0" width="1728" height="869.7"/>
	<rect x="10920.6" y="9976.6" class="st0" width="1728" height="869.7"/>
	<rect x="10920.6" y="9976.6" class="st0" width="1728" height="869.7"/>
	<rect x="10920.6" y="9976.6" class="st0" width="1728" height="869.7"/>
	<rect x="10920.6" y="9976.6" class="st0" width="1728" height="869.7"/>
	<polyline class="st0" points="8449.3,14536.7 8448.6,14537 8449.3,14537.1 	"/>
	<polyline class="st0" points="9673,14182.6 9642.9,14640.7 9642,14654.9 9629.7,14842.3 9492.1,14972.6 9503.5,14768.7 
		9504.4,14753.1 9532.3,14252.2 	"/>
	<polyline class="st0" points="9492.1,14972.6 9471.6,14967.1 9482.6,14763.9 9510.4,14249.3 9651.8,14181.1 9673,14182.6 
		9532.3,14252.2 9510.4,14249.3 	"/>
	<polyline class="st0" points="9993.3,14536.7 9992.7,14537 9993.3,14537.1 	"/>
	<polyline class="st0" points="11047.2,14383.6 10197.2,14249.2 10002,14310 11041.2,14495.4 	"/>
	<polyline class="st0" points="12637.8,14243.5 12778.6,14175.4 11742.4,14055.6 	"/>
	<polyline class="st0" points="12607.8,14391.6 11757.8,14257.3 11562.5,14318.1 12601.7,14503.5 	"/>
	<polyline class="st0" points="12595.1,14626.5 11758.9,14459.8 11573.2,14536.8 	"/>
	<polyline class="st0" points="11571.3,14709.3 11567.5,14540.1 11558,14116 12615.1,14257.3 12636.9,14260.3 12777.6,14190.7 
		12778.6,14175.4 	"/>
	<polyline class="st0" points="11543.8,14114.1 11543.4,14100.5 12637.8,14243.5 12636.9,14260.3 12777.6,14190.7 12747.5,14648.7 
		12746.6,14663 12734.3,14850.4 12596.7,14980.6 12576.2,14975.2 12587.2,14772 12615.1,14257.3 12636.9,14260.3 12609,14761.2 
		12608.1,14776.7 12596.7,14980.6 	"/>
	<line class="st0" x1="6964.4" y1="14575.9" x2="6964.7" y2="14613.3"/>
	<line class="st0" x1="6761.7" y1="14094.3" x2="6967.7" y2="14047.4"/>
	<polyline class="st0" points="7950.6,14654.9 7951.5,14640.7 7981.6,14182.6 	"/>
	<polyline class="st0" points="7800.7,14972.6 7812.1,14768.7 7813,14753.1 7840.9,14252.2 	"/>
	<polyline class="st0" points="7955.8,14650.6 7950.6,14654.9 7938.3,14842.3 7800.7,14972.6 7780.2,14967.1 7791.2,14763.9 
		7819,14249.3 7960.4,14181.1 7981.6,14182.6 7840.9,14252.2 7819,14249.3 	"/>
	<polyline class="st0" points="6775.3,14701.2 6771.5,14532.1 6762,14107.9 6761.7,14094.3 6747.4,14092.4 6946.4,14047.5 
		6954,14045.8 6967.7,14047.4 6963.3,14443.7 6964.7,14613.3 6775.3,14701.2 6761.6,14697.6 6757.7,14528.9 6757.4,14516.1 
		6752.8,14320.8 6752.5,14307.5 6747.7,14106 6747.4,14092.4 	"/>
	<line class="st0" x1="5215" y1="14102.3" x2="5421" y2="14055.4"/>
	<line class="st0" x1="16168" y1="7934.8" x2="16168.9" y2="8102.9"/>
	<line class="st0" x1="601.7" y1="181.9" x2="601.7" y2="181.9"/>
	<path class="st0" d="M423.3,179.6c17.4,8.1,52.9,10.9,71.1,11.7c23.1,1,49.3,0.4,72.3-2.3c-23,2.7-49.2,3.3-72.3,2.3
		C476.2,190.4,440.7,187.7,423.3,179.6z"/>
	<path class="st0" d="M423.3,179.6c17.4,8.1,52.9,10.9,71.1,11.7c23.1,1,49.3,0.4,72.3-2.3c-23,2.7-49.2,3.3-72.3,2.3
		C476.2,190.4,440.7,187.7,423.3,179.6z"/>
	<path class="st0" d="M415.3,171.9c0.1,3.6,5.7,6.5,8,7.6c17.4,8.1,52.9,10.9,71.1,11.7c23.1,1,49.3,0.4,72.3-2.3
		c1.9-0.2,3.8-0.5,5.7-0.7c7.7-1.1,15.2-2.4,22.7-4.4c3.7-1,7.4-2.1,10.9-3.8c2.5-1.1,7.9-3.9,8.1-7.6c-1.5-4.1-7-7.8-16.4-10.9
		c-25.7-7.7-67-9.4-93.2-9c-15.7,0.3-31.2,1.2-46.8,3.3c-7.8,1-15.5,2.4-23.1,4.4c-4.9,1.3-9.7,2.7-14.2,5.3c-2,1.2-5.1,3.2-5.2,6.1
		c0.1,2.8,0.1,5.6,0.2,8.4c0.1,3,3.3,5.3,5.3,6.5c0.9,0.5,1.7,1,2.6,1.4c-0.9-0.4-1.8-0.9-2.6-1.4c0.9,0.5,1.7,1,2.6,1.4
		c12.5,6,34.8,9.1,48.1,10.4c16.4,1.7,32.8,2.3,49.3,2.1c16.5-0.2,32.9-1.1,49.3-3.3c8.2-1.1,16.2-2.5,24.2-4.7
		c4.9-1.3,10.6-3.1,15-6c2.1-1.3,4.9-3.6,4.5-6.6c0.4,3.1-2.5,5.3-4.5,6.6c-4.4,2.9-10.1,4.6-15,6c-8,2.2-16.1,3.6-24.2,4.7
		c-16.4,2.2-32.8,3.1-49.3,3.3c-16.5,0.2-32.9-0.5-49.3-2.1c-13.3-1.3-35.5-4.4-48.1-10.4c12.5,6,34.8,9.1,48.1,10.4
		c16.4,1.7,32.8,2.3,49.3,2.1c16.5-0.2,32.9-1.1,49.3-3.3c8.2-1.1,16.2-2.5,24.2-4.7c4.9-1.3,10.6-3.1,15-6c2.1-1.3,4.9-3.6,4.5-6.6
		"/>
	<polyline class="st0" points="455.8,196.4 444.6,197.7 446.5,326.4 431.5,329 428.9,190.2 	"/>
	<polyline class="st0" points="431.5,329 428.9,327.2 426.3,189.2 	"/>
	<path class="st0" d="M415.4,180c0,3,3.3,5.4,5.3,6.6C418.7,185.3,415.4,183,415.4,180z"/>
	<path class="st0" d="M415.4,180c0,3,3.3,5.4,5.3,6.6C418.7,185.3,415.4,183,415.4,180z"/>
	<path class="st0" d="M420.8,186.6c0.9,0.5,1.7,1,2.6,1.4C422.5,187.6,421.6,187.1,420.8,186.6z"/>
	<line class="st0" x1="499.6" y1="191.4" x2="499.6" y2="191.4"/>
	<polyline class="st0" points="499.6,191.4 499.6,191.4 499.6,191.4 	"/>
	<polyline class="st0" points="499.6,191.4 499.6,191.4 499.6,191.4 	"/>
	<polyline class="st0" points="499.6,191.4 499.6,191.4 499.6,191.4 	"/>
	<polyline class="st0" points="499.6,191.4 499.6,191.4 499.6,191.4 	"/>
	<polyline class="st0" points="499.6,191.4 499.6,191.4 499.6,191.4 	"/>
	<line class="st0" x1="525.3" y1="191.6" x2="525.3" y2="191.6"/>
	<line class="st0" x1="525.3" y1="191.6" x2="525.3" y2="191.6"/>
	<line class="st0" x1="570" y1="188.6" x2="570" y2="188.6"/>
	<line class="st0" x1="577.9" y1="191.4" x2="577.9" y2="191.4"/>
	<line class="st0" x1="588.4" y1="185.5" x2="588.4" y2="185.5"/>
	<line class="st0" x1="585.1" y1="186.1" x2="585.1" y2="186.2"/>
	<line class="st0" x1="593.4" y1="160.3" x2="596.6" y2="161.3"/>
	<polyline class="st0" points="593.4,160.3 596.6,161.3 593.4,160.3 	"/>
	<polyline class="st0" points="566.7,189 572.4,188.3 566.7,189 	"/>
	<polyline class="st0" points="593.4,160.3 596.6,161.3 593.4,160.3 	"/>
	<polyline class="st0" points="566.7,189 572.4,188.3 566.7,189 	"/>
	<path class="st0" d="M597.7,161.6c-25.7-7.7-67-9.4-93.2-9c-15.7,0.3-31.2,1.2-46.8,3.3c-7.8,1-15.5,2.4-23.1,4.4
		c-4.9,1.3-9.7,2.7-14.2,5.3c-2,1.2-5.1,3.2-5.2,6.1c0.1-2.9,3.2-4.9,5.2-6.1c4.5-2.6,9.2-4,14.2-5.3c7.6-2,15.3-3.3,23.1-4.4
		c15.6-2.1,31.1-3,46.8-3.3C530.7,152.2,572,153.8,597.7,161.6z"/>
	<path class="st0" d="M572.4,188.2c7.7-1.1,15.2-2.4,22.7-4.4c3.7-1,7.4-2.1,10.9-3.8c2.5-1.1,8-3.8,8.1-7.6
		c-0.1,3.7-5.6,6.4-8.1,7.6c-3.5,1.6-7.2,2.8-10.9,3.8C587.7,185.9,580.1,187.2,572.4,188.2z"/>
	<path class="st0" d="M597.7,161.6c-25.7-7.7-67-9.4-93.2-9c-15.7,0.3-31.2,1.2-46.8,3.3c-7.8,1-15.5,2.4-23.1,4.4
		c-4.9,1.3-9.7,2.7-14.2,5.3c-2,1.2-5.1,3.2-5.2,6.1c0.1-2.9,3.2-4.9,5.2-6.1c4.5-2.6,9.2-4,14.2-5.3c7.6-2,15.3-3.3,23.1-4.4
		c15.6-2.1,31.1-3,46.8-3.3C530.7,152.2,572,153.8,597.7,161.6z"/>
	<path class="st0" d="M572.4,188.2c7.7-1.1,15.2-2.4,22.7-4.4c3.7-1,7.4-2.1,10.9-3.8c2.5-1.1,8-3.8,8.1-7.6
		c-0.1,3.7-5.6,6.4-8.1,7.6c-3.5,1.6-7.2,2.8-10.9,3.8C587.7,185.9,580.1,187.2,572.4,188.2z"/>
	<path class="st0" d="M423.4,188c12.5,6,34.8,9.1,48.1,10.4c16.4,1.7,32.8,2.3,49.3,2.1c16.5-0.2,32.9-1.1,49.3-3.3
		c8.2-1.1,16.2-2.5,24.2-4.7c4.9-1.3,10.6-3.1,15-6c2.1-1.3,4.9-3.6,4.5-6.6c0.4,3.1-2.5,5.3-4.5,6.6c-4.4,2.9-10.1,4.6-15,6
		c-8,2.2-16.1,3.6-24.2,4.7c-16.4,2.2-32.8,3.1-49.3,3.3c-16.5,0.2-32.9-0.5-49.3-2.1C458.2,197.1,435.9,194,423.4,188z"/>
	<line class="st0" x1="614.2" y1="172.5" x2="613.9" y2="180"/>
</g>
<g id="Make2D::visible::lines::Make2D::visible::lines::Default">
	<line class="st0" x1="12856.5" y1="14377.1" x2="12860.1" y2="14374.6"/>
</g>
<g id="Make2D::hidden::lines::Default">
	<line class="st0" x1="16240.1" y1="7900.3" x2="16328.5" y2="7931.4"/>
	<line class="st0" x1="16231" y1="7901.3" x2="16318.9" y2="7932.6"/>
	<line class="st0" x1="16312.3" y1="7954.8" x2="16240" y2="7927.5"/>
	<line class="st0" x1="16308.8" y1="8177.9" x2="16312.3" y2="7954.8"/>
	<line class="st0" x1="16302.8" y1="7956" x2="16312.3" y2="7954.8"/>
	<line class="st0" x1="16323.9" y1="8186.7" x2="16308.8" y2="8177.9"/>
	<line class="st0" x1="16299.6" y1="8179.6" x2="16308.8" y2="8177.9"/>
	<line class="st0" x1="16165.9" y1="8094.9" x2="16164.6" y2="7873.7"/>
	<line class="st0" x1="16156.4" y1="7936.1" x2="16156" y2="7874.5"/>
	<line class="st0" x1="16177.3" y1="8101.5" x2="16165.9" y2="8094.9"/>
	<line class="st0" x1="16157.5" y1="8096.2" x2="16165.9" y2="8094.9"/>
	<line class="st0" x1="16176.5" y1="7903.4" x2="16176.7" y2="7935.2"/>
	<line class="st0" x1="16167.9" y1="7904.3" x2="16168" y2="7934.8"/>
	<line class="st0" x1="16240" y1="7927.5" x2="16176.5" y2="7903.4"/>
	<line class="st0" x1="16167.9" y1="7904.3" x2="16176.5" y2="7903.4"/>
	<line class="st0" x1="16224.3" y1="7925.9" x2="16167.9" y2="7904.3"/>
	<line class="st0" x1="16230.9" y1="7928.5" x2="16229.3" y2="7927.8"/>
	<line class="st0" x1="16240.1" y1="7900.3" x2="16240" y2="7927.5"/>
	<line class="st0" x1="16230.9" y1="7928.5" x2="16240" y2="7927.5"/>
	<line class="st0" x1="16231" y1="7901.3" x2="16230.9" y2="7928.5"/>
	<line class="st0" x1="16164.6" y1="7873.7" x2="16240.1" y2="7900.3"/>
	<line class="st0" x1="16231" y1="7901.3" x2="16240.1" y2="7900.3"/>
	<line class="st0" x1="16229.4" y1="7900.7" x2="16231" y2="7901.3"/>
	<line class="st0" x1="16156" y1="7874.5" x2="16224.3" y2="7898.9"/>
	<line class="st0" x1="16102.6" y1="8156" x2="16077.4" y2="8160.3"/>
	<line class="st0" x1="16099.3" y1="7940" x2="16102.6" y2="8156"/>
	<line class="st0" x1="16107" y1="8159" x2="16102.6" y2="8156"/>
	<line class="st0" x1="16224.3" y1="7925.9" x2="16099.3" y2="7940"/>
	<line class="st0" x1="16103.8" y1="7942.1" x2="16099.3" y2="7940"/>
	<line class="st0" x1="16229.3" y1="7927.8" x2="16169.2" y2="7934.7"/>
	<line class="st0" x1="16073.2" y1="7914.7" x2="16224.3" y2="7898.9"/>
	<line class="st0" x1="16077.1" y1="7916.8" x2="16229.4" y2="7900.7"/>
	<line class="st0" x1="16368.4" y1="7923.5" x2="16369.3" y2="7885.9"/>
	<line class="st0" x1="16358.6" y1="8111.7" x2="16363.9" y2="7884.2"/>
	<line class="st0" x1="16358.6" y1="8111.7" x2="16363.9" y2="8114.3"/>
	<line class="st0" x1="16336.8" y1="8115.5" x2="16358.6" y2="8111.7"/>
	<line class="st0" x1="16346.2" y1="7914.6" x2="16346" y2="7928.6"/>
	<line class="st0" x1="16340.9" y1="7912.8" x2="16340.5" y2="7929.5"/>
	<line class="st0" x1="16229.3" y1="7927.8" x2="16346.2" y2="7914.6"/>
	<line class="st0" x1="16340.9" y1="7912.8" x2="16346.2" y2="7914.6"/>
	<line class="st0" x1="16224.3" y1="7925.9" x2="16340.9" y2="7912.8"/>
	<line class="st0" x1="16229.4" y1="7900.7" x2="16229.3" y2="7927.8"/>
	<line class="st0" x1="16224.3" y1="7925.9" x2="16229.3" y2="7927.8"/>
	<line class="st0" x1="16224.3" y1="7898.9" x2="16224.3" y2="7925.9"/>
	<line class="st0" x1="16363.9" y1="7884.2" x2="16369.3" y2="7885.9"/>
	<line class="st0" x1="16369.3" y1="7885.9" x2="16229.4" y2="7900.7"/>
	<line class="st0" x1="16224.3" y1="7898.9" x2="16229.4" y2="7900.7"/>
	<line class="st0" x1="16363.9" y1="7884.2" x2="16224.3" y2="7898.9"/>
	<line class="st0" x1="16363.9" y1="7884.2" x2="16224.3" y2="7898.9"/>
	<line class="st0" x1="16224.3" y1="7898.9" x2="16229.4" y2="7900.7"/>
	<line class="st0" x1="16369.3" y1="7885.9" x2="16229.4" y2="7900.7"/>
	<line class="st0" x1="16363.9" y1="7884.2" x2="16369.3" y2="7885.9"/>
	<line class="st0" x1="16224.3" y1="7898.9" x2="16224.3" y2="7925.9"/>
	<line class="st0" x1="16224.3" y1="7925.9" x2="16229.3" y2="7927.8"/>
	<line class="st0" x1="16229.4" y1="7900.7" x2="16229.3" y2="7927.8"/>
	<line class="st0" x1="16224.3" y1="7925.9" x2="16340.9" y2="7912.8"/>
	<line class="st0" x1="16340.9" y1="7912.8" x2="16346.2" y2="7914.6"/>
	<line class="st0" x1="16229.3" y1="7927.8" x2="16346.2" y2="7914.6"/>
	<line class="st0" x1="16340.9" y1="7912.8" x2="16340.5" y2="7929.5"/>
	<line class="st0" x1="16346.2" y1="7914.6" x2="16346" y2="7928.6"/>
	<line class="st0" x1="16336.8" y1="8115.5" x2="16358.6" y2="8111.7"/>
	<line class="st0" x1="16358.6" y1="8111.7" x2="16363.9" y2="8114.3"/>
	<line class="st0" x1="16358.6" y1="8111.7" x2="16363.9" y2="7884.2"/>
	<line class="st0" x1="16368.4" y1="7923.5" x2="16369.3" y2="7885.9"/>
	<line class="st0" x1="16077.1" y1="7916.8" x2="16229.4" y2="7900.7"/>
	<line class="st0" x1="16103.8" y1="7942.1" x2="16099.3" y2="7940"/>
	<line class="st0" x1="16224.3" y1="7925.9" x2="16099.3" y2="7940"/>
	<line class="st0" x1="16107" y1="8159" x2="16102.6" y2="8156"/>
	<line class="st0" x1="16099.3" y1="7940" x2="16102.6" y2="8156"/>
	<line class="st0" x1="16102.6" y1="8156" x2="16077.4" y2="8160.3"/>
	<line class="st0" x1="16156" y1="7874.5" x2="16224.3" y2="7898.9"/>
	<line class="st0" x1="16229.4" y1="7900.7" x2="16231" y2="7901.3"/>
	<line class="st0" x1="16231" y1="7901.3" x2="16240.1" y2="7900.3"/>
	<line class="st0" x1="16164.6" y1="7873.7" x2="16240.1" y2="7900.3"/>
	<line class="st0" x1="16231" y1="7901.3" x2="16230.9" y2="7928.5"/>
	<line class="st0" x1="16230.9" y1="7928.5" x2="16240" y2="7927.5"/>
	<line class="st0" x1="16240.1" y1="7900.3" x2="16240" y2="7927.5"/>
	<line class="st0" x1="16230.9" y1="7928.5" x2="16229.3" y2="7927.8"/>
	<line class="st0" x1="16224.3" y1="7925.9" x2="16167.9" y2="7904.3"/>
	<line class="st0" x1="16167.9" y1="7904.3" x2="16176.5" y2="7903.4"/>
	<line class="st0" x1="16240" y1="7927.5" x2="16176.5" y2="7903.4"/>
	<line class="st0" x1="16167.9" y1="7904.3" x2="16168" y2="7934.8"/>
	<line class="st0" x1="16176.5" y1="7903.4" x2="16176.7" y2="7935.2"/>
	<line class="st0" x1="16157.5" y1="8096.2" x2="16165.9" y2="8094.9"/>
	<line class="st0" x1="16177.3" y1="8101.5" x2="16165.9" y2="8094.9"/>
	<line class="st0" x1="16156.4" y1="7936.1" x2="16156" y2="7874.5"/>
	<line class="st0" x1="16165.9" y1="8094.9" x2="16164.6" y2="7873.7"/>
	<line class="st0" x1="16299.6" y1="8179.6" x2="16308.8" y2="8177.9"/>
	<line class="st0" x1="16323.9" y1="8186.7" x2="16308.8" y2="8177.9"/>
	<line class="st0" x1="16302.8" y1="7956" x2="16312.3" y2="7954.8"/>
	<line class="st0" x1="16308.8" y1="8177.9" x2="16312.3" y2="7954.8"/>
	<line class="st0" x1="16312.3" y1="7954.8" x2="16240" y2="7927.5"/>
	<line class="st0" x1="16231" y1="7901.3" x2="16318.9" y2="7932.6"/>
	<line class="st0" x1="16240.1" y1="7900.3" x2="16328.5" y2="7931.4"/>
	<path class="st0" d="M16072.9,7928.5c1.5,0.9,2.9,1.7,4.5,2.4"/>
	<line class="st0" x1="16363.9" y1="7884.2" x2="16224.3" y2="7898.9"/>
	<line class="st0" x1="16224.3" y1="7898.9" x2="16229.4" y2="7900.7"/>
	<line class="st0" x1="16369.3" y1="7885.9" x2="16229.4" y2="7900.7"/>
	<line class="st0" x1="16363.9" y1="7884.2" x2="16369.3" y2="7885.9"/>
	<line class="st0" x1="16224.3" y1="7898.9" x2="16224.3" y2="7925.9"/>
	<line class="st0" x1="16224.3" y1="7925.9" x2="16229.3" y2="7927.8"/>
	<line class="st0" x1="16229.4" y1="7900.7" x2="16229.3" y2="7927.8"/>
	<line class="st0" x1="16224.3" y1="7925.9" x2="16340.9" y2="7912.8"/>
	<line class="st0" x1="16340.9" y1="7912.8" x2="16346.2" y2="7914.6"/>
	<line class="st0" x1="16229.3" y1="7927.8" x2="16346.2" y2="7914.6"/>
	<line class="st0" x1="16340.9" y1="7912.8" x2="16340.5" y2="7929.5"/>
	<line class="st0" x1="16346.2" y1="7914.6" x2="16346" y2="7928.6"/>
	<line class="st0" x1="16336.8" y1="8115.5" x2="16358.6" y2="8111.7"/>
	<line class="st0" x1="16358.6" y1="8111.7" x2="16363.9" y2="8114.3"/>
	<line class="st0" x1="16358.6" y1="8111.7" x2="16363.9" y2="7884.2"/>
	<line class="st0" x1="16368.4" y1="7923.5" x2="16369.3" y2="7885.9"/>
	<line class="st0" x1="16077.1" y1="7916.8" x2="16229.4" y2="7900.7"/>
	<line class="st0" x1="16073.2" y1="7914.7" x2="16224.3" y2="7898.9"/>
	<line class="st0" x1="16229.3" y1="7927.8" x2="16169.2" y2="7934.7"/>
	<line class="st0" x1="16103.8" y1="7942.1" x2="16099.3" y2="7940"/>
	<line class="st0" x1="16224.3" y1="7925.9" x2="16099.3" y2="7940"/>
	<line class="st0" x1="16107" y1="8159" x2="16102.6" y2="8156"/>
	<line class="st0" x1="16099.3" y1="7940" x2="16102.6" y2="8156"/>
	<line class="st0" x1="16102.6" y1="8156" x2="16077.4" y2="8160.3"/>
	<line class="st0" x1="16156" y1="7874.5" x2="16224.3" y2="7898.9"/>
	<line class="st0" x1="16229.4" y1="7900.7" x2="16231" y2="7901.3"/>
	<line class="st0" x1="16231" y1="7901.3" x2="16240.1" y2="7900.3"/>
	<line class="st0" x1="16164.6" y1="7873.7" x2="16240.1" y2="7900.3"/>
	<line class="st0" x1="16231" y1="7901.3" x2="16230.9" y2="7928.5"/>
	<line class="st0" x1="16230.9" y1="7928.5" x2="16240" y2="7927.5"/>
	<line class="st0" x1="16240.1" y1="7900.3" x2="16240" y2="7927.5"/>
	<line class="st0" x1="16230.9" y1="7928.5" x2="16229.3" y2="7927.8"/>
	<line class="st0" x1="16224.3" y1="7925.9" x2="16167.9" y2="7904.3"/>
	<line class="st0" x1="16167.9" y1="7904.3" x2="16176.5" y2="7903.4"/>
	<line class="st0" x1="16240" y1="7927.5" x2="16176.5" y2="7903.4"/>
	<line class="st0" x1="16167.9" y1="7904.3" x2="16168" y2="7934.8"/>
	<line class="st0" x1="16176.5" y1="7903.4" x2="16176.7" y2="7935.2"/>
	<line class="st0" x1="16157.5" y1="8096.2" x2="16165.9" y2="8094.9"/>
	<line class="st0" x1="16177.3" y1="8101.5" x2="16165.9" y2="8094.9"/>
	<line class="st0" x1="16156.4" y1="7936.1" x2="16156" y2="7874.5"/>
	<line class="st0" x1="16165.9" y1="8094.9" x2="16164.6" y2="7873.7"/>
	<line class="st0" x1="16299.6" y1="8179.6" x2="16308.8" y2="8177.9"/>
	<line class="st0" x1="16323.9" y1="8186.7" x2="16308.8" y2="8177.9"/>
	<line class="st0" x1="16302.8" y1="7956" x2="16312.3" y2="7954.8"/>
	<line class="st0" x1="16308.8" y1="8177.9" x2="16312.3" y2="7954.8"/>
	<line class="st0" x1="16312.3" y1="7954.8" x2="16240" y2="7927.5"/>
	<line class="st0" x1="16231" y1="7901.3" x2="16318.9" y2="7932.6"/>
	<line class="st0" x1="16240.1" y1="7900.3" x2="16328.5" y2="7931.4"/>
	<path class="st0" d="M16072.9,7928.5c1.5,0.9,2.9,1.7,4.5,2.4"/>
	<line class="st0" x1="16363.9" y1="7884.2" x2="16224.3" y2="7898.9"/>
	<line class="st0" x1="16224.3" y1="7898.9" x2="16229.4" y2="7900.7"/>
	<line class="st0" x1="16369.3" y1="7885.9" x2="16229.4" y2="7900.7"/>
	<line class="st0" x1="16363.9" y1="7884.2" x2="16369.3" y2="7885.9"/>
	<line class="st0" x1="16224.3" y1="7898.9" x2="16224.3" y2="7925.9"/>
	<line class="st0" x1="16224.3" y1="7925.9" x2="16229.3" y2="7927.8"/>
	<line class="st0" x1="16229.4" y1="7900.7" x2="16229.3" y2="7927.8"/>
	<line class="st0" x1="16224.3" y1="7925.9" x2="16340.9" y2="7912.8"/>
	<line class="st0" x1="16340.9" y1="7912.8" x2="16346.2" y2="7914.6"/>
	<line class="st0" x1="16229.3" y1="7927.8" x2="16346.2" y2="7914.6"/>
	<line class="st0" x1="16340.9" y1="7912.8" x2="16340.5" y2="7929.5"/>
	<line class="st0" x1="16346.2" y1="7914.6" x2="16346" y2="7928.6"/>
	<line class="st0" x1="16336.8" y1="8115.5" x2="16358.6" y2="8111.7"/>
	<line class="st0" x1="16358.6" y1="8111.7" x2="16363.9" y2="8114.3"/>
	<line class="st0" x1="16358.6" y1="8111.7" x2="16363.9" y2="7884.2"/>
	<line class="st0" x1="16368.4" y1="7923.5" x2="16369.3" y2="7885.9"/>
	<line class="st0" x1="16077.1" y1="7916.8" x2="16229.4" y2="7900.7"/>
	<line class="st0" x1="16073.2" y1="7914.7" x2="16224.3" y2="7898.9"/>
	<line class="st0" x1="16229.3" y1="7927.8" x2="16169.2" y2="7934.7"/>
	<line class="st0" x1="16103.8" y1="7942.1" x2="16099.3" y2="7940"/>
	<line class="st0" x1="16224.3" y1="7925.9" x2="16099.3" y2="7940"/>
	<line class="st0" x1="16107" y1="8159" x2="16102.6" y2="8156"/>
	<line class="st0" x1="16099.3" y1="7940" x2="16102.6" y2="8156"/>
	<line class="st0" x1="16102.6" y1="8156" x2="16077.4" y2="8160.3"/>
	<line class="st0" x1="16156" y1="7874.5" x2="16224.3" y2="7898.9"/>
	<line class="st0" x1="16229.4" y1="7900.7" x2="16231" y2="7901.3"/>
	<line class="st0" x1="16231" y1="7901.3" x2="16240.1" y2="7900.3"/>
	<line class="st0" x1="16164.6" y1="7873.7" x2="16240.1" y2="7900.3"/>
	<line class="st0" x1="16231" y1="7901.3" x2="16230.9" y2="7928.5"/>
	<line class="st0" x1="16230.9" y1="7928.5" x2="16240" y2="7927.5"/>
	<line class="st0" x1="16240.1" y1="7900.3" x2="16240" y2="7927.5"/>
	<line class="st0" x1="16230.9" y1="7928.5" x2="16229.3" y2="7927.8"/>
	<line class="st0" x1="16224.3" y1="7925.9" x2="16167.9" y2="7904.3"/>
	<line class="st0" x1="16167.9" y1="7904.3" x2="16176.5" y2="7903.4"/>
	<line class="st0" x1="16240" y1="7927.5" x2="16176.5" y2="7903.4"/>
	<line class="st0" x1="16167.9" y1="7904.3" x2="16168" y2="7934.8"/>
	<line class="st0" x1="16176.5" y1="7903.4" x2="16176.7" y2="7935.2"/>
	<line class="st0" x1="16157.5" y1="8096.2" x2="16165.9" y2="8094.9"/>
	<line class="st0" x1="16177.3" y1="8101.5" x2="16165.9" y2="8094.9"/>
	<line class="st0" x1="16156.4" y1="7936.1" x2="16156" y2="7874.5"/>
	<line class="st0" x1="16165.9" y1="8094.9" x2="16164.6" y2="7873.7"/>
	<line class="st0" x1="16299.6" y1="8179.6" x2="16308.8" y2="8177.9"/>
	<line class="st0" x1="16323.9" y1="8186.7" x2="16308.8" y2="8177.9"/>
	<line class="st0" x1="16302.8" y1="7956" x2="16312.3" y2="7954.8"/>
	<line class="st0" x1="16308.8" y1="8177.9" x2="16312.3" y2="7954.8"/>
	<line class="st0" x1="16312.3" y1="7954.8" x2="16240" y2="7927.5"/>
	<line class="st0" x1="16231" y1="7901.3" x2="16318.9" y2="7932.6"/>
	<line class="st0" x1="16240.1" y1="7900.3" x2="16328.5" y2="7931.4"/>
	<path class="st0" d="M16072.9,7928.5c1.5,0.9,2.9,1.7,4.5,2.4"/>
	<line class="st0" x1="16363.9" y1="7884.2" x2="16224.3" y2="7898.9"/>
	<line class="st0" x1="16224.3" y1="7898.9" x2="16229.4" y2="7900.7"/>
	<line class="st0" x1="16369.3" y1="7885.9" x2="16229.4" y2="7900.7"/>
	<line class="st0" x1="16363.9" y1="7884.2" x2="16369.3" y2="7885.9"/>
	<line class="st0" x1="16224.3" y1="7898.9" x2="16224.3" y2="7925.9"/>
	<line class="st0" x1="16224.3" y1="7925.9" x2="16229.3" y2="7927.8"/>
	<line class="st0" x1="16229.4" y1="7900.7" x2="16229.3" y2="7927.8"/>
	<line class="st0" x1="16224.3" y1="7925.9" x2="16340.9" y2="7912.8"/>
	<line class="st0" x1="16340.9" y1="7912.8" x2="16346.2" y2="7914.6"/>
	<line class="st0" x1="16229.3" y1="7927.8" x2="16346.2" y2="7914.6"/>
	<line class="st0" x1="16340.9" y1="7912.8" x2="16340.5" y2="7929.5"/>
	<line class="st0" x1="16346.2" y1="7914.6" x2="16346" y2="7928.6"/>
	<line class="st0" x1="16336.8" y1="8115.5" x2="16358.6" y2="8111.7"/>
	<path class="st0" d="M15125.3,8004.9c-5.7-5.7-17.1-9.8-24.3-12.1"/>
	<line class="st0" x1="16358.6" y1="8111.7" x2="16363.9" y2="8114.3"/>
	<path class="st0" d="M15125.3,8004.9c-5.7-5.7-17.1-9.8-24.3-12.1"/>
	<line class="st0" x1="16358.6" y1="8111.7" x2="16363.9" y2="7884.2"/>
	<path class="st0" d="M15125.3,8004.9c-5.7-5.7-17.1-9.8-24.3-12.1"/>
	<line class="st0" x1="16368.4" y1="7923.5" x2="16369.3" y2="7885.9"/>
	<path class="st0" d="M15125.3,8004.9c-5.7-5.7-17.1-9.8-24.3-12.1"/>
	<line class="st0" x1="16077.1" y1="7916.8" x2="16229.4" y2="7900.7"/>
	<path class="st0" d="M15125.3,8004.9c-5.7-5.7-17.1-9.8-24.3-12.1"/>
	<line class="st0" x1="16073.2" y1="7914.7" x2="16224.3" y2="7898.9"/>
	<line class="st0" x1="16229.3" y1="7927.8" x2="16169.2" y2="7934.7"/>
	<path class="st0" d="M15101,7992.9c-42.4-13.2-110-16.3-153.2-15.7c-25.8,0.4-51.4,1.8-77,5.1c-15.5,2-60,8.5-73.3,21.7"/>
	<path class="st0" d="M15101.4,7979.7c-43.4-13.1-112.9-15.9-157.1-15.1c-26.4,0.5-52.7,2-78.9,5.6c-13.1,1.8-26.1,4-38.9,7.4
		c-8.3,2.2-16.3,4.6-23.9,9c-3.4,2-8.6,5.3-8.8,10.2"/>
	<path class="st0" d="M15101,7992.9c-42.4-13.2-110-16.3-153.2-15.7c-25.8,0.4-51.4,1.8-77,5.1c-15.5,2-60,8.5-73.3,21.7"/>
	<path class="st0" d="M15101.4,7979.7c-43.4-13.1-112.9-15.9-157.1-15.1c-26.4,0.5-52.7,2-78.9,5.6c-13.1,1.8-26.1,4-38.9,7.4
		c-8.3,2.2-16.3,4.6-23.9,9c-3.4,2-8.6,5.3-8.8,10.2"/>
	<path class="st0" d="M15101,7992.9c-42.4-13.2-110-16.3-153.2-15.7c-25.8,0.4-51.4,1.8-77,5.1c-15.5,2-60,8.5-73.3,21.7"/>
	<path class="st0" d="M15101.4,7979.7c-43.4-13.1-112.9-15.9-157.1-15.1c-26.4,0.5-52.7,2-78.9,5.6c-13.1,1.8-26.1,4-38.9,7.4
		c-8.3,2.2-16.3,4.6-23.9,9c-3.4,2-8.6,5.3-8.8,10.2"/>
	<path class="st0" d="M15101,7992.9c-42.4-13.2-110-16.3-153.2-15.7c-25.8,0.4-51.4,1.8-77,5.1c-15.5,2-60,8.5-73.3,21.7"/>
	<path class="st0" d="M15101.4,7979.7c-43.4-13.1-112.9-15.9-157.1-15.1c-26.4,0.5-52.7,2-78.9,5.6c-13.1,1.8-26.1,4-38.9,7.4
		c-8.3,2.2-16.3,4.6-23.9,9c-3.4,2-8.6,5.3-8.8,10.2"/>
	<path class="st0" d="M15101.4,7979.7c-43.4-13.1-112.9-15.9-157.1-15.1c-26.4,0.5-52.7,2-78.9,5.6c-13.1,1.8-26.1,4-38.9,7.4
		c-8.3,2.2-16.3,4.6-23.9,9c-3.4,2-8.6,5.3-8.8,10.2"/>
	<path class="st0" d="M15101,7992.9c-42.4-13.2-110-16.3-153.2-15.7c-25.8,0.4-51.4,1.8-77,5.1c-15.5,2-60,8.5-73.3,21.7"/>
	<line class="st0" x1="16103.8" y1="7942.1" x2="16099.3" y2="7940"/>
	<line class="st0" x1="16224.3" y1="7925.9" x2="16099.3" y2="7940"/>
	<line class="st0" x1="16107" y1="8159" x2="16102.6" y2="8156"/>
	<line class="st0" x1="16099.3" y1="7940" x2="16102.6" y2="8156"/>
	<line class="st0" x1="16102.6" y1="8156" x2="16077.4" y2="8160.3"/>
	<line class="st0" x1="16156" y1="7874.5" x2="16224.3" y2="7898.9"/>
	<line class="st0" x1="16229.4" y1="7900.7" x2="16231" y2="7901.3"/>
	<line class="st0" x1="16231" y1="7901.3" x2="16240.1" y2="7900.3"/>
	<line class="st0" x1="16164.6" y1="7873.7" x2="16240.1" y2="7900.3"/>
	<line class="st0" x1="16231" y1="7901.3" x2="16230.9" y2="7928.5"/>
	<line class="st0" x1="16230.9" y1="7928.5" x2="16240" y2="7927.5"/>
	<path class="st0" d="M14803.1,8021.9c1.5,0.9,2.9,1.7,4.5,2.4"/>
	<line class="st0" x1="16240.1" y1="7900.3" x2="16240" y2="7927.5"/>
	<line class="st0" x1="16230.9" y1="7928.5" x2="16229.3" y2="7927.8"/>
	<line class="st0" x1="16224.3" y1="7925.9" x2="16167.9" y2="7904.3"/>
	<line class="st0" x1="16167.9" y1="7904.3" x2="16176.5" y2="7903.4"/>
	<line class="st0" x1="16240" y1="7927.5" x2="16176.5" y2="7903.4"/>
	<line class="st0" x1="16167.9" y1="7904.3" x2="16168" y2="7934.8"/>
	<line class="st0" x1="16176.5" y1="7903.4" x2="16176.7" y2="7935.2"/>
	<line class="st0" x1="16157.5" y1="8096.2" x2="16165.9" y2="8094.9"/>
	<line class="st0" x1="16177.3" y1="8101.5" x2="16165.9" y2="8094.9"/>
	<line class="st0" x1="16156.4" y1="7936.1" x2="16156" y2="7874.5"/>
	<line class="st0" x1="16165.9" y1="8094.9" x2="16164.6" y2="7873.7"/>
	<line class="st0" x1="16299.6" y1="8179.6" x2="16308.8" y2="8177.9"/>
	<line class="st0" x1="16323.9" y1="8186.7" x2="16308.8" y2="8177.9"/>
	<line class="st0" x1="16302.8" y1="7956" x2="16312.3" y2="7954.8"/>
	<line class="st0" x1="16308.8" y1="8177.9" x2="16312.3" y2="7954.8"/>
	<line class="st0" x1="16312.3" y1="7954.8" x2="16240" y2="7927.5"/>
	<line class="st0" x1="16231" y1="7901.3" x2="16318.9" y2="7932.6"/>
	<line class="st0" x1="16240.1" y1="7900.3" x2="16328.5" y2="7931.4"/>
	<path class="st0" d="M16072.9,7928.5c1.5,0.9,2.9,1.7,4.5,2.4"/>
	<path class="st0" d="M16370.9,7899.5c-42.4-13.2-110-16.3-153.2-15.7c-25.8,0.4-51.4,1.8-77,5.1c-15.5,2-60,8.5-73.3,21.7"/>
	<path class="st0" d="M16371.2,7886.4c-43.4-13.1-112.9-15.9-157.1-15.1c-26.4,0.5-52.7,2-78.9,5.6c-13.1,1.8-26.1,4-38.9,7.4
		c-8.3,2.2-16.3,4.6-23.9,9c-3.4,2-8.6,5.3-8.8,10.2"/>
	<path class="st0" d="M16371.2,7886.4c-43.4-13.1-112.9-15.9-157.1-15.1c-26.4,0.5-52.7,2-78.9,5.6c-13.1,1.8-26.1,4-38.9,7.4
		c-8.3,2.2-16.3,4.6-23.9,9c-3.4,2-8.6,5.3-8.8,10.2"/>
	<path class="st0" d="M16370.9,7899.5c-42.4-13.2-110-16.3-153.2-15.7c-25.8,0.4-51.4,1.8-77,5.1c-15.5,2-60,8.5-73.3,21.7"/>
	<path class="st0" d="M16371.2,7886.4c-43.4-13.1-112.9-15.9-157.1-15.1c-26.4,0.5-52.7,2-78.9,5.6c-13.1,1.8-26.1,4-38.9,7.4
		c-8.3,2.2-16.3,4.6-23.9,9c-3.4,2-8.6,5.3-8.8,10.2"/>
	<path class="st0" d="M16370.9,7899.5c-42.4-13.2-110-16.3-153.2-15.7c-25.8,0.4-51.4,1.8-77,5.1c-15.5,2-60,8.5-73.3,21.7"/>
	<path class="st0" d="M16371.2,7886.4c-43.4-13.1-112.9-15.9-157.1-15.1c-26.4,0.5-52.7,2-78.9,5.6c-13.1,1.8-26.1,4-38.9,7.4
		c-8.3,2.2-16.3,4.6-23.9,9c-3.4,2-8.6,5.3-8.8,10.2"/>
	<path class="st0" d="M16370.9,7899.5c-42.4-13.2-110-16.3-153.2-15.7c-25.8,0.4-51.4,1.8-77,5.1c-15.5,2-60,8.5-73.3,21.7"/>
	<path class="st0" d="M16371.2,7886.4c-43.4-13.1-112.9-15.9-157.1-15.1c-26.4,0.5-52.7,2-78.9,5.6c-13.1,1.8-26.1,4-38.9,7.4
		c-8.3,2.2-16.3,4.6-23.9,9c-3.4,2-8.6,5.3-8.8,10.2"/>
	<path class="st0" d="M16370.9,7899.5c-42.4-13.2-110-16.3-153.2-15.7c-25.8,0.4-51.4,1.8-77,5.1c-15.5,2-60,8.5-73.3,21.7"/>
	<line class="st0" x1="16253.1" y1="7937" x2="16230.9" y2="7928.5"/>
	<line class="st0" x1="16253.1" y1="7937" x2="16230.9" y2="7928.5"/>
	<line class="st0" x1="16253.1" y1="7937" x2="16230.9" y2="7928.5"/>
	<line class="st0" x1="16253.1" y1="7937" x2="16230.9" y2="7928.5"/>
	<line class="st0" x1="16253.1" y1="7937" x2="16230.9" y2="7928.5"/>
	<path class="st0" d="M16395.1,7911.6c-5.7-5.7-17.1-9.8-24.3-12.1"/>
	<path class="st0" d="M16395.1,7911.6c-5.7-5.7-17.1-9.8-24.3-12.1"/>
	<path class="st0" d="M16395.1,7911.6c-5.7-5.7-17.1-9.8-24.3-12.1"/>
	<path class="st0" d="M16395.1,7911.6c-5.7-5.7-17.1-9.8-24.3-12.1"/>
	<path class="st0" d="M16395.1,7911.6c-5.7-5.7-17.1-9.8-24.3-12.1"/>
	<line class="st0" x1="16229.3" y1="7927.8" x2="16169.2" y2="7934.7"/>
	<path class="st0" d="M16072.9,7928.5c1.5,0.9,2.9,1.7,4.5,2.4"/>
	<line class="st0" x1="16073.2" y1="7914.7" x2="16224.3" y2="7898.9"/>
</g>
</svg>
