<?xml version="1.0" encoding="utf-8"?>
<!-- Generator: Adobe Illustrator 19.0.0, SVG Export Plug-In . SVG Version: 6.00 Build 0)  -->
<svg version="1.1" id="Layer_1" xmlns="http://www.w3.org/2000/svg" xmlns:xlink="http://www.w3.org/1999/xlink" x="0px" y="0px"
	 viewBox="0 0 1024 768" style="enable-background:new 0 0 1024 768;" xml:space="preserve">
<style type="text/css">
	.st0{fill:#FFFFFF;}
	.st1{fill:#D1DD27;}
	.st2{fill:none;stroke:#D1DD27;stroke-miterlimit:10;}
</style>
<g id="XMLID_31_">
	<g id="XMLID_133_">
		<polygon id="XMLID_11_" class="st0" points="658.4,271 811.9,193.7 811.8,206.3 714.6,257.8 684.8,273.6 677.7,277.3 661.6,285.8 
			658.5,287.5 		"/>
		<polygon id="XMLID_10_" class="st1" points="658.4,271 208.7,239.2 441,176.7 811.9,193.7 		"/>
		<polygon id="XMLID_9_" class="st1" points="714.6,257.8 714.3,502.5 685.2,508.2 684.8,273.6 714.6,257.8 		"/>
		<polygon id="XMLID_8_" class="st0" points="684.8,273.6 685.2,508.2 678.3,505 677.7,277.3 		"/>
		<polygon id="XMLID_7_" class="st0" points="661.6,285.8 663.2,600.1 650.9,602.8 648.8,286.8 648.8,286.7 658.5,287.5 		"/>
		<polygon id="XMLID_6_" class="st1" points="648.8,286.8 650.9,602.8 630.6,591.6 628,293.3 599,283 648.8,286.7 		"/>
		<polygon id="XMLID_5_" class="st0" points="459.4,272.4 465.3,491.1 454.1,493.2 447.6,271.6 		"/>
		<polygon id="XMLID_4_" class="st1" points="454.1,493.2 438.5,484.8 432.3,271.2 436.4,270.7 447.6,271.6 		"/>
		<polygon id="XMLID_3_" class="st1" points="326.5,262.4 436.4,270.7 432.3,271.2 362.3,280.7 373.2,570 339.6,576.6 		"/>
		<polygon id="XMLID_2_" class="st0" points="326.5,262.4 339.6,576.6 333.6,572.5 320.6,262 		"/>
		<polygon id="XMLID_1_" class="st0" points="436.4,270.7 326.5,262.4 320.6,262 209.7,253.6 208.7,239.2 658.4,271 658.5,287.5 
			648.8,286.7 599,283 599,283 459.4,272.4 447.6,271.6 		"/>
	</g>
	<g id="XMLID_120_">
		<polyline id="XMLID_23_" class="st2" points="685.2,508.2 714.3,502.5 714.6,257.8 		"/>
		<polyline id="XMLID_22_" class="st2" points="677.7,277.3 678.3,505 685.2,508.2 684.8,273.6 		"/>
		<polyline id="XMLID_21_" class="st2" points="650.9,602.8 663.2,600.1 661.6,285.8 		"/>
		<polyline id="XMLID_20_" class="st2" points="599,283 628,293.3 630.6,591.6 650.9,602.8 648.8,286.8 		"/>
		<polyline id="XMLID_19_" class="st2" points="432.3,271.2 438.5,484.8 454.1,493.2 		"/>
		<polyline id="XMLID_18_" class="st2" points="454.1,493.2 465.3,491.1 459.4,272.4 		"/>
		<line id="XMLID_17_" class="st2" x1="459.4" y1="272.4" x2="459.4" y2="272.4"/>
		<polyline id="XMLID_16_" class="st2" points="436.6,270.7 436.4,270.7 432.3,271.2 362.3,280.7 373.2,570 339.6,576.6 
			326.5,262.4 		"/>
		<line id="XMLID_15_" class="st2" x1="454.1" y1="493.2" x2="447.6" y2="271.6"/>
		<polyline id="XMLID_14_" class="st2" points="339.6,576.6 333.6,572.5 320.6,262 320.6,261.8 		"/>
		<polyline id="XMLID_13_" class="st2" points="811.9,193.7 441,176.7 208.7,239.2 209.7,253.6 320.6,262 326.5,262.4 436.4,270.7 
			447.6,271.6 459.4,272.4 599,283 599,283 648.8,286.7 658.5,287.5 661.6,285.8 677.7,277.3 684.8,273.6 714.6,257.8 811.8,206.3 
			811.9,193.7 658.4,271 658.5,287.5 		"/>
		<line id="XMLID_12_" class="st2" x1="208.7" y1="239.2" x2="658.4" y2="271"/>
	</g>
</g>
</svg>
