<?xml version="1.0" encoding="utf-8"?>
<!-- Generator: Adobe Illustrator 19.0.0, SVG Export Plug-In . SVG Version: 6.00 Build 0)  -->
<svg version="1.1" id="Default" xmlns="http://www.w3.org/2000/svg" xmlns:xlink="http://www.w3.org/1999/xlink" x="0px" y="0px"
	 viewBox="0 0 1024 768" style="enable-background:new 0 0 1024 768;" xml:space="preserve">
<style type="text/css">
	.st0{display:none;fill:none;stroke:#000000;stroke-linecap:round;stroke-linejoin:round;}
	.st1{fill:none;stroke:#F4F0ED;stroke-miterlimit:10;}
	.st2{fill:#F4BC95;}
	.st3{fill:#BF9D7F;}
	.st4{fill:#FFB98A;}
	.st5{fill:none;stroke:#F4BC95;stroke-miterlimit:10;}
</style>
<rect x="344" y="344" class="st0" width="96" height="160"/>
<rect x="455" y="344" class="st0" width="96" height="160"/>
<rect x="240" y="520" class="st0" width="296" height="160"/>
<rect x="456" y="16" class="st0" width="96" height="296"/>
<rect x="344" y="16" class="st0" width="96" height="296"/>
<rect x="224" y="7" class="st0" width="384" height="754"/>
<rect x="240" y="344" class="st0" width="96" height="160"/>
<g id="Default_1_">
	<line class="st1" x1="215" y1="194" x2="62.7" y2="239.8"/>
	<line class="st1" x1="216.2" y1="335.8" x2="66.2" y2="398"/>
</g>
<g id="XMLID_1_">
	<g>
		<g>
			<polygon class="st2" points="963.4,132.4 940,486.8 936.2,489.9 936.9,479.5 947.3,320.7 948,309.9 958.8,145.4 959.5,134.3 			
				"/>
			<polygon class="st2" points="959.5,134.3 958.8,145.4 856.2,196.2 856.9,184 			"/>
			<polygon class="st2" points="959.5,134.3 856.9,184 69.2,81 213.9,48.1 			"/>
			<polygon class="st2" points="958.8,145.4 948,309.9 948,309.9 846.1,376.4 856.2,196.2 			"/>
			<polygon class="st2" points="948,309.9 947.3,320.7 947.3,320.7 845.5,388.1 845.5,388.1 846.1,376.4 948,309.9 			"/>
			<polygon class="st2" points="947.3,320.7 936.9,479.5 835.8,561.5 845.5,388.1 845.5,388.1 947.3,320.7 			"/>
			<polygon class="st2" points="936.9,479.5 936.2,489.9 835.2,572.9 835.8,561.5 			"/>
			<polygon class="st2" points="936.2,489.9 927.2,626.6 826.9,721.6 835.2,572.9 			"/>
			<polygon class="st2" points="69.2,81 856.9,184 856.2,196.2 840.3,194.1 214.3,110.4 69.3,91 59,89.6 58.7,79.6 			"/>
			<polygon class="st2" points="835,292 840.3,194.1 856.2,196.2 846.1,376.4 846.1,376.4 830.5,373.6 			"/>
			<polygon class="st2" points="846.1,376.4 845.5,388.1 829.9,385.3 830.5,373.6 846.1,376.4 			"/>
			<polygon class="st2" points="826,457.4 829.9,385.3 845.5,388.1 835.8,561.5 820.5,558.1 			"/>
			<polygon class="st2" points="840.3,194.1 835,292 215,194 214.3,110.4 214.3,110.4 			"/>
			<polygon class="st2" points="835.8,561.5 835.2,572.9 819.9,569.4 819.9,569.4 820.5,558.1 			"/>
			<polygon class="st2" points="835.2,572.9 826.9,721.6 811.9,717.6 819.9,569.4 			"/>
			<polygon class="st2" points="835,292 830.5,373.6 72.6,238.3 72.6,235.6 215,194 			"/>
			<polygon class="st2" points="215.7,274 72.8,248.1 72.6,238.3 830.5,373.6 829.9,385.3 			"/>
			<polygon class="st2" points="829.9,385.3 826,457.4 216.2,335.8 215.7,274 			"/>
			<polygon class="st2" points="826,457.4 820.5,558.1 78.6,391.5 216.2,335.8 			"/>
			<polygon class="st2" points="820.5,558.1 819.9,569.4 819.9,569.4 217,432.3 76.3,400.3 76.1,392.5 78.6,391.5 			"/>
			<polygon class="st2" points="217,432.3 217.2,459.5 79.1,523.7 76.3,400.3 			"/>
			<polygon class="st2" points="215.7,274 216.2,335.8 78.6,391.5 76.1,391 72.8,248.1 			"/>
			<polygon class="st2" points="214.3,110.4 215,194 72.6,235.6 69.3,91 69.3,91 214.3,110.4 			"/>
			<polygon class="st2" points="213.9,48.1 69.2,81 58.7,79.6 203.8,46.9 			"/>
			<polygon class="st2" points="76.3,400.3 79.1,523.7 69.1,521 66.2,398 			"/>
			<polygon class="st2" points="78.6,391.5 76.1,392.5 76.1,391 			"/>
			<polygon class="st2" points="76.1,392.5 76.3,400.3 66.2,398 66,388.7 76.1,391 			"/>
			<polygon class="st2" points="72.8,248.1 76.1,391 66,388.7 62.6,246.2 			"/>
			<polygon class="st2" points="72.6,238.3 72.8,248.1 62.6,246.2 62.4,236.5 			"/>
			<polygon class="st2" points="72.6,235.6 72.6,238.3 62.4,236.5 59,89.6 69.3,91 69.3,91 			"/>
		</g>
		<g>
			<polyline class="st2" points="66.2,398 76.3,400.3 217,432.3 819.9,569.4 835.2,572.9 			"/>
			<line class="st2" x1="835.2" y1="572.9" x2="835.8" y2="561.5"/>
			<polyline class="st2" points="66,388.7 76.1,391 78.6,391.5 820.5,558.1 835.8,561.5 			"/>
			<line class="st2" x1="66.2" y1="398" x2="66" y2="388.7"/>
			<line class="st2" x1="835.2" y1="572.9" x2="936.2" y2="489.9"/>
			<line class="st2" x1="936.2" y1="489.9" x2="936.9" y2="479.5"/>
			<line class="st2" x1="835.8" y1="561.5" x2="936.9" y2="479.5"/>
			<polyline class="st2" points="826,457.4 826,457.4 216.2,335.8 			"/>
			<polyline class="st2" points="835.8,561.5 845.5,388.1 846.1,376.4 856.2,196.2 			"/>
			<line class="st2" x1="840.3" y1="194.1" x2="856.2" y2="196.2"/>
			<polyline class="st2" points="819.9,569.4 820.5,558.1 826,457.4 829.9,385.3 830.5,373.6 835,292 840.3,194.1 			"/>
			<polyline class="st2" points="936.9,479.5 947.3,320.7 948,309.9 958.8,145.4 			"/>
			<line class="st2" x1="856.2" y1="196.2" x2="958.8" y2="145.4"/>
			<polyline class="st2" points="59,89.6 69.3,91 214.3,110.4 840.3,194.1 			"/>
			<line class="st2" x1="856.2" y1="196.2" x2="856.9" y2="184"/>
			<polyline class="st2" points="58.7,79.6 69.2,81 856.9,184 			"/>
			<line class="st2" x1="59" y1="89.6" x2="58.7" y2="79.6"/>
			<line class="st2" x1="958.8" y1="145.4" x2="959.5" y2="134.3"/>
			<line class="st2" x1="856.9" y1="184" x2="959.5" y2="134.3"/>
			<polyline class="st2" points="959.5,134.3 213.9,48.1 203.8,46.9 			"/>
			<line class="st2" x1="203.8" y1="46.9" x2="58.7" y2="79.6"/>
			<polyline class="st2" points="62.6,246.2 72.8,248.1 215.7,274 829.9,385.3 845.5,388.1 845.5,388.1 			"/>
			<polyline class="st2" points="62.4,236.5 72.6,238.3 830.5,373.6 846.1,376.4 			"/>
			<line class="st2" x1="62.6" y1="246.2" x2="62.4" y2="236.5"/>
			<line class="st2" x1="845.5" y1="388.1" x2="947.3" y2="320.7"/>
			<polyline class="st2" points="846.1,376.4 846.1,376.4 948,309.9 			"/>
			<polyline class="st2" points="835,292 835,292 215,194 			"/>
			<line class="st2" x1="203.8" y1="46.9" x2="209.4" y2="45.7"/>
			<line class="st2" x1="959.5" y1="134.3" x2="963.4" y2="132.4"/>
			<polyline class="st2" points="209.4,45.7 219.2,46.8 963.4,132.4 			"/>
			<line class="st2" x1="936.2" y1="489.9" x2="940" y2="486.8"/>
			<line class="st2" x1="963.4" y1="132.4" x2="940" y2="486.8"/>
			<line class="st2" x1="66.2" y1="398" x2="69.1" y2="521"/>
			<line class="st2" x1="217" y1="432.3" x2="217.2" y2="459.5"/>
			<line class="st2" x1="76.3" y1="400.3" x2="79.1" y2="523.7"/>
			<line class="st2" x1="217.2" y1="459.5" x2="79.1" y2="523.7"/>
			<line class="st2" x1="79.1" y1="523.7" x2="69.1" y2="521"/>
			<polyline class="st2" points="819.9,569.4 819.9,569.4 811.9,717.6 			"/>
			<line class="st2" x1="936.2" y1="489.9" x2="927.2" y2="626.6"/>
			<line class="st2" x1="835.2" y1="572.9" x2="826.9" y2="721.6"/>
			<line class="st2" x1="927.2" y1="626.6" x2="826.9" y2="721.6"/>
			<line class="st2" x1="826.9" y1="721.6" x2="811.9" y2="717.6"/>
			<polyline class="st2" points="76.3,400.3 76.1,392.5 76.1,391 72.8,248.1 72.6,238.3 72.6,235.6 69.3,91 			"/>
			<line class="st2" x1="66" y1="388.7" x2="62.6" y2="246.2"/>
			<line class="st2" x1="62.4" y1="236.5" x2="59" y2="89.6"/>
			<polyline class="st2" points="216.2,335.8 215.7,274 215.7,273.9 			"/>
			<line class="st2" x1="215" y1="194" x2="214.3" y2="110.4"/>
			<polyline class="st2" points="69.1,81 69.2,81 213.9,48.1 219.2,46.8 219.4,46.8 			"/>
			<polyline class="st2" points="216.2,335.8 78.6,391.5 76.1,392.5 74.1,393.4 			"/>
		</g>
	</g>
	<g>
		<g>
			<polygon class="st3" points="963.4,132.4 940,486.8 936.2,489.9 936.9,479.5 947.3,320.7 948,309.9 958.8,145.4 959.5,134.3 			
				"/>
			<polygon class="st3" points="959.5,134.3 958.8,145.4 856.2,196.2 856.9,184 			"/>
			<polygon class="st3" points="959.5,134.3 856.9,184 69.2,81 213.9,48.1 			"/>
			<polygon class="st3" points="958.8,145.4 948,309.9 948,309.9 846.1,376.4 856.2,196.2 			"/>
			<polygon class="st3" points="948,309.9 947.3,320.7 947.3,320.7 845.5,388.1 845.5,388.1 846.1,376.4 948,309.9 			"/>
			<polygon class="st3" points="947.3,320.7 936.9,479.5 835.8,561.5 845.5,388.1 845.5,388.1 947.3,320.7 			"/>
			<polygon class="st3" points="936.9,479.5 936.2,489.9 835.2,572.9 835.8,561.5 			"/>
			<polygon class="st3" points="936.2,489.9 927.2,626.6 826.9,721.6 835.2,572.9 			"/>
			<polygon class="st3" points="69.2,81 856.9,184 856.2,196.2 840.3,194.1 214.3,110.4 69.3,91 59,89.6 58.7,79.6 			"/>
			<polygon class="st3" points="835,292 840.3,194.1 856.2,196.2 846.1,376.4 846.1,376.4 830.5,373.6 			"/>
			<polygon class="st3" points="846.1,376.4 845.5,388.1 829.9,385.3 830.5,373.6 846.1,376.4 			"/>
			<polygon class="st3" points="826,457.4 829.9,385.3 845.5,388.1 835.8,561.5 820.5,558.1 			"/>
			<polygon class="st4" points="840.3,194.1 835,292 215,194 214.3,110.4 214.3,110.4 			"/>
			<polygon class="st3" points="835.8,561.5 835.2,572.9 819.9,569.4 819.9,569.4 820.5,558.1 			"/>
			<polygon class="st3" points="835.2,572.9 826.9,721.6 811.9,717.6 819.9,569.4 			"/>
			<polygon class="st3" points="835,292 830.5,373.6 72.6,238.3 72.6,235.6 215,194 			"/>
			<polygon class="st3" points="215.7,274 72.8,248.1 72.6,238.3 830.5,373.6 829.9,385.3 			"/>
			<polygon class="st4" points="829.9,385.3 826,457.4 216.2,335.8 215.7,274 			"/>
			<polygon class="st3" points="826,457.4 820.5,558.1 78.6,391.5 216.2,335.8 			"/>
			<polygon class="st3" points="820.5,558.1 819.9,569.4 819.9,569.4 217,432.3 76.3,400.3 76.1,392.5 78.6,391.5 			"/>
			<polygon class="st3" points="217,432.3 217.2,459.5 79.1,523.7 76.3,400.3 			"/>
			<polygon class="st3" points="215.7,274 216.2,335.8 78.6,391.5 76.1,391 72.8,248.1 			"/>
			<polygon class="st3" points="214.3,110.4 215,194 72.6,235.6 69.3,91 69.3,91 214.3,110.4 			"/>
			<polygon class="st3" points="213.9,48.1 69.2,81 58.7,79.6 203.8,46.9 			"/>
			<polygon class="st3" points="76.3,400.3 79.1,523.7 69.1,521 66.2,398 			"/>
			<polygon class="st3" points="78.6,391.5 76.1,392.5 76.1,391 			"/>
			<polygon class="st3" points="76.1,392.5 76.3,400.3 66.2,398 66,388.7 76.1,391 			"/>
			<polygon class="st3" points="72.8,248.1 76.1,391 66,388.7 62.6,246.2 			"/>
			<polygon class="st3" points="72.6,238.3 72.8,248.1 62.6,246.2 62.4,236.5 			"/>
			<polygon class="st3" points="72.6,235.6 72.6,238.3 62.4,236.5 59,89.6 69.3,91 69.3,91 			"/>
		</g>
		<g>
			<polyline class="st1" points="66.2,398 76.3,400.3 217,432.3 819.9,569.4 835.2,572.9 			"/>
			<line class="st1" x1="835.2" y1="572.9" x2="835.8" y2="561.5"/>
			<polyline class="st1" points="66,388.7 76.1,391 78.6,391.5 820.5,558.1 835.8,561.5 			"/>
			<line class="st1" x1="66.2" y1="398" x2="66" y2="388.7"/>
			<line class="st1" x1="835.2" y1="572.9" x2="936.2" y2="489.9"/>
			<line class="st1" x1="936.2" y1="489.9" x2="936.9" y2="479.5"/>
			<line class="st1" x1="835.8" y1="561.5" x2="936.9" y2="479.5"/>
			<polyline class="st1" points="826,457.4 826,457.4 216.2,335.8 			"/>
			<polyline class="st1" points="835.8,561.5 845.5,388.1 846.1,376.4 856.2,196.2 			"/>
			<line class="st1" x1="840.3" y1="194.1" x2="856.2" y2="196.2"/>
			<polyline class="st1" points="819.9,569.4 820.5,558.1 826,457.4 829.9,385.3 830.5,373.6 835,292 840.3,194.1 			"/>
			<polyline class="st1" points="936.9,479.5 947.3,320.7 948,309.9 958.8,145.4 			"/>
			<line class="st1" x1="856.2" y1="196.2" x2="958.8" y2="145.4"/>
			<polyline class="st1" points="59,89.6 69.3,91 214.3,110.4 840.3,194.1 			"/>
			<line class="st1" x1="856.2" y1="196.2" x2="856.9" y2="184"/>
			<polyline class="st1" points="58.7,79.6 69.2,81 856.9,184 			"/>
			<line class="st1" x1="59" y1="89.6" x2="58.7" y2="79.6"/>
			<line class="st1" x1="958.8" y1="145.4" x2="959.5" y2="134.3"/>
			<line class="st1" x1="856.9" y1="184" x2="959.5" y2="134.3"/>
			<polyline class="st1" points="959.5,134.3 213.9,48.1 203.8,46.9 			"/>
			<line class="st1" x1="203.8" y1="46.9" x2="58.7" y2="79.6"/>
			<polyline class="st1" points="62.6,246.2 72.8,248.1 215.7,274 829.9,385.3 845.5,388.1 845.5,388.1 			"/>
			<polyline class="st1" points="62.4,236.5 72.6,238.3 830.5,373.6 846.1,376.4 			"/>
			<line class="st1" x1="62.6" y1="246.2" x2="62.4" y2="236.5"/>
			<line class="st1" x1="845.5" y1="388.1" x2="947.3" y2="320.7"/>
			<polyline class="st1" points="846.1,376.4 846.1,376.4 948,309.9 			"/>
			<polyline class="st1" points="835,292 835,292 215,194 			"/>
			<line class="st1" x1="203.8" y1="46.9" x2="209.4" y2="45.7"/>
			<line class="st1" x1="959.5" y1="134.3" x2="963.4" y2="132.4"/>
			<polyline class="st1" points="209.4,45.7 219.2,46.8 963.4,132.4 			"/>
			<line class="st1" x1="936.2" y1="489.9" x2="940" y2="486.8"/>
			<line class="st1" x1="963.4" y1="132.4" x2="940" y2="486.8"/>
			<line class="st1" x1="66.2" y1="398" x2="69.1" y2="521"/>
			<line class="st1" x1="217" y1="432.3" x2="217.2" y2="459.5"/>
			<line class="st1" x1="76.3" y1="400.3" x2="79.1" y2="523.7"/>
			<line class="st1" x1="217.2" y1="459.5" x2="79.1" y2="523.7"/>
			<line class="st1" x1="79.1" y1="523.7" x2="69.1" y2="521"/>
			<polyline class="st1" points="819.9,569.4 819.9,569.4 811.9,717.6 			"/>
			<line class="st1" x1="936.2" y1="489.9" x2="927.2" y2="626.6"/>
			<line class="st1" x1="835.2" y1="572.9" x2="826.9" y2="721.6"/>
			<line class="st1" x1="927.2" y1="626.6" x2="826.9" y2="721.6"/>
			<line class="st1" x1="826.9" y1="721.6" x2="811.9" y2="717.6"/>
			<polyline class="st1" points="76.3,400.3 76.1,392.5 76.1,391 72.8,248.1 72.6,238.3 72.6,235.6 69.3,91 			"/>
			<line class="st1" x1="66" y1="388.7" x2="62.6" y2="246.2"/>
			<line class="st1" x1="62.4" y1="236.5" x2="59" y2="89.6"/>
			<polyline class="st1" points="216.2,335.8 215.7,274 215.7,273.9 			"/>
			<line class="st1" x1="215" y1="194" x2="214.3" y2="110.4"/>
			<polyline class="st1" points="69.1,81 69.2,81 213.9,48.1 219.2,46.8 219.4,46.8 			"/>
			<polyline class="st5" points="216.2,335.8 78.6,391.5 76.1,392.5 74.1,393.4 			"/>
		</g>
	</g>
	<g>
		<g>
			<polygon class="st5" points="963.4,132.4 940,486.8 936.2,489.9 936.9,479.5 947.3,320.7 948,309.9 958.8,145.4 959.5,134.3 			
				"/>
			<polygon class="st5" points="959.5,134.3 958.8,145.4 856.2,196.2 856.9,184 			"/>
			<polygon class="st5" points="959.5,134.3 856.9,184 69.2,81 213.9,48.1 			"/>
			<polygon class="st5" points="958.8,145.4 948,309.9 948,309.9 846.1,376.4 856.2,196.2 			"/>
			<polygon class="st5" points="948,309.9 947.3,320.7 947.3,320.7 845.5,388.1 845.5,388.1 846.1,376.4 948,309.9 			"/>
			<polygon class="st5" points="947.3,320.7 936.9,479.5 835.8,561.5 845.5,388.1 845.5,388.1 947.3,320.7 			"/>
			<polygon class="st5" points="936.9,479.5 936.2,489.9 835.2,572.9 835.8,561.5 			"/>
			<polygon class="st5" points="936.2,489.9 927.2,626.6 826.9,721.6 835.2,572.9 			"/>
			<polygon class="st5" points="69.2,81 856.9,184 856.2,196.2 840.3,194.1 214.3,110.4 69.3,91 59,89.6 58.7,79.6 			"/>
			<polygon class="st5" points="835,292 840.3,194.1 856.2,196.2 846.1,376.4 846.1,376.4 830.5,373.6 			"/>
			<polygon class="st5" points="846.1,376.4 845.5,388.1 829.9,385.3 830.5,373.6 846.1,376.4 			"/>
			<polygon class="st5" points="826,457.4 829.9,385.3 845.5,388.1 835.8,561.5 820.5,558.1 			"/>
			<polygon class="st5" points="840.3,194.1 835,292 215,194 214.3,110.4 214.3,110.4 			"/>
			<polygon class="st5" points="835.8,561.5 835.2,572.9 819.9,569.4 819.9,569.4 820.5,558.1 			"/>
			<polygon class="st5" points="835.2,572.9 826.9,721.6 811.9,717.6 819.9,569.4 			"/>
			<polygon class="st5" points="835,292 830.5,373.6 72.6,238.3 72.6,235.6 215,194 			"/>
			<polygon class="st5" points="215.7,274 72.8,248.1 72.6,238.3 830.5,373.6 829.9,385.3 			"/>
			<polygon class="st5" points="829.9,385.3 826,457.4 216.2,335.8 215.7,274 			"/>
			<polygon class="st5" points="826,457.4 820.5,558.1 78.6,391.5 216.2,335.8 			"/>
			<polygon class="st5" points="820.5,558.1 819.9,569.4 819.9,569.4 217,432.3 76.3,400.3 76.1,392.5 78.6,391.5 			"/>
			<polygon class="st5" points="217,432.3 217.2,459.5 79.1,523.7 76.3,400.3 			"/>
			<polygon class="st5" points="215.7,274 216.2,335.8 78.6,391.5 76.1,391 72.8,248.1 			"/>
			<polygon class="st5" points="214.3,110.4 215,194 72.6,235.6 69.3,91 69.3,91 214.3,110.4 			"/>
			<polygon class="st5" points="213.9,48.1 69.2,81 58.7,79.6 203.8,46.9 			"/>
			<polygon class="st5" points="76.3,400.3 79.1,523.7 69.1,521 66.2,398 			"/>
			<polygon class="st5" points="78.6,391.5 76.1,392.5 76.1,391 			"/>
			<polygon class="st5" points="76.1,392.5 76.3,400.3 66.2,398 66,388.7 76.1,391 			"/>
			<polygon class="st5" points="72.8,248.1 76.1,391 66,388.7 62.6,246.2 			"/>
			<polygon class="st5" points="72.6,238.3 72.8,248.1 62.6,246.2 62.4,236.5 			"/>
			<polygon class="st5" points="72.6,235.6 72.6,238.3 62.4,236.5 59,89.6 69.3,91 69.3,91 			"/>
		</g>
		<g>
			<polyline class="st5" points="66.2,398 76.3,400.3 217,432.3 819.9,569.4 835.2,572.9 			"/>
			<line class="st5" x1="835.2" y1="572.9" x2="835.8" y2="561.5"/>
			<polyline class="st5" points="66,388.7 76.1,391 78.6,391.5 820.5,558.1 835.8,561.5 			"/>
			<line class="st5" x1="66.2" y1="398" x2="66" y2="388.7"/>
			<line class="st5" x1="835.2" y1="572.9" x2="936.2" y2="489.9"/>
			<line class="st5" x1="936.2" y1="489.9" x2="936.9" y2="479.5"/>
			<line class="st5" x1="835.8" y1="561.5" x2="936.9" y2="479.5"/>
			<polyline class="st5" points="826,457.4 826,457.4 216.2,335.8 			"/>
			<polyline class="st5" points="835.8,561.5 845.5,388.1 846.1,376.4 856.2,196.2 			"/>
			<line class="st5" x1="840.3" y1="194.1" x2="856.2" y2="196.2"/>
			<polyline class="st5" points="819.9,569.4 820.5,558.1 826,457.4 829.9,385.3 830.5,373.6 835,292 840.3,194.1 			"/>
			<polyline class="st5" points="936.9,479.5 947.3,320.7 948,309.9 958.8,145.4 			"/>
			<line class="st5" x1="856.2" y1="196.2" x2="958.8" y2="145.4"/>
			<polyline class="st5" points="59,89.6 69.3,91 214.3,110.4 840.3,194.1 			"/>
			<line class="st5" x1="856.2" y1="196.2" x2="856.9" y2="184"/>
			<polyline class="st5" points="58.7,79.6 69.2,81 856.9,184 			"/>
			<line class="st5" x1="59" y1="89.6" x2="58.7" y2="79.6"/>
			<line class="st5" x1="958.8" y1="145.4" x2="959.5" y2="134.3"/>
			<line class="st5" x1="856.9" y1="184" x2="959.5" y2="134.3"/>
			<polyline class="st5" points="959.5,134.3 213.9,48.1 203.8,46.9 			"/>
			<line class="st5" x1="203.8" y1="46.9" x2="58.7" y2="79.6"/>
			<polyline class="st5" points="62.6,246.2 72.8,248.1 215.7,274 829.9,385.3 845.5,388.1 845.5,388.1 			"/>
			<polyline class="st5" points="62.4,236.5 72.6,238.3 830.5,373.6 846.1,376.4 			"/>
			<line class="st5" x1="62.6" y1="246.2" x2="62.4" y2="236.5"/>
			<line class="st5" x1="845.5" y1="388.1" x2="947.3" y2="320.7"/>
			<polyline class="st5" points="846.1,376.4 846.1,376.4 948,309.9 			"/>
			<polyline class="st5" points="835,292 835,292 215,194 			"/>
			<line class="st5" x1="203.8" y1="46.9" x2="209.4" y2="45.7"/>
			<line class="st5" x1="959.5" y1="134.3" x2="963.4" y2="132.4"/>
			<polyline class="st5" points="209.4,45.7 219.2,46.8 963.4,132.4 			"/>
			<line class="st5" x1="936.2" y1="489.9" x2="940" y2="486.8"/>
			<line class="st5" x1="963.4" y1="132.4" x2="940" y2="486.8"/>
			<line class="st5" x1="66.2" y1="398" x2="69.1" y2="521"/>
			<line class="st5" x1="217" y1="432.3" x2="217.2" y2="459.5"/>
			<line class="st5" x1="76.3" y1="400.3" x2="79.1" y2="523.7"/>
			<line class="st5" x1="217.2" y1="459.5" x2="79.1" y2="523.7"/>
			<line class="st5" x1="79.1" y1="523.7" x2="69.1" y2="521"/>
			<polyline class="st5" points="819.9,569.4 819.9,569.4 811.9,717.6 			"/>
			<line class="st5" x1="936.2" y1="489.9" x2="927.2" y2="626.6"/>
			<line class="st5" x1="835.2" y1="572.9" x2="826.9" y2="721.6"/>
			<line class="st5" x1="927.2" y1="626.6" x2="826.9" y2="721.6"/>
			<line class="st5" x1="826.9" y1="721.6" x2="811.9" y2="717.6"/>
			<polyline class="st5" points="76.3,400.3 76.1,392.5 76.1,391 72.8,248.1 72.6,238.3 72.6,235.6 69.3,91 			"/>
			<line class="st5" x1="66" y1="388.7" x2="62.6" y2="246.2"/>
			<line class="st5" x1="62.4" y1="236.5" x2="59" y2="89.6"/>
			<polyline class="st5" points="216.2,335.8 215.7,274 215.7,273.9 			"/>
			<line class="st5" x1="215" y1="194" x2="214.3" y2="110.4"/>
			<polyline class="st5" points="69.1,81 69.2,81 213.9,48.1 219.2,46.8 219.4,46.8 			"/>
			<polyline class="st5" points="216.2,335.8 78.6,391.5 76.1,392.5 74.1,393.4 			"/>
		</g>
	</g>
</g>
</svg>
