<?xml version="1.0" encoding="utf-8"?>
<!-- Generator: Adobe Illustrator 19.0.0, SVG Export Plug-In . SVG Version: 6.00 Build 0)  -->
<svg version="1.1" id="Layer_1" xmlns="http://www.w3.org/2000/svg" xmlns:xlink="http://www.w3.org/1999/xlink" x="0px" y="0px"
	 viewBox="0 0 1024 768" style="enable-background:new 0 0 1024 768;" xml:space="preserve">
<style type="text/css">
	.st0{fill:#FFFFFF;}
	.st1{fill:#FC3A4D;}
	.st2{fill:none;stroke:#FC3A4D;stroke-miterlimit:10;}
	.st3{fill:none;stroke:#FFFFFF;stroke-miterlimit:10;}
	.st4{fill:none;stroke:#FFFAF8;stroke-miterlimit:10;}
</style>
<g id="XMLID_110_">
	<g id="XMLID_16_">
		<g id="XMLID_189_">
			<polygon id="XMLID_33_" class="st0" points="832.8,383.9 832.8,383.3 831.7,303.4 831.7,302.7 830.4,206 846.3,206.9 850.6,568 
				850.7,579.1 852.5,726.1 837.4,723.3 835.5,583.2 835.5,582.6 835.4,576.8 835.4,572 835.4,571.4 834,472.6 834,472 833,395.5 
				833,394.9 			"/>
			<polygon id="XMLID_32_" class="st1" points="830.4,206 831.7,302.7 831.6,302.7 211.6,248.5 206.8,166.3 			"/>
			<polygon id="XMLID_31_" class="st1" points="852.5,726.1 850.7,579.1 850.6,568 846.3,206.9 944.9,150 945.6,480.3 945.6,490.6 
				945.8,625.9 852.6,726.1 			"/>
			<polygon id="XMLID_30_" class="st1" points="831.7,303.4 832.8,383.3 832.8,383.3 71.8,301.7 208.8,248.8 831.7,303.4 			"/>
			<polygon id="XMLID_29_" class="st1" points="832.8,383.9 70.3,302.2 71.8,301.7 832.8,383.3 832.8,383.3 			"/>
			<polygon id="XMLID_28_" class="st1" points="833,395.5 834,472 834,472 219.9,393.7 219.9,393.6 219.5,388.4 219.5,387.8 
				216,327.6 			"/>
			<polygon id="XMLID_27_" class="st1" points="834,472 834,472.6 219.9,394.3 219.9,394.2 219.9,393.7 834,472 			"/>
			<polygon id="XMLID_26_" class="st1" points="834,472.6 835.4,571.4 835.3,571.4 89.7,458.2 219.6,394.3 219.9,394.3 			"/>
			<polygon id="XMLID_25_" class="st1" points="835.4,571.4 835.4,572 835.3,572 88.8,458.6 89.7,458.2 835.3,571.4 			"/>
			<polygon id="XMLID_24_" class="st0" points="88.8,458.6 835.3,572 835.4,572 835.4,576.8 835.5,582.6 835.5,582.6 227.1,488.5 
				85.3,466.6 84.8,460.7 84.5,458 			"/>
			<polygon id="XMLID_23_" class="st1" points="227.3,489.2 228.8,509.5 227.2,489.2 			"/>
			<polygon id="XMLID_22_" class="st1" points="227.2,489.2 228.8,509.5 95.7,582 85.4,467.3 			"/>
			<polygon id="XMLID_21_" class="st1" points="227.3,489.2 227.2,489.2 227.1,488.5 835.5,582.6 835.5,582.6 835.5,583.2 
				835.5,583.2 			"/>
			<polygon id="XMLID_20_" class="st1" points="227.1,488.5 227.2,489.2 85.4,467.3 85.3,466.6 			"/>
			<polygon id="XMLID_19_" class="st1" points="216,327.6 215.9,327 833,394.9 833,395.5 216,327.6 			"/>
			<polygon id="XMLID_18_" class="st1" points="216,327.6 219.5,387.8 216,327.6 			"/>
			<polygon id="XMLID_17_" class="st1" points="219.9,393.6 219.9,393.7 219.5,393.7 88.7,458 84.5,457.4 71.2,311.7 216,327.6 
				219.5,387.8 219.5,388.4 			"/>
			<polygon id="XMLID_15_" class="st1" points="219.9,394.2 219.9,394.3 219.6,394.3 89.7,458.2 88.7,458 219.5,393.7 219.9,393.7 
							"/>
			<polygon id="XMLID_14_" class="st1" points="831.7,303.4 208.8,248.8 71.8,301.7 70.3,301.5 208.8,248.2 211.6,248.5 
				831.6,302.7 831.7,302.7 831.7,303.4 			"/>
			<polygon id="XMLID_13_" class="st1" points="95.7,582 228.8,509.5 228.8,510.1 95.8,582.7 95.7,582 			"/>
			
				<rect id="XMLID_12_" x="32.9" y="524.6" transform="matrix(-8.983319e-02 -0.996 0.996 -8.983319e-02 -423.8676 661.9392)" class="st1" width="115.2" height="0"/>
			<polygon id="XMLID_11_" class="st1" points="85.3,467.3 95.7,582 85.3,467.3 			"/>
			
				<rect id="XMLID_10_" x="85" y="466.9" transform="matrix(-8.482828e-02 -0.9964 0.9964 -8.482828e-02 -372.6937 591.5629)" class="st1" width="0.7" height="0"/>
			<polygon id="XMLID_9_" class="st0" points="84.4,457.4 84.5,458 84.8,461.3 85.3,466.6 85.3,467.3 85.3,467.3 95.7,582 
				85.6,580.2 74.6,459.1 73.7,450 60.8,310 59.9,300.4 46.6,156 45.8,146.8 56.1,147.6 57,157.3 71.1,311.1 71.1,311.7 			"/>
			<polygon id="XMLID_8_" class="st1" points="88.7,458 89.7,458.2 88.8,458.6 84.5,458 84.5,457.4 			"/>
			<polygon id="XMLID_7_" class="st1" points="84.8,461.3 84.5,458 84.5,458 84.8,460.7 85.3,466.6 85.3,466.6 			"/>
			<polygon id="XMLID_6_" class="st1" points="84.5,457.4 84.5,458 84.5,458 84.4,457.4 			"/>
			
				<rect id="XMLID_5_" x="4.6" y="384.5" transform="matrix(-9.096304e-02 -0.9959 0.9959 -9.096304e-02 -298.0687 496.994)" class="st1" width="146.3" height="0"/>
			<polygon id="XMLID_4_" class="st1" points="70.3,302.2 57,156.7 206.8,166.3 211.6,248.5 208.8,248.2 70.3,301.5 71.8,301.7 
				70.3,302.2 			"/>
			<polygon id="XMLID_3_" class="st1" points="71.2,311.7 71.1,311.1 215.9,327 216,327.6 216,327.6 216,327.6 			"/>
			<polygon id="XMLID_2_" class="st1" points="71.1,311.1 71.2,311.7 71.1,311.7 71.1,311.1 			"/>
			<polygon id="XMLID_1_" class="st1" points="45.7,146.2 187.8,104.2 944.9,138.9 846.2,194.8 			"/>
		</g>
		<g id="XMLID_154_">
			<polyline id="XMLID_67_" class="st2" points="187.8,104.2 45.7,146.2 56.1,146.8 			"/>
			<polyline id="XMLID_66_" class="st2" points="228.8,509.5 95.7,582 95.7,582 85.6,580.2 74.6,459.1 73.7,450 60.8,310 
				59.9,300.4 46.6,156 			"/>
			<line id="XMLID_65_" class="st2" x1="227.2" y1="488.6" x2="227.3" y2="489.2"/>
			<polyline id="XMLID_64_" class="st2" points="75.1,464.8 74.6,465 75.1,465.1 			"/>
			<polyline id="XMLID_63_" class="st3" points="206.8,166.2 206.8,166.3 211.6,248.5 211.6,248.5 			"/>
			<line id="XMLID_62_" class="st2" x1="216" y1="327.6" x2="219.5" y2="387.8"/>
			<polyline id="XMLID_61_" class="st2" points="215.9,327 215.9,327 216,327.6 			"/>
			<polyline id="XMLID_60_" class="st2" points="71,311.1 71.1,311.1 71.1,311.1 215.9,327 833,394.9 833,394.9 			"/>
			<polyline id="XMLID_59_" class="st2" points="84.4,457.4 84.4,457.4 84.5,457.4 88.7,458 89.7,458.2 835.3,571.4 			"/>
			<polyline id="XMLID_58_" class="st2" points="85.3,466.6 85.3,466.6 227.1,488.5 835.5,582.6 			"/>
			<line id="XMLID_57_" class="st2" x1="73.8" y1="455.8" x2="74.3" y2="455.9"/>
			<polyline id="XMLID_56_" class="st2" points="846.2,194.8 944.9,138.9 187.8,104.2 			"/>
			<polyline id="XMLID_55_" class="st2" points="831.6,302.7 211.6,248.5 208.8,248.2 70.3,301.5 71.8,301.7 832.8,383.3 			"/>
			<polyline id="XMLID_54_" class="st2" points="834,472 219.9,393.7 219.5,393.7 88.7,458 88.7,458.1 			"/>
			<line id="XMLID_53_" class="st2" x1="944.9" y1="150" x2="944.9" y2="138.9"/>
			<polyline id="XMLID_52_" class="st2" points="95.7,582 85.4,467.3 85.3,466.6 84.8,460.7 84.5,458 84.5,457.4 71.2,311.7 
				71.1,311.1 70.3,302.2 57,156.7 206.8,166.3 830.4,206 			"/>
			<polyline id="XMLID_51_" class="st2" points="46.6,156 45.8,146.8 45.7,146.2 846.2,194.8 846.3,206.9 944.9,150 945.6,480.3 
				945.6,490.6 945.8,625.9 852.6,726.1 852.5,726.1 837.4,723.3 835.5,583.2 835.5,582.6 835.4,576.8 835.4,572 835.4,571.4 
				834,472.6 834,472 833,395.5 833,394.9 832.8,383.9 832.8,383.3 831.7,303.4 831.7,302.7 830.4,206 846.3,206.9 850.6,568 
				850.7,579.1 852.5,726.1 			"/>
			<polyline id="XMLID_50_" class="st3" points="219.9,393.6 219.9,393.7 219.9,394.2 			"/>
			<polyline id="XMLID_49_" class="st2" points="219.5,387.8 219.5,388.4 219.9,393.6 			"/>
			<polyline id="XMLID_48_" class="st3" points="216,327.6 216,327.6 219.5,387.8 			"/>
			<polyline id="XMLID_47_" class="st2" points="84.5,458 84.5,458 84.5,458 88.8,458.6 835.3,572 			"/>
			<polyline id="XMLID_46_" class="st2" points="71.1,311.7 71.1,311.7 71.2,311.7 216,327.6 216,327.6 833,395.5 833,395.5 			"/>
			<polyline id="XMLID_45_" class="st2" points="45.8,146.8 45.8,146.8 56.1,147.6 57,157.3 71.1,311.1 71.1,311.7 84.4,457.4 
				84.5,458 84.8,461.3 85.3,466.6 85.3,467.3 95.7,582 			"/>
			<polyline id="XMLID_44_" class="st4" points="831.7,303.4 208.8,248.8 71.8,301.7 70.3,302.2 832.8,383.9 832.8,383.9 			"/>
			<line id="XMLID_43_" class="st2" x1="228.8" y1="509.5" x2="227.3" y2="489.2"/>
			<line id="XMLID_42_" class="st2" x1="227.3" y1="489.2" x2="227.3" y2="489.2"/>
			<polyline id="XMLID_41_" class="st4" points="834,472.6 219.9,394.3 219.6,394.3 89.7,458.2 88.8,458.6 88.7,458.7 			"/>
			<line id="XMLID_40_" class="st2" x1="73.8" y1="456.4" x2="74.3" y2="456.5"/>
			<polyline id="XMLID_39_" class="st2" points="228.8,510.1 95.8,582.7 95.7,582 85.3,467.3 85.3,467.3 85.4,467.3 227.2,489.2 
				227.3,489.2 835.5,583.2 			"/>
			<polyline id="XMLID_38_" class="st2" points="75.1,465.4 74.7,465.6 75.2,465.7 			"/>
			<polyline id="XMLID_37_" class="st2" points="945.6,491.2 945.9,626.4 852.6,726.7 			"/>
			<polyline id="XMLID_36_" class="st2" points="226.7,483.4 227.1,488.5 227.2,489.2 228.8,509.5 228.8,510.1 			"/>
			<polyline id="XMLID_35_" class="st2" points="945.6,491.2 945.7,481 945,150.6 			"/>
			<polyline id="XMLID_34_" class="st2" points="852.6,726.7 852.6,726.1 850.8,579.9 850.6,568.6 846.4,207.5 			"/>
		</g>
	</g>
</g>
</svg>
