<?xml version="1.0" encoding="UTF-8" standalone="no"?>
<svg width="200px" height="356px" viewBox="0 0 200 356" version="1.1" xmlns="http://www.w3.org/2000/svg" xmlns:xlink="http://www.w3.org/1999/xlink" xmlns:sketch="http://www.bohemiancoding.com/sketch/ns">
    <!-- Generator: Sketch 3.3.3 (12072) - http://www.bohemiancoding.com/sketch -->
    <title>Shape + Shape</title>
    <desc>Created with Sketch.</desc>
    <defs></defs>
    <g id="Page-1" stroke="none" stroke-width="1" fill="none" fill-rule="evenodd" sketch:type="MSPage">
        <g id="Shape-+-Shape" sketch:type="MSLayerGroup">
            <path d="M199.4,0.1 L199.4,14.3 C199.4,42.8 163.8,71.2 163.8,128.1 C163.8,185 199.4,270.4 199.4,355.7 L171,355.7 C171,339.2 171,327.3 156.2,327.3 L43.6,327.3 C28.8,327.3 28.8,339.1 28.8,355.7 L0.4,355.7 C0.4,270.4 36,185.1 36,128.2 C36,71.3 0.4,42.8 0.5,14.4 L0.5,0.2 L92.9,0.2 C92.9,4.9 92.9,9.7 92.8,14.3 L92.8,42.7 L107,42.7 L107,14.3 L107,0.1 C137.8,0.1 168.6,0.1 199.4,0.1 L199.4,0.1 Z M139,284.6 C148.2,284.6 154.9,276.1 152.9,267.2 C140.9,215.1 128.8,162.9 116.8,110.8 C115.3,104.3 109.6,99.8 102.9,99.8 L97.1,99.8 C90.5,99.8 84.7,104.4 83.2,110.8 C71.2,162.9 59.1,215.1 47.1,267.2 C45,276.1 51.8,284.6 61,284.6 L92.9,284.6 L92.9,298.8 L107.1,298.8 L107.1,284.6 L139,284.6 L139,284.6 Z" id="Shape" fill="#9C92F7" sketch:type="MSShapeGroup"></path>
            <path d="M152.9,267.2 C154.9,276.1 148.2,284.6 139,284.6 L107.1,284.6 L107.1,298.8 L92.9,298.8 L92.9,284.6 L61,284.6 C51.8,284.6 45,276.1 47.1,267.2 C59.1,215.1 71.2,162.9 83.2,110.8 C84.7,104.4 90.5,99.8 97.1,99.8 L102.9,99.8 C109.6,99.8 115.3,104.3 116.8,110.8 C128.8,162.9 140.9,215.1 152.9,267.2 L152.9,267.2 Z" id="Shape" fill="#FFFFFF" sketch:type="MSShapeGroup"></path>
        </g>
    </g>
</svg>