<?xml version="1.0" encoding="UTF-8" standalone="no"?>
<svg width="201px" height="358px" viewBox="0 0 201 358" version="1.1" xmlns="http://www.w3.org/2000/svg" xmlns:xlink="http://www.w3.org/1999/xlink" xmlns:sketch="http://www.bohemiancoding.com/sketch/ns">
    <!-- Generator: Sketch 3.3.3 (12072) - http://www.bohemiancoding.com/sketch -->
    <title>Default</title>
    <desc>Created with Sketch.</desc>
    <defs></defs>
    <g id="Page-1" stroke="none" stroke-width="1" fill="none" fill-rule="evenodd" sketch:type="MSPage">
        <g id="Default" sketch:type="MSLayerGroup" transform="translate(1.000000, 1.000000)">
            <path d="M152.6,267.2 C140.6,215.1 128.5,162.9 116.5,110.8 C115,104.3 109.3,99.8 102.6,99.8 L96.8,99.8 C90.2,99.8 84.4,104.4 82.9,110.8 C70.9,162.9 58.8,215.1 46.8,267.2 C44.7,276.1 51.5,284.6 60.7,284.6 L92.6,284.6 L92.6,298.8 L106.8,298.8 L106.8,284.6 L138.7,284.6 C147.9,284.6 154.7,276.1 152.6,267.2 L152.6,267.2 Z" id="Shape" stroke="#000000" fill="#69B47A" sketch:type="MSShapeGroup"></path>
            <path d="M92.7,0.2 L0.3,0.2 L0.3,14.4 C0.3,42.8 35.9,71.3 35.9,128.2 C35.9,185.1 0.3,270.4 0.3,355.8 L28.7,355.8 C28.7,339.2 28.7,327.4 43.5,327.4 L156.1,327.4 C170.9,327.4 170.9,339.3 170.9,355.8 L199.3,355.8 C199.3,270.5 163.7,185.1 163.7,128.2 C163.7,71.3 199.3,42.9 199.3,14.4 L199.3,0.2 L106.9,0.2 L106.9,14.4 L106.9,42.8 L92.7,42.8 L92.7,14.4 C92.7,9.7 92.7,4.9 92.7,0.2 L92.7,0.2 Z" id="Shape" stroke="#69B47A" fill="#69B47A" sketch:type="MSShapeGroup"></path>
            <path d="M152.6,267.2 C140.6,215.1 128.5,162.9 116.5,110.8 C115,104.3 109.3,99.8 102.6,99.8 L96.8,99.8 C90.2,99.8 84.4,104.4 82.9,110.8 C70.9,162.9 58.8,215.1 46.8,267.2 C44.7,276.1 51.5,284.6 60.7,284.6 L92.6,284.6 L92.6,298.8 L106.8,298.8 L106.8,284.6 L138.7,284.6 C147.9,284.6 154.7,276.1 152.6,267.2 L152.6,267.2 Z" id="Shape" stroke="#FFFFFF" fill="#FFFFFF" sketch:type="MSShapeGroup"></path>
        </g>
    </g>
</svg>