<?xml version="1.0" encoding="UTF-8" standalone="no"?>
<svg width="338px" height="543px" viewBox="0 0 338 543" version="1.1" xmlns="http://www.w3.org/2000/svg" xmlns:xlink="http://www.w3.org/1999/xlink" xmlns:sketch="http://www.bohemiancoding.com/sketch/ns">
    <!-- Generator: Sketch 3.3.3 (12072) - http://www.bohemiancoding.com/sketch -->
    <title>Shape + Shape</title>
    <desc>Created with Sketch.</desc>
    <defs></defs>
    <g id="Page-1" stroke="none" stroke-width="1" fill="none" fill-rule="evenodd" sketch:type="MSPage">
        <g id="Shape-+-Shape" sketch:type="MSLayerGroup" transform="translate(0.000000, 1.000000)" stroke="#FFFFFF">
            <path d="M326.8,0.3 L300.3,0.3 L299.1,0.3 L298.5,0.3 C298.4,0.3 298.4,0.3 298.4,0.4 C298.4,0.4 298.4,0.5 298.3,0.5 C298.3,0.6 298.2,0.7 298.2,0.8 C297.9,1.6 297.5,2.4 297.2,3.1 C296.5,4.7 295.9,6.2 295.2,7.8 C293.9,10.9 292.6,14 291.3,17.2 C288.7,23.4 286,29.7 283.4,35.9 C272.9,60.9 262.4,85.9 251.8,110.8 C241.3,135.8 230.8,160.8 220.2,185.7 C218.9,188.8 217.6,191.9 216.3,195.1 C215.7,196.6 215.1,198.2 214.2,199.7 C213.3,201.2 212.2,202.4 210.8,203.5 C205.2,207.9 197.2,207.6 192.1,202.7 C191.5,202.1 190.9,201.5 190.4,200.8 C189.9,200.1 189.5,199.4 189.1,198.7 C188.2,197.3 187.3,195.8 186.4,194.4 C184.6,191.5 182.9,188.6 181.1,185.7 C177.6,179.9 174,174.1 170.5,168.4 C143.4,124.2 116.3,80 89.2,35.8 C88.8,35.1 88.4,34.4 87.9,33.7 C87.5,33 87.1,32.3 86.6,31.7 C85.6,30.4 84.2,29.4 82.6,29 C81.8,28.8 81,28.8 80.2,28.8 L77.8,28.8 L72.9,28.8 L63.2,28.8 L58.3,28.8 L57.1,28.8 L56.5,28.8 L56.3,28.8 C56.2,28.8 56.3,28.7 56.3,28.7 L56.3,28.4 L56.3,26 L56.3,16.3 L56.3,15.1 L56.3,14.8 L56.3,14.7 L56.5,14.7 L57.1,14.7 L59.5,14.7 L64.4,14.7 L83.8,14.7 L84.4,14.7 L84.7,14.7 C84.7,14.7 84.7,14.7 84.7,14.6 L84.7,14.5 L84.7,14.3 L84.7,13.1 L84.7,10.7 L84.7,5.8 L84.7,0.9 L84.7,0.6 C84.7,0.5 84.8,0.3 84.7,0.3 L84.1,0.3 L82.9,0.3 L80.5,0.3 L61.1,0.3 L22.2,0.3 L17.3,0.3 L14.9,0.3 L14.3,0.3 L14,0.3 L13.8,0.3 L13.7,0.3 L13.7,1.5 L13.7,11.2 L13.7,20.9 L13.7,25.8 L13.7,28.2 L13.7,28.5 L13.7,28.7 C13.7,28.8 13.6,28.7 13.6,28.7 L13,28.7 L11.8,28.7 L2.1,28.7 L0.9,28.7 L0.7,28.7 L0.6,28.7 L0.5,28.7 L0.5,29 L0.5,29.6 L0.5,32 L0.5,36.9 L0.5,56.3 L0.5,134.1 L0.5,289.6 L0.5,445.1 L0.5,484 L0.5,503.4 L0.5,508.3 L0.5,510.7 L0.5,511.9 L0.5,512.1 L0.5,512.2 L0.8,512.2 L1.4,512.2 L11.1,512.2 L13.5,512.2 L13.6,512.2 C13.6,512.2 13.6,512.2 13.6,512.3 L13.6,512.5 L13.6,512.8 L13.6,513.4 L13.6,514.6 L13.6,519.5 L13.6,529.2 L13.6,538.9 L13.6,540.1 L13.6,540.4 L13.6,540.6 C13.6,540.6 13.5,540.7 13.6,540.7 L14.2,540.7 L16.6,540.7 L21.5,540.7 L60.4,540.7 L79.8,540.7 L84.7,540.7 C84.8,540.7 84.7,540.6 84.7,540.6 L84.7,540.5 L84.7,540.3 L84.7,540 L84.7,539.4 L84.7,538.2 L84.7,535.8 L84.7,530.9 L84.7,528.5 L84.7,527.3 L84.7,526.7 L84.7,526.5 C84.7,526.5 84.7,526.4 84.6,526.4 L84.3,526.4 L64.9,526.4 L60,526.4 L57.6,526.4 L56.4,526.4 L56.3,526.4 L56.3,526.2 L56.3,525.9 L56.3,525.3 L56.3,515.6 L56.3,513.2 L56.3,512.6 L56.3,512.3 C56.3,512.1 56.4,512.2 56.5,512.2 L57.7,512.2 L62.6,512.2 L72.3,512.2 L77.2,512.2 L79.6,512.2 C80.4,512.2 81.2,512.2 82,512.1 C83.6,511.8 85.1,511 86.2,509.7 C86.7,509.1 88.4,506.2 88.8,505.6 C95.6,494.5 102.3,483.5 109.1,472.4 C122.6,450.3 136.2,428.2 149.7,406.1 C156.5,395 163.2,384 170,372.9 C173.4,367.4 176.8,361.8 180.2,356.3 C181.9,353.5 183.6,350.8 185.3,348 C186.1,346.6 187,345.2 187.8,343.9 C188.2,343.2 188.6,342.5 189.1,341.8 C189.5,341.1 189.9,340.4 190.4,339.8 C194.9,333.9 203.2,332.4 209.4,336.4 C211,337.4 212.2,338.6 213.3,340.1 C214.3,341.5 215,343.1 215.6,344.8 C217,348.1 218.3,351.3 219.7,354.6 C225.2,367.6 230.7,380.7 236.2,393.7 C247.2,419.8 258.2,445.8 269.1,471.9 C274.6,484.9 280.1,498 285.6,511 C288.3,517.5 291.1,524 293.8,530.6 C295.2,533.9 296.5,537.1 297.9,540.4 C297.9,540.5 297.9,540.5 298,540.6 C298,540.7 298,540.7 298.1,540.7 L298.4,540.7 L299.1,540.7 L300.4,540.7 L302.9,540.7 L307.6,540.7 L321.9,540.7 L326.4,540.7 L326.5,540.7 C326.6,540.7 326.6,540.6 326.6,540.5 L326.6,539.8 L326.6,538.5 L326.6,535.8 L326.6,530.5 L326.6,527.8 L326.6,526.5 C326.6,526.5 326.7,526.4 326.6,526.4 L325.9,526.4 L321.5,526.4 L313.1,526.4 L312.4,526.4 L312.3,526.4 L312.3,526.3 L312.3,526.1 L312.3,525.8 L312.3,524.5 L312.3,521.8 L312.3,516.5 L312.3,514.1 L312.3,512.9 L312.3,512.3 C312.3,512.3 312.3,512.2 312.4,512.2 L312.6,512.2 L312.9,512.2 L317.8,512.2 L327.5,512.2 C329.1,512.2 330.7,512.3 332.3,511.7 C333.8,511.1 335.1,510 335.9,508.6 C336.7,507.2 337,505.5 336.7,503.9 C336.6,503.1 336.2,502.4 335.9,501.6 C335.6,500.9 335.2,500.1 334.9,499.4 C329.4,487.7 323.9,475.9 318.3,464.2 C307.3,440.7 296.2,417.3 285.2,393.8 C274.2,370.3 263.1,346.9 252.1,323.4 C246.6,311.7 241.1,299.9 235.5,288.2 C232.7,282.3 230,276.5 227.2,270.6 C227.2,270.6 227.2,270.5 227.1,270.5 C227.1,270.5 227,270.4 227.1,270.4 C227.1,270.3 227.2,270.2 227.2,270.1 C227.3,269.9 227.4,269.7 227.5,269.6 C227.7,269.2 227.8,268.9 228,268.5 C228.3,267.8 228.7,267 229,266.3 C229.7,264.8 230.4,263.4 231.1,261.9 C232.5,259 233.9,256 235.2,253.1 C258.3,204 281.4,155 304.5,105.9 C310.3,93.6 316,81.4 321.8,69.1 C324.7,63 327.6,56.8 330.5,50.7 C331.9,47.6 333.4,44.6 334.8,41.5 C335.2,40.7 335.5,40 335.9,39.2 C336.3,38.4 336.6,37.7 336.7,36.8 C337,35.1 336.6,33.4 335.7,31.9 C334.8,30.4 333.4,29.4 331.7,28.9 C330.9,28.7 330.1,28.6 329.2,28.6 L326.7,28.6 L316.5,28.6 L314,28.6 L312.7,28.6 L312.5,28.6 C312.5,28.6 312.4,28.7 312.4,28.6 L312.4,28.3 L312.4,27.7 L312.4,22.6 L312.4,17.5 L312.4,15 L312.4,14.7 L312.4,14.5 C312.4,14.4 312.5,14.4 312.5,14.4 L313.1,14.4 L314.3,14.4 L325.9,14.4 L326.5,14.4 L326.5,14.4 L326.5,14.3 L326.5,14.1 L326.5,12.8 L326.5,10.3 C326.8,7.1 326.8,3.7 326.8,0.3 L326.8,0.3 Z" id="Shape" fill="#9C92F7" sketch:type="MSShapeGroup"></path>
            <path d="M180.5,263.5 C152.8,215 125,166.5 97.3,117.9 C94.1,112.3 87.5,109.6 81.3,111.2 C75.1,112.9 70.7,118.5 70.7,124.9 L70.7,270.5 L70.7,416.1 C70.7,422.5 75,428.2 81.3,429.8 C87.6,431.4 94.1,428.7 97.3,423.1 C125,374.6 152.8,326.1 180.5,277.5 C183,273.2 183,267.8 180.5,263.5 L180.5,263.5 Z" id="Shape" fill="#FFFFFF" sketch:type="MSShapeGroup"></path>
        </g>
    </g>
</svg>