<?xml version="1.0" encoding="utf-8"?>
<!-- Generator: Adobe Illustrator 19.0.0, SVG Export Plug-In . SVG Version: 6.00 Build 0)  -->
<svg version="1.1" id="Layer_1" xmlns="http://www.w3.org/2000/svg" xmlns:xlink="http://www.w3.org/1999/xlink" x="0px" y="0px"
	 viewBox="0 0 1024 768" style="enable-background:new 0 0 1024 768;" xml:space="preserve">
<style type="text/css">
	.st0{fill:#6AB57B;}
	.st1{fill:none;stroke:#000000;stroke-linecap:round;stroke-linejoin:round;}
</style>
<g id="Layer_04">
</g>
<g>
	<g id="Make2D::visible::lines::Layer_07">
		<g id="XMLID_1_">
			<g>
				<polygon class="st0" points="704.6,260.5 700,261.5 690.1,263.9 686.2,264.8 686.9,253.5 786.4,231.5 785.6,241.4 783.1,242 
					726.4,255.3 				"/>
				<path class="st0" d="M687.6,234.7L430,208l-5.2,0.6l258.1,27L687.6,234.7z M786.4,231.5l-99.5,22l-357.8-41.8l113.5-12.9
					L786.4,231.5z"/>
				<path class="st0" d="M785.2,242.2l-59,13.9c0.1-0.3,0.1-0.5,0.1-0.7l0-0.1l56.7-13.3v0L785.2,242.2z"/>
				<path class="st0" d="M705.1,261.1l-0.5,0.1c0-0.3,0-0.5,0.1-0.8l21.8-5.1l0,0.1c0,0.2-0.1,0.5-0.1,0.7L705.1,261.1z"/>
				<path class="st0" d="M678.1,451.2l0.3,0.1l-0.6,9.3l8.8,2.3l4.7-2.3l0.3-0.2l1.2-18.6l-4.8-3.4l6.5-3c1.1-0.7,2-1.5,2.7-2.6
					c0.7-1.1,1.2-2.2,1.6-3.4c0.9-2.4,1.2-4.7,1.1-7.3l-5.3-99.6c-0.1-1.5-0.3-2.8-1-4.2c-0.7-1.3-1.8-2.4-3.4-1.9l-2.1,0.6
					c-1.1,0.3-2,1.3-2.8,2.3c-0.4,0.6-0.8,1.1-1,1.6c-0.9,1.7-1.4,3.4-1.7,5.3h0.1l-17,96.4l-0.9,5.1l-1.9,10.9
					c-0.4,1.8-0.5,3.4-0.1,5.2c0.1,0.3,0.1,0.7,0.2,1c0.2,0.9,0.5,2.2,1.3,2.8c0.8,0.7,1.9,0.8,2.9,0.4l0,0l11.4-5.2L678.1,451.2z
					 M705.1,261.1l21.2-5c-1.6,8.4-4.6,17.4-7,25.5c-2.6,8.7-4.9,17.4-6.5,26.4c-3.5,18.8-3.6,35.2-3,54.2
					c0.6,18.1,1.7,36.2,2.3,54.3c0.6,18.1,0.5,36.1-0.8,54.2h0l-9.2,4.7c0.2-3.1,0.5-6.2,0.5-9.4c0-1.6,0-3.1-0.5-4.6
					c-0.6-2-1.8-2.3-3.6-1.4l-4.5,2.2l-34.7,17.2c-3.8,1.9-4.9,6.3-5.5,9.9c-0.7,3.9-0.8,7.8-1.1,11.7l-10.7,5.5
					c1.2-20.4,3.9-40.5,7-60.6c3.2-20.1,6.9-40.1,10.2-60.1c1.7-10,3.2-20.1,4.3-30.2c1.1-10.1,1.6-20.2,1.1-30.4
					c-0.6-10.5-2.2-19.9-4.5-30.1c-2.2-9.7-5-19.7-4.4-30c0,0,0-0.1,0-0.1l0.2-3l30,3.8l4.2-1l-0.8,12.7l0.3-0.1l-1.2,19.4l9.3,1.4
					l3-0.9c0.4,0.1,0.8,0.1,1,0.2c0.1,0,0.2,0,0.3,0c0.1,0,0.2,0.1,0.2,0c0-0.2,0-0.4,0-0.6c0,0,0,0,0,0l0.5-0.1L705.1,261.1z"/>
				<path class="st0" d="M705.1,261.1l-2.5,35.5l-0.5,0.1c0.1-0.8,0.1-1.7,0.2-2.5c0.1-1.6,0.2-3.2,0.3-4.8c0.2-3.2,0.4-6.5,0.7-9.7
					c0.4-6.2,0.9-12.3,1.2-18.5L705.1,261.1z"/>
				<path class="st0" d="M704.6,260.5c0,0.3,0,0.5-0.1,0.8l-4.6,1.1l0-0.8l0-0.1L704.6,260.5z"/>
				<path class="st0" d="M700.6,297.2l-3,0.9l2.4-35.8l4.6-1.1c-0.4,6.2-0.9,12.3-1.2,18.5c-0.3,3.2-0.5,6.5-0.7,9.7
					c-0.1,1.6-0.2,3.2-0.3,4.8c-0.1,0.8-0.1,1.7-0.2,2.5L700.6,297.2z"/>
				<path class="st0" d="M702,461.4c0.5,1.5,0.5,3,0.5,4.6c0,3.2-0.3,6.3-0.5,9.4l-8.5-2.2c0.3-3.6,0.5-7.3,0.4-10.9l0-0.1l4.5-2.2
					C700.2,459.1,701.4,459.4,702,461.4z"/>
				<path class="st0" d="M702.1,296.8C702.1,296.8,702.1,296.8,702.1,296.8c0,0.2,0,0.5,0,0.6c0,0.1-0.1,0-0.2,0c-0.1,0-0.2,0-0.3,0
					c-0.3-0.1-0.7-0.1-1-0.2L702.1,296.8z"/>
				<polygon class="st0" points="700,261.5 700,261.6 700,262.4 690.1,264.7 690.1,263.9 690.1,263.9 				"/>
				<polygon class="st0" points="689.6,277.3 689.2,277.4 690.1,264.7 700,262.4 697.6,298.1 688.3,296.7 				"/>
				<path class="st0" d="M691.2,420.1l-5.6-99.1c0-0.6-0.1-1.2-0.2-1.7l0,0c0.7-1,1.7-1.9,2.8-2.3l2.1-0.6c1.6-0.5,2.7,0.6,3.4,1.9
					c0.7,1.4,0.9,2.7,1,4.2l5.3,99.6c0.1,2.6-0.2,4.9-1.1,7.3c-0.4,1.2-0.9,2.3-1.6,3.4c-0.7,1.1-1.6,1.9-2.7,2.6l-6.5,3l-5.2-3.7
					l0,0l3-1.3c1.1-0.7,2-1.5,2.7-2.6c0.7-1,1.2-2.2,1.6-3.4C691,425,691.3,422.7,691.2,420.1z"/>
				<polygon class="st0" points="691.3,460.6 686.6,462.9 687.9,444.1 692.8,441.8 691.6,460.4 				"/>
				<polygon class="st0" points="692.8,441.8 687.9,444.1 664.8,427.7 665.7,422.6 682.8,434.7 688,438.4 				"/>
				<polygon class="st0" points="690.1,263.9 690.1,263.9 690.1,264.7 685.8,265.7 655.8,262 655.8,261 686.2,264.8 				"/>
				<path class="st0" d="M687.9,444.1l-1.3,18.8l-8.8-2.3l0.6-9.3l-0.3-0.1l0.5-8.4l-8.8-2.2l-7,3.2c-0.4-1.7-0.3-3.4,0.1-5.2
					l1.9-10.9L687.9,444.1z"/>
				<polygon class="st0" points="687.6,234.7 682.9,235.6 424.8,208.6 430,208 				"/>
				<polygon class="st0" points="655.8,261 646.4,259.9 424.3,232.2 386.1,227.5 379.9,226.7 331.8,220.7 329.3,220.4 329.1,211.7 
					686.9,253.5 686.2,264.8 				"/>
				<path class="st0" d="M678.6,442.8l-11.4,5.2l0,0c-1,0.4-2.1,0.2-2.9-0.4c-0.8-0.6-1.1-1.9-1.3-2.8c-0.1-0.3-0.2-0.7-0.2-1l7-3.2
					L678.6,442.8z"/>
				<path class="st0" d="M653.6,308.3c-0.8-4.8-1.8-9.6-3-14.6c-2.2-9.6-5.1-19.6-4.5-29.8h0.1l0.2-3.1l9.4,1.2l-0.2,3
					c0,0,0,0.1,0,0.1c-0.6,10.3,2.2,20.3,4.4,30c2.3,10.2,3.9,19.6,4.5,30.1c0.5,10.2,0,20.3-1.1,30.4c-1.1,10.1-2.6,20.2-4.3,30.2
					c-3.3,20-7,40-10.2,60.1c-3.1,20.1-5.8,40.2-7,60.6l-8.8-2.6c1.1-19.8,3.7-39.4,6.7-59c0.1-0.4,0.1-0.8,0.2-1.2
					c1.6-10.1,3.3-20.1,5-30.1c0.3-1.7,0.6-3.3,0.9-5c1.4-8.2,2.9-16.4,4.2-24.7c1.6-10,3.2-20,4.2-30c1.1-10.1,1.6-20.1,1-30.3
					c-0.3-4.7-0.8-9.2-1.4-13.6c0-0.2-0.1-0.4-0.1-0.6C653.7,309,653.7,308.6,653.6,308.3z"/>
				<polygon class="st0" points="655.8,261 655.8,262 646.4,260.8 646.4,259.9 646.4,259.9 				"/>
				<path class="st0" d="M653.8,309.4c0,0.2,0.1,0.4,0.1,0.6c-13,6.5-25.9,13-38.9,19.5c-6.5,3.3-13,6.5-19.5,9.8
					c-3.2,1.6-6.5,3.3-9.7,4.9c-1.6,0.8-3.2,1.6-4.8,2.4c-1.9,1-3,1.5-4.1,3.5c-1.7,4.4,0,9.5,3.7,12.3l65.3,46.2h0
					c-0.3,1.7-0.6,3.3-0.9,5l0,0l-69.7-49.5c-2.6-2-4.2-5-4.4-8.3c-0.1-1.7,0.1-3.2,0.9-4.7s1.9-2.5,3.5-3.3v-0.1l5.3-1.5
					L653.8,309.4z"/>
				<path class="st0" d="M653.6,308.3c0.1,0.4,0.1,0.7,0.2,1.1l-73.2,36.8l-5.3,1.5L653.6,308.3z"/>
				<path class="st0" d="M469.5,256.1l-1.5-0.2c-3.8-0.6-6.1,2.9-6.6,6.2c-0.5,3.4,0.6,6.9,3.1,9.3l69.6,62.8l0,0.1
					c1.9,1.9,4.8,2.5,7.3,1.4l2-1l80.6-38.9c1.8-1,3.2-2.5,4-4.4c0.4-0.9,0.6-1.9,0.7-2.9c0-0.5,0-1,0-1.5s-0.1-1-0.2-1.5
					c-0.6-4.1-3.7-7.4-7.8-8.2L469.5,256.1z M446.3,365.5l13.4-4.1l41.4-12.7l0,0.1c1.5-0.6,2.6-1.5,3.4-2.9c0.8-1.4,1-2.7,1-4.3
					c0-3.1-1.2-6-3.5-8.1l-50.8-49.3L426,259.6c-1-1-1.5-2.3-1.5-3.7l0.1-13.7v-0.6l-0.4-0.1l0.1-8.5l222.1,27.7l-0.2,3.1h-0.1
					c-0.6,10.2,2.3,20.2,4.5,29.8c1.2,5,2.2,9.7,3,14.6l-78.3,39.4v0.1c-1.6,0.8-2.7,1.8-3.5,3.3s-1,3-0.9,4.7
					c0.2,3.3,1.8,6.3,4.4,8.3l69.7,49.5l0,0c-1.7,10-3.5,20-5,30.1c-0.1,0.4-0.1,0.8-0.2,1.2h0l-102.7-81.2l-0.2-0.2l-108.8,37.4
					H428c-1.3,0.3-2.3-0.3-3.1-1.3c-0.8-1.1-1.1-2.1-1.1-3.4v-8.9v-0.5l-0.4-0.1l0.1-7.1l-6-1.4l-5.5,1.5l0,0V376l27.8-8.5
					L446.3,365.5z"/>
				<polygon class="st0" points="646.4,259.9 646.4,259.9 646.4,260.8 424.3,233 424.3,232.2 				"/>
				<path class="st0" d="M534.2,334.1l-69.6-62.8c-2.5-2.4-3.6-5.9-3.1-9.3c0.5-3.3,2.8-6.8,6.6-6.2l1.5,0.2
					c-2.1,1.9-2.8,4.5-2.7,7.2c0.1,2.7,1.3,5.2,3.2,7.1l69.5,62.2l0,0.1c1.2,1.1,2.4,1.7,3.9,1.9l0,0l-2,1
					C538.9,336.7,536,336.1,534.2,334.1L534.2,334.1z"/>
				<path class="st0" d="M433.3,399.8l0,0.2l-29.1,9c-3.7,1.2-5,4.2-5.5,7.6c-0.5,3.3-0.4,6.6-0.4,10l-11.5,3.7
					c-0.1-17,1.6-33.7,3.9-50.5c2.2-16.7,5.1-33.4,7.5-50.1c1.2-8.4,2.2-16.7,2.7-25.2s0.3-16.8-1.1-25.2c-1.4-8.4-4-16.4-7-24.3
					c-2.8-7.4-6.6-15.9-6.6-24.3h-0.1v-2.4l38.2,4.8l-0.1,8.5l0,0.7h0.4l-0.1,13.7c0,1.4,0.5,2.7,1.5,3.7l25.2,24.5
					c-0.4,12.3,1.4,26.5,3.1,38.7c1.8,12.9,3.8,25.7,5.4,38.5l-13.4,4.1c0-0.6,0-1.1-0.1-1.7l-12.9-83.9c-0.2-1.5-0.6-2.7-1.6-3.8
					c-0.9-1.1-2.2-1.7-3.7-1.5l-2.3,0.4c-0.1,0-0.1,0-0.2,0c-3.2,0.7-4.9,4.6-5.3,7.4L405.6,375c-0.4,1.9-0.1,4,0.7,5.8
					c0.1,0.2,0.1,0.3,0.2,0.5c0.4,0.7,0.9,1.3,1.7,1.7c1,0.5,1.8,0.6,2.9,0.3v-0.1l12.4-3.6l-0.1,7.1l0,0.8l0.4-0.2v8.9
					c0,1.3,0.3,2.3,1.1,3.4c0.8,1,1.8,1.6,3.1,1.3h0.1l108.8-37.4l0.2,0.2l0,0l-75,25.7c0,0.2,0,0.3,0,0.5c-1.4,0.5-2.8,0.9-4.1,1.4
					c-4.4,1.5-8.8,3-13.2,4.5c-2.2,0.8-4.4,1.5-6.6,2.3c-1.1,0.3-2.2,0.7-3.3,1.1C434.4,399.4,433.8,399.6,433.3,399.8z"/>
				<path class="st0" d="M445.6,396.2l-12.3,3.8l0-0.2c0.5-0.2,1.1-0.4,1.6-0.6c1.1-0.4,2.2-0.8,3.3-1.1c2.2-0.8,4.4-1.5,6.6-2.3
					c4.4-1.5,8.8-3,13.2-4.5c1.4-0.5,2.7-0.9,4.1-1.4c0.3,5.3,0.4,10.6,0.3,15.9l-10.1,3.3c0-2.8,0.1-5.7-0.2-8.5
					c-0.3-3.1-1.2-6.1-5-4.9L445.6,396.2z"/>
				<path class="st0" d="M452.1,400.6c0.3,2.8,0.2,5.7,0.2,8.5l-5.9-1.6c0.3-3.9,0.1-7.6-0.8-11.3l1.5-0.5
					C450.9,394.5,451.8,397.5,452.1,400.6z"/>
				<path class="st0" d="M446.3,365.5l-6.5,2c0.5-1.7,0.7-3.3,0.4-5.1l-13-83.5c-0.2-1.5-0.7-2.7-1.7-3.9c0,0,0.1,0,0.2,0l2.3-0.4
					c1.5-0.2,2.8,0.4,3.7,1.5c1,1.1,1.4,2.3,1.6,3.8l12.9,83.9C446.3,364.4,446.3,364.9,446.3,365.5z"/>
				<polygon class="st0" points="424.6,241.6 424.6,242.2 424.2,242.2 424.2,241.5 				"/>
				<polygon class="st0" points="424.3,232.2 424.3,233 386.1,228.3 386.1,227.5 386.1,227.5 				"/>
				<polygon class="st0" points="423.8,386.8 423.8,387.3 423.4,387.5 423.4,386.7 				"/>
				<path class="st0" d="M423.5,379.6l-12.4,3.6v0.1c-1.1,0.3-1.9,0.2-2.9-0.3c-0.8-0.4-1.3-1-1.7-1.7l5.5-1.5l5.5-1.5L423.5,379.6z
					"/>
				<path class="st0" d="M386.1,230.7h0.1c0,8.4,3.8,16.9,6.6,24.3c3,7.9,5.6,15.9,7,24.3c1.4,8.4,1.6,16.7,1.1,25.2
					s-1.5,16.8-2.7,25.2c-2.4,16.7-5.3,33.4-7.5,50.1c-2.3,16.8-4,33.5-3.9,50.5l-6-1.8c-0.1-16.9,1.6-33.5,3.8-50.2
					c2.2-16.7,5.1-33.2,7.4-49.9c1.2-8.3,2.2-16.6,2.7-25.1s0.3-16.7-1.1-25.1c-1.4-8.4-4-16.3-7-24.2c-2.8-7.2-6.5-15.7-6.7-24
					c0-0.1,0-0.1,0-0.2v-2.3l6.2,0.8V230.7z"/>
				<polygon class="st0" points="386.1,227.5 386.1,228.3 379.9,227.5 379.9,226.7 386.1,227.5 				"/>
				<polygon class="st0" points="331.8,220.7 379.9,226.7 379.9,227.5 328.8,221.1 				"/>
			</g>
			<g>
				<line class="st1" x1="691.6" y1="460.4" x2="692.8" y2="441.8"/>
				<line class="st1" x1="692.8" y1="441.8" x2="687.9" y2="444.1"/>
				<line class="st1" x1="686.6" y1="462.9" x2="687.9" y2="444.1"/>
				<polyline class="st1" points="691.6,460.4 691.3,460.6 686.6,462.9 				"/>
				<polyline class="st1" points="692.8,441.8 688,438.4 682.8,434.7 665.7,422.6 665.7,422.6 				"/>
				<line class="st1" x1="645.9" y1="408.6" x2="580.6" y2="362.4"/>
				<polyline class="st1" points="687.9,444.1 664.8,427.7 664.8,427.7 				"/>
				<line class="st1" x1="645" y1="413.6" x2="575.3" y2="364.1"/>
				<path class="st1" d="M580.6,362.4c-3.7-2.8-5.4-7.9-3.7-12.3"/>
				<path class="st1" d="M577.6,348.8c0.8-1.2,1.7-2,3.1-2.6"/>
				<line class="st1" x1="580.6" y1="346.2" x2="575.3" y2="347.7"/>
				<path class="st1" d="M575.3,364.1c-2.6-2-4.2-5-4.4-8.3c-0.1-1.7,0.1-3.2,0.9-4.7s1.9-2.5,3.5-3.3"/>
				<polyline class="st1" points="580.6,346.2 653.8,309.4 653.9,309.3 				"/>
				<polyline class="st1" points="575.3,347.7 653.6,308.3 653.7,308.2 				"/>
				<line class="st1" x1="689.3" y1="276.6" x2="689.6" y2="276.6"/>
				<line class="st1" x1="432.8" y1="399.4" x2="431.4" y2="399.8"/>
				<polyline class="st1" points="689.6,276.6 689.6,277.3 688.3,296.7 				"/>
				<line class="st1" x1="690.3" y1="461.1" x2="691.2" y2="461.3"/>
				<path class="st1" d="M431.6,399.9c0.6,0.2,1.1,0.1,1.7-0.1c0.5-0.2,1.1-0.4,1.6-0.6c1.1-0.4,2.2-0.8,3.3-1.1
					c2.2-0.8,4.4-1.5,6.6-2.3c4.4-1.5,8.8-3,13.2-4.5c1.4-0.5,2.7-0.9,4.1-1.4c7.4-2.5,14.9-5.1,22.4-7.7c17.7-6,35.3-12.1,53-18.1"
					/>
				<path class="st1" d="M700.5,297.2C700.5,297.2,700.5,297.2,700.5,297.2c0.4,0.1,0.8,0.1,1.1,0.2c0.1,0,0.2,0,0.3,0
					c0.1,0,0.2,0.1,0.2,0c0-0.2,0-0.4,0-0.6c0,0,0,0,0,0c0.1-0.8,0.1-1.7,0.2-2.5c0.1-1.6,0.2-3.2,0.3-4.8c0.2-3.2,0.4-6.5,0.7-9.7
					c0.4-6.2,0.9-12.3,1.2-18.5c0-0.3,0-0.5,0.1-0.8c0,0,0,0,0-0.1"/>
				<path class="st1" d="M576.9,350.1c1.1-2,2.2-2.5,4.1-3.5c1.6-0.8,3.2-1.6,4.8-2.4c3.2-1.6,6.5-3.3,9.7-4.9
					c6.5-3.3,13-6.5,19.5-9.8c13-6.5,25.9-13,38.9-19.5c0,0,0.1,0,0.1-0.1"/>
				<polyline class="st1" points="691.2,461.3 691.3,460.6 692.4,442.7 				"/>
				<line class="st1" x1="420.2" y1="282.4" x2="405.6" y2="375"/>
				<path class="st1" d="M425.7,275c-0.1,0-0.1,0-0.2,0c-3.2,0.7-4.9,4.6-5.3,7.4"/>
				<line class="st1" x1="428" y1="274.6" x2="425.7" y2="275"/>
				<path class="st1" d="M427.2,278.9c-0.2-1.5-0.7-2.7-1.7-3.9c0,0,0,0,0,0"/>
				<path class="st1" d="M433.3,279.9c-0.2-1.5-0.6-2.7-1.6-3.8c-0.9-1.1-2.2-1.7-3.7-1.5"/>
				<line class="st1" x1="440.2" y1="362.4" x2="427.2" y2="278.9"/>
				<polyline class="st1" points="702.6,296.6 702.1,296.8 700.6,297.2 697.6,298.1 				"/>
				<line class="st1" x1="446.2" y1="363.8" x2="433.3" y2="279.9"/>
				<path class="st1" d="M439.8,367.5C439.8,367.5,439.8,367.5,439.8,367.5c0.5-1.7,0.7-3.3,0.4-5.1"/>
				<line class="st1" x1="688.3" y1="296.7" x2="697.6" y2="298.1"/>
				<path class="st1" d="M446.3,365.5C446.3,365.5,446.3,365.5,446.3,365.5c0-0.6,0-1.1-0.1-1.7"/>
				<line class="st1" x1="423.4" y1="387.5" x2="423.8" y2="387.3"/>
				<polyline class="st1" points="423.5,379.6 423.4,386.7 423.4,387.5 				"/>
				<polyline class="st1" points="406.5,381.3 406.5,381.3 412,379.8 417.5,378.2 				"/>
				<line class="st1" x1="423.5" y1="379.6" x2="417.5" y2="378.2"/>
				<line class="st1" x1="411.1" y1="383.2" x2="423.5" y2="379.6"/>
				<polyline class="st1" points="702.6,296.6 705.1,261.1 705.1,260.4 				"/>
				<path class="st1" d="M405.6,375c-0.4,1.9-0.1,4,0.7,5.8c0.1,0.2,0.1,0.3,0.2,0.5c0.4,0.7,0.9,1.3,1.7,1.7c1,0.5,1.8,0.6,2.9,0.3
					"/>
				<line class="st1" x1="424.2" y1="242.2" x2="424.6" y2="242.2"/>
				<polyline class="st1" points="424.3,232.2 424.3,232.2 424.3,233 424.2,241.5 424.2,242.2 				"/>
				<polyline class="st1" points="379.9,229.8 379.9,227.5 379.9,226.7 				"/>
				<polyline class="st1" points="386.1,230.8 386.1,230.7 386.1,228.3 386.1,227.5 				"/>
				<path class="st1" d="M380.8,428.5c-0.1-16.9,1.6-33.5,3.8-50.2c2.2-16.7,5.1-33.2,7.4-49.9c1.2-8.3,2.2-16.6,2.7-25.1
					s0.3-16.7-1.1-25.1c-1.4-8.4-4-16.3-7-24.2c-2.8-7.2-6.5-15.7-6.7-24c0-0.1,0-0.1,0-0.2"/>
				<polyline class="st1" points="697.6,298.1 700,262.4 700,261.6 				"/>
				<path class="st1" d="M386.8,430.3c-0.1-17,1.6-33.7,3.9-50.5c2.2-16.7,5.1-33.4,7.5-50.1c1.2-8.4,2.2-16.7,2.7-25.2
					s0.3-16.8-1.1-25.2c-1.4-8.4-4-16.4-7-24.3c-2.8-7.4-6.6-15.9-6.6-24.3"/>
				<line class="st1" x1="386.8" y1="430.3" x2="380.8" y2="428.5"/>
				<line class="st1" x1="398.3" y1="426.6" x2="386.8" y2="430.3"/>
				<path class="st1" d="M404.2,409c-3.7,1.2-5,4.2-5.5,7.6c-0.5,3.3-0.4,6.6-0.4,10"/>
				<polyline class="st1" points="447.1,395.7 445.6,396.2 433.4,400 404.2,409 				"/>
				<path class="st1" d="M446.4,407.5c0.3-3.9,0.1-7.6-0.8-11.3c0,0,0,0,0-0.1"/>
				<path class="st1" d="M452.3,409.1c0-2.8,0.1-5.7-0.2-8.5c-0.3-3.1-1.2-6.1-5-4.9"/>
				<line class="st1" x1="452.3" y1="409.1" x2="446.4" y2="407.5"/>
				<line class="st1" x1="462.4" y1="405.8" x2="452.3" y2="409.1"/>
				<path class="st1" d="M462.1,389.4c0,0.2,0,0.3,0,0.5c0.3,5.3,0.4,10.6,0.3,15.9"/>
				<path class="st1" d="M451.2,284C451.2,284,451.2,284,451.2,284c-0.4,12.4,1.4,26.6,3.1,38.8c1.8,12.9,3.8,25.7,5.4,38.5
					c0,0,0,0.1,0,0.1"/>
				<polyline class="st1" points="688.1,234.6 687.6,234.7 682.9,235.6 				"/>
				<line class="st1" x1="688.1" y1="234.6" x2="430.4" y2="207.9"/>
				<line class="st1" x1="430" y1="208" x2="424.8" y2="208.6"/>
				<line class="st1" x1="682.9" y1="235.6" x2="424.8" y2="208.6"/>
				<polyline class="st1" points="424.2,241.5 424.2,241.5 424.6,241.6 				"/>
				<polyline class="st1" points="424.6,241.6 424.6,242.2 424.5,255.9 				"/>
				<path class="st1" d="M424.5,255.9c0,1.4,0.5,2.7,1.5,3.7"/>
				<polyline class="st1" points="426,259.6 451.2,284.1 502,333.4 				"/>
				<path class="st1" d="M502,333.4c2.3,2.1,3.5,5,3.5,8.1c0,1.6-0.2,2.9-1,4.3c-0.8,1.4-1.9,2.3-3.4,2.9c0,0,0,0,0,0"/>
				<polyline class="st1" points="501.1,348.6 459.7,361.3 446.3,365.5 439.8,367.5 412,376 				"/>
				<polyline class="st1" points="682.7,326.2 665.7,422.6 664.8,427.7 662.9,438.6 				"/>
				<path class="st1" d="M688.1,317c-1.1,0.3-2,1.3-2.8,2.3c-0.4,0.6-0.8,1.1-1,1.6c-0.9,1.7-1.4,3.4-1.7,5.3"/>
				<line class="st1" x1="690.2" y1="316.4" x2="688.1" y2="317"/>
				<path class="st1" d="M685.6,321c0-0.6-0.1-1.2-0.2-1.7"/>
				<path class="st1" d="M694.6,322.5c-0.1-1.5-0.3-2.8-1-4.2c-0.7-1.3-1.8-2.4-3.4-1.9"/>
				<line class="st1" x1="691.2" y1="420.1" x2="685.6" y2="321"/>
				<line class="st1" x1="412" y1="376" x2="412" y2="379.7"/>
				<line class="st1" x1="699.9" y1="422.1" x2="694.6" y2="322.5"/>
				<path class="st1" d="M685.8,433.4c1.1-0.7,2-1.5,2.7-2.6c0.7-1,1.2-2.2,1.6-3.4c0.9-2.4,1.2-4.7,1.1-7.3c0,0,0-0.1,0-0.1"/>
				<polyline class="st1" points="423.4,386.7 423.4,386.7 423.8,386.8 				"/>
				<path class="st1" d="M694.5,435.4c1.1-0.7,2-1.5,2.7-2.6c0.7-1.1,1.2-2.2,1.6-3.4c0.9-2.4,1.2-4.7,1.1-7.3c0,0,0-0.1,0-0.1"/>
				<line class="st1" x1="682.8" y1="434.7" x2="685.8" y2="433.4"/>
				<polyline class="st1" points="423.8,386.8 423.8,387.3 423.8,396.2 				"/>
				<line class="st1" x1="688" y1="438.4" x2="694.5" y2="435.4"/>
				<line class="st1" x1="678" y1="452.1" x2="678.3" y2="451.9"/>
				<polyline class="st1" points="678.6,442.8 678.1,451.2 678,452.1 				"/>
				<polyline class="st1" points="662.7,443.8 662.8,443.8 669.8,440.6 				"/>
				<line class="st1" x1="678.6" y1="442.8" x2="669.8" y2="440.6"/>
				<line class="st1" x1="667.2" y1="448" x2="678.6" y2="442.8"/>
				<path class="st1" d="M423.8,396.2c0,1.3,0.3,2.3,1.1,3.4c0.8,1,1.8,1.6,3.1,1.3"/>
				<path class="st1" d="M662.9,438.6c-0.4,1.8-0.5,3.4-0.1,5.2c0.1,0.3,0.1,0.7,0.2,1c0.2,0.9,0.5,2.2,1.3,2.8
					c0.8,0.7,1.9,0.8,2.9,0.4c0,0,0.1,0,0.1,0"/>
				<polyline class="st1" points="689.2,277.4 689.6,277.3 689.6,277.3 				"/>
				<polyline class="st1" points="690.1,263.9 690.1,264.7 689.2,277.4 				"/>
				<polyline class="st1" points="646.2,263.9 646.4,260.8 646.4,259.9 				"/>
				<polyline class="st1" points="655.6,265 655.8,262 655.8,261 655.8,261 				"/>
				<path class="st1" d="M633.1,503.9c1.1-19.8,3.7-39.4,6.7-59c0.1-0.4,0.1-0.8,0.2-1.2c1.6-10.1,3.3-20.1,5-30.1
					c0.3-1.7,0.6-3.3,0.9-5c1.4-8.2,2.9-16.4,4.2-24.7c1.6-10,3.2-20,4.2-30c1.1-10.1,1.6-20.1,1-30.3c-0.3-4.7-0.8-9.2-1.4-13.6
					c0-0.2-0.1-0.4-0.1-0.6c-0.1-0.4-0.1-0.7-0.2-1.1c-0.8-4.8-1.8-9.6-3-14.6c-2.2-9.6-5.1-19.6-4.5-29.8c0,0,0-0.1,0-0.1"/>
				<polyline class="st1" points="433.5,399.2 462.1,389.4 537.1,363.7 				"/>
				<path class="st1" d="M641.9,506.5c1.2-20.4,3.9-40.5,7-60.6c3.2-20.1,6.9-40.1,10.2-60.1c1.7-10,3.2-20.1,4.3-30.2
					c1.1-10.1,1.6-20.2,1.1-30.4c-0.6-10.5-2.2-19.9-4.5-30.1c-2.2-9.7-5-19.7-4.4-30c0,0,0-0.1,0-0.1"/>
				<line class="st1" x1="641.9" y1="506.5" x2="633.1" y2="503.9"/>
				<line class="st1" x1="652.6" y1="501" x2="641.9" y2="506.5"/>
				<path class="st1" d="M659.2,479.4c-3.8,1.9-4.9,6.3-5.5,9.9c-0.7,3.9-0.8,7.8-1.1,11.7"/>
				<polyline class="st1" points="698.4,460 693.9,462.2 659.2,479.4 				"/>
				<path class="st1" d="M693.5,473.2c0.3-3.6,0.5-7.3,0.4-10.9"/>
				<path class="st1" d="M702,475.4c0.2-3.1,0.5-6.2,0.5-9.4c0-1.6,0-3.1-0.5-4.6c-0.6-2-1.8-2.3-3.6-1.4"/>
				<line class="st1" x1="702" y1="475.4" x2="693.5" y2="473.2"/>
				<line class="st1" x1="711.2" y1="470.7" x2="702" y2="475.4"/>
				<path class="st1" d="M726.4,255.4c0,0.2-0.1,0.5-0.1,0.7c-1.6,8.4-4.6,17.4-7,25.5c-2.6,8.7-4.9,17.4-6.5,26.4
					c-3.5,18.8-3.6,35.2-3,54.2c0.6,18.1,1.7,36.2,2.3,54.3c0.6,18.1,0.5,36.1-0.8,54.2c0,0,0,0.1,0,0.1"/>
				<polyline class="st1" points="624,295.7 543.4,334.6 541.4,335.6 				"/>
				<path class="st1" d="M620.7,277.2c4.1,0.8,7.2,4.1,7.8,8.2c0.1,0.5,0.2,1,0.2,1.5s0,1,0,1.5c-0.1,1-0.3,2-0.7,2.9
					c-0.8,1.9-2.2,3.4-4,4.4"/>
				<polyline class="st1" points="468,255.9 469.5,256.1 620.7,277.2 				"/>
				<path class="st1" d="M464.5,271.4c-2.5-2.4-3.6-5.9-3.1-9.3c0.5-3.3,2.8-6.8,6.6-6.2"/>
				<path class="st1" d="M470,270.4c-1.9-1.9-3.1-4.4-3.2-7.1c-0.1-2.7,0.6-5.3,2.7-7.2l0,0"/>
				<polyline class="st1" points="534.2,334.2 534.2,334.1 464.5,271.4 				"/>
				<line class="st1" x1="428.1" y1="400.9" x2="536.9" y2="363.5"/>
				<polyline class="st1" points="539.6,332.7 539.5,332.6 470,270.4 				"/>
				<path class="st1" d="M541.4,335.6c-2.5,1.1-5.4,0.5-7.3-1.4"/>
				<polyline class="st1" points="536.9,363.5 537.1,363.7 639.8,444.9 				"/>
				<path class="st1" d="M543.4,334.6c-1.5-0.2-2.7-0.8-3.9-1.9"/>
				<line class="st1" x1="677.8" y1="460.6" x2="686.6" y2="462.9"/>
				<line class="st1" x1="678.4" y1="451.3" x2="677.8" y2="460.6"/>
				<polyline class="st1" points="678,451.2 678.1,451.2 678.4,451.3 				"/>
				<polyline class="st1" points="430,208 687.6,234.7 687.7,234.7 				"/>
				<line class="st1" x1="786.4" y1="231.5" x2="442.6" y2="198.8"/>
				<line class="st1" x1="686.9" y1="253.5" x2="786.4" y2="231.5"/>
				<line class="st1" x1="785.6" y1="241.4" x2="786.4" y2="231.5"/>
				<polyline class="st1" points="686.2,264.8 690.1,263.9 700,261.5 704.6,260.5 726.4,255.3 783.1,242 785.6,241.4 				"/>
				<line class="st1" x1="329.1" y1="211.7" x2="686.9" y2="253.5"/>
				<line class="st1" x1="686.2" y1="264.8" x2="686.9" y2="253.5"/>
				<polyline class="st1" points="329.3,220.4 331.8,220.7 379.9,226.7 386.1,227.5 424.3,232.2 646.4,259.9 655.8,261 686.2,264.8 
									"/>
				<line class="st1" x1="442.6" y1="198.8" x2="329.1" y2="211.7"/>
				<line class="st1" x1="329.3" y1="220.4" x2="329.1" y2="211.7"/>
				<polyline class="st1" points="331.8,220.7 331.8,220.7 328.8,221.1 379.9,227.5 386.1,228.3 424.3,233 646.4,260.8 655.8,262 
					685.8,265.7 690.1,264.7 700,262.4 704.5,261.3 705.1,261.1 726.3,256.1 785.2,242.2 783.1,242 				"/>
			</g>
		</g>
	</g>
</g>
</svg>
