<?xml version="1.0" encoding="utf-8"?>
<!-- Generator: Adobe Illustrator 19.0.0, SVG Export Plug-In . SVG Version: 6.00 Build 0)  -->
<svg version="1.1" xmlns="http://www.w3.org/2000/svg" xmlns:xlink="http://www.w3.org/1999/xlink" x="0px" y="0px"
	 viewBox="0 0 1024 768" style="enable-background:new 0 0 1024 768;" xml:space="preserve">
<style type="text/css">
	.st0{fill:#69B47A;stroke:#69B47A;stroke-linecap:round;stroke-linejoin:round;}
	.st1{fill:#FFFFFF;}
	.st2{fill:#6AB57B;stroke:#6AB57B;stroke-linecap:round;stroke-linejoin:round;}
	.st3{fill:#FFFFFF;stroke:#FFFFFF;stroke-miterlimit:10;}
	.st4{fill:#69B47A;stroke:#000000;stroke-linecap:round;stroke-linejoin:round;}
	.st5{fill:none;stroke:#000000;stroke-linecap:round;stroke-linejoin:round;}
	.st6{fill:#FFFFFF;stroke:#FFFFFF;stroke-linecap:round;stroke-linejoin:round;}
	.st7{fill:none;stroke:#AADEE8;stroke-linecap:round;stroke-linejoin:round;}
	.st8{fill:none;stroke:#793C71;stroke-linecap:round;stroke-linejoin:round;}
</style>
<g id="Default">
	<path class="st0" d="M4753.6-3697.7c-8.8,0-17.6,0-26.5,0c-0.4,0-0.8,0-1.2,0c-0.2,0-0.4,0-0.6,0c-0.1,0-0.1,0-0.1,0.1
		c0,0,0,0.1-0.1,0.1c0,0.1-0.1,0.2-0.1,0.3c-0.3,0.8-0.7,1.6-1,2.3c-0.7,1.6-1.3,3.1-2,4.7c-1.3,3.1-2.6,6.2-3.9,9.4
		c-2.6,6.2-5.3,12.5-7.9,18.7c-10.5,25-21,50-31.6,74.9c-10.5,25-21,50-31.6,74.9c-1.3,3.1-2.6,6.2-3.9,9.4
		c-0.6,1.5-1.2,3.1-2.1,4.6c-0.9,1.5-2,2.7-3.4,3.8c-5.6,4.4-13.6,4.1-18.7-0.8c-0.6-0.6-1.2-1.2-1.7-1.9c-0.5-0.7-0.9-1.4-1.3-2.1
		c-0.9-1.4-1.8-2.9-2.7-4.3c-1.8-2.9-3.5-5.8-5.3-8.7c-3.5-5.8-7.1-11.6-10.6-17.3c-27.1-44.2-54.2-88.4-81.3-132.6
		c-0.4-0.7-0.8-1.4-1.3-2.1c-0.4-0.7-0.8-1.4-1.3-2c-1-1.3-2.4-2.3-4-2.7c-0.8-0.2-1.6-0.2-2.4-0.2c-0.8,0-1.6,0-2.4,0
		c-1.6,0-3.2,0-4.9,0c-3.2,0-6.5,0-9.7,0c-1.6,0-3.2,0-4.9,0c-0.4,0-0.8,0-1.2,0c-0.2,0-0.4,0-0.6,0c-0.1,0-0.1,0-0.2,0
		c-0.1,0,0-0.1,0-0.1c0-0.1,0-0.2,0-0.3c0-0.8,0-1.6,0-2.4c0-3.2,0-6.5,0-9.7c0-0.4,0-0.8,0-1.2c0-0.1,0-0.2,0-0.3c0,0,0-0.1,0-0.1
		c0.1,0,0.1,0,0.2,0c0.2,0,0.4,0,0.6,0c0.8,0,1.6,0,2.4,0c1.6,0,3.2,0,4.9,0c6.5,0,13,0,19.4,0c0.2,0,0.4,0,0.6,0c0.1,0,0.2,0,0.3,0
		c0,0,0,0,0-0.1c0,0,0-0.1,0-0.1c0-0.1,0-0.1,0-0.2c0-0.4,0-0.8,0-1.2c0-0.8,0-1.6,0-2.4c0-1.6,0-3.2,0-4.9s0-3.2,0-4.9
		c0-0.1,0-0.2,0-0.3c0-0.1,0.1-0.3,0-0.3c-0.2,0-0.4,0-0.6,0c-0.4,0-0.8,0-1.2,0c-0.8,0-1.6,0-2.4,0c-6.5,0-13,0-19.4,0
		c-13,0-25.9,0-38.9,0c-1.6,0-3.2,0-4.9,0c-0.8,0-1.6,0-2.4,0c-0.2,0-0.4,0-0.6,0c-0.1,0-0.2,0-0.3,0c-0.1,0-0.1,0-0.2,0
		c0,0-0.1,0-0.1,0c0,0.4,0,0.8,0,1.2c0,3.2,0,6.5,0,9.7c0,3.2,0,6.5,0,9.7c0,1.6,0,3.2,0,4.9c0,0.8,0,1.6,0,2.4c0,0.1,0,0.2,0,0.3
		c0,0.1,0,0.1,0,0.2c0,0.1-0.1,0-0.1,0c-0.2,0-0.4,0-0.6,0c-0.4,0-0.8,0-1.2,0c-3.2,0-6.5,0-9.7,0c-0.4,0-0.8,0-1.2,0
		c-0.1,0-0.1,0-0.2,0c0,0-0.1,0-0.1,0c0,0-0.1,0-0.1,0c0,0.1,0,0.2,0,0.3c0,0.2,0,0.4,0,0.6c0,0.8,0,1.6,0,2.4c0,1.6,0,3.2,0,4.9
		c0,6.5,0,13,0,19.4c0,25.9,0,51.8,0,77.8c0,51.8,0,103.7,0,155.5c0,51.8,0,103.7,0,155.5c0,13,0,25.9,0,38.9c0,6.5,0,13,0,19.4
		c0,1.6,0,3.2,0,4.9c0,0.8,0,1.6,0,2.4c0,0.4,0,0.8,0,1.2c0,0.1,0,0.1,0,0.2c0,0,0,0.1,0,0.1c0.1,0,0.2,0,0.3,0c0.2,0,0.4,0,0.6,0
		c3.2,0,6.5,0,9.7,0c0.8,0,1.6,0,2.4,0c0,0,0.1,0,0.1,0c0,0,0,0,0,0.1c0,0.1,0,0.1,0,0.2c0,0.1,0,0.2,0,0.3c0,0.2,0,0.4,0,0.6
		c0,0.4,0,0.8,0,1.2c0,1.6,0,3.2,0,4.9c0,3.2,0,6.5,0,9.7c0,3.2,0,6.5,0,9.7c0,0.4,0,0.8,0,1.2c0,0.1,0,0.2,0,0.3c0,0.1,0,0.1,0,0.2
		c0,0-0.1,0.1,0,0.1c0.2,0,0.4,0,0.6,0c0.8,0,1.6,0,2.4,0c1.6,0,3.2,0,4.9,0c13,0,25.9,0,38.9,0c6.5,0,13,0,19.4,0
		c1.6,0,3.2,0,4.9,0c0.1,0,0-0.1,0-0.1s0-0.1,0-0.1c0-0.1,0-0.1,0-0.2c0-0.1,0-0.2,0-0.3c0-0.2,0-0.4,0-0.6c0-0.4,0-0.8,0-1.2
		c0-0.8,0-1.6,0-2.4c0-1.6,0-3.2,0-4.9c0-0.8,0-1.6,0-2.4c0-0.4,0-0.8,0-1.2c0-0.2,0-0.4,0-0.6c0-0.1,0-0.1,0-0.2c0,0,0-0.1-0.1-0.1
		c-0.1,0-0.2,0-0.3,0c-6.5,0-13,0-19.4,0c-1.6,0-3.2,0-4.9,0c-0.8,0-1.6,0-2.4,0c-0.4,0-0.8,0-1.2,0c0,0-0.1,0-0.1,0
		c0-0.1,0-0.1,0-0.2c0-0.1,0-0.2,0-0.3c0-0.2,0-0.4,0-0.6c0-3.2,0-6.5,0-9.7c0-0.8,0-1.6,0-2.4c0-0.2,0-0.4,0-0.6c0-0.1,0-0.2,0-0.3
		c0-0.2,0.1-0.1,0.2-0.1c0.4,0,0.8,0,1.2,0c1.6,0,3.2,0,4.9,0c3.2,0,6.5,0,9.7,0c1.6,0,3.2,0,4.9,0c0.8,0,1.6,0,2.4,0
		c0.8,0,1.6,0,2.4-0.1c1.6-0.3,3.1-1.1,4.2-2.4c0.5-0.6,2.2-3.4,2.6-4.1c6.8-11.1,13.5-22.1,20.3-33.2
		c13.5-22.1,27.1-44.2,40.6-66.3c6.8-11.1,13.5-22.1,20.3-33.2c3.4-5.5,6.8-11.1,10.2-16.6c1.7-2.8,3.4-5.5,5.1-8.3
		c0.8-1.4,1.7-2.8,2.5-4.1c0.4-0.7,0.8-1.4,1.3-2.1c0.4-0.7,0.8-1.4,1.3-2c4.5-5.9,12.8-7.4,19-3.4c1.6,1,2.8,2.2,3.9,3.7
		c1,1.4,1.7,3,2.3,4.7c1.4,3.3,2.7,6.5,4.1,9.8c5.5,13,11,26.1,16.5,39.1c11,26.1,22,52.1,32.9,78.2c5.5,13,11,26.1,16.5,39.1
		c2.7,6.5,5.5,13,8.2,19.6c1.4,3.3,2.7,6.5,4.1,9.8c0,0.1,0,0.1,0.1,0.2c0,0.1,0,0.1,0.1,0.1c0.1,0,0.2,0,0.3,0c0.2,0,0.4,0,0.7,0
		c0.4,0,0.9,0,1.3,0c0.8,0,1.7,0,2.5,0c1.6,0,3.1,0,4.7,0c4.8,0,9.5,0,14.3,0c1.5,0,3,0,4.5,0c0,0,0.1,0,0.1,0
		c0.1,0,0.1-0.1,0.1-0.2c0-0.2,0-0.4,0-0.7c0-0.4,0-0.9,0-1.3c0-0.9,0-1.8,0-2.7c0-1.8,0-3.5,0-5.3c0-0.9,0-1.8,0-2.7
		c0-0.4,0-0.9,0-1.3c0,0,0.1-0.1,0-0.1c-0.2,0-0.5,0-0.7,0c-1.5,0-2.9,0-4.4,0c-2.8,0-5.6,0-8.4,0c-0.2,0-0.4,0-0.7,0
		c0,0-0.1,0-0.1,0c0,0,0-0.1,0-0.1c0-0.1,0-0.1,0-0.2c0-0.1,0-0.2,0-0.3c0-0.4,0-0.9,0-1.3c0-0.9,0-1.8,0-2.7c0-1.8,0-3.5,0-5.3
		c0-0.8,0-1.6,0-2.4c0-0.4,0-0.8,0-1.2c0-0.2,0-0.4,0-0.6c0,0,0-0.1,0.1-0.1c0.1,0,0.1,0,0.2,0c0.1,0,0.2,0,0.3,0c1.6,0,3.2,0,4.9,0
		c3.2,0,6.5,0,9.7,0c1.6,0,3.2,0.1,4.8-0.5c1.5-0.6,2.8-1.7,3.6-3.1c0.8-1.4,1.1-3.1,0.8-4.7c-0.1-0.8-0.5-1.5-0.8-2.3
		c-0.3-0.7-0.7-1.5-1-2.2c-5.5-11.7-11-23.5-16.6-35.2c-11-23.5-22.1-46.9-33.1-70.4c-11-23.5-22.1-46.9-33.1-70.4
		c-5.5-11.7-11-23.5-16.6-35.2c-2.8-5.9-5.5-11.7-8.3-17.6c0,0,0-0.1-0.1-0.1c0,0-0.1-0.1,0-0.1c0-0.1,0.1-0.2,0.1-0.3
		c0.1-0.2,0.2-0.4,0.3-0.5c0.2-0.4,0.3-0.7,0.5-1.1c0.3-0.7,0.7-1.5,1-2.2c0.7-1.5,1.4-2.9,2.1-4.4c1.4-2.9,2.8-5.9,4.1-8.8
		c23.1-49.1,46.2-98.1,69.3-147.2c5.8-12.3,11.5-24.5,17.3-36.8c2.9-6.1,5.8-12.3,8.7-18.4c1.4-3.1,2.9-6.1,4.3-9.2
		c0.4-0.8,0.7-1.5,1.1-2.3c0.4-0.8,0.7-1.5,0.8-2.4c0.3-1.7-0.1-3.4-1-4.9c-0.9-1.5-2.3-2.5-4-3c-0.8-0.2-1.6-0.3-2.5-0.3
		c-0.8,0-1.7,0-2.5,0c-3.4,0-6.8,0-10.2,0c-0.8,0-1.7,0-2.5,0c-0.4,0-0.8,0-1.3,0c-0.1,0-0.1,0-0.2,0c0,0-0.1,0.1-0.1,0
		c0-0.1,0-0.2,0-0.3c0-0.2,0-0.4,0-0.6c0-1.7,0-3.4,0-5.1c0-1.7,0-3.4,0-5.1c0-0.8,0-1.7,0-2.5c0-0.1,0-0.2,0-0.3c0-0.1,0-0.1,0-0.2
		c0-0.1,0.1-0.1,0.1-0.1c0.2,0,0.4,0,0.6,0c0.4,0,0.8,0,1.2,0c3.9,0,7.8,0,11.6,0c0.2,0,0.4,0,0.6,0c0,0,0,0,0,0c0,0,0,0,0,0
		c0,0,0,0,0,0c0,0,0-0.1,0-0.1c0-0.1,0-0.1,0-0.2c0-0.4,0-0.8,0-1.3c0-0.8,0-1.7,0-2.5C4753.6-3691,4753.6-3694.4,4753.6-3697.7z"/>
	<path class="st1" d="M4607.3-3434.6c-27.7-48.5-55.5-97-83.2-145.6c-3.2-5.6-9.8-8.3-16-6.7s-10.6,7.3-10.6,13.7
		c0,48.5,0,97,0,145.6s0,97,0,145.6c0,6.4,4.3,12.1,10.6,13.7c6.2,1.7,12.8-1.1,16-6.7c27.7-48.5,55.5-97,83.2-145.6
		C4609.8-3424.8,4609.8-3430.2,4607.3-3434.6z"/>
	<rect x="3758" y="-3391.4" class="st2" width="652.1" height="282.4"/>
	<rect x="3843.4" y="-3256.9" class="st3" width="483.6" height="13.2"/>
	<path class="st4" d="M4166.5-3501.8c-12-52.1-24.1-104.3-36.1-156.4c-1.5-6.5-7.2-11-13.9-11c-1.9,0-3.9,0-5.8,0
		c-6.6,0-12.4,4.6-13.9,11c-12,52.1-24.1,104.3-36.1,156.4c-2.1,8.9,4.7,17.4,13.9,17.4c10.6,0,21.3,0,31.9,0c0,4.7,0,9.5,0,14.2
		c4.7,0,9.5,0,14.2,0c0-4.7,0-9.5,0-14.2c10.6,0,21.3,0,31.9,0C4161.8-3484.4,4168.5-3492.9,4166.5-3501.8z"/>
	<path class="st5" d="M3924.7-3501.8c-12-52.1-24.1-104.3-36.1-156.4c-1.5-6.5-7.2-11-13.9-11c-1.9,0-3.9,0-5.8,0
		c-6.6,0-12.4,4.6-13.9,11c-12,52.1-24.1,104.3-36.1,156.4c-2.1,8.9,4.7,17.4,13.9,17.4c10.6,0,21.3,0,31.9,0c0,4.7,0,9.5,0,14.2
		c4.7,0,9.5,0,14.2,0c0-4.7,0-9.5,0-14.2c10.6,0,21.3,0,31.9,0C3920-3484.4,3926.7-3492.9,3924.7-3501.8z"/>
	<path class="st2" d="M3864.7-3768.9c-30.8,0-61.6,0-92.4,0c0,4.7,0,9.5,0,14.2c0,28.4,35.6,56.9,35.6,113.8s-35.6,142.2-35.6,227.6
		c9.5,0,19,0,28.4,0c0-16.6,0-28.4,14.8-28.4c34.3,0,78.3,0,112.6,0c14.8,0,14.8,11.9,14.8,28.4c9.5,0,19,0,28.4,0
		c0-85.3-35.6-170.7-35.6-227.6s35.6-85.3,35.6-113.8c0-4.7,0-9.5,0-14.2c-30.8,0-61.6,0-92.4,0c0,4.7,0,9.5,0,14.2
		c0,9.5,0,19,0,28.4c-4.7,0-9.5,0-14.2,0c0-9.5,0-19,0-28.4C3864.7-3759.4,3864.7-3764.1,3864.7-3768.9z"/>
	<path class="st0" d="M4106.5-3768.9c-30.8,0-61.6,0-92.4,0c0,4.7,0,9.5,0,14.2c0,28.4,35.6,56.9,35.6,113.8s-35.6,142.2-35.6,227.6
		c9.5,0,19,0,28.4,0c0-16.6,0-28.4,14.8-28.4c34.3,0,78.3,0,112.6,0c14.8,0,14.8,11.9,14.8,28.4c9.5,0,19,0,28.4,0
		c0-85.3-35.6-170.7-35.6-227.6s35.6-85.3,35.6-113.8c0-4.7,0-9.5,0-14.2c-30.8,0-61.6,0-92.4,0c0,4.7,0,9.5,0,14.2
		c0,9.5,0,19,0,28.4c-4.7,0-9.5,0-14.2,0c0-9.5,0-19,0-28.4C4106.5-3759.4,4106.5-3764.1,4106.5-3768.9z"/>
	<path class="st6" d="M3924.7-3501.8c-12-52.1-24.1-104.3-36.1-156.4c-1.5-6.5-7.2-11-13.9-11c-1.9,0-3.9,0-5.8,0
		c-6.6,0-12.4,4.6-13.9,11c-12,52.1-24.1,104.3-36.1,156.4c-2.1,8.9,4.7,17.4,13.9,17.4c10.6,0,21.3,0,31.9,0c0,4.7,0,9.5,0,14.2
		c4.7,0,9.5,0,14.2,0c0-4.7,0-9.5,0-14.2c10.6,0,21.3,0,31.9,0C3920-3484.4,3926.7-3492.9,3924.7-3501.8z"/>
	<path class="st6" d="M4166.5-3501.8c-12-52.1-24.1-104.3-36.1-156.4c-1.5-6.5-7.2-11-13.9-11c-1.9,0-3.9,0-5.8,0
		c-6.6,0-12.4,4.6-13.9,11c-12,52.1-24.1,104.3-36.1,156.4c-2.1,8.9,4.7,17.4,13.9,17.4c10.6,0,21.3,0,31.9,0c0,4.7,0,9.5,0,14.2
		c4.7,0,9.5,0,14.2,0c0-4.7,0-9.5,0-14.2c10.6,0,21.3,0,31.9,0C4161.8-3484.4,4168.5-3492.9,4166.5-3501.8z"/>
</g>
<g id="Layer_04">
</g>
<g id="Make2D::visible::lines::Layer_02">
	<line class="st7" x1="1185.9" y1="-913.4" x2="1187.2" y2="-932.1"/>
	<line class="st7" x1="1187.2" y1="-932.1" x2="1182.2" y2="-929.8"/>
	<line class="st7" x1="1181" y1="-911" x2="1182.2" y2="-929.8"/>
	<line class="st7" x1="1187.2" y1="-932.1" x2="1160" y2="-951.3"/>
	<line class="st7" x1="1140.2" y1="-965.3" x2="1074.8" y2="-1011.6"/>
	<line class="st7" x1="1172.3" y1="-921.8" x2="1172.7" y2="-922"/>
	<line class="st7" x1="1182.2" y1="-929.8" x2="1159.1" y2="-946.2"/>
	<line class="st7" x1="1139.3" y1="-960.3" x2="1069.5" y2="-1009.9"/>
	<path class="st7" d="M1074.8-1011.6c-3.7-2.8-5.5-7.9-3.7-12.3"/>
	<path class="st7" d="M1071.8-1025.3c0.8-1.2,1.7-2,3.1-2.6"/>
	<line class="st7" x1="1074.9" y1="-1027.9" x2="1069.6" y2="-1026.3"/>
	<path class="st7" d="M1069.5-1009.9c-2.6-2-4.2-5-4.4-8.3c-0.1-1.7,0.1-3.2,0.9-4.7c0.8-1.5,1.9-2.5,3.5-3.3"/>
	<line class="st7" x1="1074.9" y1="-1027.9" x2="1148.2" y2="-1064.8"/>
	<line class="st7" x1="1069.6" y1="-1026.3" x2="1148" y2="-1065.8"/>
	<line class="st7" x1="1183.6" y1="-1097.6" x2="1184" y2="-1097.5"/>
	<line class="st7" x1="1184" y1="-1097.5" x2="1182.7" y2="-1077.4"/>
	<line class="st7" x1="1197" y1="-1077.5" x2="1192" y2="-1076"/>
	<line class="st7" x1="1182.7" y1="-1077.4" x2="1192" y2="-1076"/>
	<line class="st7" x1="1197" y1="-1077.5" x2="1200.4" y2="-1128.1"/>
	<line class="st7" x1="1200.4" y1="-1128.1" x2="1195.4" y2="-1127"/>
	<line class="st7" x1="1192" y1="-1076" x2="1195.4" y2="-1127"/>
	<line class="st7" x1="1200.4" y1="-1128.1" x2="1181.8" y2="-1130.1"/>
	<line class="st7" x1="1181.8" y1="-1130.1" x2="1176.7" y2="-1129.1"/>
	<line class="st7" x1="1195.4" y1="-1127" x2="1176.7" y2="-1129.1"/>
	<line class="st7" x1="1181.8" y1="-1130.1" x2="1182.4" y2="-1139.5"/>
	<line class="st7" x1="1182.4" y1="-1139.5" x2="1177.3" y2="-1138.5"/>
	<line class="st7" x1="1176.7" y1="-1129.1" x2="1177.3" y2="-1138.5"/>
	<line class="st7" x1="1182.4" y1="-1139.5" x2="924.5" y2="-1166.3"/>
	<line class="st7" x1="924.5" y1="-1166.3" x2="918.8" y2="-1165.6"/>
	<line class="st7" x1="1177.3" y1="-1138.5" x2="918.8" y2="-1165.6"/>
	<line class="st7" x1="918.8" y1="-1165.6" x2="918.8" y2="-1157.8"/>
	<line class="st7" x1="918.8" y1="-1159.1" x2="912.1" y2="-1159.9"/>
	<line class="st7" x1="912.1" y1="-1159.9" x2="906.4" y2="-1159.1"/>
	<line class="st7" x1="918.8" y1="-1157.8" x2="906.4" y2="-1159.1"/>
	<line class="st7" x1="906.4" y1="-1159.1" x2="906.4" y2="-1157.1"/>
	<line class="st7" x1="918.2" y1="-1132.6" x2="918.6" y2="-1132.6"/>
	<line class="st7" x1="918.6" y1="-1132.6" x2="918.6" y2="-1118.3"/>
	<path class="st7" d="M918.6-1118.3c0,1.4,0.5,2.7,1.5,3.8"/>
	<line class="st7" x1="920" y1="-1114.5" x2="996.1" y2="-1040.7"/>
	<path class="st7" d="M996.1-1040.7c2.3,2.1,3.5,5,3.5,8.1c0,1.6-0.2,3-1,4.3c-0.8,1.4-1.9,2.3-3.4,2.9"/>
	<line class="st7" x1="995.2" y1="-1025.4" x2="906" y2="-998"/>
	<line class="st7" x1="906" y1="-998" x2="906" y2="-994.3"/>
	<line class="st7" x1="917.5" y1="-987.3" x2="917.9" y2="-987.2"/>
	<line class="st7" x1="917.9" y1="-987.2" x2="917.8" y2="-977.7"/>
	<line class="st7" x1="1136.2" y1="-867.3" x2="1127.4" y2="-869.9"/>
	<path class="st7" d="M917.8-977.7c0,1.3,0.3,2.3,1.1,3.4c0.8,1,1.8,1.6,3.1,1.3"/>
	<line class="st7" x1="927.5" y1="-974.8" x2="1031.3" y2="-1010.3"/>
	<line class="st7" x1="922.1" y1="-973.1" x2="1031.1" y2="-1010.5"/>
	<line class="st7" x1="1031.1" y1="-1010.5" x2="1134.1" y2="-929"/>
	<path class="st7" d="M1037.6-1039.5c-1.5-0.2-2.7-0.8-3.9-1.9"/>
	<line class="st7" x1="1146.9" y1="-872.8" x2="1136.2" y2="-867.3"/>
	<path class="st7" d="M1035.6-1038.5c-2.5,1.1-5.4,0.5-7.3-1.4"/>
	<line class="st7" x1="1033.7" y1="-1041.3" x2="964.1" y2="-1103.7"/>
	<path class="st7" d="M1153.5-894.4c-3.8,1.9-4.9,6.4-5.5,9.9c-0.7,3.9-0.8,7.8-1.1,11.7"/>
	<line class="st7" x1="1028.3" y1="-1039.9" x2="958.5" y2="-1102.7"/>
	<path class="st7" d="M964.1-1103.7c-1.9-1.9-3.1-4.4-3.2-7.1c-0.1-2.7,0.6-5.3,2.7-7.2"/>
	<path class="st7" d="M958.5-1102.7c-2.5-2.4-3.6-5.9-3.1-9.3c0.3-1.8,0.6-3.2,2-4.5c1.2-1.2,2.9-1.8,4.6-1.7"/>
	<line class="st7" x1="962.1" y1="-1118.2" x2="1115" y2="-1096.9"/>
	<path class="st7" d="M1115-1096.9c4.1,0.8,7.2,4.1,7.8,8.2c0.1,1,0.3,2,0.2,3c-0.1,1-0.3,2-0.7,2.9c-0.9,2-2.1,3.3-4,4.4"/>
	<line class="st7" x1="1118.3" y1="-1078.4" x2="1035.6" y2="-1038.5"/>
	<line class="st7" x1="1193.3" y1="-1128.9" x2="1222.3" y2="-1135.1"/>
	<line class="st7" x1="1222.3" y1="-1135.1" x2="1213.3" y2="-1136"/>
	<line class="st7" x1="1184.1" y1="-1129.9" x2="1213.3" y2="-1136"/>
	<line class="st7" x1="1222.3" y1="-1135.1" x2="1221.6" y2="-1125.3"/>
	<path class="st7" d="M1221.6-1125.3c-0.7,9-3.8,18.8-6.4,27.2c-2.7,8.9-5.3,17.9-7.2,27.1c-4.1,19.7-4.6,35.8-4.1,55.8
		c0.5,18.7,1.7,37.3,2.3,56c0.6,18.7,0.6,37.3-0.7,56.1"/>
	<path class="st7" d="M1136.2-867.3c1.2-20.4,3.9-40.5,7.1-60.6c3.2-20.1,6.9-40.1,10.2-60.2c3.2-19.4,6.5-40.8,5.4-60.7
		c-0.6-10.2-2.3-20.2-4.5-30.2c-2.3-9.9-5-19.6-4.4-30.1"/>
	<line class="st7" x1="1192.7" y1="-913.9" x2="1153.5" y2="-894.4"/>
	<path class="st7" d="M1127.4-869.9c1.1-20.3,3.8-40.3,6.9-60.3c3.1-20,6.9-39.9,10.1-59.9c3.2-19.3,6.4-40.6,5.3-60.4
		c-0.6-10.2-2.3-20.1-4.7-30c-2.3-9.9-5.1-19.4-4.5-29.9"/>
	<line class="st7" x1="1149.9" y1="-1109.1" x2="1150.5" y2="-1119.7"/>
	<line class="st7" x1="1150.5" y1="-1119.7" x2="1141.1" y2="-1120.9"/>
	<line class="st7" x1="1140.5" y1="-1110.3" x2="1141.1" y2="-1120.9"/>
	<line class="st7" x1="1150.5" y1="-1119.7" x2="1185.5" y2="-1127.2"/>
	<line class="st7" x1="1185.5" y1="-1127.2" x2="1176.3" y2="-1128.2"/>
	<line class="st7" x1="1141.1" y1="-1120.9" x2="1176.3" y2="-1128.2"/>
	<line class="st7" x1="1185.5" y1="-1127.2" x2="1183.6" y2="-1096.7"/>
	<line class="st7" x1="1183.6" y1="-1096.7" x2="1183.9" y2="-1096.8"/>
	<path class="st7" d="M1157.2-935.3c-0.5,2.1-0.5,4.1,0.1,6.2c0.2,0.9,0.5,2.2,1.3,2.8c0.8,0.7,2,0.8,3,0.4"/>
	<path class="st7" d="M1187.8-900.7c0.3-3.6,0.5-7.3,0.4-10.9"/>
	<line class="st7" x1="1161.5" y1="-925.9" x2="1172.9" y2="-931.1"/>
	<line class="st7" x1="1172.9" y1="-931.1" x2="1164.1" y2="-933.3"/>
	<line class="st7" x1="1157" y1="-930.1" x2="1164.1" y2="-933.3"/>
	<line class="st7" x1="1172.9" y1="-931.1" x2="1172.3" y2="-921.8"/>
	<line class="st7" x1="1182.4" y1="-935.5" x2="1188.8" y2="-938.5"/>
	<path class="st7" d="M1196.4-898.4c0.2-3.1,0.5-6.2,0.5-9.4c0-1.6,0-3.1-0.5-4.7c-0.6-2-1.8-2.3-3.6-1.4"/>
	<line class="st7" x1="1177.1" y1="-939.2" x2="1180.1" y2="-940.6"/>
	<path class="st7" d="M1188.8-938.5c1.1-0.7,2-1.5,2.7-2.6c0.7-1.1,1.2-2.2,1.6-3.4c0.9-2.4,1.2-4.8,1.1-7.4"/>
	<line class="st7" x1="1196.4" y1="-898.4" x2="1187.8" y2="-900.7"/>
	<path class="st7" d="M1180.1-940.6c1.1-0.7,2-1.5,2.7-2.6c0.7-1,1.2-2.2,1.6-3.4c0.9-2.4,1.2-4.8,1.1-7.4"/>
	<line class="st7" x1="1194.3" y1="-951.9" x2="1189" y2="-1051.6"/>
	<line class="st7" x1="1205.5" y1="-903.2" x2="1196.4" y2="-898.4"/>
	<line class="st7" x1="1185.5" y1="-953.9" x2="1179.9" y2="-1053"/>
	<path class="st7" d="M1189-1051.6c-0.1-1.5-0.3-2.8-1-4.2c-0.7-1.3-1.8-2.4-3.4-1.9"/>
	<path class="st7" d="M1179.9-1053c0-0.6-0.1-1.2-0.2-1.7"/>
	<line class="st7" x1="1184.6" y1="-1057.7" x2="1182.5" y2="-1057"/>
	<path class="st7" d="M1182.5-1057c-3.3,1-5,6.6-5.5,9.2"/>
	<line class="st7" x1="1177" y1="-1047.8" x2="1157.2" y2="-935.3"/>
	<path class="st7" d="M945.2-1090.1c-0.4,12.4,1.4,26.7,3.1,38.8c1.8,12.9,3.8,25.7,5.4,38.6"/>
	<path class="st7" d="M956.2-984.6c0.3,5.5,0.4,11,0.3,16.4"/>
	<line class="st7" x1="956.5" y1="-968.1" x2="946.3" y2="-964.9"/>
	<line class="st7" x1="946.3" y1="-964.9" x2="940.4" y2="-966.4"/>
	<path class="st7" d="M946.3-964.9c0-2.8,0.1-5.7-0.2-8.5c-0.3-3.1-1.2-6.1-5-4.9"/>
	<path class="st7" d="M940.4-966.4c0.3-3.9,0.1-7.6-0.8-11.4"/>
	<line class="st7" x1="941.1" y1="-978.3" x2="898.2" y2="-965"/>
	<path class="st7" d="M898.2-965c-3.7,1.2-5,4.2-5.5,7.6c-0.5,3.3-0.4,6.7-0.4,10"/>
	<line class="st7" x1="892.3" y1="-947.3" x2="880.8" y2="-943.6"/>
	<line class="st7" x1="880.8" y1="-943.6" x2="874.8" y2="-945.4"/>
	<path class="st7" d="M880.8-943.6c-0.1-34.2,6.7-67.2,11.4-100.7c2.3-16.4,4.4-33.7,1.6-50.5c-1.4-8.4-4-16.4-7-24.3
		c-2.8-7.4-6.6-15.9-6.6-24.3"/>
	<line class="st7" x1="1172.1" y1="-913.3" x2="1181" y2="-911"/>
	<path class="st7" d="M874.8-945.4c-0.2-34.1,6.6-66.9,11.3-100.2c2.3-16.3,4.4-33.5,1.6-50.2c-1.4-8.4-4-16.3-7.1-24.2
		c-2.8-7.4-6.6-15.8-6.7-24.2"/>
	<line class="st7" x1="880.1" y1="-1143.4" x2="880.1" y2="-1152.1"/>
	<line class="st7" x1="880.1" y1="-1152.1" x2="873.9" y2="-1152.9"/>
	<line class="st7" x1="873.9" y1="-1144.2" x2="873.9" y2="-1152.9"/>
	<line class="st7" x1="880.1" y1="-1152.1" x2="918.4" y2="-1157.1"/>
	<line class="st7" x1="918.4" y1="-1157.1" x2="912.1" y2="-1157.8"/>
	<line class="st7" x1="873.9" y1="-1152.9" x2="912.1" y2="-1157.8"/>
	<line class="st7" x1="918.4" y1="-1157.1" x2="918.2" y2="-1131.9"/>
	<line class="st7" x1="918.2" y1="-1131.9" x2="918.6" y2="-1132"/>
	<path class="st7" d="M899.6-999c-0.4,2.1-0.2,3.8,0.7,5.8c0.9,1.9,2.6,3.1,4.8,2.5"/>
	<line class="st7" x1="1172.7" y1="-922.6" x2="1172.1" y2="-913.3"/>
	<line class="st7" x1="905.1" y1="-990.8" x2="917.5" y2="-994.3"/>
	<line class="st7" x1="917.5" y1="-994.3" x2="911.5" y2="-995.8"/>
	<line class="st7" x1="900.5" y1="-992.7" x2="911.5" y2="-995.8"/>
	<line class="st7" x1="917.5" y1="-994.3" x2="917.5" y2="-986.5"/>
	<line class="st7" x1="917.5" y1="-986.5" x2="917.9" y2="-986.6"/>
	<path class="st7" d="M940.3-1008.5c0-0.6,0-1.1-0.1-1.7"/>
	<line class="st7" x1="1172.4" y1="-922.7" x2="1172.7" y2="-922.6"/>
	<path class="st7" d="M933.8-1006.5c0.5-1.7,0.7-3.3,0.4-5.1"/>
	<line class="st7" x1="940.2" y1="-1010.2" x2="927.3" y2="-1094.2"/>
	<line class="st7" x1="1185.9" y1="-913.4" x2="1181" y2="-911"/>
	<line class="st7" x1="934.2" y1="-1011.6" x2="921.2" y2="-1095.2"/>
	<path class="st7" d="M927.3-1094.2c-0.2-1.5-0.6-2.7-1.6-3.8c-0.9-1.1-2.3-1.7-3.7-1.5"/>
	<path class="st7" d="M921.2-1095.2c-0.2-1.5-0.7-2.7-1.7-3.9"/>
	<line class="st7" x1="922" y1="-1099.5" x2="919.7" y2="-1099.1"/>
	<path class="st7" d="M919.7-1099.1c-3.1,1.2-5.3,4.1-5.5,7.4"/>
	<line class="st7" x1="914.2" y1="-1091.7" x2="899.6" y2="-999"/>
	<line class="st7" x1="1185.5" y1="-912.6" x2="1186.8" y2="-931.3"/>
	<path class="st7" d="M1071.1-1024c1.1-2,2.2-2.5,4.1-3.5c1.6-0.8,3.2-1.6,4.8-2.4c3.3-1.6,6.5-3.3,9.8-4.9c6.5-3.3,13-6.5,19.5-9.8
		c13-6.5,26-13.1,39-19.6"/>
	<path class="st7" d="M1194.9-1076.9c0.5,0.1,1,0.1,1.5,0.2c0.1,0,0.1,0.1,0.1,0c0-0.1,0-0.1,0-0.2c0-0.1,0-0.3,0-0.4
		c0-0.3,0-0.6,0.1-0.8c0.1-1.1,0.2-2.2,0.2-3.3c0.1-2.2,0.3-4.4,0.4-6.5c0.3-4.4,0.6-8.7,0.9-13.1c0.6-8.7,1.2-17.4,1.8-26.2"/>
	<line class="st7" x1="1181.5" y1="-1130.1" x2="1182" y2="-1138.7"/>
	<path class="st7" d="M925.6-974.1c0.5,0.2,1,0.2,1.5,0"/>
	<line class="st7" x1="927.1" y1="-974.1" x2="1031.8" y2="-1009.9"/>
	<rect x="381.5" y="-1285.5" class="st8" width="1025.8" height="521.1"/>
	<line class="st7" x1="926.8" y1="-974.5" x2="925.4" y2="-974.1"/>
	<line class="st7" x1="1191.6" y1="-1650.1" x2="1223.4" y2="-1656.9"/>
	<line class="st7" x1="1223.4" y1="-1656.9" x2="1214.3" y2="-1657.9"/>
	<line class="st7" x1="1182.4" y1="-1651.2" x2="1214.3" y2="-1657.9"/>
	<line class="st7" x1="1191.6" y1="-1650.1" x2="1182.4" y2="-1651.2"/>
	<line class="st7" x1="1223.4" y1="-1656.9" x2="1222.7" y2="-1647.1"/>
	<path class="st7" d="M1222.7-1647.1c-0.7,9-3.8,18.8-6.4,27.3c-2.7,9-5.3,17.9-7.2,27.1c-4.1,19.8-4.6,35.9-4.1,55.9
		c0.5,18.7,1.7,37.4,2.3,56.1c0.6,18.8,0.6,37.4-0.7,56.2"/>
	<line class="st7" x1="1206.6" y1="-1424.6" x2="1197.4" y2="-1419.8"/>
	<line class="st7" x1="1197.4" y1="-1419.8" x2="1188.8" y2="-1422.1"/>
	<path class="st7" d="M1197.4-1419.8c0.2-3.1,0.5-6.2,0.5-9.4c0-1.6,0-3.1-0.5-4.7c-0.6-2-1.8-2.3-3.6-1.4"/>
	<path class="st7" d="M1188.8-1422.1c0.3-3.7,0.5-7.3,0.4-11"/>
	<line class="st7" x1="1193.7" y1="-1435.3" x2="1154.4" y2="-1415.8"/>
	<path class="st7" d="M1154.4-1415.8c-3.8,1.9-5,6.4-5.6,9.9c-0.7,3.9-0.8,7.8-1.1,11.8"/>
	<line class="st7" x1="1147.8" y1="-1394.1" x2="1137.1" y2="-1388.6"/>
	<line class="st7" x1="1137.1" y1="-1388.6" x2="1128.2" y2="-1391.2"/>
	<path class="st7" d="M1137.1-1388.6c1.2-20.4,3.9-40.6,7.1-60.8c3.2-20.1,6.9-40.2,10.3-60.3c3.2-19.4,6.5-40.9,5.4-60.8
		c-0.6-10.3-2.3-20.2-4.6-30.2c-2.3-10-5.1-19.6-4.5-30.2"/>
	<line class="st7" x1="803.2" y1="371.6" x2="804.4" y2="352.9"/>
	<path class="st7" d="M1128.2-1391.2c1.1-20.3,3.8-40.4,6.9-60.4c3.2-20,6.9-40,10.2-60c3.2-19.3,6.4-40.6,5.3-60.5
		c-0.6-10.2-2.3-20.1-4.7-30c-2.3-9.9-5.1-19.4-4.6-30"/>
	<line class="st7" x1="1150.8" y1="-1630.9" x2="1151.4" y2="-1641.5"/>
	<line class="st7" x1="1151.4" y1="-1641.5" x2="1142" y2="-1642.7"/>
	<line class="st7" x1="1141.4" y1="-1632.1" x2="1142" y2="-1642.7"/>
	<line class="st7" x1="1151.4" y1="-1641.5" x2="1186.5" y2="-1649"/>
	<line class="st7" x1="1186.5" y1="-1649" x2="1177.2" y2="-1650.1"/>
	<line class="st7" x1="1142" y1="-1642.7" x2="1177.2" y2="-1650.1"/>
	<line class="st7" x1="1186.5" y1="-1649" x2="1184.5" y2="-1618.4"/>
	<line class="st7" x1="1184.5" y1="-1618.4" x2="1189.6" y2="-1619.7"/>
	<line class="st7" x1="1189.6" y1="-1619.7" x2="1184.7" y2="-1620.4"/>
	<line class="st7" x1="1189.6" y1="-1099.8" x2="1191.6" y2="-1130.2"/>
	<line class="st7" x1="1182.3" y1="-1649.5" x2="1182.4" y2="-1651.2"/>
	<path class="st7" d="M1158.1-1456.7c-0.5,2.1-0.5,4.1,0.1,6.3c0.2,0.9,0.5,2.2,1.3,2.8c0.8,0.7,2,0.8,3,0.4"/>
	<line class="st7" x1="804.4" y1="352.9" x2="799.5" y2="355.2"/>
	<line class="st7" x1="1162.4" y1="-1447.3" x2="1173.9" y2="-1452.6"/>
	<line class="st7" x1="1173.9" y1="-1452.6" x2="1165" y2="-1454.7"/>
	<line class="st7" x1="1157.9" y1="-1451.5" x2="1165" y2="-1454.7"/>
	<line class="st7" x1="1173.9" y1="-1452.6" x2="1173.3" y2="-1443.2"/>
	<line class="st7" x1="1173.3" y1="-1443.2" x2="1178.2" y2="-1445.5"/>
	<line class="st7" x1="1178.2" y1="-1445.5" x2="1173.5" y2="-1446.7"/>
	<line class="st7" x1="1178.2" y1="-1445.5" x2="1178.8" y2="-1454.9"/>
	<line class="st7" x1="1178.8" y1="-1454.9" x2="1170.1" y2="-1457"/>
	<line class="st7" x1="1169.8" y1="-1453.6" x2="1170.1" y2="-1457"/>
	<line class="st7" x1="1178.8" y1="-1454.9" x2="1189.8" y2="-1459.9"/>
	<line class="st7" x1="798.2" y1="374" x2="799.5" y2="355.2"/>
	<line class="st7" x1="1170.1" y1="-1457" x2="1181.1" y2="-1462"/>
	<path class="st7" d="M1189.8-1459.9c2.4-1.5,3.4-3.5,4.3-6c0.9-2.4,1.2-4.8,1.1-7.4"/>
	<line class="st7" x1="803.2" y1="371.6" x2="798.2" y2="374"/>
	<path class="st7" d="M1181.1-1462c2.4-1.5,3.4-3.5,4.3-5.9c0.9-2.4,1.2-4.8,1.1-7.4"/>
	<line class="st7" x1="1195.2" y1="-1473.3" x2="1189.9" y2="-1573.2"/>
	<line class="st7" x1="804.4" y1="352.9" x2="777.3" y2="333.7"/>
	<line class="st7" x1="1186.5" y1="-1475.3" x2="1180.9" y2="-1574.7"/>
	<path class="st7" d="M1189.9-1573.2c-0.1-1.5-0.3-2.8-1-4.2c-0.7-1.3-1.8-2.4-3.4-1.9"/>
	<path class="st7" d="M1180.9-1574.7c0-0.6-0.1-1.2-0.2-1.7"/>
	<line class="st7" x1="1185.5" y1="-1579.4" x2="1183.5" y2="-1578.7"/>
	<path class="st7" d="M1183.5-1578.7c-3.3,1-5,6.6-5.5,9.2"/>
	<line class="st7" x1="1178" y1="-1569.5" x2="1158.1" y2="-1456.7"/>
	<line class="st7" x1="924.4" y1="-1679.7" x2="959.8" y2="-1684.3"/>
	<line class="st7" x1="959.8" y1="-1684.3" x2="953.6" y2="-1684.9"/>
	<line class="st7" x1="918.2" y1="-1680.4" x2="953.6" y2="-1684.9"/>
	<line class="st7" x1="924.4" y1="-1679.7" x2="918.2" y2="-1680.4"/>
	<line class="st7" x1="959.8" y1="-1684.3" x2="959.6" y2="-1676.2"/>
	<path class="st7" d="M959.6-1676.2c-0.1,7.6-3.2,15.9-5.5,22.9c-2.5,7.5-4.8,15-6.3,22.7c-3.3,16.6-2.4,30.5-0.4,47
		c1.9,15.6,4.5,31.2,6.5,46.8c2,15.7,3.3,31.3,3.1,47.1"/>
	<line class="st7" x1="957" y1="-1489.6" x2="946.8" y2="-1486.4"/>
	<line class="st7" x1="946.8" y1="-1486.4" x2="940.9" y2="-1487.9"/>
	<path class="st7" d="M946.8-1486.4c0-2.8,0.1-5.7-0.2-8.5c-0.3-3.2-1.2-6.1-5.1-4.9"/>
	<path class="st7" d="M940.9-1487.9c0.3-3.9,0.1-7.6-0.8-11.4"/>
	<line class="st7" x1="941.6" y1="-1499.8" x2="898.6" y2="-1486.5"/>
	<path class="st7" d="M898.6-1486.5c-3.7,1.2-5,4.2-5.5,7.7c-0.5,3.3-0.4,6.7-0.4,10"/>
	<line class="st7" x1="892.6" y1="-1468.8" x2="881.1" y2="-1465.1"/>
	<line class="st7" x1="881.1" y1="-1465.1" x2="875.1" y2="-1466.9"/>
	<path class="st7" d="M881.1-1465.1c-0.1-34.3,6.7-67.3,11.4-100.9c2.3-16.4,4.4-33.8,1.6-50.6c-1.4-8.5-4-16.4-7-24.4
		c-2.8-7.4-6.6-16-6.6-24.4"/>
	<line class="st7" x1="757.5" y1="319.7" x2="692.2" y2="273.5"/>
	<path class="st7" d="M875.1-1466.9c-0.2-34.1,6.6-67,11.3-100.4c2.3-16.4,4.4-33.6,1.6-50.3c-1.4-8.4-4-16.3-7.1-24.2
		c-2.8-7.4-6.6-15.9-6.7-24.2"/>
	<line class="st7" x1="880.5" y1="-1665.3" x2="880.4" y2="-1674"/>
	<line class="st7" x1="880.4" y1="-1674" x2="874.2" y2="-1674.8"/>
	<line class="st7" x1="874.2" y1="-1666.1" x2="874.2" y2="-1674.8"/>
	<line class="st7" x1="880.4" y1="-1674" x2="918.8" y2="-1679"/>
	<line class="st7" x1="918.8" y1="-1679" x2="912.6" y2="-1679.7"/>
	<line class="st7" x1="874.2" y1="-1674.8" x2="912.6" y2="-1679.7"/>
	<line class="st7" x1="918.8" y1="-1679" x2="918.6" y2="-1653.8"/>
	<line class="st7" x1="918.6" y1="-1653.8" x2="924.3" y2="-1654.6"/>
	<line class="st7" x1="924.3" y1="-1654.6" x2="918.7" y2="-1655.4"/>
	<line class="st7" x1="924.3" y1="-1654.6" x2="924.4" y2="-1679.7"/>
	<line class="st7" x1="918.2" y1="-1679.1" x2="918.2" y2="-1680.4"/>
	<path class="st7" d="M900-1520.6c-0.4,2.1-0.2,3.8,0.7,5.8c0.9,1.9,2.6,3.1,4.8,2.5"/>
	<line class="st7" x1="799.5" y1="355.2" x2="776.4" y2="338.8"/>
	<line class="st7" x1="905.5" y1="-1512.3" x2="917.9" y2="-1515.9"/>
	<line class="st7" x1="917.9" y1="-1515.9" x2="911.9" y2="-1517.4"/>
	<line class="st7" x1="900.9" y1="-1514.3" x2="911.9" y2="-1517.4"/>
	<line class="st7" x1="917.9" y1="-1515.9" x2="917.9" y2="-1508"/>
	<line class="st7" x1="917.9" y1="-1508" x2="923.3" y2="-1509.7"/>
	<line class="st7" x1="923.3" y1="-1509.7" x2="917.9" y2="-1511"/>
	<line class="st7" x1="923.3" y1="-1509.7" x2="923.4" y2="-1517.5"/>
	<line class="st7" x1="923.4" y1="-1517.5" x2="917.4" y2="-1518.9"/>
	<line class="st7" x1="917.4" y1="-1516" x2="917.4" y2="-1518.9"/>
	<line class="st7" x1="923.4" y1="-1517.5" x2="935.4" y2="-1520.9"/>
	<line class="st7" x1="756.6" y1="324.8" x2="686.9" y2="275.2"/>
	<line class="st7" x1="917.4" y1="-1518.9" x2="929.4" y2="-1522.3"/>
	<path class="st7" d="M935.4-1520.9c2.3-0.9,3.4-2.4,4.4-4.6c0.9-2.1,1.2-4.1,0.9-6.4"/>
	<path class="st7" d="M692.2,273.5c-3.7-2.8-5.4-7.9-3.7-12.3"/>
	<path class="st7" d="M929.4-1522.3c2.3-0.9,3.4-2.4,4.4-4.5c0.9-2.1,1.2-4.1,0.9-6.3"/>
	<line class="st7" x1="940.7" y1="-1531.8" x2="927.8" y2="-1616"/>
	<path class="st7" d="M689.2,259.9c0.8-1.2,1.7-2,3.1-2.6"/>
	<line class="st7" x1="934.7" y1="-1533.2" x2="921.6" y2="-1617"/>
	<path class="st7" d="M927.8-1616c-0.2-1.5-0.6-2.7-1.6-3.9c-0.9-1.1-2.3-1.7-3.7-1.5"/>
	<path class="st7" d="M921.6-1617c-0.2-1.5-0.7-2.8-1.7-3.9"/>
	<line class="st7" x1="922.4" y1="-1621.3" x2="920.1" y2="-1620.9"/>
	<path class="st7" d="M920.1-1620.9c-3.1,1.2-5.3,4.1-5.5,7.4"/>
	<line class="st7" x1="914.6" y1="-1613.4" x2="900" y2="-1520.6"/>
	<rect x="382.8" y="-1807.6" class="st8" width="1024" height="522.2"/>
	<line class="st7" x1="692.3" y1="257.3" x2="687" y2="258.9"/>
	<path class="st7" d="M686.9,275.2c-2.6-2-4.2-5-4.4-8.3c-0.1-1.7,0.1-3.2,0.9-4.7c0.8-1.5,1.9-2.5,3.5-3.3"/>
	<line class="st7" x1="692.3" y1="257.3" x2="765.5" y2="220.4"/>
	<line class="st7" x1="687" y1="258.9" x2="765.3" y2="219.3"/>
	<line class="st7" x1="800.9" y1="187.7" x2="801.3" y2="187.7"/>
	<line class="st7" x1="544.4" y1="310.5" x2="543" y2="310.9"/>
	<line class="st7" x1="801.3" y1="187.7" x2="800" y2="207.8"/>
	<line class="st7" x1="801.9" y1="372.2" x2="802.8" y2="372.4"/>
	<path class="st7" d="M543.2,311c0.6,0.2,1.1,0.1,1.7-0.1c0.5-0.2,1.1-0.4,1.6-0.6c1.1-0.4,2.2-0.8,3.3-1.1c2.2-0.8,4.4-1.5,6.6-2.3
		c4.4-1.5,8.8-3,13.2-4.5c8.8-3,17.7-6,26.5-9.1c17.7-6,35.3-12.1,53-18.1"/>
	<path class="st7" d="M812.2,208.3c0.4,0.1,0.8,0.1,1.1,0.2c0.1,0,0.2,0,0.3,0c0.1,0,0.2,0.1,0.2,0c0-0.2,0-0.4,0-0.6
		c0.1-0.8,0.1-1.7,0.2-2.5c0.1-1.6,0.2-3.2,0.3-4.8c0.2-3.2,0.4-6.5,0.7-9.7c0.4-6.5,0.9-12.9,1.3-19.4"/>
	<path class="st7" d="M688.5,261.2c1.1-2,2.2-2.5,4.1-3.5c1.6-0.8,3.2-1.6,4.8-2.4c3.2-1.6,6.5-3.3,9.7-4.9c6.5-3.3,13-6.5,19.5-9.8
		c13-6.5,26-13.1,39-19.6"/>
	<line class="st7" x1="802.8" y1="372.4" x2="804" y2="353.8"/>
	<line class="st7" x1="531.8" y1="193.5" x2="517.2" y2="286.1"/>
	<path class="st7" d="M537.3,186.1c-3.3,0.6-5.1,4.6-5.5,7.4"/>
	<line class="st7" x1="539.6" y1="185.7" x2="537.3" y2="186.1"/>
	<path class="st7" d="M538.8,190c-0.2-1.5-0.7-2.7-1.7-3.9"/>
	<path class="st7" d="M544.9,191c-0.2-1.5-0.6-2.7-1.6-3.8c-0.9-1.1-2.2-1.7-3.7-1.5"/>
	<line class="st7" x1="551.8" y1="273.5" x2="538.8" y2="190"/>
	<line class="st7" x1="814.2" y1="207.7" x2="809.2" y2="209.2"/>
	<line class="st7" x1="557.8" y1="274.9" x2="544.9" y2="191"/>
	<path class="st7" d="M551.4,278.6c0.5-1.7,0.7-3.3,0.4-5.1"/>
	<line class="st7" x1="800" y1="207.8" x2="809.2" y2="209.2"/>
	<path class="st7" d="M557.9,276.6c0-0.6,0-1.1-0.1-1.7"/>
	<line class="st7" x1="535" y1="298.6" x2="535.4" y2="298.5"/>
	<line class="st7" x1="535.1" y1="290.8" x2="535" y2="298.6"/>
	<line class="st7" x1="518.1" y1="292.4" x2="529.1" y2="289.3"/>
	<line class="st7" x1="535.1" y1="290.8" x2="529.1" y2="289.3"/>
	<line class="st7" x1="522.7" y1="294.3" x2="535.1" y2="290.8"/>
	<line class="st7" x1="814.2" y1="207.7" x2="816.7" y2="171.5"/>
	<path class="st7" d="M517.2,286.1c-0.4,1.9-0.1,4,0.7,5.8c0.4,0.9,0.9,1.7,1.9,2.2c1,0.5,1.8,0.6,2.9,0.3"/>
	<line class="st7" x1="535.8" y1="153.3" x2="536.2" y2="153.3"/>
	<line class="st7" x1="535.9" y1="143.3" x2="535.8" y2="153.3"/>
	<line class="st7" x1="491.5" y1="141.1" x2="491.5" y2="137.8"/>
	<line class="st7" x1="497.8" y1="141.9" x2="497.7" y2="138.6"/>
	<path class="st7" d="M492.4,339.6c-0.1-16.9,1.6-33.5,3.8-50.2c2.2-16.7,5.1-33.2,7.4-49.9c1.2-8.3,2.2-16.6,2.7-25.1
		c0.5-8.5,0.3-16.7-1.1-25.1c-1.4-8.4-4-16.3-7-24.2c-2.8-7.3-6.6-15.8-6.7-24.2"/>
	<line class="st7" x1="809.2" y1="209.2" x2="811.6" y2="172.7"/>
	<path class="st7" d="M498.4,341.4c-0.1-17,1.6-33.7,3.9-50.5c2.2-16.7,5.1-33.4,7.5-50.1c1.2-8.4,2.2-16.7,2.7-25.2
		c0.5-8.5,0.3-16.8-1.1-25.2c-1.4-8.4-4-16.4-7-24.3c-2.8-7.4-6.6-15.9-6.6-24.3"/>
	<line class="st7" x1="498.4" y1="341.4" x2="492.4" y2="339.6"/>
	<line class="st7" x1="509.9" y1="337.7" x2="498.4" y2="341.4"/>
	<path class="st7" d="M515.8,320.1c-3.7,1.2-5,4.2-5.5,7.6c-0.5,3.3-0.4,6.6-0.4,10"/>
	<line class="st7" x1="558.7" y1="306.8" x2="515.8" y2="320.1"/>
	<path class="st7" d="M558,318.6c0.3-3.9,0.1-7.6-0.8-11.4"/>
	<path class="st7" d="M563.9,320.2c0-2.8,0.1-5.7-0.2-8.5c-0.3-3.1-1.2-6.1-5-4.9"/>
	<line class="st7" x1="563.9" y1="320.2" x2="558" y2="318.6"/>
	<line class="st7" x1="574" y1="316.9" x2="563.9" y2="320.2"/>
	<path class="st7" d="M573.7,300.5c0.3,5.5,0.4,10.9,0.3,16.4"/>
	<path class="st7" d="M562.8,195.1c-0.4,12.3,1.4,26.6,3.1,38.8c1.8,12.9,3.8,25.7,5.4,38.6"/>
	<line class="st7" x1="799.7" y1="145.7" x2="794.5" y2="146.7"/>
	<line class="st7" x1="799.7" y1="145.7" x2="542" y2="119"/>
	<line class="st7" x1="541.6" y1="119.1" x2="536.4" y2="119.7"/>
	<line class="st7" x1="794.5" y1="146.7" x2="536.4" y2="119.7"/>
	<line class="st7" x1="535.8" y1="152.6" x2="536.2" y2="152.7"/>
	<line class="st7" x1="536.2" y1="152.7" x2="536.2" y2="167"/>
	<path class="st7" d="M536.2,167c0,1.4,0.5,2.7,1.5,3.7"/>
	<line class="st7" x1="537.6" y1="170.7" x2="613.6" y2="244.5"/>
	<path class="st7" d="M613.6,244.5c2.3,2.1,3.5,5,3.5,8.1c0,1.6-0.2,2.9-1,4.3c-0.8,1.4-1.9,2.3-3.4,2.9"/>
	<line class="st7" x1="612.7" y1="259.7" x2="523.6" y2="287.1"/>
	<line class="st7" x1="794.3" y1="237.3" x2="774.5" y2="349.7"/>
	<path class="st7" d="M799.8,228.1c-1.7,0.5-3,2.5-3.8,3.9c-0.9,1.7-1.4,3.4-1.7,5.3"/>
	<line class="st7" x1="801.8" y1="227.5" x2="799.8" y2="228.1"/>
	<path class="st7" d="M797.2,232.1c0-0.6-0.1-1.2-0.2-1.7"/>
	<path class="st7" d="M806.2,233.6c-0.1-1.5-0.3-2.8-1-4.2c-0.7-1.3-1.8-2.4-3.4-1.9"/>
	<line class="st7" x1="802.8" y1="331.2" x2="797.2" y2="232.1"/>
	<line class="st7" x1="523.6" y1="287.1" x2="523.6" y2="290.8"/>
	<line class="st7" x1="811.5" y1="333.2" x2="806.2" y2="233.6"/>
	<path class="st7" d="M797.4,344.5c1.1-0.7,2-1.5,2.7-2.6c0.7-1,1.2-2.2,1.6-3.4c0.9-2.4,1.2-4.8,1.1-7.4"/>
	<line class="st7" x1="535.1" y1="297.8" x2="535.5" y2="297.9"/>
	<path class="st7" d="M806.1,346.6c1.1-0.7,2-1.5,2.7-2.6c0.7-1.1,1.2-2.2,1.6-3.4c0.9-2.4,1.2-4.8,1.1-7.4"/>
	<line class="st7" x1="794.4" y1="345.8" x2="797.4" y2="344.5"/>
	<line class="st7" x1="535.5" y1="297.9" x2="535.4" y2="307.3"/>
	<line class="st7" x1="799.6" y1="349.5" x2="806.1" y2="346.6"/>
	<line class="st7" x1="789.6" y1="363.2" x2="789.9" y2="363.1"/>
	<line class="st7" x1="790.2" y1="353.9" x2="789.6" y2="363.2"/>
	<line class="st7" x1="774.3" y1="354.9" x2="781.4" y2="351.7"/>
	<line class="st7" x1="790.2" y1="353.9" x2="781.4" y2="351.7"/>
	<line class="st7" x1="778.8" y1="359.1" x2="790.2" y2="353.9"/>
	<path class="st7" d="M535.4,307.3c0,1.3,0.3,2.3,1.1,3.4c0.8,1,1.8,1.6,3.1,1.3"/>
	<path class="st7" d="M774.5,349.7c-0.5,2.1-0.5,4.1,0.1,6.2c0.2,0.9,0.5,2.2,1.3,2.8c0.8,0.7,2,0.8,3,0.4"/>
	<line class="st7" x1="800.8" y1="188.5" x2="801.2" y2="188.5"/>
	<line class="st7" x1="801.7" y1="175" x2="800.8" y2="188.5"/>
	<line class="st7" x1="757.8" y1="175" x2="758" y2="171"/>
	<line class="st7" x1="767.2" y1="176.2" x2="767.5" y2="172.1"/>
	<path class="st7" d="M744.7,415c1.1-20.2,3.8-40.2,6.9-60.2c3.1-20,6.9-39.8,10.1-59.8c1.6-10,3.2-20,4.2-30
		c1.1-10.1,1.6-20.1,1-30.3c-0.6-10.5-2.3-19.8-4.7-29.9c-2.2-9.6-5.1-19.7-4.5-29.9"/>
	<line class="st7" x1="545.1" y1="310.3" x2="648.7" y2="274.8"/>
	<path class="st7" d="M753.5,417.7c1.2-20.4,3.9-40.5,7-60.6c3.2-20.1,6.9-40.1,10.2-60.1c1.7-10,3.2-20.1,4.3-30.2
		c1.1-10.1,1.6-20.2,1.1-30.4c-0.6-10.5-2.2-19.9-4.5-30.1c-2.2-9.7-5-19.8-4.4-30.1"/>
	<line class="st7" x1="753.5" y1="417.7" x2="744.7" y2="415"/>
	<line class="st7" x1="764.2" y1="412.1" x2="753.5" y2="417.7"/>
	<path class="st7" d="M770.8,390.5c-3.8,1.9-4.9,6.3-5.5,9.9c-0.7,3.9-0.8,7.8-1.1,11.7"/>
	<line class="st7" x1="810" y1="371.1" x2="770.8" y2="390.5"/>
	<path class="st7" d="M805.1,384.3c0.3-3.6,0.5-7.3,0.4-10.9"/>
	<path class="st7" d="M813.6,386.5c0.2-3.1,0.5-6.2,0.5-9.4c0-1.6,0-3.1-0.5-4.6c-0.6-2-1.8-2.3-3.6-1.4"/>
	<line class="st7" x1="813.6" y1="386.5" x2="805.1" y2="384.3"/>
	<line class="st7" x1="822.8" y1="381.8" x2="813.6" y2="386.5"/>
	<path class="st7" d="M838,166.5c-1.6,8.6-4.7,17.9-7.2,26.2c-2.6,8.7-4.9,17.4-6.5,26.4c-3.5,18.8-3.6,35.2-3,54.2
		c0.6,18.1,1.7,36.2,2.3,54.3c0.6,18.1,0.5,36.2-0.8,54.3"/>
	<line class="st7" x1="735.6" y1="206.8" x2="653" y2="246.7"/>
	<path class="st7" d="M732.4,188.3c4.1,0.8,7.2,4.1,7.8,8.2c0.1,0.5,0.2,1,0.2,1.5c0,0.5,0,1,0,1.5c-0.1,1-0.3,2-0.7,2.9
		c-0.8,1.9-2.2,3.4-4,4.4"/>
	<line class="st7" x1="579.6" y1="167" x2="732.4" y2="188.3"/>
	<path class="st7" d="M576.1,182.5c-2.5-2.4-3.6-5.9-3.1-9.3c0.5-3.3,2.8-6.8,6.6-6.2"/>
	<path class="st7" d="M581.6,181.5c-1.9-1.9-3.1-4.4-3.2-7.1c-0.1-2.7,0.6-5.3,2.7-7.2"/>
	<line class="st7" x1="645.8" y1="245.3" x2="576.1" y2="182.5"/>
	<line class="st7" x1="539.7" y1="312" x2="648.5" y2="274.7"/>
	<line class="st7" x1="651.2" y1="243.8" x2="581.6" y2="181.5"/>
	<path class="st7" d="M653,246.7c-2.5,1.1-5.4,0.5-7.3-1.4"/>
	<line class="st7" x1="648.5" y1="274.7" x2="751.4" y2="356"/>
	<path class="st7" d="M655,245.7c-1.5-0.2-2.7-0.8-3.9-1.9"/>
	<line class="st7" x1="789.4" y1="371.7" x2="798.2" y2="374"/>
	<line class="st7" x1="790" y1="362.4" x2="789.4" y2="371.7"/>
	<line class="st7" x1="789.6" y1="362.3" x2="790" y2="362.4"/>
	<line class="st7" x1="1184.6" y1="-912.8" x2="1185.5" y2="-912.6"/>
</g>
<g id="Make2D::visible::tangents::Layer_02">
	<line class="st7" x1="581.6" y1="181.5" x2="576.1" y2="182.5"/>
	<line class="st7" x1="767.2" y1="176.2" x2="757.8" y2="175"/>
	<line class="st7" x1="778.8" y1="359.1" x2="775.5" y2="358.3"/>
	<line class="st7" x1="545.1" y1="310.3" x2="544.4" y2="310.5"/>
	<line class="st7" x1="806.1" y1="346.6" x2="797.4" y2="344.5"/>
	<line class="st7" x1="811.5" y1="333.2" x2="802.8" y2="331.2"/>
	<line class="st7" x1="806.2" y1="233.6" x2="797.2" y2="232.1"/>
	<line class="st7" x1="1074.8" y1="-1011.6" x2="1069.5" y2="-1009.9"/>
	<line class="st7" x1="927.5" y1="-974.8" x2="926.8" y2="-974.6"/>
	<line class="st7" x1="1033.7" y1="-1041.3" x2="1028.3" y2="-1039.9"/>
	<line class="st7" x1="964.1" y1="-1103.7" x2="958.5" y2="-1102.7"/>
	<line class="st7" x1="1149.9" y1="-1109.1" x2="1140.5" y2="-1110.3"/>
	<line class="st7" x1="1161.5" y1="-925.9" x2="1158.2" y2="-926.7"/>
	<line class="st7" x1="1188.8" y1="-938.5" x2="1180.1" y2="-940.6"/>
	<line class="st7" x1="1194.3" y1="-951.9" x2="1185.5" y2="-953.9"/>
	<line class="st7" x1="1189" y1="-1051.6" x2="1179.9" y2="-1053"/>
	<line class="st7" x1="880.1" y1="-1143.4" x2="873.9" y2="-1144.2"/>
	<line class="st7" x1="497.8" y1="141.9" x2="491.5" y2="141.1"/>
	<line class="st7" x1="522.7" y1="294.3" x2="518.9" y2="293.4"/>
	<line class="st7" x1="557.8" y1="274.9" x2="551.8" y2="273.5"/>
	<line class="st7" x1="544.9" y1="191" x2="538.8" y2="190"/>
	<line class="st7" x1="905.1" y1="-990.8" x2="901.3" y2="-991.7"/>
	<line class="st7" x1="927.8" y1="-1616" x2="921.6" y2="-1617"/>
	<line class="st7" x1="940.7" y1="-1531.8" x2="934.7" y2="-1533.2"/>
	<line class="st7" x1="935.4" y1="-1520.9" x2="929.4" y2="-1522.3"/>
	<line class="st7" x1="905.5" y1="-1512.3" x2="901.7" y2="-1513.3"/>
	<line class="st7" x1="692.2" y1="273.5" x2="686.9" y2="275.2"/>
	<line class="st7" x1="880.5" y1="-1665.3" x2="874.2" y2="-1666.1"/>
	<line class="st7" x1="1189.9" y1="-1573.2" x2="1180.9" y2="-1574.7"/>
	<line class="st7" x1="1195.2" y1="-1473.3" x2="1186.5" y2="-1475.3"/>
	<line class="st7" x1="1189.8" y1="-1459.9" x2="1181.1" y2="-1462"/>
	<line class="st7" x1="1162.4" y1="-1447.3" x2="1159.1" y2="-1448.1"/>
	<line class="st7" x1="1150.8" y1="-1630.9" x2="1141.4" y2="-1632.1"/>
	<line class="st7" x1="927.3" y1="-1094.2" x2="921.2" y2="-1095.2"/>
	<line class="st7" x1="940.2" y1="-1010.2" x2="934.2" y2="-1011.6"/>
	<line class="st7" x1="651.2" y1="243.8" x2="645.8" y2="245.3"/>
	<line class="st7" x1="923.4" y1="-2143.7" x2="958.8" y2="-2148.3"/>
	<line class="st7" x1="958.8" y1="-2148.3" x2="952.6" y2="-2148.9"/>
	<line class="st7" x1="917.2" y1="-2144.4" x2="952.6" y2="-2148.9"/>
	<line class="st7" x1="923.4" y1="-2143.7" x2="917.2" y2="-2144.4"/>
	<line class="st7" x1="958.8" y1="-2148.3" x2="958.6" y2="-2140.2"/>
	<path class="st7" d="M958.6-2140.2c-0.1,7.6-3.2,15.9-5.5,22.9c-2.5,7.5-4.8,15-6.3,22.7c-3.3,16.6-2.4,30.5-0.4,47
		c1.9,15.6,4.5,31.2,6.5,46.8c2,15.7,3.3,31.3,3.1,47.1"/>
	<line class="st7" x1="956" y1="-1953.6" x2="945.8" y2="-1950.4"/>
	<line class="st7" x1="945.8" y1="-1950.4" x2="939.9" y2="-1951.9"/>
	<path class="st7" d="M945.8-1950.4c0-2.8,0.1-5.7-0.2-8.5c-0.3-3.2-1.2-6.1-5.1-4.9"/>
	<path class="st7" d="M939.9-1951.9c0.3-3.9,0.1-7.6-0.8-11.4"/>
	<line class="st7" x1="940.6" y1="-1963.8" x2="897.6" y2="-1950.5"/>
	<path class="st7" d="M897.6-1950.5c-3.7,1.2-5,4.2-5.5,7.7c-0.5,3.3-0.4,6.7-0.4,10"/>
	<line class="st7" x1="891.6" y1="-1932.8" x2="880.1" y2="-1929.1"/>
	<line class="st7" x1="880.1" y1="-1929.1" x2="874.1" y2="-1930.9"/>
	<path class="st7" d="M880.1-1929.1c-0.1-34.3,6.7-67.3,11.4-100.9c2.3-16.4,4.4-33.8,1.6-50.6c-1.4-8.5-4-16.4-7-24.4
		c-2.8-7.4-6.6-16-6.6-24.4"/>
	<path class="st7" d="M874.1-1930.9c-0.2-34.1,6.6-67,11.3-100.4c2.3-16.4,4.4-33.6,1.6-50.3c-1.4-8.4-4-16.3-7.1-24.2
		c-2.8-7.4-6.6-15.9-6.7-24.2"/>
	<line class="st7" x1="879.5" y1="-2129.3" x2="879.4" y2="-2138"/>
	<line class="st7" x1="879.4" y1="-2138" x2="873.2" y2="-2138.8"/>
	<line class="st7" x1="873.2" y1="-2130.1" x2="873.2" y2="-2138.8"/>
	<line class="st7" x1="879.4" y1="-2138" x2="917.8" y2="-2143"/>
	<line class="st7" x1="917.8" y1="-2143" x2="911.6" y2="-2143.7"/>
	<line class="st7" x1="873.2" y1="-2138.8" x2="911.6" y2="-2143.7"/>
	<line class="st7" x1="917.8" y1="-2143" x2="917.6" y2="-2117.8"/>
	<line class="st7" x1="917.6" y1="-2117.8" x2="923.3" y2="-2118.6"/>
	<line class="st7" x1="923.3" y1="-2118.6" x2="917.7" y2="-2119.4"/>
	<line class="st7" x1="923.3" y1="-2118.6" x2="923.4" y2="-2143.7"/>
	<line class="st7" x1="917.2" y1="-2143.1" x2="917.2" y2="-2144.4"/>
	<path class="st7" d="M899-1984.6c-0.4,2.1-0.2,3.8,0.7,5.8c0.9,1.9,2.6,3.1,4.8,2.5"/>
	<line class="st7" x1="904.5" y1="-1976.3" x2="916.9" y2="-1979.9"/>
	<line class="st7" x1="916.9" y1="-1979.9" x2="910.9" y2="-1981.4"/>
	<line class="st7" x1="899.9" y1="-1978.3" x2="910.9" y2="-1981.4"/>
	<line class="st7" x1="916.9" y1="-1979.9" x2="916.9" y2="-1972"/>
	<line class="st7" x1="916.9" y1="-1972" x2="922.3" y2="-1973.7"/>
	<line class="st7" x1="922.3" y1="-1973.7" x2="916.9" y2="-1975"/>
	<line class="st7" x1="922.3" y1="-1973.7" x2="922.4" y2="-1981.5"/>
	<line class="st7" x1="922.4" y1="-1981.5" x2="916.4" y2="-1982.9"/>
	<line class="st7" x1="916.4" y1="-1980" x2="916.4" y2="-1982.9"/>
	<line class="st7" x1="922.4" y1="-1981.5" x2="934.4" y2="-1984.9"/>
	<line class="st7" x1="916.4" y1="-1982.9" x2="928.4" y2="-1986.3"/>
	<path class="st7" d="M934.4-1984.9c2.3-0.9,3.4-2.4,4.4-4.6c0.9-2.1,1.2-4.1,0.9-6.4"/>
	<path class="st7" d="M928.4-1986.3c2.3-0.9,3.4-2.4,4.4-4.5c0.9-2.1,1.2-4.1,0.9-6.3"/>
	<line class="st7" x1="939.7" y1="-1995.8" x2="926.8" y2="-2080"/>
	<line class="st7" x1="933.7" y1="-1997.2" x2="920.6" y2="-2081"/>
	<path class="st7" d="M926.8-2080c-0.2-1.5-0.6-2.7-1.6-3.9c-0.9-1.1-2.3-1.7-3.7-1.5"/>
	<path class="st7" d="M920.6-2081c-0.2-1.5-0.7-2.8-1.7-3.9"/>
	<line class="st7" x1="921.4" y1="-2085.3" x2="919.1" y2="-2084.9"/>
	<path class="st7" d="M919.1-2084.9c-3.1,1.2-5.3,4.1-5.5,7.4"/>
	<line class="st7" x1="913.6" y1="-2077.4" x2="899" y2="-1984.6"/>
	<rect x="381.8" y="-2271.6" class="st8" width="1024" height="522.2"/>
	<line class="st7" x1="926.8" y1="-2080" x2="920.6" y2="-2081"/>
	<line class="st7" x1="939.7" y1="-1995.8" x2="933.7" y2="-1997.2"/>
	<line class="st7" x1="934.4" y1="-1984.9" x2="928.4" y2="-1986.3"/>
	<line class="st7" x1="904.5" y1="-1976.3" x2="900.7" y2="-1977.3"/>
	<line class="st7" x1="879.5" y1="-2129.3" x2="873.2" y2="-2130.1"/>
</g>
<g id="Make2D::visible::lines::Layer_07">
	<line class="st7" x1="541.6" y1="119.1" x2="799.3" y2="145.8"/>
	<line class="st7" x1="898" y1="142.6" x2="554.2" y2="109.9"/>
	<line class="st7" x1="798.6" y1="164.6" x2="898" y2="142.6"/>
	<line class="st7" x1="897.2" y1="152.5" x2="898" y2="142.6"/>
	<line class="st7" x1="797.8" y1="175.9" x2="897.2" y2="152.5"/>
	<line class="st7" x1="440.7" y1="122.8" x2="798.6" y2="164.6"/>
	<line class="st7" x1="797.8" y1="175.9" x2="798.6" y2="164.6"/>
	<line class="st7" x1="440.9" y1="131.5" x2="797.8" y2="175.9"/>
	<line class="st7" x1="554.2" y1="109.9" x2="440.7" y2="122.8"/>
	<line class="st7" x1="440.9" y1="131.5" x2="440.7" y2="122.8"/>
	<polyline class="st7" points="443.4,131.8 440.4,132.2 797.4,176.8 896.8,153.3 894.7,153.1 	"/>
</g>
</svg>
