<?xml version="1.0" encoding="utf-8"?>
<!-- Generator: Adobe Illustrator 19.0.0, SVG Export Plug-In . SVG Version: 6.00 Build 0)  -->
<svg version="1.1" xmlns="http://www.w3.org/2000/svg" xmlns:xlink="http://www.w3.org/1999/xlink" x="0px" y="0px"
	 viewBox="0 0 1024 768" style="enable-background:new 0 0 1024 768;" xml:space="preserve">
<style type="text/css">
	.st0{fill:#69B47A;stroke:#69B47A;stroke-linecap:round;stroke-linejoin:round;}
	.st1{fill:#FFFFFF;}
	.st2{fill:#6AB57B;stroke:#6AB57B;stroke-linecap:round;stroke-linejoin:round;}
	.st3{fill:#FFFFFF;stroke:#FFFFFF;stroke-miterlimit:10;}
	.st4{fill:#69B47A;stroke:#000000;stroke-linecap:round;stroke-linejoin:round;}
	.st5{fill:none;stroke:#000000;stroke-linecap:round;stroke-linejoin:round;}
	.st6{fill:#FFFFFF;stroke:#FFFFFF;stroke-linecap:round;stroke-linejoin:round;}
	.st7{fill:none;stroke:#AADEE8;stroke-linecap:round;stroke-linejoin:round;}
	.st8{fill:none;stroke:#793C71;stroke-linecap:round;stroke-linejoin:round;}
</style>
<g id="Default">
	<path class="st0" d="M4753.6-3697.7c-8.8,0-17.6,0-26.5,0c-0.4,0-0.8,0-1.2,0c-0.2,0-0.4,0-0.6,0c-0.1,0-0.1,0-0.1,0.1
		c0,0,0,0.1-0.1,0.1c0,0.1-0.1,0.2-0.1,0.3c-0.3,0.8-0.7,1.6-1,2.3c-0.7,1.6-1.3,3.1-2,4.7c-1.3,3.1-2.6,6.2-3.9,9.4
		c-2.6,6.2-5.3,12.5-7.9,18.7c-10.5,25-21,50-31.6,74.9c-10.5,25-21,50-31.6,74.9c-1.3,3.1-2.6,6.2-3.9,9.4
		c-0.6,1.5-1.2,3.1-2.1,4.6c-0.9,1.5-2,2.7-3.4,3.8c-5.6,4.4-13.6,4.1-18.7-0.8c-0.6-0.6-1.2-1.2-1.7-1.9c-0.5-0.7-0.9-1.4-1.3-2.1
		c-0.9-1.4-1.8-2.9-2.7-4.3c-1.8-2.9-3.5-5.8-5.3-8.7c-3.5-5.8-7.1-11.6-10.6-17.3c-27.1-44.2-54.2-88.4-81.3-132.6
		c-0.4-0.7-0.8-1.4-1.3-2.1c-0.4-0.7-0.8-1.4-1.3-2c-1-1.3-2.4-2.3-4-2.7c-0.8-0.2-1.6-0.2-2.4-0.2c-0.8,0-1.6,0-2.4,0
		c-1.6,0-3.2,0-4.9,0c-3.2,0-6.5,0-9.7,0c-1.6,0-3.2,0-4.9,0c-0.4,0-0.8,0-1.2,0c-0.2,0-0.4,0-0.6,0c-0.1,0-0.1,0-0.2,0
		c-0.1,0,0-0.1,0-0.1c0-0.1,0-0.2,0-0.3c0-0.8,0-1.6,0-2.4c0-3.2,0-6.5,0-9.7c0-0.4,0-0.8,0-1.2c0-0.1,0-0.2,0-0.3c0,0,0-0.1,0-0.1
		c0.1,0,0.1,0,0.2,0c0.2,0,0.4,0,0.6,0c0.8,0,1.6,0,2.4,0c1.6,0,3.2,0,4.9,0c6.5,0,13,0,19.4,0c0.2,0,0.4,0,0.6,0c0.1,0,0.2,0,0.3,0
		c0,0,0,0,0-0.1c0,0,0-0.1,0-0.1c0-0.1,0-0.1,0-0.2c0-0.4,0-0.8,0-1.2c0-0.8,0-1.6,0-2.4c0-1.6,0-3.2,0-4.9s0-3.2,0-4.9
		c0-0.1,0-0.2,0-0.3c0-0.1,0.1-0.3,0-0.3c-0.2,0-0.4,0-0.6,0c-0.4,0-0.8,0-1.2,0c-0.8,0-1.6,0-2.4,0c-6.5,0-13,0-19.4,0
		c-13,0-25.9,0-38.9,0c-1.6,0-3.2,0-4.9,0c-0.8,0-1.6,0-2.4,0c-0.2,0-0.4,0-0.6,0c-0.1,0-0.2,0-0.3,0c-0.1,0-0.1,0-0.2,0
		c0,0-0.1,0-0.1,0c0,0.4,0,0.8,0,1.2c0,3.2,0,6.5,0,9.7c0,3.2,0,6.5,0,9.7c0,1.6,0,3.2,0,4.9c0,0.8,0,1.6,0,2.4c0,0.1,0,0.2,0,0.3
		c0,0.1,0,0.1,0,0.2c0,0.1-0.1,0-0.1,0c-0.2,0-0.4,0-0.6,0c-0.4,0-0.8,0-1.2,0c-3.2,0-6.5,0-9.7,0c-0.4,0-0.8,0-1.2,0
		c-0.1,0-0.1,0-0.2,0c0,0-0.1,0-0.1,0c0,0-0.1,0-0.1,0c0,0.1,0,0.2,0,0.3c0,0.2,0,0.4,0,0.6c0,0.8,0,1.6,0,2.4c0,1.6,0,3.2,0,4.9
		c0,6.5,0,13,0,19.4c0,25.9,0,51.8,0,77.8c0,51.8,0,103.7,0,155.5c0,51.8,0,103.7,0,155.5c0,13,0,25.9,0,38.9c0,6.5,0,13,0,19.4
		c0,1.6,0,3.2,0,4.9c0,0.8,0,1.6,0,2.4c0,0.4,0,0.8,0,1.2c0,0.1,0,0.1,0,0.2c0,0,0,0.1,0,0.1c0.1,0,0.2,0,0.3,0c0.2,0,0.4,0,0.6,0
		c3.2,0,6.5,0,9.7,0c0.8,0,1.6,0,2.4,0c0,0,0.1,0,0.1,0c0,0,0,0,0,0.1c0,0.1,0,0.1,0,0.2c0,0.1,0,0.2,0,0.3c0,0.2,0,0.4,0,0.6
		c0,0.4,0,0.8,0,1.2c0,1.6,0,3.2,0,4.9c0,3.2,0,6.5,0,9.7c0,3.2,0,6.5,0,9.7c0,0.4,0,0.8,0,1.2c0,0.1,0,0.2,0,0.3c0,0.1,0,0.1,0,0.2
		c0,0-0.1,0.1,0,0.1c0.2,0,0.4,0,0.6,0c0.8,0,1.6,0,2.4,0c1.6,0,3.2,0,4.9,0c13,0,25.9,0,38.9,0c6.5,0,13,0,19.4,0
		c1.6,0,3.2,0,4.9,0c0.1,0,0-0.1,0-0.1s0-0.1,0-0.1c0-0.1,0-0.1,0-0.2c0-0.1,0-0.2,0-0.3c0-0.2,0-0.4,0-0.6c0-0.4,0-0.8,0-1.2
		c0-0.8,0-1.6,0-2.4c0-1.6,0-3.2,0-4.9c0-0.8,0-1.6,0-2.4c0-0.4,0-0.8,0-1.2c0-0.2,0-0.4,0-0.6c0-0.1,0-0.1,0-0.2c0,0,0-0.1-0.1-0.1
		c-0.1,0-0.2,0-0.3,0c-6.5,0-13,0-19.4,0c-1.6,0-3.2,0-4.9,0c-0.8,0-1.6,0-2.4,0c-0.4,0-0.8,0-1.2,0c0,0-0.1,0-0.1,0
		c0-0.1,0-0.1,0-0.2c0-0.1,0-0.2,0-0.3c0-0.2,0-0.4,0-0.6c0-3.2,0-6.5,0-9.7c0-0.8,0-1.6,0-2.4c0-0.2,0-0.4,0-0.6c0-0.1,0-0.2,0-0.3
		c0-0.2,0.1-0.1,0.2-0.1c0.4,0,0.8,0,1.2,0c1.6,0,3.2,0,4.9,0c3.2,0,6.5,0,9.7,0c1.6,0,3.2,0,4.9,0c0.8,0,1.6,0,2.4,0
		c0.8,0,1.6,0,2.4-0.1c1.6-0.3,3.1-1.1,4.2-2.4c0.5-0.6,2.2-3.4,2.6-4.1c6.8-11.1,13.5-22.1,20.3-33.2
		c13.5-22.1,27.1-44.2,40.6-66.3c6.8-11.1,13.5-22.1,20.3-33.2c3.4-5.5,6.8-11.1,10.2-16.6c1.7-2.8,3.4-5.5,5.1-8.3
		c0.8-1.4,1.7-2.8,2.5-4.1c0.4-0.7,0.8-1.4,1.3-2.1c0.4-0.7,0.8-1.4,1.3-2c4.5-5.9,12.8-7.4,19-3.4c1.6,1,2.8,2.2,3.9,3.7
		c1,1.4,1.7,3,2.3,4.7c1.4,3.3,2.7,6.5,4.1,9.8c5.5,13,11,26.1,16.5,39.1c11,26.1,22,52.1,32.9,78.2c5.5,13,11,26.1,16.5,39.1
		c2.7,6.5,5.5,13,8.2,19.6c1.4,3.3,2.7,6.5,4.1,9.8c0,0.1,0,0.1,0.1,0.2c0,0.1,0,0.1,0.1,0.1c0.1,0,0.2,0,0.3,0c0.2,0,0.4,0,0.7,0
		c0.4,0,0.9,0,1.3,0c0.8,0,1.7,0,2.5,0c1.6,0,3.1,0,4.7,0c4.8,0,9.5,0,14.3,0c1.5,0,3,0,4.5,0c0,0,0.1,0,0.1,0
		c0.1,0,0.1-0.1,0.1-0.2c0-0.2,0-0.4,0-0.7c0-0.4,0-0.9,0-1.3c0-0.9,0-1.8,0-2.7c0-1.8,0-3.5,0-5.3c0-0.9,0-1.8,0-2.7
		c0-0.4,0-0.9,0-1.3c0,0,0.1-0.1,0-0.1c-0.2,0-0.5,0-0.7,0c-1.5,0-2.9,0-4.4,0c-2.8,0-5.6,0-8.4,0c-0.2,0-0.4,0-0.7,0
		c0,0-0.1,0-0.1,0c0,0,0-0.1,0-0.1c0-0.1,0-0.1,0-0.2c0-0.1,0-0.2,0-0.3c0-0.4,0-0.9,0-1.3c0-0.9,0-1.8,0-2.7c0-1.8,0-3.5,0-5.3
		c0-0.8,0-1.6,0-2.4c0-0.4,0-0.8,0-1.2c0-0.2,0-0.4,0-0.6c0,0,0-0.1,0.1-0.1c0.1,0,0.1,0,0.2,0c0.1,0,0.2,0,0.3,0c1.6,0,3.2,0,4.9,0
		c3.2,0,6.5,0,9.7,0c1.6,0,3.2,0.1,4.8-0.5c1.5-0.6,2.8-1.7,3.6-3.1c0.8-1.4,1.1-3.1,0.8-4.7c-0.1-0.8-0.5-1.5-0.8-2.3
		c-0.3-0.7-0.7-1.5-1-2.2c-5.5-11.7-11-23.5-16.6-35.2c-11-23.5-22.1-46.9-33.1-70.4c-11-23.5-22.1-46.9-33.1-70.4
		c-5.5-11.7-11-23.5-16.6-35.2c-2.8-5.9-5.5-11.7-8.3-17.6c0,0,0-0.1-0.1-0.1c0,0-0.1-0.1,0-0.1c0-0.1,0.1-0.2,0.1-0.3
		c0.1-0.2,0.2-0.4,0.3-0.5c0.2-0.4,0.3-0.7,0.5-1.1c0.3-0.7,0.7-1.5,1-2.2c0.7-1.5,1.4-2.9,2.1-4.4c1.4-2.9,2.8-5.9,4.1-8.8
		c23.1-49.1,46.2-98.1,69.3-147.2c5.8-12.3,11.5-24.5,17.3-36.8c2.9-6.1,5.8-12.3,8.7-18.4c1.4-3.1,2.9-6.1,4.3-9.2
		c0.4-0.8,0.7-1.5,1.1-2.3c0.4-0.8,0.7-1.5,0.8-2.4c0.3-1.7-0.1-3.4-1-4.9c-0.9-1.5-2.3-2.5-4-3c-0.8-0.2-1.6-0.3-2.5-0.3
		c-0.8,0-1.7,0-2.5,0c-3.4,0-6.8,0-10.2,0c-0.8,0-1.7,0-2.5,0c-0.4,0-0.8,0-1.3,0c-0.1,0-0.1,0-0.2,0c0,0-0.1,0.1-0.1,0
		c0-0.1,0-0.2,0-0.3c0-0.2,0-0.4,0-0.6c0-1.7,0-3.4,0-5.1c0-1.7,0-3.4,0-5.1c0-0.8,0-1.7,0-2.5c0-0.1,0-0.2,0-0.3c0-0.1,0-0.1,0-0.2
		c0-0.1,0.1-0.1,0.1-0.1c0.2,0,0.4,0,0.6,0c0.4,0,0.8,0,1.2,0c3.9,0,7.8,0,11.6,0c0.2,0,0.4,0,0.6,0c0,0,0,0,0,0c0,0,0,0,0,0
		c0,0,0,0,0,0c0,0,0-0.1,0-0.1c0-0.1,0-0.1,0-0.2c0-0.4,0-0.8,0-1.3c0-0.8,0-1.7,0-2.5C4753.6-3691,4753.6-3694.4,4753.6-3697.7z"/>
	<path class="st1" d="M4607.3-3434.6c-27.7-48.5-55.5-97-83.2-145.6c-3.2-5.6-9.8-8.3-16-6.7s-10.6,7.3-10.6,13.7
		c0,48.5,0,97,0,145.6s0,97,0,145.6c0,6.4,4.3,12.1,10.6,13.7c6.2,1.7,12.8-1.1,16-6.7c27.7-48.5,55.5-97,83.2-145.6
		C4609.8-3424.8,4609.8-3430.2,4607.3-3434.6z"/>
	<rect x="3758" y="-3391.4" class="st2" width="652.1" height="282.4"/>
	<rect x="3843.4" y="-3256.9" class="st3" width="483.6" height="13.2"/>
	<path class="st4" d="M4166.5-3501.8c-12-52.1-24.1-104.3-36.1-156.4c-1.5-6.5-7.2-11-13.9-11c-1.9,0-3.9,0-5.8,0
		c-6.6,0-12.4,4.6-13.9,11c-12,52.1-24.1,104.3-36.1,156.4c-2.1,8.9,4.7,17.4,13.9,17.4c10.6,0,21.3,0,31.9,0c0,4.7,0,9.5,0,14.2
		c4.7,0,9.5,0,14.2,0c0-4.7,0-9.5,0-14.2c10.6,0,21.3,0,31.9,0C4161.8-3484.4,4168.5-3492.9,4166.5-3501.8z"/>
	<path class="st5" d="M3924.7-3501.8c-12-52.1-24.1-104.3-36.1-156.4c-1.5-6.5-7.2-11-13.9-11c-1.9,0-3.9,0-5.8,0
		c-6.6,0-12.4,4.6-13.9,11c-12,52.1-24.1,104.3-36.1,156.4c-2.1,8.9,4.7,17.4,13.9,17.4c10.6,0,21.3,0,31.9,0c0,4.7,0,9.5,0,14.2
		c4.7,0,9.5,0,14.2,0c0-4.7,0-9.5,0-14.2c10.6,0,21.3,0,31.9,0C3920-3484.4,3926.7-3492.9,3924.7-3501.8z"/>
	<path class="st2" d="M3864.7-3768.9c-30.8,0-61.6,0-92.4,0c0,4.7,0,9.5,0,14.2c0,28.4,35.6,56.9,35.6,113.8s-35.6,142.2-35.6,227.6
		c9.5,0,19,0,28.4,0c0-16.6,0-28.4,14.8-28.4c34.3,0,78.3,0,112.6,0c14.8,0,14.8,11.9,14.8,28.4c9.5,0,19,0,28.4,0
		c0-85.3-35.6-170.7-35.6-227.6s35.6-85.3,35.6-113.8c0-4.7,0-9.5,0-14.2c-30.8,0-61.6,0-92.4,0c0,4.7,0,9.5,0,14.2
		c0,9.5,0,19,0,28.4c-4.7,0-9.5,0-14.2,0c0-9.5,0-19,0-28.4C3864.7-3759.4,3864.7-3764.1,3864.7-3768.9z"/>
	<path class="st0" d="M4106.5-3768.9c-30.8,0-61.6,0-92.4,0c0,4.7,0,9.5,0,14.2c0,28.4,35.6,56.9,35.6,113.8s-35.6,142.2-35.6,227.6
		c9.5,0,19,0,28.4,0c0-16.6,0-28.4,14.8-28.4c34.3,0,78.3,0,112.6,0c14.8,0,14.8,11.9,14.8,28.4c9.5,0,19,0,28.4,0
		c0-85.3-35.6-170.7-35.6-227.6s35.6-85.3,35.6-113.8c0-4.7,0-9.5,0-14.2c-30.8,0-61.6,0-92.4,0c0,4.7,0,9.5,0,14.2
		c0,9.5,0,19,0,28.4c-4.7,0-9.5,0-14.2,0c0-9.5,0-19,0-28.4C4106.5-3759.4,4106.5-3764.1,4106.5-3768.9z"/>
	<path class="st6" d="M3924.7-3501.8c-12-52.1-24.1-104.3-36.1-156.4c-1.5-6.5-7.2-11-13.9-11c-1.9,0-3.9,0-5.8,0
		c-6.6,0-12.4,4.6-13.9,11c-12,52.1-24.1,104.3-36.1,156.4c-2.1,8.9,4.7,17.4,13.9,17.4c10.6,0,21.3,0,31.9,0c0,4.7,0,9.5,0,14.2
		c4.7,0,9.5,0,14.2,0c0-4.7,0-9.5,0-14.2c10.6,0,21.3,0,31.9,0C3920-3484.4,3926.7-3492.9,3924.7-3501.8z"/>
	<path class="st6" d="M4166.5-3501.8c-12-52.1-24.1-104.3-36.1-156.4c-1.5-6.5-7.2-11-13.9-11c-1.9,0-3.9,0-5.8,0
		c-6.6,0-12.4,4.6-13.9,11c-12,52.1-24.1,104.3-36.1,156.4c-2.1,8.9,4.7,17.4,13.9,17.4c10.6,0,21.3,0,31.9,0c0,4.7,0,9.5,0,14.2
		c4.7,0,9.5,0,14.2,0c0-4.7,0-9.5,0-14.2c10.6,0,21.3,0,31.9,0C4161.8-3484.4,4168.5-3492.9,4166.5-3501.8z"/>
</g>
<g id="Layer_04">
</g>
<g id="Make2D::visible::lines::Layer_02">
	<line class="st7" x1="-1734.5" y1="2818.4" x2="-1731.1" y2="2768.6"/>
	<line class="st7" x1="-1731.1" y1="2768.6" x2="-1744.3" y2="2774.8"/>
	<line class="st7" x1="-1747.6" y1="2824.9" x2="-1744.3" y2="2774.8"/>
	<line class="st7" x1="-1731.1" y1="2768.6" x2="-1803.6" y2="2717.3"/>
	<line class="st7" x1="-1856.3" y1="2680" x2="-2030.8" y2="2556.6"/>
	<line class="st7" x1="-1770.7" y1="2796.2" x2="-1769.8" y2="2795.7"/>
	<line class="st7" x1="-1744.3" y1="2774.8" x2="-1806" y2="2730.9"/>
	<line class="st7" x1="-1858.7" y1="2693.5" x2="-2044.9" y2="2561.1"/>
	<path class="st7" d="M-2030.8,2556.6c-9.9-7.4-14.5-21.1-9.9-32.9"/>
	<path class="st7" d="M-2038.8,2520.2c2.1-3.3,4.6-5.5,8.2-7"/>
	<line class="st7" x1="-2030.6" y1="2513.2" x2="-2044.8" y2="2517.4"/>
	<path class="st7" d="M-2044.9,2561.1c-7-5.3-11.3-13.5-11.7-22.3c-0.2-4.5,0.3-8.5,2.5-12.6c2.2-4.1,5.1-6.8,9.3-8.8"/>
	<line class="st7" x1="-2030.6" y1="2513.2" x2="-1835.1" y2="2414.8"/>
	<line class="st7" x1="-2044.8" y1="2517.4" x2="-1835.6" y2="2412"/>
	<line class="st7" x1="-1740.5" y1="2327.4" x2="-1739.6" y2="2327.5"/>
	<line class="st7" x1="-1739.6" y1="2327.5" x2="-1743" y2="2381.2"/>
	<line class="st7" x1="-1704.9" y1="2381" x2="-1718.3" y2="2384.8"/>
	<line class="st7" x1="-1743" y1="2381.2" x2="-1718.3" y2="2384.8"/>
	<line class="st7" x1="-1704.9" y1="2381" x2="-1695.7" y2="2245.9"/>
	<line class="st7" x1="-1695.7" y1="2245.9" x2="-1709.3" y2="2248.8"/>
	<line class="st7" x1="-1718.3" y1="2384.8" x2="-1709.3" y2="2248.8"/>
	<line class="st7" x1="-1695.7" y1="2245.9" x2="-1745.3" y2="2240.4"/>
	<line class="st7" x1="-1745.3" y1="2240.4" x2="-1759" y2="2243.3"/>
	<line class="st7" x1="-1709.3" y1="2248.8" x2="-1759" y2="2243.3"/>
	<line class="st7" x1="-1745.3" y1="2240.4" x2="-1743.7" y2="2215.4"/>
	<line class="st7" x1="-1743.7" y1="2215.4" x2="-1757.5" y2="2218.1"/>
	<line class="st7" x1="-1759" y1="2243.3" x2="-1757.5" y2="2218.1"/>
	<line class="st7" x1="-1743.7" y1="2215.4" x2="-2431.8" y2="2144"/>
	<line class="st7" x1="-2431.8" y1="2144" x2="-2446.8" y2="2145.9"/>
	<line class="st7" x1="-1757.5" y1="2218.1" x2="-2446.8" y2="2145.9"/>
	<line class="st7" x1="-2446.8" y1="2145.9" x2="-2446.9" y2="2166.8"/>
	<line class="st7" x1="-2446.9" y1="2163.2" x2="-2464.8" y2="2161.2"/>
	<line class="st7" x1="-2464.8" y1="2161.2" x2="-2479.9" y2="2163.1"/>
	<line class="st7" x1="-2446.9" y1="2166.8" x2="-2479.9" y2="2163.1"/>
	<line class="st7" x1="-2479.9" y1="2163.1" x2="-2479.9" y2="2168.7"/>
	<line class="st7" x1="-2448.4" y1="2233.8" x2="-2447.3" y2="2233.9"/>
	<line class="st7" x1="-2447.3" y1="2233.9" x2="-2447.5" y2="2272.1"/>
	<path class="st7" d="M-2447.5,2272.1c-0.1,3.7,1.3,7.3,3.9,10"/>
	<line class="st7" x1="-2443.6" y1="2282.1" x2="-2240.7" y2="2479"/>
	<path class="st7" d="M-2240.7,2479c6,5.5,9.4,13.3,9.4,21.5c0,4.2-0.5,7.9-2.7,11.6c-2.3,3.7-5,6.1-9.1,7.7"/>
	<line class="st7" x1="-2243.2" y1="2519.8" x2="-2481" y2="2593"/>
	<line class="st7" x1="-2481" y1="2593" x2="-2481.1" y2="2602.9"/>
	<line class="st7" x1="-2450.4" y1="2621.4" x2="-2449.4" y2="2621.7"/>
	<line class="st7" x1="-2449.4" y1="2621.7" x2="-2449.5" y2="2646.9"/>
	<line class="st7" x1="-1867" y1="2941.5" x2="-1890.6" y2="2934.5"/>
	<path class="st7" d="M-2449.5,2646.9c0,3.5,0.9,6.2,3,9c2.1,2.7,4.8,4.4,8.3,3.4"/>
	<line class="st7" x1="-2423.7" y1="2654.9" x2="-2146.9" y2="2560"/>
	<line class="st7" x1="-2438.1" y1="2659.3" x2="-2147.4" y2="2559.6"/>
	<line class="st7" x1="-2147.4" y1="2559.6" x2="-1872.6" y2="2776.8"/>
	<path class="st7" d="M-2130,2482.3c-4.1-0.7-7.3-2.2-10.3-5"/>
	<line class="st7" x1="-1838.5" y1="2926.8" x2="-1867" y2="2941.5"/>
	<path class="st7" d="M-2135.3,2484.9c-6.6,2.9-14.3,1.4-19.4-3.7"/>
	<line class="st7" x1="-2140.3" y1="2477.3" x2="-2326.1" y2="2310.8"/>
	<path class="st7" d="M-1820.9,2869.1c-10.1,5-13.2,17-14.8,26.4c-1.7,10.4-2.2,20.9-2.8,31.3"/>
	<line class="st7" x1="-2154.7" y1="2481.2" x2="-2340.9" y2="2313.6"/>
	<path class="st7" d="M-2326.1,2310.8c-5.1-5-8.1-11.7-8.5-18.9c-0.4-7.1,1.6-14.2,7.2-19.2"/>
	<path class="st7" d="M-2340.9,2313.6c-6.6-6.5-9.6-15.6-8.3-24.7c0.7-4.7,1.7-8.6,5.3-12.1c3.3-3.2,7.8-4.8,12.4-4.5"/>
	<line class="st7" x1="-2331.5" y1="2272.2" x2="-1923.6" y2="2329"/>
	<path class="st7" d="M-1923.6,2329c10.9,2.2,19.2,11,20.7,21.9c0.4,2.7,0.8,5.3,0.6,8c-0.2,2.7-0.9,5.2-2,7.8
		c-2.3,5.3-5.5,8.9-10.6,11.7"/>
	<line class="st7" x1="-1914.8" y1="2378.4" x2="-2135.3" y2="2484.9"/>
	<line class="st7" x1="-1714.6" y1="2243.8" x2="-1637.3" y2="2227.3"/>
	<line class="st7" x1="-1637.3" y1="2227.3" x2="-1661.5" y2="2224.8"/>
	<line class="st7" x1="-1739.2" y1="2241.1" x2="-1661.5" y2="2224.8"/>
	<line class="st7" x1="-1637.3" y1="2227.3" x2="-1639.2" y2="2253.3"/>
	<path class="st7" d="M-1639.2,2253.3c-1.7,24-10.2,50-17.1,72.6c-7.2,23.9-14.1,47.7-19.3,72.2c-11,52.6-12.2,95.5-10.8,148.8
		c1.3,49.8,4.5,99.5,6.2,149.3c1.6,49.9,1.7,99.6-1.9,149.5"/>
	<path class="st7" d="M-1867,2941.5c3.1-54.4,10.3-108,18.8-161.7c8.5-53.6,18.5-107,27.3-160.6c8.5-51.7,17.3-108.8,14.4-161.9
		c-1.5-27.3-6.1-53.8-12.1-80.4c-6.1-26.5-13.4-52.2-11.9-80.3"/>
	<line class="st7" x1="-1716.3" y1="2817.2" x2="-1820.9" y2="2869.1"/>
	<path class="st7" d="M-1890.6,2934.5c3-54.1,10.1-107.4,18.5-160.8c8.4-53.3,18.3-106.4,27.1-159.6c8.4-51.4,17.1-108.2,14-161
		c-1.6-27.2-6.3-53.5-12.4-79.9c-6.2-26.3-13.7-51.8-12.1-79.7"/>
	<line class="st7" x1="-1830.4" y1="2296.7" x2="-1828.8" y2="2268.2"/>
	<line class="st7" x1="-1828.8" y1="2268.2" x2="-1854" y2="2265.2"/>
	<line class="st7" x1="-1855.6" y1="2293.5" x2="-1854" y2="2265.2"/>
	<line class="st7" x1="-1828.8" y1="2268.2" x2="-1735.4" y2="2248.3"/>
	<line class="st7" x1="-1735.4" y1="2248.3" x2="-1760.2" y2="2245.5"/>
	<line class="st7" x1="-1854" y1="2265.2" x2="-1760.2" y2="2245.5"/>
	<line class="st7" x1="-1735.4" y1="2248.3" x2="-1740.7" y2="2329.7"/>
	<line class="st7" x1="-1740.7" y1="2329.7" x2="-1739.7" y2="2329.5"/>
	<path class="st7" d="M-1811.1,2760.1c-1.3,5.7-1.2,11,0.2,16.7c0.6,2.3,1.5,5.7,3.5,7.5c2.2,1.9,5.3,2.2,7.9,1"/>
	<path class="st7" d="M-1729.4,2852.4c0.9-9.7,1.2-19.4,1.1-29.2"/>
	<line class="st7" x1="-1799.5" y1="2785.2" x2="-1769.1" y2="2771.2"/>
	<line class="st7" x1="-1769.1" y1="2771.2" x2="-1792.6" y2="2765.4"/>
	<line class="st7" x1="-1811.6" y1="2774" x2="-1792.6" y2="2765.4"/>
	<line class="st7" x1="-1769.1" y1="2771.2" x2="-1770.7" y2="2796.2"/>
	<line class="st7" x1="-1743.9" y1="2759.6" x2="-1726.7" y2="2751.7"/>
	<path class="st7" d="M-1706.6,2858.4c0.6-8.3,1.3-16.6,1.3-25c0-4.2,0-8.3-1.3-12.4c-1.6-5.3-4.8-6.2-9.6-3.8"/>
	<line class="st7" x1="-1757.9" y1="2749.7" x2="-1749.9" y2="2746.1"/>
	<path class="st7" d="M-1726.7,2751.7c2.9-1.9,5.2-4.1,7.2-6.9c2-2.8,3.1-5.9,4.2-9.1c2.3-6.5,3.3-12.8,3.1-19.7"/>
	<line class="st7" x1="-1706.6" y1="2858.4" x2="-1729.4" y2="2852.4"/>
	<path class="st7" d="M-1749.9,2746.1c2.9-1.8,5.2-4,7.2-6.8c2-2.8,3.1-5.9,4.2-9c2.3-6.5,3.3-12.8,3-19.6"/>
	<line class="st7" x1="-1712.2" y1="2716" x2="-1726.3" y2="2450"/>
	<line class="st7" x1="-1682.1" y1="2845.7" x2="-1706.6" y2="2858.4"/>
	<line class="st7" x1="-1735.4" y1="2710.6" x2="-1750.4" y2="2446.1"/>
	<path class="st7" d="M-1726.3,2450c-0.2-3.9-0.8-7.6-2.6-11.2c-1.7-3.5-4.8-6.5-9.2-5.1"/>
	<path class="st7" d="M-1750.4,2446.1c-0.1-1.5-0.3-3.1-0.5-4.6"/>
	<line class="st7" x1="-1738" y1="2433.7" x2="-1743.6" y2="2435.4"/>
	<path class="st7" d="M-1743.6,2435.4c-8.8,2.7-13.4,17.6-14.6,24.6"/>
	<line class="st7" x1="-1758.2" y1="2460" x2="-1811.1" y2="2760.1"/>
	<path class="st7" d="M-2376.4,2347.3c-1,33,3.7,71.1,8.3,103.5c4.8,34.3,10.2,68.6,14.4,103"/>
	<path class="st7" d="M-2347.1,2628.6c0.7,14.6,1,29.2,0.8,43.9"/>
	<line class="st7" x1="-2346.3" y1="2672.5" x2="-2373.4" y2="2681.3"/>
	<line class="st7" x1="-2373.4" y1="2681.3" x2="-2389.2" y2="2677.1"/>
	<path class="st7" d="M-2373.4,2681.3c0.1-7.6,0.4-15.1-0.5-22.7c-0.9-8.4-3.3-16.2-13.4-13.1"/>
	<path class="st7" d="M-2389.2,2677.1c0.8-10.3,0.1-20.2-2.2-30.3"/>
	<line class="st7" x1="-2387.4" y1="2645.5" x2="-2501.8" y2="2680.9"/>
	<path class="st7" d="M-2501.8,2680.9c-10,3.1-13.2,11.3-14.7,20.4c-1.4,8.9-1.1,17.8-1.1,26.7"/>
	<line class="st7" x1="-2517.6" y1="2728" x2="-2548.4" y2="2737.9"/>
	<line class="st7" x1="-2548.4" y1="2737.9" x2="-2564.2" y2="2733.2"/>
	<path class="st7" d="M-2548.4,2737.9c-0.3-91.3,17.8-179.3,30.4-268.5c6.2-43.7,11.8-89.9,4.4-134.6c-3.7-22.5-10.6-43.7-18.7-64.9
		c-7.6-19.8-17.6-42.5-17.7-64.9"/>
	<line class="st7" x1="-1771.2" y1="2818.7" x2="-1747.6" y2="2824.9"/>
	<path class="st7" d="M-2564.2,2733.2c-0.4-90.9,17.6-178.4,30-267.3c6.1-43.5,11.7-89.5,4.1-134c-3.8-22.4-10.7-43.5-18.8-64.5
		c-7.6-19.6-17.7-42.3-17.8-64.5"/>
	<line class="st7" x1="-2550" y1="2205.1" x2="-2550.1" y2="2181.8"/>
	<line class="st7" x1="-2550.1" y1="2181.8" x2="-2566.7" y2="2179.8"/>
	<line class="st7" x1="-2566.6" y1="2202.9" x2="-2566.7" y2="2179.8"/>
	<line class="st7" x1="-2550.1" y1="2181.8" x2="-2448.1" y2="2168.5"/>
	<line class="st7" x1="-2448.1" y1="2168.5" x2="-2464.6" y2="2166.7"/>
	<line class="st7" x1="-2566.7" y1="2179.8" x2="-2464.7" y2="2166.7"/>
	<line class="st7" x1="-2448.1" y1="2168.5" x2="-2448.4" y2="2235.7"/>
	<line class="st7" x1="-2448.4" y1="2235.7" x2="-2447.3" y2="2235.5"/>
	<path class="st7" d="M-2498.1,2590.2c-1.1,5.6-0.5,10.2,1.9,15.4c2.4,5.1,7,8.2,12.7,6.5"/>
	<line class="st7" x1="-1769.6" y1="2793.9" x2="-1771.2" y2="2818.7"/>
	<line class="st7" x1="-2483.5" y1="2612.1" x2="-2450.3" y2="2602.6"/>
	<line class="st7" x1="-2450.3" y1="2602.6" x2="-2466.3" y2="2598.7"/>
	<line class="st7" x1="-2495.6" y1="2607" x2="-2466.4" y2="2598.7"/>
	<line class="st7" x1="-2450.3" y1="2602.6" x2="-2450.5" y2="2623.5"/>
	<line class="st7" x1="-2450.5" y1="2623.5" x2="-2449.4" y2="2623.2"/>
	<path class="st7" d="M-2389.5,2564.8c0-1.5-0.1-3.1-0.3-4.6"/>
	<line class="st7" x1="-1770.6" y1="2793.7" x2="-1769.6" y2="2793.9"/>
	<path class="st7" d="M-2406.8,2570.1c1.4-4.6,1.8-8.9,1.1-13.6"/>
	<line class="st7" x1="-2389.8" y1="2560.2" x2="-2424.1" y2="2336.3"/>
	<line class="st7" x1="-1734.5" y1="2818.4" x2="-1747.6" y2="2824.9"/>
	<line class="st7" x1="-2405.8" y1="2556.5" x2="-2440.4" y2="2333.6"/>
	<path class="st7" d="M-2424.1,2336.3c-0.6-3.9-1.7-7.2-4.3-10.3c-2.5-3-6-4.6-10-3.9"/>
	<path class="st7" d="M-2440.4,2333.6c-0.5-4.1-1.9-7.3-4.5-10.5"/>
	<line class="st7" x1="-2438.4" y1="2322.1" x2="-2444.5" y2="2323.3"/>
	<path class="st7" d="M-2444.5,2323.3c-8.4,3.1-14.1,10.8-14.7,19.8"/>
	<line class="st7" x1="-2459.1" y1="2343" x2="-2498.1" y2="2590.2"/>
	<line class="st7" x1="-1735.5" y1="2820.7" x2="-1732.2" y2="2770.9"/>
	<path class="st7" d="M-2040.7,2523.6c2.9-5.4,5.8-6.7,10.9-9.3c4.3-2.2,8.6-4.3,12.9-6.5c8.7-4.4,17.3-8.7,26-13.1
		c17.3-8.7,34.7-17.4,52-26.1c34.7-17.4,69.4-34.9,104-52.3"/>
	<path class="st7" d="M-1710.5,2382.6c1.4,0.2,2.7,0.4,4.1,0.6c0.1,0,0.4,0.2,0.4-0.1c0-0.2,0-0.4,0-0.6c0-0.4,0.1-0.7,0.1-1.1
		c0-0.7,0.1-1.5,0.2-2.2c0.2-3,0.4-5.9,0.6-8.9c0.4-5.8,0.8-11.6,1.2-17.5c0.8-11.6,1.6-23.3,2.4-34.9c1.6-23.3,3.1-46.5,4.7-69.8"
		/>
	<line class="st7" x1="-1746.3" y1="2240.6" x2="-1744.9" y2="2217.6"/>
	<path class="st7" d="M-2428.7,2656.6c1.4,0.5,2.5,0.5,3.9,0.1"/>
	<line class="st7" x1="-2424.7" y1="2656.7" x2="-2145.5" y2="2561.2"/>
	<rect x="-3880" y="1826.2" class="st7" width="2736" height="1389.8"/>
	<line class="st7" x1="-2425.5" y1="2655.4" x2="-2429.2" y2="2656.6"/>
	<line class="st8" x1="-1363" y1="4464.2" x2="-1359" y2="4404.2"/>
	<line class="st8" x1="-1359" y1="4404.2" x2="-1374.9" y2="4411.6"/>
	<line class="st8" x1="-1378.9" y1="4472" x2="-1374.9" y2="4411.6"/>
	<line class="st8" x1="-1363" y1="4464.2" x2="-1378.9" y2="4472"/>
	<line class="st8" x1="-1359" y1="4404.2" x2="-1446.4" y2="4342.3"/>
	<line class="st7" x1="541.7" y1="128.6" x2="577" y2="124"/>
	<line class="st7" x1="577" y1="124" x2="570.8" y2="123.4"/>
	<line class="st7" x1="535.5" y1="127.9" x2="570.8" y2="123.4"/>
	<line class="st7" x1="541.7" y1="128.6" x2="535.5" y2="127.9"/>
	<line class="st7" x1="577" y1="124" x2="576.9" y2="132.1"/>
	<path class="st7" d="M576.9,132.1c-0.1,7.6-3.2,15.9-5.5,22.9c-2.5,7.5-4.8,15-6.3,22.7c-3.3,16.6-2.4,30.5-0.4,47
		c1.9,15.6,4.5,31.2,6.5,46.8c2,15.7,3.3,31.3,3.1,47.1"/>
	<line class="st7" x1="574.2" y1="318.7" x2="564.1" y2="322"/>
	<line class="st7" x1="564.1" y1="322" x2="558.1" y2="320.4"/>
	<path class="st7" d="M564.1,322c0-2.8,0.1-5.7-0.2-8.5c-0.3-3.2-1.2-6.1-5.1-4.9"/>
	<path class="st7" d="M558.1,320.4c0.3-3.9,0.1-7.6-0.8-11.4"/>
	<line class="st7" x1="558.8" y1="308.5" x2="515.8" y2="321.8"/>
	<path class="st7" d="M515.8,321.8c-3.7,1.2-5,4.2-5.5,7.7c-0.5,3.3-0.4,6.7-0.4,10"/>
	<line class="st7" x1="509.9" y1="339.5" x2="498.3" y2="343.3"/>
	<line class="st7" x1="498.3" y1="343.3" x2="492.4" y2="341.5"/>
	<path class="st7" d="M498.3,343.3c-0.1-34.3,6.7-67.3,11.4-100.9c2.3-16.4,4.4-33.8,1.6-50.6c-1.4-8.5-4-16.4-7-24.4
		c-2.8-7.4-6.6-16-6.6-24.4"/>
	<line class="st8" x1="-1510.1" y1="4297.2" x2="-1720.6" y2="4148.3"/>
	<path class="st7" d="M492.4,341.5c-0.2-34.1,6.6-67,11.3-100.4c2.3-16.4,4.4-33.6,1.6-50.3c-1.4-8.4-4-16.3-7.1-24.2
		c-2.8-7.4-6.6-15.9-6.7-24.2"/>
	<line class="st7" x1="497.7" y1="143.1" x2="497.7" y2="134.3"/>
	<line class="st7" x1="497.7" y1="134.3" x2="491.4" y2="133.6"/>
	<line class="st7" x1="491.5" y1="142.3" x2="491.4" y2="133.6"/>
	<line class="st7" x1="497.7" y1="134.3" x2="536" y2="129.3"/>
	<line class="st7" x1="536" y1="129.3" x2="529.8" y2="128.6"/>
	<line class="st7" x1="491.4" y1="133.6" x2="529.8" y2="128.6"/>
	<line class="st7" x1="536" y1="129.3" x2="535.9" y2="154.6"/>
	<line class="st7" x1="535.9" y1="154.6" x2="541.5" y2="153.7"/>
	<line class="st7" x1="541.5" y1="153.7" x2="535.9" y2="153"/>
	<line class="st7" x1="541.5" y1="153.7" x2="541.7" y2="128.6"/>
	<line class="st7" x1="535.5" y1="129.3" x2="535.5" y2="127.9"/>
	<path class="st7" d="M517.2,287.8c-0.4,2.1-0.2,3.8,0.7,5.8c0.9,1.9,2.6,3.1,4.8,2.5"/>
	<line class="st8" x1="-1374.9" y1="4411.6" x2="-1449.3" y2="4358.7"/>
	<line class="st7" x1="522.7" y1="296" x2="535.2" y2="292.4"/>
	<line class="st7" x1="535.2" y1="292.4" x2="529.2" y2="290.9"/>
	<line class="st7" x1="518.2" y1="294.1" x2="529.2" y2="290.9"/>
	<line class="st7" x1="535.2" y1="292.4" x2="535.1" y2="300.3"/>
	<line class="st7" x1="535.1" y1="300.3" x2="540.6" y2="298.7"/>
	<line class="st7" x1="540.6" y1="298.7" x2="535.1" y2="297.3"/>
	<line class="st7" x1="540.6" y1="298.7" x2="540.6" y2="290.9"/>
	<line class="st7" x1="540.6" y1="290.9" x2="534.6" y2="289.4"/>
	<line class="st7" x1="534.6" y1="292.3" x2="534.6" y2="289.4"/>
	<line class="st7" x1="540.6" y1="290.9" x2="552.7" y2="287.4"/>
	<line class="st8" x1="-1512.9" y1="4313.5" x2="-1737.6" y2="4153.7"/>
	<line class="st7" x1="534.6" y1="289.4" x2="546.7" y2="286"/>
	<path class="st7" d="M552.7,287.4c2.3-0.9,3.4-2.4,4.4-4.6c0.9-2.1,1.2-4.1,0.9-6.4"/>
	<path class="st8" d="M-1720.6,4148.3c-12-8.9-17.5-25.5-11.9-39.7"/>
	<path class="st7" d="M546.7,286c2.3-0.9,3.4-2.4,4.4-4.5c0.9-2.1,1.2-4.1,0.9-6.3"/>
	<line class="st7" x1="557.9" y1="276.5" x2="545" y2="192.4"/>
	<path class="st8" d="M-1730.3,4104.4c2.5-4,5.5-6.6,9.9-8.4"/>
	<line class="st7" x1="551.9" y1="275.1" x2="538.9" y2="191.4"/>
	<path class="st7" d="M545,192.4c-0.2-1.5-0.6-2.7-1.6-3.9c-0.9-1.1-2.3-1.7-3.7-1.5"/>
	<path class="st7" d="M538.9,191.4c-0.2-1.5-0.7-2.8-1.7-3.9"/>
	<line class="st7" x1="539.7" y1="187" x2="537.4" y2="187.5"/>
	<path class="st7" d="M537.4,187.5c-3.1,1.2-5.3,4.1-5.5,7.4"/>
	<line class="st7" x1="531.9" y1="194.9" x2="517.2" y2="287.8"/>
	<line class="st8" x1="-1720.4" y1="4096" x2="-1737.5" y2="4101.1"/>
	<path class="st8" d="M-1737.6,4153.7c-8.5-6.4-13.7-16.2-14.1-26.9c-0.2-5.4,0.3-10.2,3-15.2c2.7-4.9,6.1-8.2,11.2-10.6"/>
	<line class="st8" x1="-1720.4" y1="4096" x2="-1484.5" y2="3977.2"/>
	<line class="st8" x1="-1737.5" y1="4101.1" x2="-1485" y2="3973.8"/>
	<line class="st8" x1="-1370.4" y1="3871.7" x2="-1369.2" y2="3871.8"/>
	<line class="st8" x1="-2196.9" y1="4267.6" x2="-2201.3" y2="4268.9"/>
	<rect x="-3952" y="3267" class="st8" width="3301.5" height="1677"/>
	<line class="st8" x1="-1369.2" y1="3871.8" x2="-1373.4" y2="3936.6"/>
	<line class="st8" x1="-1367.2" y1="4466.3" x2="-1364.3" y2="4467"/>
	<path class="st8" d="M-2200.7,4269c2,0.7,3.7,0.4,5.6-0.2c1.8-0.6,3.5-1.2,5.3-1.8c3.5-1.2,7.1-2.4,10.6-3.6
		c7.1-2.4,14.3-4.9,21.4-7.3c14.2-4.9,28.5-9.7,42.7-14.6c28.5-9.7,56.9-19.5,85.4-29.2c56.9-19.5,113.8-39,170.8-58.4"/>
	<path class="st8" d="M-1334.1,3938.3c1.2,0.2,2.5,0.4,3.7,0.5c0.3,0,0.6,0.1,0.9,0.1c0.2,0,0.8,0.3,0.8,0c0-0.7,0.1-1.3,0.1-2
		c0.2-2.7,0.4-5.3,0.5-8c0.4-5.2,0.7-10.4,1.1-15.6c0.7-10.4,1.4-20.8,2.1-31.2c1.4-20.8,2.8-41.6,4.2-62.4"/>
	<path class="st8" d="M-1732.6,4108.5c3.5-6.6,7-8.1,13.2-11.3c5.2-2.6,10.4-5.2,15.5-7.8c10.5-5.3,20.9-10.5,31.4-15.8
		c20.9-10.5,41.8-21,62.8-31.5c41.9-21,83.7-42.1,125.6-63.1"/>
	<line class="st8" x1="-1364.3" y1="4467" x2="-1360.3" y2="4406.9"/>
	<line class="st8" x1="-2237.5" y1="3890.6" x2="-2284.5" y2="4188.9"/>
	<path class="st8" d="M-2219.8,3866.8c-10.6,2-16.3,15-17.7,23.8"/>
	<line class="st8" x1="-2212.4" y1="3865.4" x2="-2219.8" y2="3866.8"/>
	<path class="st8" d="M-2214.9,3879.3c-0.6-4.9-2.3-8.8-5.5-12.7"/>
	<path class="st8" d="M-2195.2,3882.5c-0.7-4.7-2-8.7-5.2-12.4c-3-3.6-7.2-5.6-12-4.7"/>
	<line class="st8" x1="-2173.1" y1="4148.2" x2="-2214.9" y2="3879.3"/>
	<line class="st8" x1="-1327.3" y1="3936.4" x2="-1343.6" y2="3941"/>
	<line class="st8" x1="-2153.8" y1="4152.7" x2="-2195.2" y2="3882.5"/>
	<path class="st8" d="M-2174.4,4164.7c1.7-5.5,2.1-10.7,1.3-16.4"/>
	<line class="st8" x1="-1373.4" y1="3936.6" x2="-1343.6" y2="3941"/>
	<path class="st8" d="M-2153.4,4158.2c0-1.9-0.1-3.7-0.4-5.5"/>
	<line class="st8" x1="-2227" y1="4229.1" x2="-2225.7" y2="4228.7"/>
	<line class="st8" x1="-2226.9" y1="4203.9" x2="-2227" y2="4229.1"/>
	<line class="st8" x1="-2281.5" y1="4209.1" x2="-2246.3" y2="4199.1"/>
	<line class="st8" x1="-2226.9" y1="4203.9" x2="-2246.1" y2="4199.1"/>
	<line class="st8" x1="-2266.9" y1="4215.3" x2="-2226.9" y2="4203.9"/>
	<line class="st8" x1="-1327.3" y1="3936.4" x2="-1319.4" y2="3819.5"/>
	<path class="st8" d="M-2284.5,4188.9c-1.2,6.3-0.4,12.8,2.3,18.5c1.4,3,3,5.4,6.1,7c3.1,1.6,5.8,1.9,9.2,0.9"/>
	<line class="st8" x1="-2224.5" y1="3761.1" x2="-2223.2" y2="3760.9"/>
	<line class="st8" x1="-2224.4" y1="3728.8" x2="-2224.5" y2="3761.1"/>
	<line class="st8" x1="-2367.2" y1="3721.6" x2="-2367.2" y2="3711"/>
	<line class="st8" x1="-2347.2" y1="3724.1" x2="-2347.2" y2="3713.5"/>
	<path class="st8" d="M-2364.3,4361.4c-0.2-54.5,5.1-108,12.3-161.8c7.2-53.7,16.4-107,23.9-160.7c3.8-26.8,7.1-53.6,8.7-80.7
		c1.6-27.2,0.9-53.9-3.7-80.9c-4.6-27-12.9-52.4-22.7-77.8c-9.1-23.7-21.3-51-21.4-77.8"/>
	<line class="st8" x1="-1343.6" y1="3941" x2="-1335.7" y2="3823.4"/>
	<path class="st8" d="M-2345.1,4367.1c-0.2-54.7,5.3-108.6,12.5-162.6c7.2-53.9,16.5-107.5,24.1-161.4c3.8-27,7.2-53.9,8.8-81.1
		c1.6-27.4,1-54.2-3.5-81.3c-4.5-27.1-12.8-52.7-22.6-78.3c-9.1-23.8-21.3-51.3-21.3-78.3"/>
	<line class="st8" x1="-2345.1" y1="4367.1" x2="-2364.3" y2="4361.4"/>
	<line class="st8" x1="-2308.1" y1="4355.1" x2="-2345.1" y2="4367.1"/>
	<path class="st8" d="M-2289,4298.3c-12,3.7-16,13.6-17.7,24.6c-1.7,10.7-1.4,21.4-1.4,32.2"/>
	<line class="st8" x1="-2150.9" y1="4255.6" x2="-2289" y2="4298.3"/>
	<path class="st8" d="M-2153.1,4293.7c1-12.5,0.2-24.4-2.6-36.6"/>
	<path class="st8" d="M-2134.1,4298.8c0.1-9.1,0.4-18.2-0.6-27.4c-1.1-10.1-4-19.6-16.2-15.8"/>
	<line class="st8" x1="-2134.1" y1="4298.8" x2="-2153.1" y2="4293.7"/>
	<line class="st8" x1="-2101.4" y1="4288.2" x2="-2134.1" y2="4298.8"/>
	<path class="st8" d="M-2102.3,4235.2c0.9,17.6,1.2,35.3,1,52.9"/>
	<path class="st8" d="M-2137.7,3895.7c-1.2,39.8,4.5,85.8,10,124.9c5.8,41.4,12.4,82.7,17.4,124.3"/>
	<line class="st8" x1="-1374.2" y1="3736.6" x2="-1390.8" y2="3739.8"/>
	<line class="st8" x1="-1374.2" y1="3736.6" x2="-2204.4" y2="3650.5"/>
	<line class="st8" x1="-2205.8" y1="3650.6" x2="-2222.6" y2="3652.7"/>
	<line class="st8" x1="-1390.8" y1="3739.8" x2="-2222.6" y2="3652.7"/>
	<line class="st8" x1="-2224.5" y1="3758.8" x2="-2223.2" y2="3758.9"/>
	<line class="st8" x1="-2223.2" y1="3758.9" x2="-2223.4" y2="3805"/>
	<path class="st8" d="M-2223.4,3805c-0.1,4.5,1.6,8.8,4.7,12.1"/>
	<line class="st8" x1="-2218.7" y1="3817" x2="-1974" y2="4054.7"/>
	<path class="st8" d="M-1974,4054.7c7.3,6.7,11.4,16.1,11.3,26c0,5-0.6,9.5-3.3,14c-2.7,4.5-6,7.3-10.9,9.2"/>
	<line class="st8" x1="-1976.9" y1="4103.9" x2="-2263.9" y2="4192.2"/>
	<line class="st8" x1="-1391.6" y1="4031.8" x2="-1455.5" y2="4393.9"/>
	<path class="st8" d="M-1374,4002.1c-5.6,1.7-9.8,8.2-12.1,12.7c-2.8,5.4-4.5,11-5.5,17"/>
	<line class="st8" x1="-1367.4" y1="4000" x2="-1374" y2="4002.1"/>
	<path class="st8" d="M-1382.3,4015c-0.1-1.9-0.3-3.7-0.6-5.5"/>
	<path class="st8" d="M-1353.2,4019.7c-0.3-4.7-0.9-9.1-3.1-13.5c-2.1-4.3-5.8-7.8-11-6.2"/>
	<line class="st8" x1="-1364.2" y1="4334.2" x2="-1382.3" y2="4015"/>
	<line class="st8" x1="-2263.9" y1="4192.2" x2="-2264" y2="4204.2"/>
	<line class="st8" x1="-1336.2" y1="4340.6" x2="-1353.2" y2="4019.7"/>
	<path class="st8" d="M-1381.7,4377c3.5-2.2,6.3-4.9,8.7-8.2c2.4-3.4,3.8-7.1,5.1-10.9c2.8-7.8,4-15.4,3.6-23.7"/>
	<line class="st8" x1="-2227" y1="4226.5" x2="-2225.7" y2="4226.9"/>
	<path class="st8" d="M-1353.6,4383.7c3.5-2.2,6.3-4.9,8.7-8.3c2.4-3.4,3.7-7.1,5.1-10.9c2.8-7.8,4-15.5,3.7-23.8"/>
	<line class="st8" x1="-1391.3" y1="4381.3" x2="-1381.7" y2="4377"/>
	<line class="st8" x1="-2225.7" y1="4226.9" x2="-2225.9" y2="4257.3"/>
	<line class="st8" x1="-1374.4" y1="4393.2" x2="-1353.6" y2="4383.7"/>
	<line class="st8" x1="-1406.8" y1="4437.4" x2="-1405.6" y2="4436.9"/>
	<line class="st8" x1="-1404.9" y1="4407.3" x2="-1406.8" y2="4437.4"/>
	<line class="st8" x1="-1456.1" y1="4410.7" x2="-1433.2" y2="4400.3"/>
	<line class="st8" x1="-1404.9" y1="4407.3" x2="-1433.2" y2="4400.3"/>
	<line class="st8" x1="-1441.5" y1="4424.2" x2="-1404.9" y2="4407.3"/>
	<path class="st8" d="M-2225.9,4257.3c0,4.2,1.1,7.5,3.7,10.8c2.5,3.3,5.7,5.3,10.1,4.1"/>
	<path class="st8" d="M-1455.5,4393.9c-1.5,6.9-1.5,13.2,0.2,20.1c0.7,2.8,1.8,6.9,4.2,9c2.7,2.2,6.4,2.7,9.5,1.2"/>
	<line class="st8" x1="-1370.6" y1="3874.5" x2="-1369.3" y2="3874.2"/>
	<line class="st8" x1="-1367.7" y1="3830.9" x2="-1370.6" y2="3874.5"/>
	<line class="st8" x1="-1509.2" y1="3830.8" x2="-1508.5" y2="3817.9"/>
	<line class="st8" x1="-1478.8" y1="3834.7" x2="-1478.1" y2="3821.7"/>
	<path class="st8" d="M-1551.4,4604.3c3.6-65.2,12.2-129.6,22.3-194c10.1-64.3,22.1-128.4,32.6-192.6c5.3-32.1,10.2-64.3,13.7-96.7
		c3.5-32.5,5.1-64.8,3.2-97.5c-1.9-33.7-7.3-63.7-15-96.4c-7.2-30.9-16.4-63.4-14.6-96.2"/>
	<line class="st8" x1="-2194.7" y1="4266.9" x2="-1860.8" y2="4152.5"/>
	<path class="st8" d="M-1523,4612.8c3.7-65.6,12.4-130.3,22.7-195.1c10.2-64.7,22.3-129.1,33-193.8c5.3-32.3,10.3-64.7,13.9-97.3
		c3.6-32.7,5.3-65.1,3.5-98.1c-1.8-33.9-7.1-64.1-14.6-97c-7.1-31.1-16.2-63.9-14.3-96.8"/>
	<line class="st8" x1="-1523" y1="4612.8" x2="-1551.4" y2="4604.3"/>
	<line class="st8" x1="-1488.6" y1="4595" x2="-1523" y2="4612.8"/>
	<path class="st8" d="M-1467.4,4525.4c-12.2,6.1-15.9,20.5-17.8,31.8c-2.1,12.6-2.6,25.2-3.4,37.8"/>
	<line class="st8" x1="-1341.1" y1="4462.8" x2="-1467.4" y2="4525.4"/>
	<path class="st8" d="M-1356.9,4505.2c1.1-11.7,1.5-23.4,1.3-35.2"/>
	<path class="st8" d="M-1329.4,4512.5c0.7-10,1.5-20.1,1.5-30.2c0-5.1,0-10-1.6-15c-2-6.4-5.8-7.5-11.6-4.6"/>
	<line class="st8" x1="-1329.4" y1="4512.5" x2="-1356.9" y2="4505.2"/>
	<line class="st8" x1="-1299.9" y1="4497.2" x2="-1329.4" y2="4512.5"/>
	<path class="st8" d="M-1250.9,3803.4c-5.1,27.6-15.2,57.6-23.2,84.3c-8.3,28-15.7,56.2-21,85c-11.2,60.7-11.5,113.4-9.7,174.5
		c1.8,58.3,5.5,116.6,7.3,174.9c1.8,58.5,1.8,116.7-2.5,175.1"/>
	<line class="st8" x1="-1580.7" y1="3933.3" x2="-1846.8" y2="4061.8"/>
	<path class="st8" d="M-1591.2,3873.7c13.1,2.6,23.1,13.2,25,26.5c0.2,1.6,0.6,3.1,0.7,4.7c0.1,1.7,0.1,3.3,0,4.9
		c-0.3,3.3-1.1,6.3-2.4,9.4c-2.6,6-7.1,11-12.8,14.2"/>
	<line class="st8" x1="-2083.5" y1="3805.2" x2="-1591.2" y2="3873.7"/>
	<path class="st8" d="M-2094.8,3855.1c-7.9-7.8-11.6-18.9-10-29.8c1.6-10.7,8.9-21.8,21.3-20.1"/>
	<path class="st8" d="M-2077,3851.8c-6.2-6-9.8-14.2-10.3-22.8c-0.5-8.6,1.9-17.1,8.7-23.1"/>
	<line class="st8" x1="-1870.1" y1="4057.3" x2="-2094.8" y2="3855.1"/>
	<line class="st8" x1="-2212.1" y1="4272.3" x2="-1861.3" y2="4152"/>
	<line class="st8" x1="-1852.8" y1="4052.6" x2="-2077" y2="3851.8"/>
	<path class="st8" d="M-1846.8,4061.8c-8,3.5-17.3,1.7-23.4-4.5"/>
	<line class="st8" x1="-1861.3" y1="4152" x2="-1529.7" y2="4414.1"/>
	<path class="st8" d="M-1840.3,4058.7c-5-0.8-8.8-2.7-12.5-6.1"/>
	<line class="st8" x1="-1407.4" y1="4464.6" x2="-1378.9" y2="4472"/>
	<line class="st8" x1="-1405.5" y1="4434.7" x2="-1407.4" y2="4464.6"/>
	<line class="st8" x1="-1406.6" y1="4434.4" x2="-1405.5" y2="4434.7"/>
	<line class="st7" x1="-1737.9" y1="2820.1" x2="-1735.5" y2="2820.7"/>
</g>
<g id="Make2D::visible::tangents::Layer_02">
	<line class="st8" x1="-2077" y1="3851.8" x2="-2094.8" y2="3855.1"/>
	<line class="st8" x1="-1478.8" y1="3834.7" x2="-1509.2" y2="3830.8"/>
	<line class="st8" x1="-1441.5" y1="4424.2" x2="-1452.2" y2="4421.5"/>
	<line class="st8" x1="-2194.7" y1="4266.9" x2="-2196.9" y2="4267.6"/>
	<line class="st8" x1="-1353.6" y1="4383.7" x2="-1381.7" y2="4377"/>
	<line class="st8" x1="-1336.2" y1="4340.6" x2="-1364.2" y2="4334.2"/>
	<line class="st8" x1="-1353.2" y1="4019.7" x2="-1382.3" y2="4015"/>
	<line class="st7" x1="-2030.8" y1="2556.6" x2="-2044.9" y2="2561.1"/>
	<line class="st7" x1="-2423.7" y1="2654.9" x2="-2425.5" y2="2655.4"/>
	<line class="st7" x1="-2140.3" y1="2477.3" x2="-2154.7" y2="2481.2"/>
	<line class="st7" x1="-2326.1" y1="2310.8" x2="-2340.9" y2="2313.6"/>
	<line class="st7" x1="-1830.4" y1="2296.7" x2="-1855.6" y2="2293.5"/>
	<line class="st7" x1="-1799.5" y1="2785.2" x2="-1808.3" y2="2783"/>
	<line class="st7" x1="-1726.7" y1="2751.7" x2="-1749.9" y2="2746.1"/>
	<line class="st7" x1="-1712.2" y1="2716" x2="-1735.4" y2="2710.6"/>
	<line class="st7" x1="-1726.3" y1="2450" x2="-1750.4" y2="2446.1"/>
	<line class="st7" x1="-2550" y1="2205.1" x2="-2566.6" y2="2202.9"/>
	<line class="st8" x1="-2347.2" y1="3724.1" x2="-2367.2" y2="3721.6"/>
	<line class="st8" x1="-2266.9" y1="4215.3" x2="-2278.9" y2="4212.3"/>
	<line class="st8" x1="-2153.8" y1="4152.7" x2="-2173.1" y2="4148.2"/>
	<line class="st8" x1="-2195.2" y1="3882.5" x2="-2214.9" y2="3879.3"/>
	<line class="st7" x1="-2483.5" y1="2612.1" x2="-2493.5" y2="2609.6"/>
	<line class="st7" x1="545" y1="192.4" x2="538.9" y2="191.4"/>
	<line class="st7" x1="557.9" y1="276.5" x2="551.9" y2="275.1"/>
	<line class="st7" x1="552.7" y1="287.4" x2="546.7" y2="286"/>
	<line class="st7" x1="522.7" y1="296" x2="519" y2="295.1"/>
	<line class="st8" x1="-1720.6" y1="4148.3" x2="-1737.6" y2="4153.7"/>
	<line class="st7" x1="497.7" y1="143.1" x2="491.5" y2="142.3"/>
	<line class="st7" x1="-2424.1" y1="2336.3" x2="-2440.4" y2="2333.6"/>
	<line class="st7" x1="-2389.8" y1="2560.2" x2="-2405.8" y2="2556.5"/>
	<line class="st8" x1="-1852.8" y1="4052.6" x2="-1870.1" y2="4057.3"/>
	<line class="st7" x1="947.4" y1="1722.6" x2="979.1" y2="1715.8"/>
	<line class="st7" x1="979.1" y1="1715.8" x2="970" y2="1714.9"/>
	<line class="st7" x1="938.1" y1="1721.6" x2="970" y2="1714.9"/>
	<line class="st7" x1="947.4" y1="1722.6" x2="938.1" y2="1721.6"/>
	<line class="st7" x1="979.1" y1="1715.8" x2="978.4" y2="1725.6"/>
	<path class="st7" d="M978.4,1725.6c-0.7,9-3.8,18.8-6.4,27.3c-2.7,9-5.3,17.9-7.2,27.1c-4.1,19.8-4.6,35.9-4.1,55.9
		c0.5,18.7,1.7,37.4,2.3,56.1c0.6,18.8,0.6,37.4-0.7,56.2"/>
	<line class="st7" x1="962.3" y1="1948.2" x2="953.1" y2="1952.9"/>
	<line class="st7" x1="953.1" y1="1952.9" x2="944.5" y2="1950.7"/>
	<path class="st7" d="M953.1,1952.9c0.2-3.1,0.5-6.2,0.5-9.4c0-1.6,0-3.1-0.5-4.7c-0.6-2-1.8-2.3-3.6-1.4"/>
	<path class="st7" d="M944.5,1950.7c0.3-3.7,0.5-7.3,0.4-11"/>
	<line class="st7" x1="949.4" y1="1937.5" x2="910.1" y2="1956.9"/>
	<path class="st7" d="M910.1,1956.9c-3.8,1.9-5,6.4-5.6,9.9c-0.7,3.9-0.8,7.8-1.1,11.8"/>
	<line class="st7" x1="903.5" y1="1978.6" x2="892.8" y2="1984.2"/>
	<line class="st7" x1="892.8" y1="1984.2" x2="883.9" y2="1981.5"/>
	<path class="st7" d="M892.8,1984.2c1.2-20.4,3.9-40.6,7.1-60.8c3.2-20.1,6.9-40.2,10.3-60.3c3.2-19.4,6.5-40.9,5.4-60.8
		c-0.6-10.3-2.3-20.2-4.6-30.2c-2.3-10-5.1-19.6-4.5-30.2"/>
	<path class="st7" d="M883.9,1981.5c1.1-20.3,3.8-40.4,6.9-60.4c3.2-20,6.9-40,10.2-60c3.2-19.3,6.4-40.6,5.3-60.5
		c-0.6-10.2-2.3-20.1-4.7-30c-2.3-9.9-5.1-19.4-4.6-30"/>
	<line class="st7" x1="906.6" y1="1741.9" x2="907.2" y2="1731.2"/>
	<line class="st7" x1="907.2" y1="1731.2" x2="897.7" y2="1730"/>
	<line class="st7" x1="897.1" y1="1740.7" x2="897.7" y2="1730"/>
	<line class="st7" x1="907.2" y1="1731.2" x2="942.2" y2="1723.7"/>
	<line class="st7" x1="942.2" y1="1723.7" x2="932.9" y2="1722.7"/>
	<line class="st7" x1="897.7" y1="1730" x2="932.9" y2="1722.7"/>
	<line class="st7" x1="942.2" y1="1723.7" x2="940.3" y2="1754.3"/>
	<line class="st7" x1="940.3" y1="1754.3" x2="945.4" y2="1753"/>
	<line class="st7" x1="945.4" y1="1753" x2="940.4" y2="1752.3"/>
	<line class="st7" x1="945.4" y1="1753" x2="947.4" y2="1722.6"/>
	<line class="st7" x1="938" y1="1723.2" x2="938.1" y2="1721.6"/>
	<path class="st7" d="M913.8,1916c-0.5,2.1-0.5,4.1,0.1,6.3c0.2,0.9,0.5,2.2,1.3,2.8c0.8,0.7,2,0.8,3,0.4"/>
	<line class="st7" x1="918.2" y1="1925.4" x2="929.6" y2="1920.2"/>
	<line class="st7" x1="929.6" y1="1920.2" x2="920.8" y2="1918"/>
	<line class="st7" x1="913.6" y1="1921.2" x2="920.8" y2="1918"/>
	<line class="st7" x1="929.6" y1="1920.2" x2="929" y2="1929.5"/>
	<line class="st7" x1="929" y1="1929.5" x2="934" y2="1927.2"/>
	<line class="st7" x1="934" y1="1927.2" x2="929.2" y2="1926"/>
	<line class="st7" x1="934" y1="1927.2" x2="934.6" y2="1917.9"/>
	<line class="st7" x1="934.6" y1="1917.9" x2="925.8" y2="1915.7"/>
	<line class="st7" x1="925.6" y1="1919.2" x2="925.8" y2="1915.7"/>
	<line class="st7" x1="934.6" y1="1917.9" x2="945.5" y2="1912.8"/>
	<line class="st7" x1="925.8" y1="1915.7" x2="936.8" y2="1910.7"/>
	<path class="st7" d="M945.5,1912.8c2.4-1.5,3.4-3.5,4.3-6c0.9-2.4,1.2-4.8,1.1-7.4"/>
	<path class="st7" d="M936.8,1910.7c2.4-1.5,3.4-3.5,4.3-5.9c0.9-2.4,1.2-4.8,1.1-7.4"/>
	<line class="st7" x1="951" y1="1899.4" x2="945.7" y2="1799.5"/>
	<line class="st7" x1="942.2" y1="1897.4" x2="936.6" y2="1798"/>
	<path class="st7" d="M945.7,1799.5c-0.1-1.5-0.3-2.8-1-4.2c-0.7-1.3-1.8-2.4-3.4-1.9"/>
	<path class="st7" d="M936.6,1798c0-0.6-0.1-1.2-0.2-1.7"/>
	<line class="st7" x1="941.3" y1="1793.4" x2="939.2" y2="1794"/>
	<path class="st7" d="M939.2,1794c-3.3,1-5,6.6-5.5,9.2"/>
	<line class="st7" x1="933.7" y1="1803.2" x2="913.8" y2="1916"/>
	<line class="st7" x1="680.2" y1="1693" x2="715.5" y2="1688.4"/>
	<line class="st7" x1="715.5" y1="1688.4" x2="709.3" y2="1687.8"/>
	<line class="st7" x1="673.9" y1="1692.3" x2="709.3" y2="1687.8"/>
	<line class="st7" x1="680.2" y1="1693" x2="673.9" y2="1692.3"/>
	<line class="st7" x1="715.5" y1="1688.4" x2="715.4" y2="1696.5"/>
	<path class="st7" d="M715.4,1696.5c-0.1,7.6-3.2,15.9-5.5,22.9c-2.5,7.5-4.8,15-6.3,22.7c-3.3,16.6-2.4,30.5-0.4,47
		c1.9,15.6,4.5,31.2,6.5,46.8c2,15.7,3.3,31.3,3.1,47.1"/>
	<line class="st7" x1="712.7" y1="1883.1" x2="702.5" y2="1886.4"/>
	<line class="st7" x1="702.5" y1="1886.4" x2="696.6" y2="1884.8"/>
	<path class="st7" d="M702.5,1886.4c0-2.8,0.1-5.7-0.2-8.5c-0.3-3.2-1.2-6.1-5.1-4.9"/>
	<path class="st7" d="M696.6,1884.8c0.3-3.9,0.1-7.6-0.8-11.4"/>
	<line class="st7" x1="697.3" y1="1873" x2="654.3" y2="1886.2"/>
	<path class="st7" d="M654.3,1886.2c-3.7,1.2-5,4.2-5.5,7.7c-0.5,3.3-0.4,6.7-0.4,10"/>
	<line class="st7" x1="648.4" y1="1903.9" x2="636.8" y2="1907.7"/>
	<line class="st7" x1="636.8" y1="1907.7" x2="630.9" y2="1905.9"/>
	<path class="st7" d="M636.8,1907.7c-0.1-34.3,6.7-67.3,11.4-100.9c2.3-16.4,4.4-33.8,1.6-50.6c-1.4-8.5-4-16.4-7-24.4
		c-2.8-7.4-6.6-16-6.6-24.4"/>
	<path class="st7" d="M630.9,1905.9c-0.2-34.1,6.6-67,11.3-100.4c2.3-16.4,4.4-33.6,1.6-50.3c-1.4-8.4-4-16.3-7.1-24.2
		c-2.8-7.4-6.6-15.9-6.7-24.2"/>
	<line class="st7" x1="636.2" y1="1707.5" x2="636.2" y2="1698.7"/>
	<line class="st7" x1="636.2" y1="1698.7" x2="629.9" y2="1698"/>
	<line class="st7" x1="630" y1="1706.7" x2="629.9" y2="1698"/>
	<line class="st7" x1="636.2" y1="1698.7" x2="674.5" y2="1693.7"/>
	<line class="st7" x1="674.5" y1="1693.7" x2="668.3" y2="1693"/>
	<line class="st7" x1="629.9" y1="1698" x2="668.3" y2="1693"/>
	<line class="st7" x1="674.5" y1="1693.7" x2="674.4" y2="1719"/>
	<line class="st7" x1="674.4" y1="1719" x2="680" y2="1718.1"/>
	<line class="st7" x1="680" y1="1718.1" x2="674.4" y2="1717.4"/>
	<line class="st7" x1="680" y1="1718.1" x2="680.2" y2="1693"/>
	<line class="st7" x1="673.9" y1="1693.7" x2="673.9" y2="1692.3"/>
	<path class="st7" d="M655.7,1852.2c-0.4,2.1-0.2,3.8,0.7,5.8c0.9,1.9,2.6,3.1,4.8,2.5"/>
	<line class="st7" x1="661.2" y1="1860.4" x2="673.6" y2="1856.8"/>
	<line class="st7" x1="673.6" y1="1856.8" x2="667.6" y2="1855.4"/>
	<line class="st7" x1="656.6" y1="1858.5" x2="667.6" y2="1855.4"/>
	<line class="st7" x1="673.6" y1="1856.8" x2="673.6" y2="1864.7"/>
	<line class="st7" x1="673.6" y1="1864.7" x2="679.1" y2="1863.1"/>
	<line class="st7" x1="679.1" y1="1863.1" x2="673.6" y2="1861.7"/>
	<line class="st7" x1="679.1" y1="1863.1" x2="679.1" y2="1855.3"/>
	<line class="st7" x1="679.1" y1="1855.3" x2="673.1" y2="1853.8"/>
	<line class="st7" x1="673.1" y1="1856.7" x2="673.1" y2="1853.8"/>
	<line class="st7" x1="679.1" y1="1855.3" x2="691.2" y2="1851.8"/>
	<line class="st7" x1="673.1" y1="1853.8" x2="685.2" y2="1850.4"/>
	<path class="st7" d="M691.2,1851.8c2.3-0.9,3.4-2.4,4.4-4.6c0.9-2.1,1.2-4.1,0.9-6.4"/>
	<path class="st7" d="M685.2,1850.4c2.3-0.9,3.4-2.4,4.4-4.5c0.9-2.1,1.2-4.1,0.9-6.3"/>
	<line class="st7" x1="696.4" y1="1840.9" x2="683.5" y2="1756.8"/>
	<line class="st7" x1="690.4" y1="1839.5" x2="677.4" y2="1755.8"/>
	<path class="st7" d="M683.5,1756.8c-0.2-1.5-0.6-2.7-1.6-3.9c-0.9-1.1-2.3-1.7-3.7-1.5"/>
	<path class="st7" d="M677.4,1755.8c-0.2-1.5-0.7-2.8-1.7-3.9"/>
	<line class="st7" x1="678.1" y1="1751.5" x2="675.9" y2="1751.9"/>
	<path class="st7" d="M675.9,1751.9c-3.1,1.2-5.3,4.1-5.5,7.4"/>
	<line class="st7" x1="670.3" y1="1759.3" x2="655.7" y2="1852.2"/>
	<rect x="138.5" y="1565.1" class="st7" width="1024" height="522.2"/>
	<line class="st7" x1="683.5" y1="1756.8" x2="677.4" y2="1755.8"/>
	<line class="st7" x1="696.4" y1="1840.9" x2="690.4" y2="1839.5"/>
	<line class="st7" x1="691.2" y1="1851.8" x2="685.2" y2="1850.4"/>
	<line class="st7" x1="661.2" y1="1860.4" x2="657.4" y2="1859.5"/>
	<line class="st7" x1="636.2" y1="1707.5" x2="630" y2="1706.7"/>
	<line class="st7" x1="945.7" y1="1799.5" x2="936.6" y2="1798"/>
	<line class="st7" x1="951" y1="1899.4" x2="942.2" y2="1897.4"/>
	<line class="st7" x1="945.5" y1="1912.8" x2="936.8" y2="1910.7"/>
	<line class="st7" x1="918.2" y1="1925.4" x2="914.9" y2="1924.6"/>
	<line class="st7" x1="906.6" y1="1741.9" x2="897.1" y2="1740.7"/>
</g>
<g id="Make2D::visible::lines::Layer_07">
	<line class="st5" x1="-2205.8" y1="3650.6" x2="-1375.4" y2="3736.8"/>
	<line class="st5" x1="-1057.3" y1="3726.5" x2="-2165.1" y2="3621.1"/>
	<line class="st5" x1="-1377.9" y1="3797.3" x2="-1057.3" y2="3726.5"/>
	<line class="st5" x1="-1060.1" y1="3758.5" x2="-1057.3" y2="3726.5"/>
	<line class="st5" x1="-1380.2" y1="3833.9" x2="-1060.1" y2="3758.5"/>
	<line class="st5" x1="-2530.9" y1="3662.8" x2="-1377.9" y2="3797.3"/>
	<line class="st5" x1="-1380.2" y1="3833.9" x2="-1377.9" y2="3797.3"/>
	<line class="st5" x1="-2530.5" y1="3690.7" x2="-1380.2" y2="3833.9"/>
	<line class="st5" x1="-2165.1" y1="3621.1" x2="-2530.9" y2="3662.8"/>
	<line class="st5" x1="-2530.5" y1="3690.7" x2="-2530.9" y2="3662.8"/>
	<polyline class="st5" points="-2522.2,3691.7 -2531.9,3692.9 -1381.7,3836.8 -1061.3,3761.1 -1068.1,3760.4 	"/>
</g>
</svg>
