<?xml version="1.0" encoding="utf-8"?>
<!-- Generator: Adobe Illustrator 19.0.0, SVG Export Plug-In . SVG Version: 6.00 Build 0)  -->
<svg version="1.1" xmlns="http://www.w3.org/2000/svg" xmlns:xlink="http://www.w3.org/1999/xlink" x="0px" y="0px"
	 viewBox="0 0 1024 768" style="enable-background:new 0 0 1024 768;" xml:space="preserve">
<style type="text/css">
	.st0{fill:#69B47A;stroke:#69B47A;stroke-linecap:round;stroke-linejoin:round;}
	.st1{fill:#FFFFFF;}
	.st2{fill:#6AB57B;stroke:#6AB57B;stroke-linecap:round;stroke-linejoin:round;}
	.st3{fill:#FFFFFF;stroke:#FFFFFF;stroke-miterlimit:10;}
	.st4{fill:#69B47A;stroke:#000000;stroke-linecap:round;stroke-linejoin:round;}
	.st5{fill:none;stroke:#000000;stroke-linecap:round;stroke-linejoin:round;}
	.st6{fill:#FFFFFF;stroke:#FFFFFF;stroke-linecap:round;stroke-linejoin:round;}
	.st7{fill:none;stroke:#AADEE8;stroke-linecap:round;stroke-linejoin:round;}
	.st8{fill:none;stroke:#793C71;stroke-linecap:round;stroke-linejoin:round;}
</style>
<g id="Default">
	<path class="st0" d="M4753.6-3697.7c-8.8,0-17.6,0-26.5,0c-0.4,0-0.8,0-1.2,0c-0.2,0-0.4,0-0.6,0c-0.1,0-0.1,0-0.1,0.1
		c0,0,0,0.1-0.1,0.1c0,0.1-0.1,0.2-0.1,0.3c-0.3,0.8-0.7,1.6-1,2.3c-0.7,1.6-1.3,3.1-2,4.7c-1.3,3.1-2.6,6.2-3.9,9.4
		c-2.6,6.2-5.3,12.5-7.9,18.7c-10.5,25-21,50-31.6,74.9c-10.5,25-21,50-31.6,74.9c-1.3,3.1-2.6,6.2-3.9,9.4
		c-0.6,1.5-1.2,3.1-2.1,4.6c-0.9,1.5-2,2.7-3.4,3.8c-5.6,4.4-13.6,4.1-18.7-0.8c-0.6-0.6-1.2-1.2-1.7-1.9c-0.5-0.7-0.9-1.4-1.3-2.1
		c-0.9-1.4-1.8-2.9-2.7-4.3c-1.8-2.9-3.5-5.8-5.3-8.7c-3.5-5.8-7.1-11.6-10.6-17.3c-27.1-44.2-54.2-88.4-81.3-132.6
		c-0.4-0.7-0.8-1.4-1.3-2.1c-0.4-0.7-0.8-1.4-1.3-2c-1-1.3-2.4-2.3-4-2.7c-0.8-0.2-1.6-0.2-2.4-0.2c-0.8,0-1.6,0-2.4,0
		c-1.6,0-3.2,0-4.9,0c-3.2,0-6.5,0-9.7,0c-1.6,0-3.2,0-4.9,0c-0.4,0-0.8,0-1.2,0c-0.2,0-0.4,0-0.6,0c-0.1,0-0.1,0-0.2,0
		c-0.1,0,0-0.1,0-0.1c0-0.1,0-0.2,0-0.3c0-0.8,0-1.6,0-2.4c0-3.2,0-6.5,0-9.7c0-0.4,0-0.8,0-1.2c0-0.1,0-0.2,0-0.3c0,0,0-0.1,0-0.1
		c0.1,0,0.1,0,0.2,0c0.2,0,0.4,0,0.6,0c0.8,0,1.6,0,2.4,0c1.6,0,3.2,0,4.9,0c6.5,0,13,0,19.4,0c0.2,0,0.4,0,0.6,0c0.1,0,0.2,0,0.3,0
		c0,0,0,0,0-0.1c0,0,0-0.1,0-0.1c0-0.1,0-0.1,0-0.2c0-0.4,0-0.8,0-1.2c0-0.8,0-1.6,0-2.4c0-1.6,0-3.2,0-4.9s0-3.2,0-4.9
		c0-0.1,0-0.2,0-0.3c0-0.1,0.1-0.3,0-0.3c-0.2,0-0.4,0-0.6,0c-0.4,0-0.8,0-1.2,0c-0.8,0-1.6,0-2.4,0c-6.5,0-13,0-19.4,0
		c-13,0-25.9,0-38.9,0c-1.6,0-3.2,0-4.9,0c-0.8,0-1.6,0-2.4,0c-0.2,0-0.4,0-0.6,0c-0.1,0-0.2,0-0.3,0c-0.1,0-0.1,0-0.2,0
		c0,0-0.1,0-0.1,0c0,0.4,0,0.8,0,1.2c0,3.2,0,6.5,0,9.7c0,3.2,0,6.5,0,9.7c0,1.6,0,3.2,0,4.9c0,0.8,0,1.6,0,2.4c0,0.1,0,0.2,0,0.3
		c0,0.1,0,0.1,0,0.2c0,0.1-0.1,0-0.1,0c-0.2,0-0.4,0-0.6,0c-0.4,0-0.8,0-1.2,0c-3.2,0-6.5,0-9.7,0c-0.4,0-0.8,0-1.2,0
		c-0.1,0-0.1,0-0.2,0c0,0-0.1,0-0.1,0c0,0-0.1,0-0.1,0c0,0.1,0,0.2,0,0.3c0,0.2,0,0.4,0,0.6c0,0.8,0,1.6,0,2.4c0,1.6,0,3.2,0,4.9
		c0,6.5,0,13,0,19.4c0,25.9,0,51.8,0,77.8c0,51.8,0,103.7,0,155.5c0,51.8,0,103.7,0,155.5c0,13,0,25.9,0,38.9c0,6.5,0,13,0,19.4
		c0,1.6,0,3.2,0,4.9c0,0.8,0,1.6,0,2.4c0,0.4,0,0.8,0,1.2c0,0.1,0,0.1,0,0.2c0,0,0,0.1,0,0.1c0.1,0,0.2,0,0.3,0c0.2,0,0.4,0,0.6,0
		c3.2,0,6.5,0,9.7,0c0.8,0,1.6,0,2.4,0c0,0,0.1,0,0.1,0c0,0,0,0,0,0.1c0,0.1,0,0.1,0,0.2c0,0.1,0,0.2,0,0.3c0,0.2,0,0.4,0,0.6
		c0,0.4,0,0.8,0,1.2c0,1.6,0,3.2,0,4.9c0,3.2,0,6.5,0,9.7c0,3.2,0,6.5,0,9.7c0,0.4,0,0.8,0,1.2c0,0.1,0,0.2,0,0.3c0,0.1,0,0.1,0,0.2
		c0,0-0.1,0.1,0,0.1c0.2,0,0.4,0,0.6,0c0.8,0,1.6,0,2.4,0c1.6,0,3.2,0,4.9,0c13,0,25.9,0,38.9,0c6.5,0,13,0,19.4,0
		c1.6,0,3.2,0,4.9,0c0.1,0,0-0.1,0-0.1s0-0.1,0-0.1c0-0.1,0-0.1,0-0.2c0-0.1,0-0.2,0-0.3c0-0.2,0-0.4,0-0.6c0-0.4,0-0.8,0-1.2
		c0-0.8,0-1.6,0-2.4c0-1.6,0-3.2,0-4.9c0-0.8,0-1.6,0-2.4c0-0.4,0-0.8,0-1.2c0-0.2,0-0.4,0-0.6c0-0.1,0-0.1,0-0.2c0,0,0-0.1-0.1-0.1
		c-0.1,0-0.2,0-0.3,0c-6.5,0-13,0-19.4,0c-1.6,0-3.2,0-4.9,0c-0.8,0-1.6,0-2.4,0c-0.4,0-0.8,0-1.2,0c0,0-0.1,0-0.1,0
		c0-0.1,0-0.1,0-0.2c0-0.1,0-0.2,0-0.3c0-0.2,0-0.4,0-0.6c0-3.2,0-6.5,0-9.7c0-0.8,0-1.6,0-2.4c0-0.2,0-0.4,0-0.6c0-0.1,0-0.2,0-0.3
		c0-0.2,0.1-0.1,0.2-0.1c0.4,0,0.8,0,1.2,0c1.6,0,3.2,0,4.9,0c3.2,0,6.5,0,9.7,0c1.6,0,3.2,0,4.9,0c0.8,0,1.6,0,2.4,0
		c0.8,0,1.6,0,2.4-0.1c1.6-0.3,3.1-1.1,4.2-2.4c0.5-0.6,2.2-3.4,2.6-4.1c6.8-11.1,13.5-22.1,20.3-33.2
		c13.5-22.1,27.1-44.2,40.6-66.3c6.8-11.1,13.5-22.1,20.3-33.2c3.4-5.5,6.8-11.1,10.2-16.6c1.7-2.8,3.4-5.5,5.1-8.3
		c0.8-1.4,1.7-2.8,2.5-4.1c0.4-0.7,0.8-1.4,1.3-2.1c0.4-0.7,0.8-1.4,1.3-2c4.5-5.9,12.8-7.4,19-3.4c1.6,1,2.8,2.2,3.9,3.7
		c1,1.4,1.7,3,2.3,4.7c1.4,3.3,2.7,6.5,4.1,9.8c5.5,13,11,26.1,16.5,39.1c11,26.1,22,52.1,32.9,78.2c5.5,13,11,26.1,16.5,39.1
		c2.7,6.5,5.5,13,8.2,19.6c1.4,3.3,2.7,6.5,4.1,9.8c0,0.1,0,0.1,0.1,0.2c0,0.1,0,0.1,0.1,0.1c0.1,0,0.2,0,0.3,0c0.2,0,0.4,0,0.7,0
		c0.4,0,0.9,0,1.3,0c0.8,0,1.7,0,2.5,0c1.6,0,3.1,0,4.7,0c4.8,0,9.5,0,14.3,0c1.5,0,3,0,4.5,0c0,0,0.1,0,0.1,0
		c0.1,0,0.1-0.1,0.1-0.2c0-0.2,0-0.4,0-0.7c0-0.4,0-0.9,0-1.3c0-0.9,0-1.8,0-2.7c0-1.8,0-3.5,0-5.3c0-0.9,0-1.8,0-2.7
		c0-0.4,0-0.9,0-1.3c0,0,0.1-0.1,0-0.1c-0.2,0-0.5,0-0.7,0c-1.5,0-2.9,0-4.4,0c-2.8,0-5.6,0-8.4,0c-0.2,0-0.4,0-0.7,0
		c0,0-0.1,0-0.1,0c0,0,0-0.1,0-0.1c0-0.1,0-0.1,0-0.2c0-0.1,0-0.2,0-0.3c0-0.4,0-0.9,0-1.3c0-0.9,0-1.8,0-2.7c0-1.8,0-3.5,0-5.3
		c0-0.8,0-1.6,0-2.4c0-0.4,0-0.8,0-1.2c0-0.2,0-0.4,0-0.6c0,0,0-0.1,0.1-0.1c0.1,0,0.1,0,0.2,0c0.1,0,0.2,0,0.3,0c1.6,0,3.2,0,4.9,0
		c3.2,0,6.5,0,9.7,0c1.6,0,3.2,0.1,4.8-0.5c1.5-0.6,2.8-1.7,3.6-3.1c0.8-1.4,1.1-3.1,0.8-4.7c-0.1-0.8-0.5-1.5-0.8-2.3
		c-0.3-0.7-0.7-1.5-1-2.2c-5.5-11.7-11-23.5-16.6-35.2c-11-23.5-22.1-46.9-33.1-70.4c-11-23.5-22.1-46.9-33.1-70.4
		c-5.5-11.7-11-23.5-16.6-35.2c-2.8-5.9-5.5-11.7-8.3-17.6c0,0,0-0.1-0.1-0.1c0,0-0.1-0.1,0-0.1c0-0.1,0.1-0.2,0.1-0.3
		c0.1-0.2,0.2-0.4,0.3-0.5c0.2-0.4,0.3-0.7,0.5-1.1c0.3-0.7,0.7-1.5,1-2.2c0.7-1.5,1.4-2.9,2.1-4.4c1.4-2.9,2.8-5.9,4.1-8.8
		c23.1-49.1,46.2-98.1,69.3-147.2c5.8-12.3,11.5-24.5,17.3-36.8c2.9-6.1,5.8-12.3,8.7-18.4c1.4-3.1,2.9-6.1,4.3-9.2
		c0.4-0.8,0.7-1.5,1.1-2.3c0.4-0.8,0.7-1.5,0.8-2.4c0.3-1.7-0.1-3.4-1-4.9c-0.9-1.5-2.3-2.5-4-3c-0.8-0.2-1.6-0.3-2.5-0.3
		c-0.8,0-1.7,0-2.5,0c-3.4,0-6.8,0-10.2,0c-0.8,0-1.7,0-2.5,0c-0.4,0-0.8,0-1.3,0c-0.1,0-0.1,0-0.2,0c0,0-0.1,0.1-0.1,0
		c0-0.1,0-0.2,0-0.3c0-0.2,0-0.4,0-0.6c0-1.7,0-3.4,0-5.1c0-1.7,0-3.4,0-5.1c0-0.8,0-1.7,0-2.5c0-0.1,0-0.2,0-0.3c0-0.1,0-0.1,0-0.2
		c0-0.1,0.1-0.1,0.1-0.1c0.2,0,0.4,0,0.6,0c0.4,0,0.8,0,1.2,0c3.9,0,7.8,0,11.6,0c0.2,0,0.4,0,0.6,0c0,0,0,0,0,0c0,0,0,0,0,0
		c0,0,0,0,0,0c0,0,0-0.1,0-0.1c0-0.1,0-0.1,0-0.2c0-0.4,0-0.8,0-1.3c0-0.8,0-1.7,0-2.5C4753.6-3691,4753.6-3694.4,4753.6-3697.7z"/>
	<path class="st1" d="M4607.3-3434.6c-27.7-48.5-55.5-97-83.2-145.6c-3.2-5.6-9.8-8.3-16-6.7s-10.6,7.3-10.6,13.7
		c0,48.5,0,97,0,145.6s0,97,0,145.6c0,6.4,4.3,12.1,10.6,13.7c6.2,1.7,12.8-1.1,16-6.7c27.7-48.5,55.5-97,83.2-145.6
		C4609.8-3424.8,4609.8-3430.2,4607.3-3434.6z"/>
	<rect x="3758" y="-3391.4" class="st2" width="652.1" height="282.4"/>
	<rect x="3843.4" y="-3256.9" class="st3" width="483.6" height="13.2"/>
	<path class="st4" d="M4166.5-3501.8c-12-52.1-24.1-104.3-36.1-156.4c-1.5-6.5-7.2-11-13.9-11c-1.9,0-3.9,0-5.8,0
		c-6.6,0-12.4,4.6-13.9,11c-12,52.1-24.1,104.3-36.1,156.4c-2.1,8.9,4.7,17.4,13.9,17.4c10.6,0,21.3,0,31.9,0c0,4.7,0,9.5,0,14.2
		c4.7,0,9.5,0,14.2,0c0-4.7,0-9.5,0-14.2c10.6,0,21.3,0,31.9,0C4161.8-3484.4,4168.5-3492.9,4166.5-3501.8z"/>
	<path class="st5" d="M3924.7-3501.8c-12-52.1-24.1-104.3-36.1-156.4c-1.5-6.5-7.2-11-13.9-11c-1.9,0-3.9,0-5.8,0
		c-6.6,0-12.4,4.6-13.9,11c-12,52.1-24.1,104.3-36.1,156.4c-2.1,8.9,4.7,17.4,13.9,17.4c10.6,0,21.3,0,31.9,0c0,4.7,0,9.5,0,14.2
		c4.7,0,9.5,0,14.2,0c0-4.7,0-9.5,0-14.2c10.6,0,21.3,0,31.9,0C3920-3484.4,3926.7-3492.9,3924.7-3501.8z"/>
	<path class="st2" d="M3864.7-3768.9c-30.8,0-61.6,0-92.4,0c0,4.7,0,9.5,0,14.2c0,28.4,35.6,56.9,35.6,113.8s-35.6,142.2-35.6,227.6
		c9.5,0,19,0,28.4,0c0-16.6,0-28.4,14.8-28.4c34.3,0,78.3,0,112.6,0c14.8,0,14.8,11.9,14.8,28.4c9.5,0,19,0,28.4,0
		c0-85.3-35.6-170.7-35.6-227.6s35.6-85.3,35.6-113.8c0-4.7,0-9.5,0-14.2c-30.8,0-61.6,0-92.4,0c0,4.7,0,9.5,0,14.2
		c0,9.5,0,19,0,28.4c-4.7,0-9.5,0-14.2,0c0-9.5,0-19,0-28.4C3864.7-3759.4,3864.7-3764.1,3864.7-3768.9z"/>
	<path class="st0" d="M4106.5-3768.9c-30.8,0-61.6,0-92.4,0c0,4.7,0,9.5,0,14.2c0,28.4,35.6,56.9,35.6,113.8s-35.6,142.2-35.6,227.6
		c9.5,0,19,0,28.4,0c0-16.6,0-28.4,14.8-28.4c34.3,0,78.3,0,112.6,0c14.8,0,14.8,11.9,14.8,28.4c9.5,0,19,0,28.4,0
		c0-85.3-35.6-170.7-35.6-227.6s35.6-85.3,35.6-113.8c0-4.7,0-9.5,0-14.2c-30.8,0-61.6,0-92.4,0c0,4.7,0,9.5,0,14.2
		c0,9.5,0,19,0,28.4c-4.7,0-9.5,0-14.2,0c0-9.5,0-19,0-28.4C4106.5-3759.4,4106.5-3764.1,4106.5-3768.9z"/>
	<path class="st6" d="M3924.7-3501.8c-12-52.1-24.1-104.3-36.1-156.4c-1.5-6.5-7.2-11-13.9-11c-1.9,0-3.9,0-5.8,0
		c-6.6,0-12.4,4.6-13.9,11c-12,52.1-24.1,104.3-36.1,156.4c-2.1,8.9,4.7,17.4,13.9,17.4c10.6,0,21.3,0,31.9,0c0,4.7,0,9.5,0,14.2
		c4.7,0,9.5,0,14.2,0c0-4.7,0-9.5,0-14.2c10.6,0,21.3,0,31.9,0C3920-3484.4,3926.7-3492.9,3924.7-3501.8z"/>
	<path class="st6" d="M4166.5-3501.8c-12-52.1-24.1-104.3-36.1-156.4c-1.5-6.5-7.2-11-13.9-11c-1.9,0-3.9,0-5.8,0
		c-6.6,0-12.4,4.6-13.9,11c-12,52.1-24.1,104.3-36.1,156.4c-2.1,8.9,4.7,17.4,13.9,17.4c10.6,0,21.3,0,31.9,0c0,4.7,0,9.5,0,14.2
		c4.7,0,9.5,0,14.2,0c0-4.7,0-9.5,0-14.2c10.6,0,21.3,0,31.9,0C4161.8-3484.4,4168.5-3492.9,4166.5-3501.8z"/>
</g>
<g id="Layer_04">
</g>
<g id="Make2D::visible::lines::Layer_02">
	<line class="st7" x1="803.5" y1="375.8" x2="804.8" y2="357.1"/>
	<line class="st7" x1="804.8" y1="357.1" x2="799.8" y2="359.5"/>
	<line class="st7" x1="798.6" y1="378.2" x2="799.8" y2="359.5"/>
	<line class="st7" x1="804.8" y1="357.1" x2="777.6" y2="337.9"/>
	<line class="st7" x1="757.8" y1="323.9" x2="692.4" y2="277.6"/>
	<line class="st7" x1="789.9" y1="367.5" x2="790.3" y2="367.3"/>
	<line class="st7" x1="799.8" y1="359.5" x2="776.7" y2="343"/>
	<line class="st7" x1="757" y1="329" x2="687.1" y2="279.3"/>
	<path class="st7" d="M692.4,277.6c-3.7-2.8-5.5-7.9-3.7-12.3"/>
	<path class="st7" d="M689.4,264c0.8-1.2,1.7-2,3.1-2.6"/>
	<line class="st7" x1="692.5" y1="261.4" x2="687.2" y2="263"/>
	<path class="st7" d="M687.1,279.3c-2.6-2-4.2-5-4.4-8.3c-0.1-1.7,0.1-3.2,0.9-4.7c0.8-1.5,1.9-2.5,3.5-3.3"/>
	<line class="st7" x1="692.5" y1="261.4" x2="765.8" y2="224.5"/>
	<line class="st7" x1="687.2" y1="263" x2="765.6" y2="223.4"/>
	<line class="st7" x1="801.2" y1="191.7" x2="801.6" y2="191.8"/>
	<line class="st7" x1="801.6" y1="191.8" x2="800.3" y2="211.9"/>
	<line class="st7" x1="814.6" y1="211.8" x2="809.6" y2="213.2"/>
	<line class="st7" x1="800.3" y1="211.9" x2="809.6" y2="213.2"/>
	<line class="st7" x1="814.6" y1="211.8" x2="818.1" y2="161.2"/>
	<line class="st7" x1="818.1" y1="161.2" x2="813" y2="162.3"/>
	<line class="st7" x1="809.6" y1="213.2" x2="813" y2="162.3"/>
	<line class="st7" x1="818.1" y1="161.2" x2="799.5" y2="159.1"/>
	<line class="st7" x1="799.5" y1="159.1" x2="794.3" y2="160.2"/>
	<line class="st7" x1="813" y1="162.3" x2="794.3" y2="160.2"/>
	<line class="st7" x1="799.5" y1="159.1" x2="800" y2="149.7"/>
	<line class="st7" x1="800" y1="149.7" x2="794.9" y2="150.7"/>
	<line class="st7" x1="794.3" y1="160.2" x2="794.9" y2="150.7"/>
	<line class="st7" x1="800" y1="149.7" x2="542.1" y2="123"/>
	<line class="st7" x1="542.1" y1="123" x2="536.4" y2="123.7"/>
	<line class="st7" x1="794.9" y1="150.7" x2="536.4" y2="123.7"/>
	<line class="st7" x1="536.4" y1="123.7" x2="536.4" y2="131.5"/>
	<line class="st7" x1="536.4" y1="130.1" x2="529.7" y2="129.4"/>
	<line class="st7" x1="529.7" y1="129.4" x2="524" y2="130.1"/>
	<line class="st7" x1="536.4" y1="131.5" x2="524" y2="130.1"/>
	<line class="st7" x1="524" y1="130.1" x2="524" y2="132.2"/>
	<line class="st7" x1="535.8" y1="156.6" x2="536.3" y2="156.7"/>
	<line class="st7" x1="536.3" y1="156.7" x2="536.2" y2="171"/>
	<path class="st7" d="M536.2,171c0,1.4,0.5,2.7,1.5,3.8"/>
	<line class="st7" x1="537.6" y1="174.7" x2="613.7" y2="248.6"/>
	<path class="st7" d="M613.7,248.6c2.3,2.1,3.5,5,3.5,8.1c0,1.6-0.2,3-1,4.3c-0.8,1.4-1.9,2.3-3.4,2.9"/>
	<line class="st7" x1="612.8" y1="263.9" x2="523.6" y2="291.3"/>
	<line class="st7" x1="523.6" y1="291.3" x2="523.6" y2="295"/>
	<line class="st7" x1="535.1" y1="302" x2="535.5" y2="302.1"/>
	<line class="st7" x1="535.5" y1="302.1" x2="535.4" y2="311.5"/>
	<line class="st7" x1="753.8" y1="422" x2="745" y2="419.3"/>
	<path class="st7" d="M535.4,311.5c0,1.3,0.3,2.3,1.1,3.4c0.8,1,1.8,1.6,3.1,1.3"/>
	<line class="st7" x1="545.1" y1="314.5" x2="648.9" y2="278.9"/>
	<line class="st7" x1="539.7" y1="316.2" x2="648.7" y2="278.8"/>
	<line class="st7" x1="648.7" y1="278.8" x2="751.7" y2="360.2"/>
	<path class="st7" d="M655.2,249.8c-1.5-0.2-2.7-0.8-3.9-1.9"/>
	<line class="st7" x1="764.5" y1="416.4" x2="753.8" y2="422"/>
	<path class="st7" d="M653.2,250.8c-2.5,1.1-5.4,0.5-7.3-1.4"/>
	<line class="st7" x1="651.3" y1="247.9" x2="581.7" y2="185.5"/>
	<path class="st7" d="M771.1,394.8c-3.8,1.9-4.9,6.4-5.5,9.9c-0.7,3.9-0.8,7.8-1.1,11.7"/>
	<line class="st7" x1="646" y1="249.4" x2="576.1" y2="186.6"/>
	<path class="st7" d="M581.7,185.5c-1.9-1.9-3.1-4.4-3.2-7.1c-0.1-2.7,0.6-5.3,2.7-7.2"/>
	<path class="st7" d="M576.1,186.6c-2.5-2.4-3.6-5.9-3.1-9.3c0.3-1.8,0.6-3.2,2-4.5c1.2-1.2,2.9-1.8,4.6-1.7"/>
	<line class="st7" x1="579.7" y1="171" x2="732.6" y2="192.3"/>
	<path class="st7" d="M732.6,192.3c4.1,0.8,7.2,4.1,7.8,8.2c0.1,1,0.3,2,0.2,3c-0.1,1-0.3,2-0.7,2.9c-0.9,2-2.1,3.3-4,4.4"/>
	<line class="st7" x1="735.9" y1="210.9" x2="653.2" y2="250.8"/>
	<line class="st7" x1="811" y1="160.4" x2="839.9" y2="154.2"/>
	<line class="st7" x1="839.9" y1="154.2" x2="830.9" y2="153.3"/>
	<line class="st7" x1="801.7" y1="159.4" x2="830.9" y2="153.3"/>
	<line class="st7" x1="839.9" y1="154.2" x2="839.2" y2="163.9"/>
	<path class="st7" d="M839.2,163.9c-0.7,9-3.8,18.8-6.4,27.2c-2.7,8.9-5.3,17.9-7.2,27.1c-4.1,19.7-4.6,35.8-4.1,55.8
		c0.5,18.7,1.7,37.3,2.3,56c0.6,18.7,0.6,37.3-0.7,56.1"/>
	<path class="st7" d="M753.8,422c1.2-20.4,3.9-40.5,7.1-60.6c3.2-20.1,6.9-40.1,10.2-60.2c3.2-19.4,6.5-40.8,5.4-60.7
		c-0.6-10.2-2.3-20.2-4.5-30.2c-2.3-9.9-5-19.6-4.4-30.1"/>
	<line class="st7" x1="810.3" y1="375.4" x2="771.1" y2="394.8"/>
	<path class="st7" d="M745,419.3c1.1-20.3,3.8-40.3,6.9-60.3c3.1-20,6.9-39.9,10.1-59.9c3.2-19.3,6.4-40.6,5.3-60.4
		c-0.6-10.2-2.3-20.1-4.7-30c-2.3-9.9-5.1-19.4-4.5-29.9"/>
	<line class="st7" x1="767.5" y1="180.2" x2="768.2" y2="169.5"/>
	<line class="st7" x1="768.2" y1="169.5" x2="758.7" y2="168.4"/>
	<line class="st7" x1="758.1" y1="179" x2="758.7" y2="168.4"/>
	<line class="st7" x1="768.2" y1="169.5" x2="803.2" y2="162"/>
	<line class="st7" x1="803.2" y1="162" x2="793.9" y2="161"/>
	<line class="st7" x1="758.7" y1="168.4" x2="793.9" y2="161"/>
	<line class="st7" x1="803.2" y1="162" x2="801.2" y2="192.6"/>
	<line class="st7" x1="801.2" y1="192.6" x2="801.6" y2="192.5"/>
	<path class="st7" d="M774.8,354c-0.5,2.1-0.5,4.1,0.1,6.2c0.2,0.9,0.5,2.2,1.3,2.8c0.8,0.7,2,0.8,3,0.4"/>
	<path class="st7" d="M805.4,388.5c0.3-3.6,0.5-7.3,0.4-10.9"/>
	<line class="st7" x1="779.1" y1="363.4" x2="790.5" y2="358.1"/>
	<line class="st7" x1="790.5" y1="358.1" x2="781.7" y2="355.9"/>
	<line class="st7" x1="774.6" y1="359.2" x2="781.7" y2="355.9"/>
	<line class="st7" x1="790.5" y1="358.1" x2="789.9" y2="367.5"/>
	<line class="st7" x1="800" y1="353.8" x2="806.4" y2="350.8"/>
	<path class="st7" d="M814,390.8c0.2-3.1,0.5-6.2,0.5-9.4c0-1.6,0-3.1-0.5-4.7c-0.6-2-1.8-2.3-3.6-1.4"/>
	<line class="st7" x1="794.8" y1="350" x2="797.7" y2="348.7"/>
	<path class="st7" d="M806.4,350.8c1.1-0.7,2-1.5,2.7-2.6c0.7-1.1,1.2-2.2,1.6-3.4c0.9-2.4,1.2-4.8,1.1-7.4"/>
	<line class="st7" x1="814" y1="390.8" x2="805.4" y2="388.5"/>
	<path class="st7" d="M797.7,348.7c1.1-0.7,2-1.5,2.7-2.6c0.7-1,1.2-2.2,1.6-3.4c0.9-2.4,1.2-4.8,1.1-7.4"/>
	<line class="st7" x1="811.9" y1="337.4" x2="806.6" y2="237.7"/>
	<line class="st7" x1="823.2" y1="386.1" x2="814" y2="390.8"/>
	<line class="st7" x1="803.2" y1="335.4" x2="797.5" y2="236.2"/>
	<path class="st7" d="M806.6,237.7c-0.1-1.5-0.3-2.8-1-4.2c-0.7-1.3-1.8-2.4-3.4-1.9"/>
	<path class="st7" d="M797.5,236.2c0-0.6-0.1-1.2-0.2-1.7"/>
	<line class="st7" x1="802.2" y1="231.6" x2="800.1" y2="232.2"/>
	<path class="st7" d="M800.1,232.2c-3.3,1-5,6.6-5.5,9.2"/>
	<line class="st7" x1="794.6" y1="241.4" x2="774.8" y2="354"/>
	<path class="st7" d="M562.8,199.2c-0.4,12.4,1.4,26.7,3.1,38.8c1.8,12.9,3.8,25.7,5.4,38.6"/>
	<path class="st7" d="M573.8,304.7c0.3,5.5,0.4,11,0.3,16.4"/>
	<line class="st7" x1="574.1" y1="321.1" x2="563.9" y2="324.4"/>
	<line class="st7" x1="563.9" y1="324.4" x2="558" y2="322.8"/>
	<path class="st7" d="M563.9,324.4c0-2.8,0.1-5.7-0.2-8.5c-0.3-3.1-1.2-6.1-5-4.9"/>
	<path class="st7" d="M558,322.8c0.3-3.9,0.1-7.6-0.8-11.4"/>
	<line class="st7" x1="558.7" y1="311" x2="515.8" y2="324.3"/>
	<path class="st7" d="M515.8,324.3c-3.7,1.2-5,4.2-5.5,7.6c-0.5,3.3-0.4,6.7-0.4,10"/>
	<line class="st7" x1="509.9" y1="341.9" x2="498.4" y2="345.6"/>
	<line class="st7" x1="498.4" y1="345.6" x2="492.4" y2="343.9"/>
	<path class="st7" d="M498.4,345.6c-0.1-34.2,6.7-67.2,11.4-100.7c2.3-16.4,4.4-33.7,1.6-50.5c-1.4-8.4-4-16.4-7-24.3
		c-2.8-7.4-6.6-15.9-6.6-24.3"/>
	<line class="st7" x1="789.7" y1="375.9" x2="798.6" y2="378.2"/>
	<path class="st7" d="M492.4,343.9c-0.2-34.1,6.6-66.9,11.3-100.2c2.3-16.3,4.4-33.5,1.6-50.2c-1.4-8.4-4-16.3-7.1-24.2
		c-2.8-7.4-6.6-15.8-6.7-24.2"/>
	<line class="st7" x1="497.7" y1="145.8" x2="497.7" y2="137.1"/>
	<line class="st7" x1="497.7" y1="137.1" x2="491.5" y2="136.4"/>
	<line class="st7" x1="491.5" y1="145.1" x2="491.5" y2="136.4"/>
	<line class="st7" x1="497.7" y1="137.1" x2="536" y2="132.2"/>
	<line class="st7" x1="536" y1="132.2" x2="529.8" y2="131.5"/>
	<line class="st7" x1="491.5" y1="136.4" x2="529.7" y2="131.5"/>
	<line class="st7" x1="536" y1="132.2" x2="535.8" y2="157.3"/>
	<line class="st7" x1="535.8" y1="157.3" x2="536.3" y2="157.3"/>
	<path class="st7" d="M517.2,290.3c-0.4,2.1-0.2,3.8,0.7,5.8c0.9,1.9,2.6,3.1,4.8,2.5"/>
	<line class="st7" x1="790.3" y1="366.6" x2="789.7" y2="375.9"/>
	<line class="st7" x1="522.7" y1="298.5" x2="535.1" y2="294.9"/>
	<line class="st7" x1="535.1" y1="294.9" x2="529.1" y2="293.4"/>
	<line class="st7" x1="518.2" y1="296.5" x2="529.1" y2="293.4"/>
	<line class="st7" x1="535.1" y1="294.9" x2="535.1" y2="302.8"/>
	<line class="st7" x1="535.1" y1="302.8" x2="535.5" y2="302.6"/>
	<path class="st7" d="M557.9,280.7c0-0.6,0-1.1-0.1-1.7"/>
	<line class="st7" x1="790" y1="366.5" x2="790.3" y2="366.6"/>
	<path class="st7" d="M551.4,282.7c0.5-1.7,0.7-3.3,0.4-5.1"/>
	<line class="st7" x1="557.8" y1="279" x2="544.9" y2="195.1"/>
	<line class="st7" x1="803.5" y1="375.8" x2="798.6" y2="378.2"/>
	<line class="st7" x1="551.8" y1="277.6" x2="538.8" y2="194.1"/>
	<path class="st7" d="M544.9,195.1c-0.2-1.5-0.6-2.7-1.6-3.8c-0.9-1.1-2.3-1.7-3.7-1.5"/>
	<path class="st7" d="M538.8,194.1c-0.2-1.5-0.7-2.7-1.7-3.9"/>
	<line class="st7" x1="539.6" y1="189.7" x2="537.3" y2="190.2"/>
	<path class="st7" d="M537.3,190.2c-3.1,1.2-5.3,4.1-5.5,7.4"/>
	<line class="st7" x1="531.8" y1="197.6" x2="517.2" y2="290.3"/>
	<line class="st7" x1="803.1" y1="376.7" x2="804.4" y2="358"/>
	<path class="st7" d="M688.7,265.3c1.1-2,2.2-2.5,4.1-3.5c1.6-0.8,3.2-1.6,4.8-2.4c3.3-1.6,6.5-3.3,9.8-4.9c6.5-3.3,13-6.5,19.5-9.8
		c13-6.5,26-13.1,39-19.6"/>
	<path class="st7" d="M812.5,212.4c0.5,0.1,1,0.1,1.5,0.2c0.1,0,0.1,0.1,0.1,0c0-0.1,0-0.1,0-0.2c0-0.1,0-0.3,0-0.4
		c0-0.3,0-0.6,0.1-0.8c0.1-1.1,0.2-2.2,0.2-3.3c0.1-2.2,0.3-4.4,0.4-6.5c0.3-4.4,0.6-8.7,0.9-13.1c0.6-8.7,1.2-17.4,1.8-26.2"/>
	<line class="st7" x1="799.1" y1="159.2" x2="799.6" y2="150.5"/>
	<path class="st7" d="M543.2,315.2c0.5,0.2,1,0.2,1.5,0"/>
	<line class="st7" x1="544.7" y1="315.2" x2="649.4" y2="279.4"/>
	<line class="st7" x1="544.4" y1="314.7" x2="543.1" y2="315.1"/>
	<line class="st7" x1="1191.6" y1="-1650.1" x2="1223.4" y2="-1656.9"/>
	<line class="st7" x1="1223.4" y1="-1656.9" x2="1214.3" y2="-1657.9"/>
	<line class="st7" x1="1182.4" y1="-1651.2" x2="1214.3" y2="-1657.9"/>
	<line class="st7" x1="1191.6" y1="-1650.1" x2="1182.4" y2="-1651.2"/>
	<line class="st7" x1="1223.4" y1="-1656.9" x2="1222.7" y2="-1647.1"/>
	<path class="st7" d="M1222.7-1647.1c-0.7,9-3.8,18.8-6.4,27.3c-2.7,9-5.3,17.9-7.2,27.1c-4.1,19.8-4.6,35.9-4.1,55.9
		c0.5,18.7,1.7,37.4,2.3,56.1c0.6,18.8,0.6,37.4-0.7,56.2"/>
	<line class="st7" x1="1206.6" y1="-1424.6" x2="1197.4" y2="-1419.8"/>
	<line class="st7" x1="1197.4" y1="-1419.8" x2="1188.8" y2="-1422.1"/>
	<path class="st7" d="M1197.4-1419.8c0.2-3.1,0.5-6.2,0.5-9.4c0-1.6,0-3.1-0.5-4.7c-0.6-2-1.8-2.3-3.6-1.4"/>
	<path class="st7" d="M1188.8-1422.1c0.3-3.7,0.5-7.3,0.4-11"/>
	<line class="st7" x1="1193.7" y1="-1435.3" x2="1154.4" y2="-1415.8"/>
	<path class="st7" d="M1154.4-1415.8c-3.8,1.9-5,6.4-5.6,9.9c-0.7,3.9-0.8,7.8-1.1,11.8"/>
	<line class="st7" x1="1147.8" y1="-1394.1" x2="1137.1" y2="-1388.6"/>
	<line class="st7" x1="1137.1" y1="-1388.6" x2="1128.2" y2="-1391.2"/>
	<path class="st7" d="M1137.1-1388.6c1.2-20.4,3.9-40.6,7.1-60.8c3.2-20.1,6.9-40.2,10.3-60.3c3.2-19.4,6.5-40.9,5.4-60.8
		c-0.6-10.3-2.3-20.2-4.6-30.2c-2.3-10-5.1-19.6-4.5-30.2"/>
	<line class="st7" x1="2446.8" y1="363.4" x2="2448.1" y2="344.8"/>
	<path class="st7" d="M1128.2-1391.2c1.1-20.3,3.8-40.4,6.9-60.4c3.2-20,6.9-40,10.2-60c3.2-19.3,6.4-40.6,5.3-60.5
		c-0.6-10.2-2.3-20.1-4.7-30c-2.3-9.9-5.1-19.4-4.6-30"/>
	<line class="st7" x1="1150.8" y1="-1630.9" x2="1151.4" y2="-1641.5"/>
	<line class="st7" x1="1151.4" y1="-1641.5" x2="1142" y2="-1642.7"/>
	<line class="st7" x1="1141.4" y1="-1632.1" x2="1142" y2="-1642.7"/>
	<line class="st7" x1="1151.4" y1="-1641.5" x2="1186.5" y2="-1649"/>
	<line class="st7" x1="1186.5" y1="-1649" x2="1177.2" y2="-1650.1"/>
	<line class="st7" x1="1142" y1="-1642.7" x2="1177.2" y2="-1650.1"/>
	<line class="st7" x1="1186.5" y1="-1649" x2="1184.5" y2="-1618.4"/>
	<line class="st7" x1="1184.5" y1="-1618.4" x2="1189.6" y2="-1619.7"/>
	<line class="st7" x1="1189.6" y1="-1619.7" x2="1184.7" y2="-1620.4"/>
	<line class="st7" x1="807.3" y1="189.4" x2="809.3" y2="159"/>
	<line class="st7" x1="1182.3" y1="-1649.5" x2="1182.4" y2="-1651.2"/>
	<path class="st7" d="M1158.1-1456.7c-0.5,2.1-0.5,4.1,0.1,6.3c0.2,0.9,0.5,2.2,1.3,2.8c0.8,0.7,2,0.8,3,0.4"/>
	<line class="st7" x1="2448.1" y1="344.8" x2="2443.2" y2="347.1"/>
	<line class="st7" x1="1162.4" y1="-1447.3" x2="1173.9" y2="-1452.6"/>
	<line class="st7" x1="1173.9" y1="-1452.6" x2="1165" y2="-1454.7"/>
	<line class="st7" x1="1157.9" y1="-1451.5" x2="1165" y2="-1454.7"/>
	<line class="st7" x1="1173.9" y1="-1452.6" x2="1173.3" y2="-1443.2"/>
	<line class="st7" x1="1173.3" y1="-1443.2" x2="1178.2" y2="-1445.5"/>
	<line class="st7" x1="1178.2" y1="-1445.5" x2="1173.5" y2="-1446.7"/>
	<line class="st7" x1="1178.2" y1="-1445.5" x2="1178.8" y2="-1454.9"/>
	<line class="st7" x1="1178.8" y1="-1454.9" x2="1170.1" y2="-1457"/>
	<line class="st7" x1="1169.8" y1="-1453.6" x2="1170.1" y2="-1457"/>
	<line class="st7" x1="1178.8" y1="-1454.9" x2="1189.8" y2="-1459.9"/>
	<line class="st7" x1="2441.9" y1="365.9" x2="2443.2" y2="347.1"/>
	<line class="st7" x1="1170.1" y1="-1457" x2="1181.1" y2="-1462"/>
	<path class="st7" d="M1189.8-1459.9c2.4-1.5,3.4-3.5,4.3-6c0.9-2.4,1.2-4.8,1.1-7.4"/>
	<line class="st7" x1="2446.8" y1="363.4" x2="2441.9" y2="365.9"/>
	<path class="st7" d="M1181.1-1462c2.4-1.5,3.4-3.5,4.3-5.9c0.9-2.4,1.2-4.8,1.1-7.4"/>
	<line class="st7" x1="1195.2" y1="-1473.3" x2="1189.9" y2="-1573.2"/>
	<line class="st7" x1="2448.1" y1="344.8" x2="2421" y2="325.6"/>
	<line class="st7" x1="1186.5" y1="-1475.3" x2="1180.9" y2="-1574.7"/>
	<path class="st7" d="M1189.9-1573.2c-0.1-1.5-0.3-2.8-1-4.2c-0.7-1.3-1.8-2.4-3.4-1.9"/>
	<path class="st7" d="M1180.9-1574.7c0-0.6-0.1-1.2-0.2-1.7"/>
	<line class="st7" x1="1185.5" y1="-1579.4" x2="1183.5" y2="-1578.7"/>
	<path class="st7" d="M1183.5-1578.7c-3.3,1-5,6.6-5.5,9.2"/>
	<line class="st7" x1="1178" y1="-1569.5" x2="1158.1" y2="-1456.7"/>
	<line class="st7" x1="924.4" y1="-1679.7" x2="959.8" y2="-1684.3"/>
	<line class="st7" x1="959.8" y1="-1684.3" x2="953.6" y2="-1684.9"/>
	<line class="st7" x1="918.2" y1="-1680.4" x2="953.6" y2="-1684.9"/>
	<line class="st7" x1="924.4" y1="-1679.7" x2="918.2" y2="-1680.4"/>
	<line class="st7" x1="959.8" y1="-1684.3" x2="959.6" y2="-1676.2"/>
	<path class="st7" d="M959.6-1676.2c-0.1,7.6-3.2,15.9-5.5,22.9c-2.5,7.5-4.8,15-6.3,22.7c-3.3,16.6-2.4,30.5-0.4,47
		c1.9,15.6,4.5,31.2,6.5,46.8c2,15.7,3.3,31.3,3.1,47.1"/>
	<line class="st7" x1="957" y1="-1489.6" x2="946.8" y2="-1486.4"/>
	<line class="st7" x1="946.8" y1="-1486.4" x2="940.9" y2="-1487.9"/>
	<path class="st7" d="M946.8-1486.4c0-2.8,0.1-5.7-0.2-8.5c-0.3-3.2-1.2-6.1-5.1-4.9"/>
	<path class="st7" d="M940.9-1487.9c0.3-3.9,0.1-7.6-0.8-11.4"/>
	<line class="st7" x1="941.6" y1="-1499.8" x2="898.6" y2="-1486.5"/>
	<path class="st7" d="M898.6-1486.5c-3.7,1.2-5,4.2-5.5,7.7c-0.5,3.3-0.4,6.7-0.4,10"/>
	<line class="st7" x1="892.6" y1="-1468.8" x2="881.1" y2="-1465.1"/>
	<line class="st7" x1="881.1" y1="-1465.1" x2="875.1" y2="-1466.9"/>
	<path class="st7" d="M881.1-1465.1c-0.1-34.3,6.7-67.3,11.4-100.9c2.3-16.4,4.4-33.8,1.6-50.6c-1.4-8.5-4-16.4-7-24.4
		c-2.8-7.4-6.6-16-6.6-24.4"/>
	<line class="st7" x1="2401.2" y1="311.6" x2="2335.9" y2="265.4"/>
	<path class="st7" d="M875.1-1466.9c-0.2-34.1,6.6-67,11.3-100.4c2.3-16.4,4.4-33.6,1.6-50.3c-1.4-8.4-4-16.3-7.1-24.2
		c-2.8-7.4-6.6-15.9-6.7-24.2"/>
	<line class="st7" x1="880.5" y1="-1665.3" x2="880.4" y2="-1674"/>
	<line class="st7" x1="880.4" y1="-1674" x2="874.2" y2="-1674.8"/>
	<line class="st7" x1="874.2" y1="-1666.1" x2="874.2" y2="-1674.8"/>
	<line class="st7" x1="880.4" y1="-1674" x2="918.8" y2="-1679"/>
	<line class="st7" x1="918.8" y1="-1679" x2="912.6" y2="-1679.7"/>
	<line class="st7" x1="874.2" y1="-1674.8" x2="912.6" y2="-1679.7"/>
	<line class="st7" x1="918.8" y1="-1679" x2="918.6" y2="-1653.8"/>
	<line class="st7" x1="918.6" y1="-1653.8" x2="924.3" y2="-1654.6"/>
	<line class="st7" x1="924.3" y1="-1654.6" x2="918.7" y2="-1655.4"/>
	<line class="st7" x1="924.3" y1="-1654.6" x2="924.4" y2="-1679.7"/>
	<line class="st7" x1="918.2" y1="-1679.1" x2="918.2" y2="-1680.4"/>
	<path class="st7" d="M900-1520.6c-0.4,2.1-0.2,3.8,0.7,5.8c0.9,1.9,2.6,3.1,4.8,2.5"/>
	<line class="st7" x1="2443.2" y1="347.1" x2="2420.1" y2="330.7"/>
	<line class="st7" x1="905.5" y1="-1512.3" x2="917.9" y2="-1515.9"/>
	<line class="st7" x1="917.9" y1="-1515.9" x2="911.9" y2="-1517.4"/>
	<line class="st7" x1="900.9" y1="-1514.3" x2="911.9" y2="-1517.4"/>
	<line class="st7" x1="917.9" y1="-1515.9" x2="917.9" y2="-1508"/>
	<line class="st7" x1="917.9" y1="-1508" x2="923.3" y2="-1509.7"/>
	<line class="st7" x1="923.3" y1="-1509.7" x2="917.9" y2="-1511"/>
	<line class="st7" x1="923.3" y1="-1509.7" x2="923.4" y2="-1517.5"/>
	<line class="st7" x1="923.4" y1="-1517.5" x2="917.4" y2="-1518.9"/>
	<line class="st7" x1="917.4" y1="-1516" x2="917.4" y2="-1518.9"/>
	<line class="st7" x1="923.4" y1="-1517.5" x2="935.4" y2="-1520.9"/>
	<line class="st7" x1="2400.3" y1="316.6" x2="2330.6" y2="267.1"/>
	<line class="st7" x1="917.4" y1="-1518.9" x2="929.4" y2="-1522.3"/>
	<path class="st7" d="M935.4-1520.9c2.3-0.9,3.4-2.4,4.4-4.6c0.9-2.1,1.2-4.1,0.9-6.4"/>
	<path class="st7" d="M2335.9,265.4c-3.7-2.8-5.4-7.9-3.7-12.3"/>
	<path class="st7" d="M929.4-1522.3c2.3-0.9,3.4-2.4,4.4-4.5c0.9-2.1,1.2-4.1,0.9-6.3"/>
	<line class="st7" x1="940.7" y1="-1531.8" x2="927.8" y2="-1616"/>
	<path class="st7" d="M2332.9,251.8c0.8-1.2,1.7-2,3.1-2.6"/>
	<line class="st7" x1="934.7" y1="-1533.2" x2="921.6" y2="-1617"/>
	<path class="st7" d="M927.8-1616c-0.2-1.5-0.6-2.7-1.6-3.9c-0.9-1.1-2.3-1.7-3.7-1.5"/>
	<path class="st7" d="M921.6-1617c-0.2-1.5-0.7-2.8-1.7-3.9"/>
	<line class="st7" x1="922.4" y1="-1621.3" x2="920.1" y2="-1620.9"/>
	<path class="st7" d="M920.1-1620.9c-3.1,1.2-5.3,4.1-5.5,7.4"/>
	<line class="st7" x1="914.6" y1="-1613.4" x2="900" y2="-1520.6"/>
	<rect x="382.8" y="-1807.6" class="st8" width="1024" height="522.2"/>
	<line class="st7" x1="2335.9" y1="249.1" x2="2330.6" y2="250.7"/>
	<path class="st7" d="M2330.6,267.1c-2.6-2-4.2-5-4.4-8.3c-0.1-1.7,0.1-3.2,0.9-4.7c0.8-1.5,1.9-2.5,3.5-3.3"/>
	<line class="st7" x1="2335.9" y1="249.1" x2="2409.1" y2="212.3"/>
	<line class="st7" x1="2330.6" y1="250.7" x2="2409" y2="211.2"/>
	<line class="st7" x1="2444.6" y1="179.5" x2="2444.9" y2="179.6"/>
	<line class="st7" x1="2188.1" y1="302.4" x2="2186.7" y2="302.8"/>
	<rect x="1643.4" y="-8.1" class="st8" width="1024.5" height="520.4"/>
	<line class="st7" x1="2444.9" y1="179.6" x2="2443.6" y2="199.7"/>
	<line class="st7" x1="2445.6" y1="364.1" x2="2446.4" y2="364.3"/>
	<path class="st7" d="M2186.9,302.9c0.6,0.2,1.1,0.1,1.7-0.1c0.5-0.2,1.1-0.4,1.6-0.6c1.1-0.4,2.2-0.8,3.3-1.1
		c2.2-0.8,4.4-1.5,6.6-2.3c4.4-1.5,8.8-3,13.2-4.5c8.8-3,17.7-6,26.5-9.1c17.7-6,35.3-12.1,53-18.1"/>
	<path class="st7" d="M2455.8,200.2c0.4,0.1,0.8,0.1,1.1,0.2c0.1,0,0.2,0,0.3,0c0.1,0,0.2,0.1,0.2,0c0-0.2,0-0.4,0-0.6
		c0.1-0.8,0.1-1.7,0.2-2.5c0.1-1.6,0.2-3.2,0.3-4.8c0.2-3.2,0.4-6.5,0.7-9.7c0.4-6.5,0.9-12.9,1.3-19.4"/>
	<path class="st7" d="M2332.1,253c1.1-2,2.2-2.5,4.1-3.5c1.6-0.8,3.2-1.6,4.8-2.4c3.2-1.6,6.5-3.3,9.7-4.9c6.5-3.3,13-6.5,19.5-9.8
		c13-6.5,26-13.1,39-19.6"/>
	<line class="st7" x1="2446.4" y1="364.3" x2="2447.7" y2="345.6"/>
	<line class="st7" x1="2175.5" y1="185.4" x2="2160.9" y2="278"/>
	<path class="st7" d="M2181,178c-3.3,0.6-5.1,4.6-5.5,7.4"/>
	<line class="st7" x1="2183.2" y1="177.6" x2="2181" y2="178"/>
	<path class="st7" d="M2182.5,181.9c-0.2-1.5-0.7-2.7-1.7-3.9"/>
	<path class="st7" d="M2188.6,182.9c-0.2-1.5-0.6-2.7-1.6-3.8c-0.9-1.1-2.2-1.7-3.7-1.5"/>
	<line class="st7" x1="2195.5" y1="265.4" x2="2182.5" y2="181.9"/>
	<line class="st7" x1="2457.9" y1="199.6" x2="2452.9" y2="201"/>
	<line class="st7" x1="2201.4" y1="266.7" x2="2188.6" y2="182.9"/>
	<path class="st7" d="M2195,270.5c0.5-1.7,0.7-3.3,0.4-5.1"/>
	<line class="st7" x1="2443.6" y1="199.7" x2="2452.9" y2="201"/>
	<path class="st7" d="M2201.5,268.5c0-0.6,0-1.1-0.1-1.7"/>
	<line class="st7" x1="2178.7" y1="290.5" x2="2179.1" y2="290.3"/>
	<line class="st7" x1="2178.8" y1="282.6" x2="2178.7" y2="290.5"/>
	<line class="st7" x1="2161.8" y1="284.3" x2="2172.7" y2="281.2"/>
	<line class="st7" x1="2178.8" y1="282.6" x2="2172.8" y2="281.2"/>
	<line class="st7" x1="2166.3" y1="286.2" x2="2178.8" y2="282.6"/>
	<line class="st7" x1="2457.9" y1="199.6" x2="2460.4" y2="163.4"/>
	<path class="st7" d="M2160.9,278c-0.4,1.9-0.1,4,0.7,5.8c0.4,0.9,0.9,1.7,1.9,2.2c1,0.5,1.8,0.6,2.9,0.3"/>
	<line class="st7" x1="2179.5" y1="145.2" x2="2179.9" y2="145.2"/>
	<line class="st7" x1="2179.5" y1="135.2" x2="2179.5" y2="145.2"/>
	<line class="st7" x1="2135.2" y1="133" x2="2135.2" y2="129.7"/>
	<line class="st7" x1="2141.4" y1="133.7" x2="2141.4" y2="130.5"/>
	<path class="st7" d="M2136.1,331.5c-0.1-16.9,1.6-33.5,3.8-50.2c2.2-16.7,5.1-33.2,7.4-49.9c1.2-8.3,2.2-16.6,2.7-25.1
		c0.5-8.5,0.3-16.7-1.1-25.1c-1.4-8.4-4-16.3-7-24.2c-2.8-7.3-6.6-15.8-6.7-24.2"/>
	<line class="st7" x1="2452.9" y1="201" x2="2455.3" y2="164.6"/>
	<path class="st7" d="M2142.1,333.3c-0.1-17,1.6-33.7,3.9-50.5c2.2-16.7,5.1-33.4,7.5-50.1c1.2-8.4,2.2-16.7,2.7-25.2
		c0.5-8.5,0.3-16.8-1.1-25.2c-1.4-8.4-4-16.4-7-24.3c-2.8-7.4-6.6-15.9-6.6-24.3"/>
	<line class="st7" x1="2142.1" y1="333.3" x2="2136.1" y2="331.5"/>
	<line class="st7" x1="2153.6" y1="329.6" x2="2142.1" y2="333.3"/>
	<path class="st7" d="M2159.5,311.9c-3.7,1.2-5,4.2-5.5,7.6c-0.5,3.3-0.4,6.6-0.4,10"/>
	<line class="st7" x1="2202.3" y1="298.7" x2="2159.5" y2="311.9"/>
	<path class="st7" d="M2201.7,310.5c0.3-3.9,0.1-7.6-0.8-11.4"/>
	<path class="st7" d="M2207.6,312.1c0-2.8,0.1-5.7-0.2-8.5c-0.3-3.1-1.2-6.1-5-4.9"/>
	<line class="st7" x1="2207.6" y1="312.1" x2="2201.7" y2="310.5"/>
	<line class="st7" x1="2217.7" y1="308.8" x2="2207.6" y2="312.1"/>
	<path class="st7" d="M2217.4,292.4c0.3,5.5,0.4,10.9,0.3,16.4"/>
	<path class="st7" d="M2206.4,187c-0.4,12.3,1.4,26.6,3.1,38.8c1.8,12.9,3.8,25.7,5.4,38.6"/>
	<line class="st7" x1="2443.4" y1="137.6" x2="2438.2" y2="138.6"/>
	<line class="st7" x1="2443.4" y1="137.6" x2="2185.7" y2="110.9"/>
	<line class="st7" x1="2185.3" y1="110.9" x2="2180.1" y2="111.6"/>
	<line class="st7" x1="2438.2" y1="138.6" x2="2180.1" y2="111.6"/>
	<line class="st7" x1="2179.5" y1="144.5" x2="2179.9" y2="144.6"/>
	<line class="st7" x1="2179.9" y1="144.6" x2="2179.8" y2="158.8"/>
	<path class="st7" d="M2179.8,158.8c0,1.4,0.5,2.7,1.5,3.7"/>
	<line class="st7" x1="2181.3" y1="162.6" x2="2257.2" y2="236.3"/>
	<path class="st7" d="M2257.2,236.3c2.3,2.1,3.5,5,3.5,8.1c0,1.6-0.2,2.9-1,4.3c-0.8,1.4-1.9,2.3-3.4,2.9"/>
	<line class="st7" x1="2256.3" y1="251.6" x2="2167.3" y2="279"/>
	<line class="st7" x1="2438" y1="229.2" x2="2418.1" y2="341.6"/>
	<path class="st7" d="M2443.4,220c-1.7,0.5-3,2.5-3.8,3.9c-0.9,1.7-1.4,3.4-1.7,5.3"/>
	<line class="st7" x1="2445.5" y1="219.4" x2="2443.4" y2="220"/>
	<path class="st7" d="M2440.9,224c0-0.6-0.1-1.2-0.2-1.7"/>
	<path class="st7" d="M2449.9,225.5c-0.1-1.5-0.3-2.8-1-4.2c-0.7-1.3-1.8-2.4-3.4-1.9"/>
	<line class="st7" x1="2446.5" y1="323.1" x2="2440.9" y2="224"/>
	<line class="st7" x1="2167.3" y1="279" x2="2167.3" y2="282.7"/>
	<line class="st7" x1="2455.2" y1="325.1" x2="2449.9" y2="225.5"/>
	<path class="st7" d="M2441,336.3c1.1-0.7,2-1.5,2.7-2.6c0.7-1,1.2-2.2,1.6-3.4c0.9-2.4,1.2-4.8,1.1-7.4"/>
	<line class="st7" x1="2178.7" y1="289.7" x2="2179.1" y2="289.8"/>
	<path class="st7" d="M2449.7,338.4c1.1-0.7,2-1.5,2.7-2.6c0.7-1.1,1.2-2.2,1.6-3.4c0.9-2.4,1.2-4.8,1.1-7.4"/>
	<line class="st7" x1="2438.1" y1="337.7" x2="2441" y2="336.3"/>
	<line class="st7" x1="2179.1" y1="289.8" x2="2179.1" y2="299.2"/>
	<line class="st7" x1="2443.3" y1="341.4" x2="2449.7" y2="338.4"/>
	<line class="st7" x1="2433.3" y1="355.1" x2="2433.6" y2="354.9"/>
	<line class="st7" x1="2433.9" y1="345.8" x2="2433.3" y2="355.1"/>
	<line class="st7" x1="2418" y1="346.8" x2="2425.1" y2="343.6"/>
	<line class="st7" x1="2433.9" y1="345.8" x2="2425.1" y2="343.6"/>
	<line class="st7" x1="2422.5" y1="351" x2="2433.9" y2="345.8"/>
	<path class="st7" d="M2179.1,299.2c0,1.3,0.3,2.3,1.1,3.4c0.8,1,1.8,1.6,3.1,1.3"/>
	<path class="st7" d="M2418.1,341.6c-0.5,2.1-0.5,4.1,0.1,6.2c0.2,0.9,0.5,2.2,1.3,2.8c0.8,0.7,2,0.8,3,0.4"/>
	<line class="st7" x1="2444.5" y1="180.4" x2="2444.9" y2="180.3"/>
	<line class="st7" x1="2445.4" y1="166.9" x2="2444.5" y2="180.4"/>
	<line class="st7" x1="2401.5" y1="166.9" x2="2401.7" y2="162.8"/>
	<line class="st7" x1="2410.9" y1="168.1" x2="2411.1" y2="164"/>
	<path class="st7" d="M2388.4,406.9c1.1-20.2,3.8-40.2,6.9-60.2c3.1-20,6.9-39.8,10.1-59.8c1.6-10,3.2-20,4.2-30
		c1.1-10.1,1.6-20.1,1-30.3c-0.6-10.5-2.3-19.8-4.7-29.9c-2.2-9.6-5.1-19.7-4.5-29.9"/>
	<line class="st7" x1="2188.7" y1="302.2" x2="2292.4" y2="266.7"/>
	<path class="st7" d="M2397.2,409.5c1.2-20.4,3.9-40.5,7-60.6c3.2-20.1,6.9-40.1,10.2-60.1c1.7-10,3.2-20.1,4.3-30.2
		c1.1-10.1,1.6-20.2,1.1-30.4c-0.6-10.5-2.2-19.9-4.5-30.1c-2.2-9.7-5-19.8-4.4-30.1"/>
	<line class="st7" x1="2397.2" y1="409.5" x2="2388.4" y2="406.9"/>
	<line class="st7" x1="2407.9" y1="404" x2="2397.2" y2="409.5"/>
	<path class="st7" d="M2414.5,382.4c-3.8,1.9-4.9,6.3-5.5,9.9c-0.7,3.9-0.8,7.8-1.1,11.7"/>
	<line class="st7" x1="2453.6" y1="363" x2="2414.5" y2="382.4"/>
	<path class="st7" d="M2448.7,376.1c0.3-3.6,0.5-7.3,0.4-10.9"/>
	<path class="st7" d="M2457.3,378.4c0.2-3.1,0.5-6.2,0.5-9.4c0-1.6,0-3.1-0.5-4.6c-0.6-2-1.8-2.3-3.6-1.4"/>
	<line class="st7" x1="2457.3" y1="378.4" x2="2448.7" y2="376.1"/>
	<line class="st7" x1="2466.4" y1="373.7" x2="2457.3" y2="378.4"/>
	<path class="st7" d="M2481.6,158.4c-1.6,8.6-4.7,17.9-7.2,26.2c-2.6,8.7-4.9,17.4-6.5,26.4c-3.5,18.8-3.6,35.2-3,54.2
		c0.6,18.1,1.7,36.2,2.3,54.3c0.6,18.1,0.5,36.2-0.8,54.3"/>
	<line class="st7" x1="2379.3" y1="198.7" x2="2296.7" y2="238.5"/>
	<path class="st7" d="M2376,180.2c4.1,0.8,7.2,4.1,7.8,8.2c0.1,0.5,0.2,1,0.2,1.5c0,0.5,0,1,0,1.5c-0.1,1-0.3,2-0.7,2.9
		c-0.8,1.9-2.2,3.4-4,4.4"/>
	<line class="st7" x1="2223.3" y1="158.9" x2="2376" y2="180.2"/>
	<path class="st7" d="M2219.7,174.4c-2.5-2.4-3.6-5.9-3.1-9.3c0.5-3.3,2.8-6.8,6.6-6.2"/>
	<path class="st7" d="M2225.3,173.4c-1.9-1.9-3.1-4.4-3.2-7.1c-0.1-2.7,0.6-5.3,2.7-7.2"/>
	<line class="st7" x1="2289.5" y1="237.1" x2="2219.7" y2="174.4"/>
	<line class="st7" x1="2183.3" y1="303.9" x2="2292.2" y2="266.5"/>
	<line class="st7" x1="2294.8" y1="235.7" x2="2225.3" y2="173.4"/>
	<path class="st7" d="M2296.7,238.5c-2.5,1.1-5.4,0.5-7.3-1.4"/>
	<line class="st7" x1="2292.2" y1="266.5" x2="2395.1" y2="347.9"/>
	<path class="st7" d="M2298.7,237.6c-1.5-0.2-2.7-0.8-3.9-1.9"/>
	<line class="st7" x1="2433.1" y1="363.6" x2="2441.9" y2="365.9"/>
	<line class="st7" x1="2433.7" y1="354.2" x2="2433.1" y2="363.6"/>
	<line class="st7" x1="2433.3" y1="354.2" x2="2433.7" y2="354.2"/>
	<line class="st7" x1="802.2" y1="376.4" x2="803.1" y2="376.7"/>
</g>
<g id="Make2D::visible::tangents::Layer_02">
	<line class="st7" x1="2225.3" y1="173.4" x2="2219.7" y2="174.4"/>
	<line class="st7" x1="2410.9" y1="168.1" x2="2401.5" y2="166.9"/>
	<line class="st7" x1="2422.5" y1="351" x2="2419.2" y2="350.2"/>
	<line class="st7" x1="2188.7" y1="302.2" x2="2188.1" y2="302.4"/>
	<line class="st7" x1="2449.7" y1="338.4" x2="2441" y2="336.3"/>
	<line class="st7" x1="2455.2" y1="325.1" x2="2446.5" y2="323.1"/>
	<line class="st7" x1="2449.9" y1="225.5" x2="2440.9" y2="224"/>
	<line class="st7" x1="692.4" y1="277.6" x2="687.1" y2="279.3"/>
	<line class="st7" x1="545.1" y1="314.5" x2="544.4" y2="314.7"/>
	<line class="st7" x1="651.3" y1="247.9" x2="646" y2="249.4"/>
	<line class="st7" x1="581.7" y1="185.5" x2="576.1" y2="186.6"/>
	<line class="st7" x1="767.5" y1="180.2" x2="758.1" y2="179"/>
	<line class="st7" x1="779.1" y1="363.4" x2="775.8" y2="362.5"/>
	<line class="st7" x1="806.4" y1="350.8" x2="797.7" y2="348.7"/>
	<line class="st7" x1="811.9" y1="337.4" x2="803.2" y2="335.4"/>
	<line class="st7" x1="806.6" y1="237.7" x2="797.5" y2="236.2"/>
	<line class="st7" x1="497.7" y1="145.8" x2="491.5" y2="145.1"/>
	<line class="st7" x1="2141.4" y1="133.7" x2="2135.2" y2="133"/>
	<line class="st7" x1="2166.3" y1="286.2" x2="2162.6" y2="285.2"/>
	<line class="st7" x1="2201.4" y1="266.7" x2="2195.5" y2="265.4"/>
	<line class="st7" x1="2188.6" y1="182.9" x2="2182.5" y2="181.9"/>
	<line class="st7" x1="522.7" y1="298.5" x2="518.9" y2="297.5"/>
	<line class="st7" x1="927.8" y1="-1616" x2="921.6" y2="-1617"/>
	<line class="st7" x1="940.7" y1="-1531.8" x2="934.7" y2="-1533.2"/>
	<line class="st7" x1="935.4" y1="-1520.9" x2="929.4" y2="-1522.3"/>
	<line class="st7" x1="905.5" y1="-1512.3" x2="901.7" y2="-1513.3"/>
	<line class="st7" x1="2335.9" y1="265.4" x2="2330.6" y2="267.1"/>
	<line class="st7" x1="880.5" y1="-1665.3" x2="874.2" y2="-1666.1"/>
	<line class="st7" x1="1189.9" y1="-1573.2" x2="1180.9" y2="-1574.7"/>
	<line class="st7" x1="1195.2" y1="-1473.3" x2="1186.5" y2="-1475.3"/>
	<line class="st7" x1="1189.8" y1="-1459.9" x2="1181.1" y2="-1462"/>
	<line class="st7" x1="1162.4" y1="-1447.3" x2="1159.1" y2="-1448.1"/>
	<line class="st7" x1="1150.8" y1="-1630.9" x2="1141.4" y2="-1632.1"/>
	<line class="st7" x1="544.9" y1="195.1" x2="538.8" y2="194.1"/>
	<line class="st7" x1="557.8" y1="279" x2="551.8" y2="277.6"/>
	<line class="st7" x1="2294.8" y1="235.7" x2="2289.5" y2="237.1"/>
	<line class="st7" x1="923.4" y1="-2143.7" x2="958.8" y2="-2148.3"/>
	<line class="st7" x1="958.8" y1="-2148.3" x2="952.6" y2="-2148.9"/>
	<line class="st7" x1="917.2" y1="-2144.4" x2="952.6" y2="-2148.9"/>
	<line class="st7" x1="923.4" y1="-2143.7" x2="917.2" y2="-2144.4"/>
	<line class="st7" x1="958.8" y1="-2148.3" x2="958.6" y2="-2140.2"/>
	<path class="st7" d="M958.6-2140.2c-0.1,7.6-3.2,15.9-5.5,22.9c-2.5,7.5-4.8,15-6.3,22.7c-3.3,16.6-2.4,30.5-0.4,47
		c1.9,15.6,4.5,31.2,6.5,46.8c2,15.7,3.3,31.3,3.1,47.1"/>
	<line class="st7" x1="956" y1="-1953.6" x2="945.8" y2="-1950.4"/>
	<line class="st7" x1="945.8" y1="-1950.4" x2="939.9" y2="-1951.9"/>
	<path class="st7" d="M945.8-1950.4c0-2.8,0.1-5.7-0.2-8.5c-0.3-3.2-1.2-6.1-5.1-4.9"/>
	<path class="st7" d="M939.9-1951.9c0.3-3.9,0.1-7.6-0.8-11.4"/>
	<line class="st7" x1="940.6" y1="-1963.8" x2="897.6" y2="-1950.5"/>
	<path class="st7" d="M897.6-1950.5c-3.7,1.2-5,4.2-5.5,7.7c-0.5,3.3-0.4,6.7-0.4,10"/>
	<line class="st7" x1="891.6" y1="-1932.8" x2="880.1" y2="-1929.1"/>
	<line class="st7" x1="880.1" y1="-1929.1" x2="874.1" y2="-1930.9"/>
	<path class="st7" d="M880.1-1929.1c-0.1-34.3,6.7-67.3,11.4-100.9c2.3-16.4,4.4-33.8,1.6-50.6c-1.4-8.5-4-16.4-7-24.4
		c-2.8-7.4-6.6-16-6.6-24.4"/>
	<path class="st7" d="M874.1-1930.9c-0.2-34.1,6.6-67,11.3-100.4c2.3-16.4,4.4-33.6,1.6-50.3c-1.4-8.4-4-16.3-7.1-24.2
		c-2.8-7.4-6.6-15.9-6.7-24.2"/>
	<line class="st7" x1="879.5" y1="-2129.3" x2="879.4" y2="-2138"/>
	<line class="st7" x1="879.4" y1="-2138" x2="873.2" y2="-2138.8"/>
	<line class="st7" x1="873.2" y1="-2130.1" x2="873.2" y2="-2138.8"/>
	<line class="st7" x1="879.4" y1="-2138" x2="917.8" y2="-2143"/>
	<line class="st7" x1="917.8" y1="-2143" x2="911.6" y2="-2143.7"/>
	<line class="st7" x1="873.2" y1="-2138.8" x2="911.6" y2="-2143.7"/>
	<line class="st7" x1="917.8" y1="-2143" x2="917.6" y2="-2117.8"/>
	<line class="st7" x1="917.6" y1="-2117.8" x2="923.3" y2="-2118.6"/>
	<line class="st7" x1="923.3" y1="-2118.6" x2="917.7" y2="-2119.4"/>
	<line class="st7" x1="923.3" y1="-2118.6" x2="923.4" y2="-2143.7"/>
	<line class="st7" x1="917.2" y1="-2143.1" x2="917.2" y2="-2144.4"/>
	<path class="st7" d="M899-1984.6c-0.4,2.1-0.2,3.8,0.7,5.8c0.9,1.9,2.6,3.1,4.8,2.5"/>
	<line class="st7" x1="904.5" y1="-1976.3" x2="916.9" y2="-1979.9"/>
	<line class="st7" x1="916.9" y1="-1979.9" x2="910.9" y2="-1981.4"/>
	<line class="st7" x1="899.9" y1="-1978.3" x2="910.9" y2="-1981.4"/>
	<line class="st7" x1="916.9" y1="-1979.9" x2="916.9" y2="-1972"/>
	<line class="st7" x1="916.9" y1="-1972" x2="922.3" y2="-1973.7"/>
	<line class="st7" x1="922.3" y1="-1973.7" x2="916.9" y2="-1975"/>
	<line class="st7" x1="922.3" y1="-1973.7" x2="922.4" y2="-1981.5"/>
	<line class="st7" x1="922.4" y1="-1981.5" x2="916.4" y2="-1982.9"/>
	<line class="st7" x1="916.4" y1="-1980" x2="916.4" y2="-1982.9"/>
	<line class="st7" x1="922.4" y1="-1981.5" x2="934.4" y2="-1984.9"/>
	<line class="st7" x1="916.4" y1="-1982.9" x2="928.4" y2="-1986.3"/>
	<path class="st7" d="M934.4-1984.9c2.3-0.9,3.4-2.4,4.4-4.6c0.9-2.1,1.2-4.1,0.9-6.4"/>
	<path class="st7" d="M928.4-1986.3c2.3-0.9,3.4-2.4,4.4-4.5c0.9-2.1,1.2-4.1,0.9-6.3"/>
	<line class="st7" x1="939.7" y1="-1995.8" x2="926.8" y2="-2080"/>
	<line class="st7" x1="933.7" y1="-1997.2" x2="920.6" y2="-2081"/>
	<path class="st7" d="M926.8-2080c-0.2-1.5-0.6-2.7-1.6-3.9c-0.9-1.1-2.3-1.7-3.7-1.5"/>
	<path class="st7" d="M920.6-2081c-0.2-1.5-0.7-2.8-1.7-3.9"/>
	<line class="st7" x1="921.4" y1="-2085.3" x2="919.1" y2="-2084.9"/>
	<path class="st7" d="M919.1-2084.9c-3.1,1.2-5.3,4.1-5.5,7.4"/>
	<line class="st7" x1="913.6" y1="-2077.4" x2="899" y2="-1984.6"/>
	<rect x="381.8" y="-2271.6" class="st8" width="1024" height="522.2"/>
	<line class="st7" x1="926.8" y1="-2080" x2="920.6" y2="-2081"/>
	<line class="st7" x1="939.7" y1="-1995.8" x2="933.7" y2="-1997.2"/>
	<line class="st7" x1="934.4" y1="-1984.9" x2="928.4" y2="-1986.3"/>
	<line class="st7" x1="904.5" y1="-1976.3" x2="900.7" y2="-1977.3"/>
	<line class="st7" x1="879.5" y1="-2129.3" x2="873.2" y2="-2130.1"/>
</g>
<g id="Make2D::visible::lines::Layer_07">
	<line class="st7" x1="2185.3" y1="110.9" x2="2443" y2="137.7"/>
	<line class="st7" x1="2541.7" y1="134.5" x2="2197.9" y2="101.8"/>
	<line class="st7" x1="2442.2" y1="156.5" x2="2541.7" y2="134.5"/>
	<line class="st7" x1="2540.9" y1="144.4" x2="2541.7" y2="134.5"/>
	<line class="st7" x1="2441.5" y1="167.8" x2="2540.9" y2="144.4"/>
	<line class="st7" x1="2084.4" y1="114.7" x2="2442.2" y2="156.5"/>
	<line class="st7" x1="2441.5" y1="167.8" x2="2442.2" y2="156.5"/>
	<line class="st7" x1="2084.5" y1="123.4" x2="2441.5" y2="167.8"/>
	<line class="st7" x1="2197.9" y1="101.8" x2="2084.4" y2="114.7"/>
	<line class="st7" x1="2084.5" y1="123.4" x2="2084.4" y2="114.7"/>
	<polyline class="st7" points="2087.1,123.7 2084.1,124.1 2441,168.7 2540.5,145.2 2538.4,145 	"/>
</g>
</svg>
