<?xml version="1.0" encoding="utf-8"?>
<!-- Generator: Adobe Illustrator 19.0.0, SVG Export Plug-In . SVG Version: 6.00 Build 0)  -->
<svg version="1.1" id="Layer_1" xmlns="http://www.w3.org/2000/svg" xmlns:xlink="http://www.w3.org/1999/xlink" x="0px" y="0px"
	 viewBox="0 0 1024 768" style="enable-background:new 0 0 1024 768;" xml:space="preserve">
<style type="text/css">
	.st0{fill:#FFFFFF;}
	.st1{fill:#9C92F7;}
	.st2{fill:none;stroke:#020202;stroke-miterlimit:10;}
</style>
<g id="XMLID_71_">
	<g id="XMLID_608_">
		<path id="XMLID_31_" class="st0" d="M824.6,605c1.2,2.9,1.4,5.8,1.6,8.9c0.4,6.3,0.2,12.4,0.2,18.4l-16.9-3.2
			c0.1-7.1,0-14.3-0.6-21.4l-0.1-0.1l8.6-5C820.7,600.7,823.1,601.1,824.6,605z"/>
		<path id="XMLID_30_" class="st0" d="M815.4,528.4c0.5,5,0.2,9.7-1.2,14.4c-0.6,2.4-1.5,4.6-2.7,6.9c-1.2,2.2-2.9,3.9-4.9,5.4
			l-17.3-2.8c2.1-1.5,3.7-3.2,4.9-5.4c1.2-2,2.1-4.5,2.7-6.9c1.4-4.7,1.7-9.4,1.2-14.4L815.4,528.4z"/>
		<polygon id="XMLID_29_" class="st0" points="798.2,525.6 774.6,332.5 792.4,334.3 815.4,528.4 		"/>
		<polygon id="XMLID_28_" class="st0" points="804.1,567.8 794.8,572.9 747.6,543.8 748.7,533.7 783.6,555.2 794.3,561.8 		"/>
		<polygon id="XMLID_27_" class="st0" points="794.8,572.9 804.1,567.8 804.1,604.3 803.4,604.7 794.6,609.9 		"/>
		<path id="XMLID_24_" class="st1" d="M767.6,163.5l-507.1-19.4l-10.1,1.8l508.1,20L767.6,163.5z M960.4,144.7l-191.8,55.7
			L63.6,164.1l220.3-39.7L960.4,144.7z"/>
		<path id="XMLID_23_" class="st1" d="M794.8,572.9l-0.2,36.9l-17.5-3.4l0-18.3l-0.7-0.1l0-16.5l-17.5-3.2l-13.4,7.1
			c-0.9-3.3-1-6.7-0.4-10.1l2.4-21.5L794.8,572.9z"/>
		<path id="XMLID_22_" class="st0" d="M789.9,326.2c1.5,2.6,2.1,5.2,2.5,8.1l-17.8-1.8c-0.1-1.2-0.3-2.3-0.6-3.3l-0.1-0.1
			c1.3-2,3-4,5.1-4.8l4-1.4C786.1,321.8,788.4,323.8,789.9,326.2z"/>
		<polygon id="XMLID_21_" class="st0" points="794.3,561.8 783.6,555.2 783.6,555.2 789.3,552.3 806.6,555.1 		"/>
		<path id="XMLID_20_" class="st0" d="M776.4,571.6l-21.6,11.6l-6.5-1.1c-1.1-1.2-1.7-3.2-2.1-4.6c-0.2-0.7-0.4-1.3-0.6-2l13.4-7.1
			L776.4,571.6z"/>
		<path id="XMLID_17_" class="st1" d="M808.8,607.7l-65.6,38c-7.2,4.2-8.8,12.9-9.5,20.1c-0.9,7.7-0.6,15.4-0.7,23l-20.2,12.1
			c-0.2-40,2.5-79.7,6-119.4c3.7-39.7,8.4-79.3,12.3-118.8c2.1-19.8,3.7-39.7,4.6-59.6c0.9-19.9,0.6-39.7-1.7-59.6
			c-2.5-20.5-6.8-38.6-12.6-58.3c-5.5-18.6-12.2-37.9-12.4-58.1c0-0.1,0-0.1,0-0.2l-0.1-6l59.2,3.5l8.2-2.5l0,24.9l0.7-0.2l0,38.1
			l18.4,1.6l5.7-2.1c0.8,0.1,1.5,0.1,2.1,0.2c0.2,0,0.4,0,0.6,0c0.2,0,0.4,0.2,0.4,0c0-0.4-0.1-0.8-0.1-1.2c0,0,0-0.1,0-0.1l1-0.4
			l0.3-69.6l40.8-12.5c-2.1,16.6-6.8,34.6-10.5,50.7c-4,17.3-7.4,34.6-9.4,52.4c-4.5,37.2-2.6,69.3,1,106.4
			c3.5,35.3,7.9,70.6,11.4,105.9c3.5,35.3,5.6,70.6,5.3,106.1l0,0l-17.4,10.4c0-6.1,0.2-12.2-0.2-18.4c-0.2-3.1-0.4-6.1-1.6-8.9
			c-1.4-3.8-3.8-4.3-7.2-2.3L808.8,607.7z M777.1,588.2l0,18.3l17.5,3.4l8.8-5.1l0.7-0.4l0-36.5l-9.8-6l12.3-6.7
			c2.1-1.5,3.7-3.2,4.9-5.4c1.2-2.2,2.1-4.5,2.7-6.9c1.4-4.7,1.7-9.4,1.2-14.4l-23-194.1c-0.4-2.9-0.9-5.4-2.5-8.1
			c-1.5-2.5-3.8-4.5-6.9-3.3l-4,1.4c-2.1,0.8-3.8,2.7-5.1,4.8c-0.7,1.1-1.3,2.3-1.8,3.3c-1.5,3.4-2.3,6.8-2.7,10.6l0.2,0
			l-20.9,190.7l-1.1,10.1l-2.4,21.5c-0.6,3.5-0.5,6.8,0.4,10.1c0.2,0.7,0.4,1.3,0.6,2c0.4,1.4,1,3.3,2.1,4.6
			c0.2,0.3,0.5,0.5,0.8,0.7c1.6,1.2,3.9,1.3,5.7,0.5l0-0.1l21.6-11.6l0,16.5L777.1,588.2z"/>
		<path id="XMLID_16_" class="st0" d="M711.2,315c-0.1-0.4-0.2-0.8-0.3-1.2c-0.2-0.7-0.3-1.4-0.5-2.1c-2.2-9.3-4.8-18.5-7.7-28.1
			c-5.5-18.4-12.4-37.7-12.6-57.7l0.2,0l18.5,1.2c0.2,20.2,6.9,39.5,12.4,58.1c5.8,19.7,10.1,37.8,12.6,58.3
			c2.3,19.9,2.6,39.7,1.7,59.6c-0.9,19.9-2.5,39.8-4.6,59.6c-3.9,39.5-8.6,79.1-12.3,118.8c-3.5,39.7-6.2,79.3-6,119.4l-17.5-4
			c-0.4-38.9,2.2-77.5,5.6-116.2c0.1-0.8,0.2-1.6,0.2-2.4c1.8-19.9,3.9-39.7,6-59.5c0.4-3.3,0.7-6.6,1.1-9.9
			c1.8-16.3,3.5-32.5,5-48.8c1.9-19.8,3.7-39.5,4.4-59.2c0.9-19.9,0.6-39.5-1.9-59.4C714.6,332.2,713.1,323.6,711.2,315z"/>
		<path id="XMLID_15_" class="st0" d="M708.2,508.9c-0.4,3.3-0.7,6.6-1.1,9.9l-0.1,0l-142.6-87.9l10.1-4L708.2,508.9L708.2,508.9z"
			/>
		<path id="XMLID_14_" class="st0" d="M572.5,395.2l138.4-81.3c0.1,0.4,0.2,0.8,0.3,1.2c-24.5,14.3-49,28.8-73.5,43.1
			c-12.3,7.3-24.6,14.4-36.9,21.6c-6.1,3.5-12.3,7.3-18.3,10.8c-3,1.8-6.1,3.5-9.1,5.3c-3.6,2.2-5.7,3.3-7.6,7.4
			c-2.8,8.8,1.2,18.6,8.8,23.6l-10.1,4c-5.3-3.6-8.8-9.2-9.7-15.7c-0.4-3.3-0.2-6.3,1.2-9.3c1.4-3,3.4-5.1,6.4-6.9l0-0.2
			L572.5,395.2z"/>
		<polygon id="XMLID_13_" class="st0" points="346.6,261 490.6,374 490.5,374 480.3,377.6 480.1,377.5 336,263.7 		"/>
		<path id="XMLID_12_" class="st0" d="M490.5,374c2.5,2,4.9,3,7.8,3.2l0,0.1l-3.8,2.2c-4.7,2.5-10.5,1.7-14.5-1.8l0.1-0.1l0.1,0.1
			L490.5,374z"/>
		<path id="XMLID_11_" class="st0" d="M328.2,517.9c0.9,5.4,1.1,11.1,1.5,16.6l-11.7-2.4c0.1-7.6-0.8-14.8-3-22.1l2.9-1.1
			C325.1,506.1,327.2,511.8,328.2,517.9z"/>
		<path id="XMLID_10_" class="st0" d="M312,446.7c0.3,1.1,0.3,2.1,0.4,3.2l-12.4,4.7c0.7-3.3,0.9-6.5,0.1-9.9L312,446.7z"/>
		<polygon id="XMLID_9_" class="st0" points="276.1,284.2 312,446.7 300.1,444.7 264,283.1 		"/>
		<path id="XMLID_8_" class="st1" d="M313.3,509.4c8.4-3.5,16.8-7,25.2-10.5c2.6-1.1,5.2-2.2,7.9-3.3c1.2,10.4,2.1,20.6,2.6,31.1
			l-19.3,7.7c-0.4-5.5-0.5-11.2-1.5-16.6c-1-6-3.1-11.8-10.4-8.9l-2.9,1.1l-23.5,9l-0.1-0.3c1-0.5,2.1-0.9,3.1-1.4
			c2.1-0.9,4.2-1.8,6.3-2.6C304.9,512.9,309.1,511.3,313.3,509.4z"/>
		<path id="XMLID_5_" class="st1" d="M343.8,233.1l-2.9-0.2c-7.5-0.7-11.6,6.4-12.1,13c-0.5,6.7,2.1,13.4,7.2,17.8l144.2,113.8
			l-0.1,0.1c4,3.5,9.7,4.3,14.5,1.8l3.8-2.2L651,290.9c3.4-2.2,5.9-5.3,7.3-9.1c0.7-1.8,0.9-3.8,1-5.8c-0.1-1-0.1-2-0.2-2.9
			s-0.3-1.9-0.6-2.9c-1.7-7.9-8.2-14-16.3-15L343.8,233.1z M281.1,521.5c-2.5,0.8-4.5-0.3-6.2-2.1c-1.7-2-2.4-4-2.6-6.5l-1.1-17.4
			l-0.1-1l-0.8-0.1l-0.7-13.9l-11.9-2l-10.5,3.7l0-0.1l-0.5-7.2l53.3-20.3l12.4-4.7l25.7-9.8l79.4-30.2l0.1,0.2
			c2.8-1.4,4.8-3.2,6.2-6.1c1.4-2.8,1.6-5.4,1.4-8.5c-0.4-6.1-3.1-11.6-7.9-15.4l-105.6-90l-52.4-44.6c-2.1-1.8-3.2-4.3-3.4-7
			l-1.5-26.8l-0.1-1.2l-0.8-0.1l-0.9-16.6l437.8,26l0.1,6.1l-0.2,0c0.2,20,7.1,39.3,12.6,57.7c2.9,9.6,5.5,18.8,7.7,28.1
			l-148.1,87.1l0,0.2c-3,1.8-5.1,3.9-6.4,6.9c-1.4,3-1.6,6-1.2,9.3c0.8,6.4,4.3,12.1,9.7,15.7L707,518.8l0.1,0
			c-2.1,19.8-4.3,39.6-6,59.5c-0.1,0.8-0.1,1.6-0.2,2.4l0,0L489.3,434.5l-201.7,84.3l-6.3,2.6L281.1,521.5z"/>
		<path id="XMLID_4_" class="st0" d="M236.6,485.9l10.5-3.7l10.5-3.7l11.9,2l-23.8,8.6l-7.5-1.3l-0.1,0.1
			C237.6,487.3,237.1,486.6,236.6,485.9z"/>
		<path id="XMLID_3_" class="st1" d="M245.8,489.1l23.8-8.6l0.7,13.9l0.1,1.6l0.8-0.4l1.1,17.4c0.2,2.5,0.9,4.5,2.6,6.5
			c1.7,1.9,3.7,2.9,6.2,2.1l0.2,0l6.3-2.6l0,0.1l2.7-1l1.3-0.5l54.7-22.8c0,0.3,0.1,0.6,0.1,1c-2.6,1.1-5.3,2.2-7.9,3.3
			c-8.4,3.5-16.8,7-25.2,10.5c-4.2,1.8-8.4,3.5-12.6,5.3c-2.1,0.7-4.2,1.6-6.3,2.6c-1,0.5-2.1,0.9-3.1,1.4l0.1,0.3l-55.8,21.4
			c-7.1,2.8-9.2,8.8-9.8,15.6c-0.6,6.5,0.1,13,0.5,19.6l-22,8.7c-2.4-33.2-1.2-66.1,1.2-99.2c2.2-32.9,5.7-66,8.3-98.9
			c1.3-16.6,2.2-32.9,2.1-49.6s-1.5-32.9-5.4-49.1c-3.8-16.2-9.9-31.6-16.8-46.6c-6.4-14.1-14.9-30.3-16-46.7l-0.2,0l-0.3-4.8
			l75.3,4.5l0.9,16.6l0.1,1.4l0.8-0.1l1.5,26.8c0.2,2.7,1.3,5.2,3.4,7l52.4,44.6c0.8,24.1,6.1,51.7,11,75.3
			c5.2,25,10.7,49.7,15.4,74.7l-25.7,9.8c-0.1-1.1-0.1-2.1-0.4-3.2l-35.9-162.4c-0.6-2.9-1.5-5.2-3.6-7.2c-1.9-2-4.5-3-7.4-2.5
			l-4.4,1.1c-0.1,0-0.2,0.1-0.3,0.1c-6.1,1.8-9.1,9.6-9.5,15.1L234,473.7c-0.5,3.8,0.3,7.8,2.1,11.3c0.2,0.3,0.3,0.6,0.5,0.9
			c0.4,0.7,0.9,1.4,1.6,1.9l0.1-0.1L245.8,489.1z"/>
		<path id="XMLID_2_" class="st0" d="M177.7,194c1.1,16.4,9.6,32.6,16,46.7c6.9,15.1,13,30.4,16.8,46.6c3.8,16.2,5.3,32.5,5.4,49.1
			s-0.8,33-2.1,49.6c-2.6,33-6.1,66-8.3,98.9c-2.4,33.1-3.6,66-1.2,99.2l-12-2.8c-2.3-33-1.1-65.7,1-98.6s5.8-65.6,8.1-98.5
			c1.3-16.4,2.2-32.7,2.1-49.4c-0.1-16.7-1.5-32.7-5.3-48.9c-3.8-16.2-9.9-31.4-16.8-46.4c-6.4-13.8-14.8-29.8-16.1-46.1l12.2,0.8
			l0-0.2L177.7,194z"/>
	</g>
	<g id="XMLID_464_">
		<line id="XMLID_175_" class="st2" x1="960" y1="164.2" x2="960.4" y2="144.7"/>
		<line id="XMLID_174_" class="st2" x1="804.1" y1="604.3" x2="804.1" y2="567.8"/>
		<line id="XMLID_173_" class="st2" x1="804.1" y1="567.8" x2="794.8" y2="572.9"/>
		<line id="XMLID_172_" class="st2" x1="794.6" y1="609.9" x2="794.8" y2="572.9"/>
		<polyline id="XMLID_171_" class="st2" points="804.1,604.3 803.4,604.7 794.6,609.9 		"/>
		<polyline id="XMLID_170_" class="st2" points="804.1,567.8 794.3,561.8 783.6,555.2 748.7,533.7 748.6,533.7 		"/>
		<line id="XMLID_169_" class="st2" x1="708.1" y1="508.9" x2="574.6" y2="426.8"/>
		<polyline id="XMLID_168_" class="st2" points="794.8,572.9 747.6,543.8 747.5,543.8 		"/>
		<line id="XMLID_167_" class="st2" x1="707" y1="518.8" x2="564.4" y2="430.8"/>
		<path id="XMLID_166_" class="st2" d="M574.6,426.8c-7.6-5-11.6-14.8-8.8-23.6"/>
		<path id="XMLID_165_" class="st2" d="M567,400.6c1.4-2.4,3.1-4.1,5.7-5.5"/>
		<line id="XMLID_164_" class="st2" x1="572.5" y1="395.2" x2="562.4" y2="398.8"/>
		<path id="XMLID_163_" class="st2" d="M564.4,430.8c-5.3-3.6-8.8-9.2-9.7-15.7c-0.4-3.3-0.2-6.3,1.2-9.3c1.4-3,3.4-5.1,6.4-6.9"/>
		<polyline id="XMLID_162_" class="st2" points="572.5,395.2 710.9,313.8 711.2,313.7 		"/>
		<polyline id="XMLID_161_" class="st2" points="562.4,398.8 710.4,311.7 710.6,311.6 		"/>
		<line id="XMLID_160_" class="st2" x1="776.2" y1="245.2" x2="776.8" y2="245.2"/>
		<line id="XMLID_159_" class="st2" x1="290.3" y1="518" x2="287.6" y2="518.9"/>
		<polyline id="XMLID_158_" class="st2" points="776.8,245.2 776.8,246.6 776.8,284.7 		"/>
		<line id="XMLID_157_" class="st2" x1="801.6" y1="605.9" x2="803.4" y2="606.2"/>
		<path id="XMLID_156_" class="st2" d="M288,519.1c1.2,0.3,2.2,0.1,3.3-0.4c1-0.5,2.1-0.9,3.1-1.4c2.1-0.9,4.2-1.8,6.3-2.6
			c4.2-1.8,8.4-3.5,12.6-5.3c8.4-3.5,16.8-7,25.2-10.5c2.6-1.1,5.2-2.2,7.9-3.3c14.2-5.9,28.6-11.8,42.8-17.9
			c33.8-14,67.5-28.1,101.3-42.1"/>
		<path id="XMLID_155_" class="st2" d="M800.7,284.1c0,0,0.1,0,0.1,0c0.8,0.1,1.5,0.1,2.1,0.2c0.2,0,0.4,0,0.6,0
			c0.2,0,0.4,0.2,0.4,0c0-0.4-0.1-0.8-0.1-1.2c0,0,0-0.1,0-0.1c0.1-1.6,0-3.3,0.1-4.8c0-3.1,0-6.3,0-9.4c0-6.3,0-12.8,0.1-19.1
			c0-12.2,0.1-24.2,0.1-36.4c0-0.5,0-1,0-1.6c0,0,0-0.1,0-0.1"/>
		<path id="XMLID_154_" class="st2" d="M565.8,403.2c1.9-4.1,4-5.2,7.6-7.4c3-1.8,6.1-3.5,9.1-5.3c6.1-3.5,12.3-7.3,18.3-10.8
			c12.3-7.3,24.6-14.4,36.9-21.6c24.5-14.3,49-28.8,73.5-43.1c0.1,0,0.2-0.1,0.3-0.2"/>
		<polyline id="XMLID_153_" class="st2" points="803.4,606.2 803.4,604.7 803.4,569.6 		"/>
		<line id="XMLID_152_" class="st2" x1="250.8" y1="290.8" x2="234" y2="473.7"/>
		<path id="XMLID_151_" class="st2" d="M260.6,275.6c-0.1,0-0.2,0.1-0.3,0.1c-6.1,1.8-9.1,9.6-9.5,15.1"/>
		<line id="XMLID_150_" class="st2" x1="265" y1="274.6" x2="260.6" y2="275.6"/>
		<path id="XMLID_149_" class="st2" d="M264,283.1c-0.6-2.9-1.7-5.1-3.8-7.3c0,0,0-0.1-0.1-0.1"/>
		<path id="XMLID_148_" class="st2" d="M276.1,284.2c-0.6-2.9-1.5-5.2-3.6-7.2c-1.9-2-4.5-3-7.4-2.5"/>
		<line id="XMLID_147_" class="st2" x1="300.1" y1="444.7" x2="264" y2="283.1"/>
		<polyline id="XMLID_146_" class="st2" points="804.8,282.7 803.8,283 800.9,284.1 795.2,286.2 		"/>
		<line id="XMLID_145_" class="st2" x1="312" y1="446.7" x2="276.1" y2="284.2"/>
		<path id="XMLID_144_" class="st2" d="M299.9,454.7C299.9,454.7,299.9,454.6,299.9,454.7c0.8-3.4,0.9-6.6,0.1-10"/>
		<line id="XMLID_143_" class="st2" x1="776.8" y1="284.7" x2="795.2" y2="286.2"/>
		<path id="XMLID_142_" class="st2" d="M312.4,450C312.4,449.9,312.4,449.9,312.4,450c-0.1-1.2-0.1-2.2-0.4-3.3"/>
		<line id="XMLID_141_" class="st2" x1="270.4" y1="495.9" x2="271.1" y2="495.5"/>
		<polyline id="XMLID_140_" class="st2" points="269.6,480.4 270.3,494.3 270.4,495.9 		"/>
		<polyline id="XMLID_139_" class="st2" points="236.6,485.9 236.6,485.9 247.1,482.2 257.7,478.5 		"/>
		<line id="XMLID_138_" class="st2" x1="269.6" y1="480.4" x2="257.7" y2="478.5"/>
		<line id="XMLID_137_" class="st2" x1="245.8" y1="489.1" x2="269.6" y2="480.4"/>
		<polyline id="XMLID_136_" class="st2" points="804.8,282.7 805.1,213 805.1,211.6 		"/>
		<path id="XMLID_135_" class="st2" d="M234,473.7c-0.5,3.8,0.3,7.8,2.1,11.3c0.2,0.3,0.3,0.6,0.5,0.9c0.4,0.7,0.9,1.4,1.6,1.9
			c0.5,0.5,1.2,0.9,1.9,1.2c2,0.9,3.6,0.9,5.7,0.2"/>
		<line id="XMLID_134_" class="st2" x1="253.5" y1="211.7" x2="254.3" y2="211.6"/>
		<polyline id="XMLID_133_" class="st2" points="252.4,192.1 252.4,192.2 252.5,193.7 253.4,210.3 253.5,211.7 		"/>
		<polyline id="XMLID_132_" class="st2" points="165.3,193.1 165,188.5 164.9,187 		"/>
		<polyline id="XMLID_131_" class="st2" points="177.5,194.2 177.5,194 177.2,189.3 177.1,187.8 		"/>
		<path id="XMLID_130_" class="st2" d="M165.3,193.5c0-0.1,0-0.3,0-0.4"/>
		<path id="XMLID_129_" class="st2" d="M192.3,581.5c-2.3-33-1.1-65.7,1-98.6s5.8-65.6,8.1-98.5c1.3-16.4,2.2-32.7,2.1-49.4
			c-0.1-16.7-1.5-32.7-5.3-48.9c-3.8-16.2-9.9-31.4-16.8-46.4c-6.4-13.8-14.8-29.8-16.1-46.1"/>
		<polyline id="XMLID_128_" class="st2" points="795.2,286.2 795.2,216 795.2,214.5 		"/>
		<path id="XMLID_127_" class="st2" d="M204.3,584.2c-2.4-33.2-1.2-66.1,1.2-99.2c2.2-32.9,5.7-66,8.3-98.9
			c1.3-16.6,2.2-32.9,2.1-49.6s-1.5-32.9-5.4-49.1c-3.8-16.2-9.9-31.6-16.8-46.6c-6.4-14.1-14.9-30.3-16-46.7"/>
		<line id="XMLID_126_" class="st2" x1="204.3" y1="584.2" x2="192.3" y2="581.5"/>
		<line id="XMLID_125_" class="st2" x1="226.3" y1="575.5" x2="204.3" y2="584.2"/>
		<path id="XMLID_124_" class="st2" d="M235.6,540.4c-7.1,2.8-9.2,8.8-9.8,15.6c-0.6,6.5,0.1,13,0.5,19.6"/>
		<polyline id="XMLID_123_" class="st2" points="317.8,508.9 314.9,510 291.4,519 235.6,540.4 		"/>
		<path id="XMLID_122_" class="st2" d="M317.9,532.1c0.1-7.6-0.8-14.8-3-22.1c0,0,0-0.1,0-0.1"/>
		<path id="XMLID_121_" class="st2" d="M329.6,534.5c-0.4-5.5-0.5-11.2-1.5-16.6c-1-6-3.1-11.8-10.4-8.9"/>
		<line id="XMLID_120_" class="st2" x1="329.6" y1="534.5" x2="317.9" y2="532.1"/>
		<line id="XMLID_119_" class="st2" x1="349" y1="526.7" x2="329.6" y2="534.5"/>
		<path id="XMLID_118_" class="st2" d="M346.3,494.7c0,0.3,0.1,0.6,0.1,1c1.2,10.4,2.1,20.6,2.6,31.1"/>
		<path id="XMLID_117_" class="st2" d="M311.6,290c0,0,0,0.1,0,0.1c0.8,24.1,6.1,51.7,11,75.3c5.2,25,10.7,49.7,15.4,74.7
			c0,0,0,0.1,0,0.1"/>
		<polyline id="XMLID_116_" class="st2" points="768.5,163.3 767.6,163.5 758.5,165.9 		"/>
		<line id="XMLID_115_" class="st2" x1="768.5" y1="163.3" x2="261.2" y2="143.8"/>
		<line id="XMLID_114_" class="st2" x1="260.5" y1="144.1" x2="250.4" y2="145.9"/>
		<line id="XMLID_113_" class="st2" x1="758.5" y1="165.9" x2="250.4" y2="145.9"/>
		<polyline id="XMLID_112_" class="st2" points="253.4,210.3 253.4,210.3 254.2,210.5 		"/>
		<polyline id="XMLID_111_" class="st2" points="254.2,210.5 254.3,211.6 255.8,238.4 		"/>
		<path id="XMLID_110_" class="st2" d="M255.8,238.4c0.2,2.7,1.3,5.2,3.4,7"/>
		<polyline id="XMLID_109_" class="st2" points="259.2,245.5 311.6,290.1 417.2,380.1 		"/>
		<path id="XMLID_108_" class="st2" d="M417.2,380.1c4.8,3.8,7.5,9.3,7.9,15.4c0.2,3.1,0,5.7-1.4,8.5c-1.4,2.8-3.4,4.7-6.2,6.1
			c0,0-0.1,0-0.1,0"/>
		<polyline id="XMLID_107_" class="st2" points="417.4,410 338,440.1 312.4,449.9 299.9,454.6 246.6,474.9 		"/>
		<polyline id="XMLID_106_" class="st2" points="769.6,343.1 748.7,533.7 747.6,543.8 745.2,565.4 		"/>
		<path id="XMLID_105_" class="st2" d="M779,324.4c-2.1,0.8-3.8,2.7-5.1,4.8c-0.7,1.1-1.3,2.3-1.8,3.3c-1.5,3.4-2.3,6.8-2.7,10.6"/>
		<line id="XMLID_104_" class="st2" x1="783" y1="322.9" x2="779" y2="324.4"/>
		<path id="XMLID_103_" class="st2" d="M774.6,332.5c-0.1-1.2-0.3-2.3-0.6-3.3"/>
		<path id="XMLID_102_" class="st2" d="M792.4,334.3c-0.4-2.9-0.9-5.4-2.5-8.1c-1.5-2.5-3.8-4.5-6.9-3.3"/>
		<line id="XMLID_101_" class="st2" x1="798.2" y1="525.6" x2="774.6" y2="332.5"/>
		<line id="XMLID_100_" class="st2" x1="246.6" y1="474.9" x2="247.1" y2="482.1"/>
		<line id="XMLID_99_" class="st2" x1="815.4" y1="528.4" x2="792.4" y2="334.3"/>
		<path id="XMLID_98_" class="st2" d="M789.3,552.3c2.1-1.5,3.7-3.2,4.9-5.4c1.2-2,2.1-4.5,2.7-6.9c1.4-4.7,1.7-9.4,1.2-14.4
			c0-0.1,0-0.1,0-0.2"/>
		<polyline id="XMLID_97_" class="st2" points="270.3,494.3 270.3,494.3 271.1,494.5 		"/>
		<path id="XMLID_96_" class="st2" d="M806.6,555.1c2.1-1.5,3.7-3.2,4.9-5.4c1.2-2.2,2.1-4.5,2.7-6.9c1.4-4.7,1.7-9.4,1.2-14.4
			c0-0.1,0-0.1,0-0.2"/>
		<line id="XMLID_95_" class="st2" x1="783.6" y1="555.2" x2="789.3" y2="552.3"/>
		<polyline id="XMLID_94_" class="st2" points="271.1,494.5 271.1,495.5 272.3,512.9 		"/>
		<line id="XMLID_93_" class="st2" x1="794.3" y1="561.8" x2="806.6" y2="555.1"/>
		<line id="XMLID_92_" class="st2" x1="776.4" y1="589.8" x2="777" y2="589.4"/>
		<polyline id="XMLID_91_" class="st2" points="776.4,571.6 776.4,588.1 776.4,589.8 		"/>
		<polyline id="XMLID_90_" class="st2" points="745.5,575.6 745.6,575.5 758.9,568.4 		"/>
		<line id="XMLID_89_" class="st2" x1="776.4" y1="571.6" x2="758.9" y2="568.4"/>
		<line id="XMLID_88_" class="st2" x1="754.8" y1="583.2" x2="776.4" y2="571.6"/>
		<path id="XMLID_87_" class="st2" d="M272.3,512.9c0.2,2.5,0.9,4.5,2.6,6.5c1.7,1.9,3.7,2.9,6.2,2.1"/>
		<path id="XMLID_86_" class="st2" d="M745.2,565.4c-0.6,3.5-0.5,6.8,0.4,10.1c0.2,0.7,0.4,1.3,0.6,2c0.4,1.4,1,3.3,2.1,4.6
			c0.2,0.3,0.5,0.5,0.8,0.7c1.6,1.2,3.9,1.3,5.7,0.5c0.1,0,0.1,0,0.2-0.1"/>
		<polyline id="XMLID_85_" class="st2" points="776.1,246.8 776.8,246.6 776.9,246.6 		"/>
		<polyline id="XMLID_84_" class="st2" points="776.2,220.3 776.2,221.9 776.1,246.8 		"/>
		<polyline id="XMLID_83_" class="st2" points="690.3,225.9 690.2,219.7 690.2,218 		"/>
		<polyline id="XMLID_82_" class="st2" points="708.9,226.8 708.8,220.9 708.7,219 708.7,219 		"/>
		<path id="XMLID_81_" class="st2" d="M695.2,696.8c-0.4-38.9,2.2-77.5,5.6-116.2c0.1-0.8,0.2-1.6,0.2-2.4c1.8-19.9,3.9-39.7,6-59.5
			c0.4-3.3,0.7-6.6,1.1-9.9c1.8-16.3,3.5-32.5,5-48.8c1.9-19.8,3.7-39.5,4.4-59.2c0.9-19.9,0.6-39.5-1.9-59.4
			c-1.1-9.2-2.7-17.9-4.5-26.5c-0.1-0.4-0.2-0.8-0.3-1.2c-0.2-0.7-0.3-1.4-0.5-2.1c-2.2-9.3-4.8-18.5-7.7-28.1
			c-5.5-18.4-12.4-37.7-12.6-57.7c0-0.1,0-0.1,0-0.2"/>
		<polyline id="XMLID_80_" class="st2" points="291.6,517.5 346.3,494.7 489.7,434.9 		"/>
		<path id="XMLID_79_" class="st2" d="M712.8,700.8c-0.2-40,2.5-79.7,6-119.4c3.7-39.7,8.4-79.3,12.3-118.8
			c2.1-19.8,3.7-39.7,4.6-59.6c0.9-19.9,0.6-39.7-1.7-59.6c-2.5-20.5-6.8-38.6-12.6-58.3c-5.5-18.6-12.2-37.9-12.4-58.1
			c0-0.1,0-0.1,0-0.2"/>
		<line id="XMLID_78_" class="st2" x1="712.8" y1="700.8" x2="695.2" y2="696.8"/>
		<line id="XMLID_77_" class="st2" x1="733" y1="688.7" x2="712.8" y2="700.8"/>
		<path id="XMLID_76_" class="st2" d="M743.2,645.6c-7.2,4.2-8.8,12.9-9.5,20.1c-0.9,7.7-0.6,15.4-0.7,23"/>
		<polyline id="XMLID_75_" class="st2" points="817.3,602.7 808.8,607.7 743.2,645.6 		"/>
		<path id="XMLID_74_" class="st2" d="M809.4,629.1c0.1-7.1,0-14.3-0.6-21.4"/>
		<path id="XMLID_73_" class="st2" d="M826.3,632.3c0-6.1,0.2-12.2-0.2-18.4c-0.2-3.1-0.4-6.1-1.6-8.9c-1.4-3.8-3.8-4.3-7.2-2.3"/>
		<line id="XMLID_72_" class="st2" x1="826.3" y1="632.3" x2="809.4" y2="629.1"/>
		<line id="XMLID_70_" class="st2" x1="843.7" y1="622" x2="826.3" y2="632.3"/>
		<path id="XMLID_69_" class="st2" d="M846.1,199.1c-0.1,0.5-0.1,1-0.2,1.5c-2.1,16.6-6.8,34.6-10.5,50.7c-4,17.3-7.4,34.6-9.4,52.4
			c-4.5,37.2-2.6,69.3,1,106.4c3.5,35.3,7.9,70.6,11.4,105.9c3.5,35.3,5.6,70.6,5.3,106.1c0,0.1,0,0.1,0,0.2"/>
		<polyline id="XMLID_68_" class="st2" points="651,290.9 498.3,377.3 494.5,379.4 		"/>
		<path id="XMLID_67_" class="st2" d="M642.2,255.1c8.1,1,14.6,7.1,16.3,15c0.3,1,0.5,1.9,0.6,2.9s0.1,2,0.2,2.9
			c-0.1,2-0.3,3.9-1,5.8c-1.3,3.8-3.9,6.9-7.3,9.1"/>
		<polyline id="XMLID_66_" class="st2" points="340.9,232.9 343.8,233.1 642.2,255.1 		"/>
		<path id="XMLID_65_" class="st2" d="M336,263.7c-5.2-4.4-7.8-11.1-7.2-17.8c0.6-6.5,4.6-13.7,12.1-13"/>
		<path id="XMLID_64_" class="st2" d="M346.6,261c-4-3.5-6.6-8.2-7.2-13.5c-0.5-5.3,0.5-10.4,4.3-14.4l0,0"/>
		<polyline id="XMLID_63_" class="st2" points="480.3,377.6 480.1,377.5 336,263.7 		"/>
		<polyline id="XMLID_62_" class="st2" points="281.3,521.5 287.6,518.9 489.3,434.5 		"/>
		<line id="XMLID_61_" class="st2" x1="490.6" y1="374" x2="346.6" y2="261"/>
		<path id="XMLID_60_" class="st2" d="M494.5,379.4c-4.7,2.5-10.5,1.7-14.5-1.8"/>
		<line id="XMLID_59_" class="st2" x1="489.3" y1="434.5" x2="700.8" y2="580.6"/>
		<path id="XMLID_58_" class="st2" d="M498.3,377.2c-2.9-0.2-5.4-1.2-7.8-3.2c0,0,0,0,0,0"/>
		<line id="XMLID_57_" class="st2" x1="777.1" y1="606.5" x2="794.6" y2="609.9"/>
		<line id="XMLID_56_" class="st2" x1="777.1" y1="588.2" x2="777.1" y2="606.5"/>
		<polyline id="XMLID_55_" class="st2" points="776.3,588.1 776.4,588.1 777.1,588.2 		"/>
		<line id="XMLID_54_" class="st2" x1="346.6" y1="261" x2="336" y2="263.7"/>
		<line id="XMLID_53_" class="st2" x1="708.9" y1="227" x2="690.3" y2="225.9"/>
		<polyline id="XMLID_52_" class="st2" points="754.8,583.2 748.3,582.1 748.2,582.1 		"/>
		<line id="XMLID_51_" class="st2" x1="291.6" y1="517.5" x2="290.3" y2="518"/>
		<line id="XMLID_50_" class="st2" x1="806.6" y1="555.1" x2="789.3" y2="552.3"/>
		<line id="XMLID_49_" class="st2" x1="815.4" y1="528.4" x2="798.2" y2="525.6"/>
		<line id="XMLID_48_" class="st2" x1="792.4" y1="334.3" x2="774.6" y2="332.5"/>
		<polyline id="XMLID_47_" class="st2" points="177.5,194.2 165.3,193.5 165.3,193.5 		"/>
		<line id="XMLID_46_" class="st2" x1="245.8" y1="489.1" x2="238.2" y2="487.8"/>
		<line id="XMLID_45_" class="st2" x1="312" y1="446.7" x2="300.1" y2="444.7"/>
		<line id="XMLID_44_" class="st2" x1="276.1" y1="284.2" x2="264" y2="283.1"/>
		<line id="XMLID_43_" class="st2" x1="574.6" y1="426.8" x2="564.4" y2="430.8"/>
		<polyline id="XMLID_42_" class="st2" points="490.6,374 490.5,374 480.3,377.6 		"/>
		<polyline id="XMLID_41_" class="st2" points="260.5,144.1 767.6,163.5 767.8,163.5 		"/>
		<line id="XMLID_40_" class="st2" x1="960.4" y1="144.7" x2="283.9" y2="124.5"/>
		<line id="XMLID_39_" class="st2" x1="768.6" y1="200.4" x2="960.4" y2="144.7"/>
		<polyline id="XMLID_38_" class="st2" points="768.7,222.6 776.2,220.3 795.2,214.5 804.1,211.8 805,211.5 846,199 955.2,165.6 
			960,164.2 		"/>
		<line id="XMLID_37_" class="st2" x1="63.6" y1="164.1" x2="768.6" y2="200.4"/>
		<line id="XMLID_36_" class="st2" x1="768.7" y1="222.6" x2="768.6" y2="200.4"/>
		<polyline id="XMLID_35_" class="st2" points="65.1,181.1 70,181.4 164.9,187 177.1,187.7 252.4,192.2 690.2,217.9 708.7,219 
			768.7,222.6 		"/>
		<line id="XMLID_34_" class="st2" x1="283.9" y1="124.5" x2="63.6" y2="164.1"/>
		<line id="XMLID_33_" class="st2" x1="65.1" y1="181.1" x2="63.6" y2="164.1"/>
		<polyline id="XMLID_32_" class="st2" points="70.1,181.4 70,181.4 64.3,182.6 165,188.5 177.2,189.3 252.5,193.7 690.2,219.7 
			708.8,220.9 768,224.4 776.2,221.9 795.2,216 804.1,213.3 805.1,213 845.9,200.5 959.4,165.8 955.2,165.7 		"/>
	</g>
</g>
</svg>
