<?xml version="1.0" encoding="UTF-8" standalone="no"?>
<svg width="222px" height="131px" viewBox="0 0 222 131" version="1.1" xmlns="http://www.w3.org/2000/svg" xmlns:xlink="http://www.w3.org/1999/xlink" xmlns:sketch="http://www.bohemiancoding.com/sketch/ns">
    <!-- Generator: Sketch 3.3.3 (12072) - http://www.bohemiancoding.com/sketch -->
    <title>Group</title>
    <desc>Created with Sketch.</desc>
    <defs></defs>
    <g id="Page-1" stroke="none" stroke-width="1" fill="none" fill-rule="evenodd" sketch:type="MSPage">
        <g id="Group" sketch:type="MSLayerGroup">
            <path d="M5,35 L42.5,11 L80,35" id="Path-1" stroke="#F15C68" stroke-width="2" sketch:type="MSShapeGroup"></path>
            <polygon id="Star-1" fill="#78A0AB" sketch:type="MSShapeGroup" points="180 111 172.946577 114.708204 174.293661 106.854102 168.587322 101.291796 176.473288 100.145898 180 93 183.526712 100.145898 191.412678 101.291796 185.706339 106.854102 187.053423 114.708204 "></polygon>
            <polygon id="Star-1-Copy" fill="#78A0AB" sketch:type="MSShapeGroup" points="208 111 200.946577 114.708204 202.293661 106.854102 196.587322 101.291796 204.473288 100.145898 208 93 211.526712 100.145898 219.412678 101.291796 213.706339 106.854102 215.053423 114.708204 "></polygon>
            <path d="M113.09,18.92 C113.210001,19.5800033 113.374999,20.209997 113.585,20.81 C113.795001,21.410003 113.9,22.0399967 113.9,22.7 C113.9,23.0000015 113.87,23.2699988 113.81,23.51 C113.75,23.7500012 113.570001,23.87 113.27,23.87 C112.969998,23.87 112.655002,23.8550001 112.325,23.825 C111.994998,23.7949998 111.680001,23.78 111.38,23.78 C108.619986,23.78 106.085012,24.3499943 103.775,25.49 C101.464988,26.6300057 99.4700084,28.099991 97.79,29.9 C96.1099916,31.700009 94.7900048,33.7099889 93.83,35.93 C92.8699952,38.1500111 92.39,40.3099895 92.39,42.41 C92.39,44.810012 93.0499934,46.9849902 94.37,48.935 C95.6900066,50.8850097 97.8199853,52.2799958 100.76,53.12 C102.200007,53.6000024 103.87999,53.8699997 105.8,53.93 C106.520004,51.9499901 107.224997,49.7000126 107.915,47.18 C108.605003,44.6599874 109.354996,42.0350136 110.165,39.305 C110.975004,36.5749864 111.844995,33.8000141 112.775,30.98 C113.705005,28.1599859 114.799994,25.4300132 116.06,22.79 C117.320006,20.1499868 118.759992,17.6750115 120.38,15.365 C122.000008,13.0549884 123.859989,11.0300087 125.96,9.29 C128.06001,7.5499913 130.459987,6.1700051 133.16,5.15 C135.860013,4.1299949 138.889983,3.62 142.25,3.62 C143.510006,3.62 144.529996,4.0099961 145.31,4.79 C146.090004,5.5700039 146.704998,6.54499415 147.155,7.715 C147.605002,8.88500585 147.934999,10.1749929 148.145,11.585 C148.355001,12.995007 148.46,14.299994 148.46,15.5 C148.46,18.8600168 147.905006,22.1749837 146.795,25.445 C145.684994,28.7150163 144.11001,31.8799847 142.07,34.94 C140.629993,37.2200114 139.040009,39.4849887 137.3,41.735 C135.559991,43.9850112 133.640011,46.1299898 131.54,48.17 C129.439989,50.2100102 127.175012,52.0999913 124.745,53.84 C122.314988,55.5800087 119.660014,57.0199943 116.78,58.16 C115.399993,60.6800126 114.110006,63.1249882 112.91,65.495 C111.709994,67.8650119 110.450007,70.1899886 109.13,72.47 L110.48,72.74 C112.940012,72.9200009 115.369988,73.0999991 117.77,73.28 C120.170012,73.4600009 122.569988,73.55 124.97,73.55 C125.810004,73.55 126.619996,73.5350002 127.4,73.505 C128.180004,73.4749999 128.959996,73.46 129.74,73.46 C130.520004,73.46 131.254997,73.5049996 131.945,73.595 C132.635003,73.6850005 132.98,73.9999973 132.98,74.54 C132.98,74.8400015 132.695003,75.4549953 132.125,76.385 C131.554997,77.3150047 130.775005,78.2899949 129.785,79.31 C128.794995,80.3300051 127.670006,81.244996 126.41,82.055 C125.149994,82.8650041 123.800007,83.27 122.36,83.27 L119.93,83.27 C119.389997,83.27 118.955002,83.2400003 118.625,83.18 C118.294998,83.1199997 117.995001,83.0600003 117.725,83 C117.454999,82.9399997 117.050003,82.8350008 116.51,82.685 C115.969997,82.5349992 115.220005,82.355001 114.26,82.145 C113.299995,81.9349989 112.010008,81.6800015 110.39,81.38 C108.649991,81.0799985 106.880009,80.6900024 105.08,80.21 C103.279991,79.7299976 101.600008,79.49 100.04,79.49 C99.1999958,79.49 98.2700051,79.6249986 97.25,79.895 C96.2299949,80.1650013 95.1950052,80.4799982 94.145,80.84 C93.0949947,81.2000018 92.0750049,81.5899979 91.085,82.01 C90.094995,82.4300021 89.1800042,82.7599988 88.34,83 C88.2199994,83.0600003 88.0400012,83.09 87.8,83.09 C87.4999985,83.09 87.1550019,82.9700012 86.765,82.73 C86.374998,82.4899988 85.9850019,82.175002 85.595,81.785 C85.204998,81.394998 84.8600015,80.9900021 84.56,80.57 C84.2599985,80.1499979 84.0800003,79.7600018 84.02,79.4 C84.5600027,79.0999985 85.129997,78.8150014 85.73,78.545 C86.330003,78.2749987 86.8999973,77.9900015 87.44,77.69 C87.8600021,77.5099991 88.5199955,77.2100021 89.42,76.79 C90.3200045,76.3699979 91.2799949,75.9050025 92.3,75.395 C93.3200051,74.8849975 94.3549947,74.3900024 95.405,73.91 C96.4550052,73.4299976 97.3999958,73.0400015 98.24,72.74 C99.1400045,70.9999913 100.159994,69.0050112 101.3,66.755 C102.440006,64.5049887 103.429996,62.1500123 104.27,59.69 C103.969998,59.7500003 103.655002,59.78 103.325,59.78 L102.38,59.78 C99.7399868,59.78 97.3850103,59.2100057 95.315,58.07 C93.2449896,56.9299943 91.4750073,55.4450092 90.005,53.615 C88.5349926,51.7849909 87.4100039,49.7450113 86.63,47.495 C85.8499961,45.2449888 85.46,42.9800114 85.46,40.7 C85.46,37.4599838 86.2699919,34.4600138 87.89,31.7 C89.5100081,28.9399862 91.6099871,26.5400102 94.19,24.5 C96.7700129,22.4599898 99.6199844,20.8700057 102.74,19.73 C105.860016,18.5899943 108.919985,18.02 111.92,18.02 C112.520003,18.02 112.909999,18.319997 113.09,18.92 L113.09,18.92 Z M138.02,11.09 C137.299996,11.09 136.550004,11.5399955 135.77,12.44 C134.869996,13.3400045 134.000004,14.4799931 133.16,15.86 C132.319996,17.2400069 131.540004,18.6499928 130.82,20.09 C130.099996,21.5300072 129.455003,22.8949936 128.885,24.185 C128.314997,25.4750064 127.880001,26.5099961 127.58,27.29 C126.079992,31.0700189 124.745006,34.864981 123.575,38.675 C122.404994,42.4850191 121.040008,46.2799811 119.48,50.06 C121.280009,49.0999952 122.989992,47.9750064 124.61,46.685 C126.230008,45.3949936 127.729993,44.0000075 129.11,42.5 C130.490007,40.9999925 131.734994,39.4250082 132.845,37.775 C133.955006,36.1249918 134.959995,34.4900081 135.86,32.87 C137.120006,30.5299883 138.109996,28.1300123 138.83,25.67 C139.550004,23.2099877 139.91,20.7200126 139.91,18.2 C139.91,17.6599973 139.895,16.985004 139.865,16.175 C139.835,15.364996 139.745001,14.6000036 139.595,13.88 C139.444999,13.1599964 139.250001,12.5300027 139.01,11.99 C138.769999,11.4499973 138.440002,11.1500003 138.02,11.09 L138.02,11.09 Z M148.55,33.59 C148.55,32.6899955 148.804997,31.8350041 149.315,31.025 C149.825003,30.214996 150.469996,29.5250029 151.25,28.955 C152.030004,28.3849972 152.914995,27.9200018 153.905,27.56 C154.895005,27.1999982 155.869995,27.02 156.83,27.02 C158.510008,27.02 159.799995,27.4549957 160.7,28.325 C161.600005,29.1950044 162.05,30.1999943 162.05,31.34 C162.05,32.8400075 161.405006,34.2199937 160.115,35.48 C158.824994,36.7400063 157.370008,37.5799979 155.75,38 C155.029996,38.1800009 154.370003,38.27 153.77,38.27 C152.149992,38.27 150.875005,37.7900048 149.945,36.83 C149.014995,35.8699952 148.55,34.790006 148.55,33.59 L148.55,33.59 Z M154.13,43.67 C154.790003,43.67 155.329998,43.8049987 155.75,44.075 C156.170002,44.3450014 156.38,44.6599982 156.38,45.02 C156.38,45.3200015 156.200002,45.6799979 155.84,46.1 C155.359998,46.6400027 154.505006,47.91499 153.275,49.925 C152.044994,51.93501 150.800006,54.2299871 149.54,56.81 C148.279994,59.3900129 147.155005,62.0449864 146.165,64.775 C145.174995,67.5050137 144.68,69.8599901 144.68,71.84 C144.68,72.9800057 145.129996,73.55 146.03,73.55 C146.570003,73.55 147.244996,73.3100024 148.055,72.83 C148.865004,72.3499976 149.734995,71.7350038 150.665,70.985 C151.595005,70.2349962 152.554995,69.4250043 153.545,68.555 C154.535005,67.6849957 155.449996,66.8750038 156.29,66.125 C157.130004,65.3749962 157.879997,64.7600024 158.54,64.28 C159.200003,63.7999976 159.679999,63.56 159.98,63.56 C160.820004,63.56 161.24,64.0399952 161.24,65 C161.24,65.4800024 161.150001,66.019997 160.97,66.62 C160.789999,67.220003 160.550002,67.819997 160.25,68.42 C159.949998,69.0800033 159.605002,69.6949972 159.215,70.265 C158.824998,70.8350028 158.420002,71.3299979 158,71.75 C154.639983,75.5300189 151.370016,78.4099901 148.19,80.39 C145.009984,82.3700099 141.890015,83.36 138.83,83.36 C136.549989,83.36 135.020004,82.7300063 134.24,81.47 C133.459996,80.2099937 133.07,78.5600102 133.07,76.52 C133.07,74.4799898 133.324997,72.0950136 133.835,69.365 C134.345003,66.6349863 135.019996,63.8900138 135.86,61.13 C136.700004,58.3699862 137.674994,55.7450125 138.785,53.255 C139.895006,50.7649876 141.049994,48.6800084 142.25,47 C142.610002,46.5199976 143.284995,46.0700021 144.275,45.65 C145.265005,45.2299979 146.374994,44.8700015 147.605,44.57 C148.835006,44.2699985 150.049994,44.0450008 151.25,43.895 C152.450006,43.7449993 153.409996,43.67 154.13,43.67 L154.13,43.67 Z M162.05,47.18 C163.190006,43.0399793 164.359994,38.9750199 165.56,34.985 C166.760006,30.9949801 168.064993,27.200018 169.475,23.6 C170.885007,19.999982 172.489991,16.6400156 174.29,13.52 C176.090009,10.3999844 178.219988,7.6100123 180.68,5.15 C181.880006,3.949994 183.259992,2.9600039 184.82,2.18 C186.380008,1.3999961 188.029991,0.9800003 189.77,0.92 C190.970006,0.92 192.079995,1.219997 193.1,1.82 C194.060005,2.420003 194.854997,3.21499505 195.485,4.205 C196.115003,5.19500495 196.624998,6.2599943 197.015,7.4 C197.405002,8.5400057 197.674999,9.6799943 197.825,10.82 C197.975001,11.9600057 198.05,12.9799955 198.05,13.88 C198.05,16.5200132 197.690004,19.2049864 196.97,21.935 C196.249996,24.6650136 195.290006,27.4399859 194.09,30.26 C192.829994,33.0200138 191.345009,35.7649864 189.635,38.495 C187.924991,41.2250136 186.05001,43.8799871 184.01,46.46 C181.96999,49.0400129 179.825011,51.4699886 177.575,53.75 C175.324989,56.0300114 173.030012,58.0999907 170.69,59.96 C170.569999,60.5000027 170.300002,61.4449932 169.88,62.795 C169.459998,64.1450067 169.010002,65.6899913 168.53,67.43 C168.049998,69.1700087 167.540003,70.9849906 167,72.875 C166.459997,74.7650094 165.980002,76.4599925 165.56,77.96 C167.120008,77.4199973 168.739992,76.7000045 170.42,75.8 C172.100008,74.8999955 173.719992,73.9100054 175.28,72.83 C176.480006,71.9899958 177.709994,71.0300054 178.97,69.95 C180.230006,68.8699946 181.399995,67.8650047 182.48,66.935 C183.560005,66.0049953 184.504996,65.2100033 185.315,64.55 C186.125004,63.8899967 186.679999,63.56 186.98,63.56 C187.820004,63.56 188.24,64.0399952 188.24,65 C188.24,66.0800054 187.925003,67.2349939 187.295,68.465 C186.664997,69.6950061 185.870005,70.909994 184.91,72.11 C183.949995,73.310006 182.945005,74.4199949 181.895,75.44 C180.844995,76.4600051 179.900004,77.3299964 179.06,78.05 C178.219996,78.7700036 177.245006,79.4899964 176.135,80.21 C175.024994,80.9300036 173.885006,81.6199967 172.715,82.28 C171.544994,82.9400033 170.360006,83.5399973 169.16,84.08 C167.959994,84.6200027 166.850005,85.0999979 165.83,85.52 C164.749995,86.0000024 163.880003,86.3299991 163.22,86.51 C162.619997,88.7900114 161.975003,91.129988 161.285,93.53 C160.594997,95.930012 160.010002,98.2399889 159.53,100.46 C160.190003,102.260009 160.924996,104.13499 161.735,106.085 C162.545004,108.03501 162.95,109.99999 162.95,111.98 C163.01,118.220031 161.240018,122.899984 157.64,126.02 C154.039982,129.140016 149.120031,130.7 142.88,130.7 C142.099996,130.7 141.470002,130.520002 140.99,130.16 C140.509998,129.799998 140.27,129.050006 140.27,127.91 C140.27,127.249997 140.374999,126.590003 140.585,125.93 C140.795001,125.269997 140.989999,124.610003 141.17,123.95 C141.770003,121.789989 142.324997,119.795009 142.835,117.965 C143.345003,116.134991 143.839998,114.335009 144.32,112.565 C144.800002,110.794991 145.279998,109.010009 145.76,107.21 C146.240002,105.409991 146.719998,103.52001 147.2,101.54 C147.320001,100.939997 147.454999,100.355003 147.605,99.785 C147.755001,99.2149971 147.889999,98.6000033 148.01,97.94 C147.709998,97.0999958 147.425001,96.2900039 147.155,95.51 C146.884999,94.7299961 146.660001,94.0100033 146.48,93.35 C145.699996,90.6499865 145.579997,88.3700093 146.12,86.51 C146.780003,83.8699868 149.05998,81.950006 152.96,80.75 L153.86,77.15 L162.05,47.18 Z M190.22,10.46 C189.559997,10.46 188.765005,11.0449942 187.835,12.215 C186.904995,13.3850058 185.900005,14.9899898 184.82,17.03 C183.739995,19.0700102 182.600006,21.4399865 181.4,24.14 C180.199994,26.8400135 179.015006,29.7199847 177.845,32.78 C176.674994,35.8400153 175.550005,38.9899838 174.47,42.23 C173.389995,45.4700162 172.430004,48.6199847 171.59,51.68 C174.590015,49.279988 177.454986,46.1750191 180.185,42.365 C182.915014,38.554981 185.23999,34.5200213 187.16,30.26 C188.120005,28.1599895 188.914997,26.0450106 189.545,23.915 C190.175003,21.7849893 190.639998,19.7300099 190.94,17.75 C191.120001,16.4299934 191.21,15.1400063 191.21,13.88 C191.21,12.3799925 191.105001,11.4500018 190.895,11.09 C190.684999,10.7299982 190.460001,10.5200003 190.22,10.46 L190.22,10.46 Z M156.83,112.07 C156.709999,112.370002 156.62,112.684998 156.56,113.015 C156.5,113.345002 156.44,113.659999 156.38,113.96 C156.139999,114.860005 155.915001,115.744996 155.705,116.615 C155.494999,117.485004 155.270001,118.339996 155.03,119.18 C155.330001,119.18 155.569999,119.090001 155.75,118.91 C155.930001,118.729999 156.109999,118.520001 156.29,118.28 C156.830003,117.199995 157.189999,116.300004 157.37,115.58 C157.550001,114.859996 157.655,114.200003 157.685,113.6 C157.715,112.999997 157.670001,112.445003 157.55,111.935 C157.429999,111.424997 157.34,110.840003 157.28,110.18 C157.159999,110.480001 157.07,110.794998 157.01,111.125 C156.95,111.455002 156.89,111.769998 156.83,112.07 L156.83,112.07 Z M150.71,90.2 C150.830001,89.8999985 150.89,89.6750007 150.89,89.525 C150.89,89.3749993 150.92,89.1800012 150.98,88.94 L151.16,87.95 C150.499997,88.0700006 150.229999,88.3549977 150.35,88.805 C150.470001,89.2550023 150.589999,89.7199976 150.71,90.2 L150.71,90.2 Z M206.42,54.56 C206.42,54.3199988 206.405,54.0200018 206.375,53.66 C206.345,53.2999982 206.255001,52.9400018 206.105,52.58 C205.954999,52.2199982 205.730001,51.9200012 205.43,51.68 C205.129998,51.4399988 204.680003,51.32 204.08,51.32 C202.519992,51.32 201.095006,51.7849954 199.805,52.715 C198.514994,53.6450047 197.390005,54.8899922 196.43,56.45 C195.469995,58.0100078 194.690003,59.8099898 194.09,61.85 C193.489997,63.8900102 193.100001,66.0499886 192.92,68.33 C192.92,70.3700102 193.399995,71.9599943 194.36,73.1 C195.320005,74.2400057 196.849989,74.81 198.95,74.81 C200.270007,74.81 201.724992,74.5550026 203.315,74.045 C204.905008,73.5349974 206.539992,72.8300045 208.22,71.93 C209.900008,71.0299955 211.564992,69.9950058 213.215,68.825 C214.865008,67.6549941 216.379993,66.4100066 217.76,65.09 C218.180002,64.7899985 218.659997,64.3850025 219.2,63.875 C219.740003,63.3649975 220.249998,63.11 220.73,63.11 C221.090002,63.11 221.374999,63.3349977 221.585,63.785 C221.795001,64.2350023 221.9,64.6999976 221.9,65.18 C221.9,66.2000051 221.540004,67.3699934 220.82,68.69 C220.099996,70.0100066 219.110006,71.3449933 217.85,72.695 C216.589994,74.0450067 215.120008,75.3799934 213.44,76.7 C211.759992,78.0200066 209.975009,79.1899949 208.085,80.21 C206.194991,81.2300051 204.23001,82.0549968 202.19,82.685 C200.14999,83.3150031 198.17001,83.63 196.25,83.63 C193.669987,83.63 191.465009,83.3150031 189.635,82.685 C187.804991,82.0549968 186.305006,81.1850055 185.135,80.075 C183.964994,78.9649945 183.110003,77.6750074 182.57,76.205 C182.029997,74.7349927 181.76,73.1900081 181.76,71.57 C181.76,68.2099832 182.479993,64.8050172 183.92,61.355 C185.360007,57.9049828 187.339987,54.7700141 189.86,51.95 C192.380013,49.1299859 195.319983,46.820009 198.68,45.02 C202.040017,43.219991 205.66998,42.32 209.57,42.32 C211.010007,42.32 212.254995,42.6049972 213.305,43.175 C214.355005,43.7450028 215.239996,44.4649956 215.96,45.335 C216.680004,46.2050043 217.204998,47.1499949 217.535,48.17 C217.865002,49.1900051 218.03,50.1199958 218.03,50.96 C218.03,52.1000057 217.655004,53.4049926 216.905,54.875 C216.154996,56.3450074 215.180006,57.8149926 213.98,59.285 C212.779994,60.7550073 211.430007,62.194993 209.93,63.605 C208.429992,65.015007 206.900008,66.2599946 205.34,67.34 C203.779992,68.4200054 202.280007,69.2899967 200.84,69.95 C199.399993,70.6100033 198.170005,70.94 197.15,70.94 L196.61,70.94 C196.309998,70.94 195.950002,70.8800006 195.53,70.76 C194.329994,70.4599985 193.445003,69.8600045 192.875,68.96 C192.304997,68.0599955 192.02,67.4000021 192.02,66.98 C192.02,66.5599979 192.289997,66.2900006 192.83,66.17 C194.390008,65.9899991 195.979992,65.5100039 197.6,64.73 C199.220008,63.9499961 200.674994,63.0050055 201.965,61.895 C203.255006,60.7849944 204.319996,59.5850065 205.16,58.295 C206.000004,57.0049935 206.42,55.760006 206.42,54.56 L206.42,54.56 Z" id="LIFE" fill="#F15C68" sketch:type="MSShapeGroup"></path>
            <path d="M12.87,120.925 L0,120.925 L0,111.88 L12.87,111.88 L12.87,120.925 Z M13.59,106.12 C12.4499943,106.960004 11.5950029,107.574998 11.025,107.965 C10.4549972,108.355002 9.60750562,108.804997 8.4825,109.315 C7.35749438,109.825003 6.3450045,110.08 5.445,110.08 C4.03499295,110.08 2.84250487,109.615005 1.8675,108.685 C0.892495125,107.754995 0.405,106.555007 0.405,105.085 C0.405,103.704993 0.7949961,101.740013 1.575,99.19 L0.045,99.28 L0.945,95.725 L2.79,95.635 C3.7500048,93.0249869 4.33499895,91.420003 4.545,90.82 L11.205,89.65 L9.315,95.32 L12.33,95.185 L11.52,98.56 L8.19,98.785 C8.09999955,99.0550013 7.94250112,99.5199967 7.7175,100.18 C7.49249887,100.840003 7.31250067,101.364998 7.1775,101.755 C7.04249933,102.145002 6.9150006,102.609997 6.795,103.15 C6.6749994,103.690003 6.615,104.154998 6.615,104.545 C6.615,105.835006 7.13999475,106.48 8.19,106.48 C9.18000495,106.48 10.979987,105.700008 13.59,104.14 L13.59,106.12 Z M20.655,97.795 C24.4050187,94.2249821 26.28,91.4650097 26.28,89.515 C26.28,89.2149985 26.175001,89.065 25.965,89.065 C25.6949986,89.065 25.3125025,89.2899977 24.8175,89.74 C24.3224975,90.1900022 23.9550012,90.5949982 23.715,90.955 C22.4249935,92.7850091 21.4050038,95.0649863 20.655,97.795 L20.655,97.795 Z M34.47,120.925 L12.87,120.925 L12.87,111.88 L34.47,111.88 L34.47,120.925 Z M35.19,106.165 C35.0399992,106.255 34.665003,106.509998 34.065,106.93 C33.464997,107.350002 33.0225014,107.657499 32.7375,107.8525 C32.4524986,108.047501 32.010003,108.317498 31.41,108.6625 C30.809997,109.007502 30.307502,109.262499 29.9025,109.4275 C29.497498,109.592501 29.0250027,109.749999 28.485,109.9 C27.9449973,110.050001 27.4350024,110.125 26.955,110.125 C25.9349949,110.125 24.9975043,109.810003 24.1425,109.18 C23.2874957,108.549997 22.86,107.710005 22.86,106.66 C22.86,105.699995 23.2874957,104.350009 24.1425,102.61 C24.9975043,100.869991 25.425,99.7450025 25.425,99.235 C25.425,99.1149994 25.3650006,99.055 25.245,99.055 C24.644997,99.055 23.9625038,99.257498 23.1975,99.6625 C22.4324962,100.067502 21.8700018,100.412499 21.51,100.6975 C21.1499982,100.982501 20.5500042,101.484996 19.71,102.205 C19.5599992,103.255005 19.485,104.499993 19.485,105.94 C19.485,107.080006 19.5299995,108.204994 19.62,109.315 L14.13,110.215 C13.6499976,108.20499 13.41,106.21001 13.41,104.23 C13.41,98.829973 15.3899802,93.5200261 19.35,88.3 C19.950003,87.909998 21.052492,87.4525026 22.6575,86.9275 C24.262508,86.4024974 25.4549961,86.14 26.235,86.14 C27.045004,86.14 27.6899976,86.4249971 28.17,86.995 C28.6500024,87.5650028 28.89,88.2849956 28.89,89.155 C28.89,91.0450094 27.6750121,93.4149857 25.245,96.265 C26.6250069,95.664997 27.7649955,95.365 28.665,95.365 C29.5650045,95.365 30.3224969,95.6199974 30.9375,96.13 C31.5525031,96.6400025 31.86,97.3449955 31.86,98.245 C31.86,99.2950052 31.4400042,100.77999 30.6,102.7 C29.7599958,104.62001 29.34,105.729998 29.34,106.03 C29.34,106.390002 29.5649977,106.57 30.015,106.57 C30.9150045,106.57 32.6399872,105.760008 35.19,104.14 L35.19,106.165 Z M50.985,120.925 L34.47,120.925 L34.47,111.88 L50.985,111.88 L50.985,120.925 Z M51.705,106.21 C51.4649988,106.360001 50.8950045,106.757497 49.995,107.4025 C49.0949955,108.047503 48.4200022,108.512499 47.97,108.7975 C47.5199978,109.082501 46.8900041,109.374998 46.08,109.675 C45.2699959,109.975002 44.4900037,110.125 43.74,110.125 C42.7199949,110.125 41.8200039,109.787503 41.04,109.1125 C40.2599961,108.437497 39.87,107.590005 39.87,106.57 C39.87,105.189993 40.4999937,103.555009 41.76,101.665 C40.9799961,101.905001 40.0800051,102.025 39.06,102.025 C38.1299954,103.465007 36.8250084,104.844993 35.145,106.165 L35.145,104.14 C36.2550055,103.089995 36.8849992,102.295003 37.035,101.755 C35.9849947,101.304998 35.46,100.465006 35.46,99.235 C35.46,98.1549946 35.8874957,97.210004 36.7425,96.4 C37.5975043,95.5899959 38.5949943,95.185 39.735,95.185 C40.3650031,95.185 40.9049977,95.4024978 41.355,95.8375 C41.8050023,96.2725022 42.03,96.8199967 42.03,97.48 C42.03,97.9900025 41.8950014,98.5749967 41.625,99.235 C42.6450051,98.9649986 43.5074965,98.5075032 44.2125,97.8625 C44.9175035,97.2174968 45.6449962,96.3550054 46.395,95.275 L49.23,95.275 C48.029994,98.275015 47.1150031,100.524992 46.485,102.025 C45.9749974,103.165006 45.72,104.139996 45.72,104.95 C45.72,105.700004 46.1849953,106.075 47.115,106.075 C48.2850058,106.075 49.8149905,105.445006 51.705,104.185 L51.705,106.21 Z M62.505,105.445 C61.1849934,104.064993 60.525,102.595008 60.525,101.035 C60.525,99.5649926 61.124994,98.2900054 62.325,97.21 C60.8849928,97.3000004 59.7300044,97.9824936 58.86,99.2575 C57.9899957,100.532506 57.555,101.949992 57.555,103.51 C57.555,104.440005 57.7274983,105.249997 58.0725,105.94 C58.4175017,106.630003 58.9649963,106.975 59.715,106.975 C60.6150045,106.975 61.5449952,106.465005 62.505,105.445 L62.505,105.445 Z M70.65,120.925 L50.985,120.925 L50.985,111.88 L70.65,111.88 L70.65,120.925 Z M71.37,106.165 C69.959993,107.095005 68.6100064,107.56 67.32,107.56 C66.3899953,107.56 65.4450048,107.320002 64.485,106.84 C63.6449958,107.830005 62.6175061,108.617497 61.4025,109.2025 C60.1874939,109.787503 58.9500063,110.08 57.69,110.08 C56.0099916,110.08 54.5325064,109.510006 53.2575,108.37 C51.9824936,107.229994 51.345,105.805009 51.345,104.095 C51.345,101.994989 52.1324921,100.165008 53.7075,98.605 C55.2825079,97.0449922 57.1649891,96.0700019 59.355,95.68 C60.3150048,95.3199982 61.4399935,95.14 62.73,95.14 C65.8800157,95.14 67.455,96.3549878 67.455,98.785 C67.455,100.495009 66.8700058,102.519988 65.7,104.86 C66.3900034,105.310002 67.1249961,105.535 67.905,105.535 C68.8050045,105.535 69.959993,105.070005 71.37,104.14 L71.37,106.165 Z M93.555,120.925 L70.65,120.925 L70.65,111.88 L93.555,111.88 L93.555,120.925 Z M94.275,106.165 C91.064984,108.745013 88.4850098,110.035 86.535,110.035 C83.9849873,110.035 82.4550026,109.03001 81.945,107.02 C79.3949873,109.09001 77.0850104,110.125 75.015,110.125 C72.1349856,110.125 70.695,108.565016 70.695,105.445 C70.695,104.484995 70.8299987,103.427506 71.1,102.2725 C71.3700014,101.117494 71.6249988,100.195003 71.865,99.505 C72.1050012,98.8149965 72.5099972,97.7200075 73.08,96.22 C74.5500074,95.9499986 76.7549853,95.5750024 79.695,95.095 C79.484999,95.7550033 79.1025028,96.7524933 78.5475,98.0875 C77.9924972,99.4225067 77.5500017,100.667494 77.22,101.8225 C76.8899984,102.977506 76.725,104.094995 76.725,105.175 C76.725,106.135005 77.0399969,106.615 77.67,106.615 C78.8100057,106.615 80.2499913,105.550011 81.99,103.42 C82.2000011,102.189994 82.9949931,99.7600181 84.375,96.13 L91.08,95.14 C90.9299993,95.5900022 90.6675019,96.317495 90.2925,97.3225 C89.9174981,98.327505 89.632501,99.129997 89.4375,99.73 C89.242499,100.330003 89.0100014,101.072496 88.74,101.9575 C88.4699987,102.842504 88.2600008,103.674996 88.11,104.455 C88.0499997,104.815002 88.02,105.054999 88.02,105.175 C88.02,105.895004 88.3499967,106.255 89.01,106.255 C90.1200056,106.255 91.874988,105.550007 94.275,104.14 L94.275,106.165 Z M102.6,112.24 C102.389999,112.810003 102.195001,113.267498 102.015,113.6125 C101.834999,113.957502 101.535002,114.309998 101.115,114.67 C100.694998,115.030002 100.230003,115.21 99.72,115.21 C99.1499972,115.12 98.865,114.925001 98.865,114.625 C98.865,114.024997 100.109988,113.230005 102.6,112.24 L102.6,112.24 Z M103.68,111.205 C103.019997,111.385001 102.352503,111.594999 101.6775,111.835 C101.002497,112.075001 100.252504,112.457497 99.4275,112.9825 C98.6024959,113.507503 98.19,114.039997 98.19,114.58 C98.19,114.940002 98.3474984,115.239999 98.6625,115.48 C98.9775016,115.720001 99.3449979,115.84 99.765,115.84 C100.305003,115.84 100.777498,115.727501 101.1825,115.5025 C101.587502,115.277499 101.947498,114.895003 102.2625,114.355 C102.577502,113.814997 102.809999,113.387502 102.96,113.0725 C103.110001,112.757498 103.304999,112.255003 103.545,111.565 C103.605,111.414999 103.65,111.295 103.68,111.205 L103.68,111.205 Z M106.2,97.975 C105.929999,97.6149982 105.570002,97.435 105.12,97.435 C103.919994,97.435 102.802505,98.1624927 101.7675,99.6175 C100.732495,101.072507 100.215,102.459993 100.215,103.78 C100.215,105.070006 100.754995,105.715 101.835,105.715 C103.305007,105.715 104.549995,104.75501 105.57,102.835 C105.930002,100.644989 106.14,99.0250052 106.2,97.975 L106.2,97.975 Z M115.47,120.925 L93.555,120.925 L93.555,111.88 L95.805,111.88 C95.204997,112.720004 94.905,113.544996 94.905,114.355 C94.905,115.675007 95.4524945,116.739996 96.5475,117.55 C97.6425055,118.360004 98.9099928,118.765 100.35,118.765 C102.33001,118.765 104.144992,118.142506 105.795,116.8975 C107.445008,115.652494 108.809995,113.98001 109.89,111.88 L115.47,111.88 L115.47,120.925 Z M116.19,106.165 C113.849988,107.755008 111.765009,108.849997 109.935,109.45 C109.034995,111.850012 107.790008,113.852492 106.2,115.4575 C104.609992,117.062508 102.645012,117.865 100.305,117.865 C99.1649943,117.865 98.1225047,117.572503 97.1775,116.9875 C96.2324953,116.402497 95.76,115.540006 95.76,114.4 C95.76,113.409995 96.1949956,112.525004 97.065,111.745 C97.9350043,110.964996 98.9249944,110.380002 100.035,109.99 C100.875004,109.719999 102.32999,109.285003 104.4,108.685 L104.715,107.425 C103.004991,108.835007 101.250009,109.54 99.45,109.54 C97.9799926,109.54 96.6975055,109.030005 95.6025,108.01 C94.5074945,106.989995 93.96,105.715008 93.96,104.185 C93.96,101.814988 95.1224884,99.730009 97.4475,97.93 C99.7725116,96.129991 102.194987,95.23 104.715,95.23 C106.125007,95.23 107.264996,95.6649956 108.135,96.535 L113.31,95.005 C112.889998,96.4750073 112.425003,98.4999871 111.915,101.08 C111.524998,103.330011 111.150002,105.204992 110.79,106.705 C112.74001,106.044997 114.539992,105.190005 116.19,104.14 L116.19,106.165 Z M123.255,97.795 C127.005019,94.2249821 128.88,91.4650097 128.88,89.515 C128.88,89.2149985 128.775001,89.065 128.565,89.065 C128.294999,89.065 127.912502,89.2899977 127.4175,89.74 C126.922498,90.1900022 126.555001,90.5949982 126.315,90.955 C125.024994,92.7850091 124.005004,95.0649863 123.255,97.795 L123.255,97.795 Z M137.07,120.925 L115.47,120.925 L115.47,111.88 L137.07,111.88 L137.07,120.925 Z M137.79,106.165 C137.639999,106.255 137.265003,106.509998 136.665,106.93 C136.064997,107.350002 135.622501,107.657499 135.3375,107.8525 C135.052499,108.047501 134.610003,108.317498 134.01,108.6625 C133.409997,109.007502 132.907502,109.262499 132.5025,109.4275 C132.097498,109.592501 131.625003,109.749999 131.085,109.9 C130.544997,110.050001 130.035002,110.125 129.555,110.125 C128.534995,110.125 127.597504,109.810003 126.7425,109.18 C125.887496,108.549997 125.46,107.710005 125.46,106.66 C125.46,105.699995 125.887496,104.350009 126.7425,102.61 C127.597504,100.869991 128.025,99.7450025 128.025,99.235 C128.025,99.1149994 127.965001,99.055 127.845,99.055 C127.244997,99.055 126.562504,99.257498 125.7975,99.6625 C125.032496,100.067502 124.470002,100.412499 124.11,100.6975 C123.749998,100.982501 123.150004,101.484996 122.31,102.205 C122.159999,103.255005 122.085,104.499993 122.085,105.94 C122.085,107.080006 122.13,108.204994 122.22,109.315 L116.73,110.215 C116.249998,108.20499 116.01,106.21001 116.01,104.23 C116.01,98.829973 117.98998,93.5200261 121.95,88.3 C122.550003,87.909998 123.652492,87.4525026 125.2575,86.9275 C126.862508,86.4024974 128.054996,86.14 128.835,86.14 C129.645004,86.14 130.289998,86.4249971 130.77,86.995 C131.250002,87.5650028 131.49,88.2849956 131.49,89.155 C131.49,91.0450094 130.275012,93.4149857 127.845,96.265 C129.225007,95.664997 130.364996,95.365 131.265,95.365 C132.165005,95.365 132.922497,95.6199974 133.5375,96.13 C134.152503,96.6400025 134.46,97.3449955 134.46,98.245 C134.46,99.2950052 134.040004,100.77999 133.2,102.7 C132.359996,104.62001 131.94,105.729998 131.94,106.03 C131.94,106.390002 132.164998,106.57 132.615,106.57 C133.515005,106.57 135.239987,105.760008 137.79,104.14 L137.79,106.165 Z" id="through" fill="#78A0AB" sketch:type="MSShapeGroup"></path>
            <path d="M1.2,51.92 C1.0399992,51.9466668 0.9200004,51.9200004 0.84,51.84 C0.7599996,51.7599996 0.72,51.653334 0.72,51.52 C0.72,51.2799988 0.8266656,51.1466668 1.04,51.12 C1.9466712,50.9333324 2.9799942,50.6133356 4.14,50.16 C5.3000058,49.7066644 6.4199946,49.1600032 7.5,48.52 C8.5800054,47.8799968 9.5333292,47.1733372 10.36,46.4 C11.1866708,45.6266628 11.733332,44.8266708 12,44 C12.0533336,43.8933328 12.1333328,43.8466666 12.24,43.86 C12.3466672,43.8733334 12.4399996,43.8933332 12.52,43.92 C12.7066676,44.0000004 12.8,44.0599998 12.8,44.1 C12.8,44.1400002 12.7733336,44.2666656 12.72,44.48 C12.586666,44.9333356 12.4266676,45.49333 12.24,46.16 C12.0533324,46.82667 11.8533344,47.526663 11.64,48.26 C11.4266656,48.993337 11.2133344,49.7199964 11,50.44 C10.7866656,51.1600036 10.5866676,51.7999972 10.4,52.36 C10.933336,51.2399944 11.5799962,50.0666728 12.34,48.84 C13.1000038,47.6133272 13.9266622,46.4866718 14.82,45.46 C15.7133378,44.4333282 16.659995,43.58667 17.66,42.92 C18.660005,42.25333 19.6666616,41.92 20.68,41.92 C22.146674,41.92 23.3666618,42.2666632 24.34,42.96 C25.3133382,43.6533368 26.0933304,44.5599944 26.68,45.68 C27.2666696,46.8000056 27.6799988,48.059993 27.92,49.46 C28.1600012,50.860007 28.28,52.2533264 28.28,53.64 C28.28,54.6800052 28.1866676,55.8799932 28,57.24 C27.8133324,58.6000068 27.5133354,59.9999928 27.1,61.44 C26.6866646,62.8800072 26.1533366,64.299993 25.5,65.7 C24.8466634,67.100007 24.0466714,68.3466612 23.1,69.44 C22.1533286,70.5333388 21.046673,71.4199966 19.78,72.1 C18.513327,72.7800034 17.0666748,73.12 15.44,73.12 C15.1466652,73.12 14.8466682,73.1066668 14.54,73.08 C14.2333318,73.0533332 13.9200016,73.0133336 13.6,72.96 C12.6933288,72.7466656 11.8333374,72.406669 11.02,71.94 C10.2066626,71.473331 9.5066696,70.8666704 8.92,70.12 C8.7599992,69.8799988 8.7866656,69.6800008 9,69.52 C9.0800004,69.4666664 9.1799994,69.4466666 9.3,69.46 C9.4200006,69.4733334 9.5066664,69.5333328 9.56,69.64 C9.8533348,70.040002 10.2266644,70.3999984 10.68,70.72 C11.1333356,71.0400016 11.626664,71.3199988 12.16,71.56 C12.693336,71.8000012 13.2399972,71.986666 13.8,72.12 C14.3600028,72.253334 14.906664,72.32 15.44,72.32 C16.9600076,72.32 18.3133274,72.0000032 19.5,71.36 C20.6866726,70.7199968 21.7266622,69.8733386 22.62,68.82 C23.5133378,67.7666614 24.2666636,66.5666734 24.88,65.22 C25.4933364,63.8733266 25.9933314,62.5066736 26.38,61.12 C26.7666686,59.7333264 27.0466658,58.3866732 27.22,57.08 C27.3933342,55.7733268 27.48,54.6266716 27.48,53.64 C27.48,52.3333268 27.3733344,51.0333398 27.16,49.74 C26.9466656,48.4466602 26.5800026,47.2800052 26.06,46.24 C25.5399974,45.1999948 24.8400044,44.3533366 23.96,43.7 C23.0799956,43.0466634 21.9866732,42.72 20.68,42.72 C19.6399948,42.72 18.6133384,43.0933296 17.6,43.84 C16.5866616,44.5866704 15.6266712,45.5533274 14.72,46.74 C13.8133288,47.9266726 12.9533374,49.2599926 12.14,50.74 C11.3266626,52.2200074 10.6000032,53.6799928 9.96,55.12 C9.5333312,56.0800048 9.1400018,57.0066622 8.78,57.9 C8.4199982,58.7933378 8.106668,59.6133296 7.84,60.36 C7.3866644,61.6400064 6.926669,62.8933272 6.46,64.12 C5.993331,65.3466728 5.526669,66.4999946 5.06,67.58 C4.593331,68.6600054 4.1333356,69.633329 3.68,70.5 C3.2266644,71.366671 2.7866688,72.0799972 2.36,72.64 C2.3066664,72.7466672 2.2266672,72.7933334 2.12,72.78 C2.0133328,72.7666666 1.9200004,72.7333336 1.84,72.68 C1.6266656,72.5199992 1.586666,72.3466676 1.72,72.16 C2.0666684,71.7333312 2.4266648,71.1733368 2.8,70.48 C3.4933368,69.1999936 4.1799966,67.693342 4.86,65.96 C5.5400034,64.226658 6.2666628,62.2800108 7.04,60.12 C7.5466692,58.7333264 8.0199978,57.3466736 8.46,55.96 C8.9000022,54.5733264 9.3066648,53.2400064 9.68,51.96 C10.0000016,50.9199948 10.293332,49.9400046 10.56,49.02 C10.826668,48.0999954 11.0666656,47.2666704 11.28,46.52 C10.6666636,47.1600032 9.9400042,47.779997 9.1,48.38 C8.2599958,48.980003 7.3800046,49.5199976 6.46,50 C5.5399954,50.4800024 4.6200046,50.886665 3.7,51.22 C2.7799954,51.553335 1.9466704,51.786666 1.2,51.92 L1.2,51.92 Z M39.28,60.76 C39.28,60.1466636 39.1733344,59.5933358 38.96,59.1 C38.7466656,58.6066642 38.373336,58.36 37.84,58.36 C36.9599956,58.36 36.1000042,58.69333 35.26,59.36 C34.4199958,60.02667 33.6733366,60.8466618 33.02,61.82 C32.3666634,62.7933382 31.8333354,63.846661 31.42,64.98 C31.0066646,66.113339 30.8,67.1599952 30.8,68.12 C30.8,68.6800028 30.8533328,69.1999976 30.96,69.68 C31.0666672,70.1600024 31.2466654,70.5866648 31.5,70.96 C31.7533346,71.3333352 32.1066644,71.6266656 32.56,71.84 C33.0133356,72.0533344 33.5866632,72.16 34.28,72.16 C34.9733368,72.16 35.6733298,72.0066682 36.38,71.7 C37.0866702,71.3933318 37.7666634,71.0133356 38.42,70.56 C39.0733366,70.1066644 39.6733306,69.613336 40.22,69.08 C40.7666694,68.546664 41.2266648,68.0533356 41.6,67.6 C42.000002,67.1199976 42.2799992,66.7200016 42.44,66.4 C42.4933336,66.2933328 42.5666662,66.2533332 42.66,66.28 C42.7533338,66.3066668 42.8266664,66.3733328 42.88,66.48 C42.9333336,66.5866672 42.9533334,66.7266658 42.94,66.9 C42.9266666,67.0733342 42.853334,67.2533324 42.72,67.44 C42.3733316,67.9466692 41.8933364,68.5199968 41.28,69.16 C40.6666636,69.8000032 39.9800038,70.3999972 39.22,70.96 C38.4599962,71.5200028 37.6533376,71.9933314 36.8,72.38 C35.9466624,72.7666686 35.1066708,72.96 34.28,72.96 C33.479996,72.96 32.8066694,72.826668 32.26,72.56 C31.7133306,72.293332 31.273335,71.9400022 30.94,71.5 C30.606665,71.0599978 30.3666674,70.5466696 30.22,69.96 C30.0733326,69.3733304 30,68.7600032 30,68.12 C30,67.2399956 30.2133312,66.1933394 30.64,64.98 C31.0666688,63.7666606 31.6399964,62.6066722 32.36,61.5 C33.0800036,60.3933278 33.9133286,59.4600038 34.86,58.7 C35.8066714,57.9399962 36.7999948,57.56 37.84,57.56 C38.6933376,57.56 39.2799984,57.8866634 39.6,58.54 C39.9200016,59.1933366 40.08,59.9333292 40.08,60.76 C40.08,60.9733344 40.0266672,61.346664 39.92,61.88 C39.8133328,62.413336 39.5800018,62.9933302 39.22,63.62 C38.8599982,64.2466698 38.3533366,64.8533304 37.7,65.44 C37.0466634,66.0266696 36.1733388,66.4799984 35.08,66.8 C34.6266644,66.933334 34.1466692,67.033333 33.64,67.1 C33.1333308,67.166667 32.5866696,67.2 32,67.2 L31.44,67.2 C31.1999988,67.2 31.0533336,67.133334 31,67 C30.9466664,66.7866656 30.9133334,66.6333338 30.9,66.54 C30.8866666,66.4466662 30.9866656,66.4 31.2,66.4 C31.5200016,66.4 31.8666648,66.3933334 32.24,66.38 C32.6133352,66.3666666 32.9866648,66.3333336 33.36,66.28 C34.6666732,66.146666 35.7066628,65.8200026 36.48,65.3 C37.2533372,64.7799974 37.8466646,64.220003 38.26,63.62 C38.6733354,63.019997 38.946666,62.4466694 39.08,61.9 C39.213334,61.3533306 39.28,60.9733344 39.28,60.76 L39.28,60.76 Z M53.76,66.64 C53.9466676,66.2666648 54.1266658,66.1666658 54.3,66.34 C54.4733342,66.5133342 54.4666676,66.8133312 54.28,67.24 C54.0399988,67.8000028 53.720002,68.3866636 53.32,69 C52.919998,69.6133364 52.453336,70.2066638 51.92,70.78 C51.386664,71.3533362 50.7800034,71.8666644 50.1,72.32 C49.4199966,72.7733356 48.680004,73.1199988 47.88,73.36 C47.6666656,73.4133336 47.4666676,73.4533332 47.28,73.48 C47.0933324,73.5066668 46.8933344,73.5333332 46.68,73.56 C45.7999956,73.6133336 44.9200044,73.5266678 44.04,73.3 C43.1599956,73.0733322 42.38667,72.6666696 41.72,72.08 C41.586666,71.9733328 41.5266666,71.8666672 41.54,71.76 C41.5533334,71.6533328 41.593333,71.566667 41.66,71.5 C41.726667,71.433333 41.8133328,71.3933334 41.92,71.38 C42.0266672,71.3666666 42.1199996,71.3999996 42.2,71.48 C43.0533376,72.1733368 43.9066624,72.4800004 44.76,72.4 C45.2400024,72.4 45.7733304,72.266668 46.36,72 C46.893336,71.7599988 47.393331,71.440002 47.86,71.04 C48.326669,70.639998 48.7199984,70.1866692 49.04,69.68 C49.5200024,68.9066628 49.7799998,68.1600036 49.82,67.44 C49.8600002,66.7199964 49.7866676,65.9733372 49.6,65.2 C49.4399992,64.5599968 49.226668,63.9133366 48.96,63.26 C48.693332,62.6066634 48.426668,61.9333368 48.16,61.24 C47.893332,60.5466632 47.660001,59.833337 47.46,59.1 C47.259999,58.366663 47.1466668,57.600004 47.12,56.8 C46.7999984,57.733338 46.506668,58.5866628 46.24,59.36 C45.973332,60.1333372 45.7000014,60.886663 45.42,61.62 C45.1399986,62.353337 44.8266684,63.119996 44.48,63.92 C44.1333316,64.720004 43.7066692,65.6133284 43.2,66.6 C42.933332,67.133336 42.7133342,67.4 42.54,67.4 C42.3666658,67.4 42.2533336,67.3733336 42.2,67.32 C42.066666,67.186666 42.0933324,66.986668 42.28,66.72 C42.6533352,66.05333 43.0666644,65.2000052 43.52,64.16 C43.9733356,63.1199948 44.433331,62.0133392 44.9,60.84 C45.366669,59.6666608 45.8066646,58.4600062 46.22,57.22 C46.6333354,55.9799938 46.9999984,54.8133388 47.32,53.72 C47.32,53.6133328 47.3466664,53.4800008 47.4,53.32 C47.4,53.186666 47.4399996,53.0800004 47.52,53 C47.5466668,52.8933328 47.6133328,52.806667 47.72,52.74 C47.8266672,52.673333 47.9266662,52.6533332 48.02,52.68 C48.1133338,52.7066668 48.193333,52.7666662 48.26,52.86 C48.326667,52.9533338 48.3333336,53.0799992 48.28,53.24 C48.0666656,53.8800032 47.9200004,54.4799972 47.84,55.04 C47.7599996,55.6000028 47.7466664,56.1866636 47.8,56.8 C47.8266668,57.5466704 47.9533322,58.2799964 48.18,59 C48.4066678,59.7200036 48.653332,60.4333298 48.92,61.14 C49.186668,61.8466702 49.453332,62.5533298 49.72,63.26 C49.986668,63.9666702 50.1999992,64.6799964 50.36,65.4 C50.4133336,65.6933348 50.4599998,65.9866652 50.5,66.28 C50.5400002,66.5733348 50.56,66.8799984 50.56,67.2 C50.5866668,67.8133364 50.500001,68.3933306 50.3,68.94 C50.099999,69.4866694 49.8133352,69.9999976 49.44,70.48 C49.0666648,70.9600024 48.6333358,71.3933314 48.14,71.78 C47.6466642,72.1666686 47.133336,72.493332 46.6,72.76 C47.4533376,72.76 48.2533296,72.5533354 49,72.14 C49.7466704,71.7266646 50.4266636,71.2066698 51.04,70.58 C51.6533364,69.9533302 52.1866644,69.2866702 52.64,68.58 C53.0933356,67.8733298 53.4666652,67.2266696 53.76,66.64 L53.76,66.64 Z M60.4,51.2 C60.5866676,50.8799984 60.8266652,50.72 61.12,50.72 C61.3066676,50.72 61.4599994,50.786666 61.58,50.92 C61.7000006,51.053334 61.76,51.1999992 61.76,51.36 C61.76,51.6533348 61.6800008,51.866666 61.52,52 C61.3599992,52.133334 61.1866676,52.2 61,52.2 C60.8933328,52.2 60.8133336,52.1866668 60.76,52.16 C60.493332,52.0799996 60.36,51.8800016 60.36,51.56 C60.36,51.3999992 60.3733332,51.2800004 60.4,51.2 L60.4,51.2 Z M57.92,57.16 C58.053334,57.1333332 58.1999992,57.1266666 58.36,57.14 C58.5200008,57.1533334 58.5466672,57.2799988 58.44,57.52 L58.26,57.88 C58.193333,58.013334 58.1200004,58.1599992 58.04,58.32 C57.7199984,58.9600032 57.3400022,59.779995 56.9,60.78 C56.4599978,61.780005 56.0333354,62.8266612 55.62,63.92 C55.2066646,65.0133388 54.8533348,66.0999946 54.56,67.18 C54.2666652,68.2600054 54.12,69.2133292 54.12,70.04 C54.12,71.506674 54.5999952,72.24 55.56,72.24 C55.8000012,72.24 56.119998,72.1800006 56.52,72.06 C56.920002,71.9399994 57.3733308,71.6933352 57.88,71.32 C58.3866692,70.9466648 58.939997,70.393337 59.54,69.66 C60.140003,68.926663 60.77333,67.9333396 61.44,66.68 C61.5200004,66.4933324 61.5866664,66.366667 61.64,66.3 C61.6933336,66.233333 61.7733328,66.3066656 61.88,66.52 C61.9333336,66.5733336 61.9733332,66.699999 62,66.9 C62.0266668,67.100001 61.9866672,67.3066656 61.88,67.52 C61.7733328,67.7066676 61.6666672,67.8866658 61.56,68.06 C61.4533328,68.2333342 61.333334,68.4266656 61.2,68.64 C60.8799984,69.1466692 60.520002,69.6599974 60.12,70.18 C59.719998,70.7000026 59.2800024,71.1733312 58.8,71.6 C58.3199976,72.0266688 57.8066694,72.373332 57.26,72.64 C56.7133306,72.906668 56.1466696,73.04 55.56,73.04 C54.8666632,73.04 54.320002,72.7933358 53.92,72.3 C53.519998,71.8066642 53.32,71.0533384 53.32,70.04 C53.32,69.2133292 53.4733318,68.2266724 53.78,67.08 C54.0866682,65.9333276 54.4599978,64.7733392 54.9,63.6 C55.3400022,62.4266608 55.7999976,61.306672 56.28,60.24 C56.7600024,59.173328 57.1599984,58.2933368 57.48,57.6 C57.5600004,57.4399992 57.633333,57.3333336 57.7,57.28 C57.766667,57.2266664 57.8399996,57.1866668 57.92,57.16 L57.92,57.16 Z M73,57.36 C73.2400012,57.36 73.3533334,57.4866654 73.34,57.74 C73.3266666,57.9933346 73.2000012,58.1466664 72.96,58.2 C72.6399984,58.2266668 72.3333348,58.2799996 72.04,58.36 C71.7466652,58.4400004 71.4133352,58.546666 71.04,58.68 C69.9466612,59.080002 68.8400056,59.6666628 67.72,60.44 C66.5999944,61.2133372 65.5866712,62.1133282 64.68,63.14 C63.7733288,64.1666718 63.0333362,65.2999938 62.46,66.54 C61.8866638,67.7800062 61.6,69.06666 61.6,70.4 C61.6,70.933336 61.7466652,71.3733316 62.04,71.72 C62.3333348,72.0666684 62.7866636,72.24 63.4,72.24 C64.06667,72.24 64.6866638,72.0933348 65.26,71.8 C65.8333362,71.5066652 66.3599976,71.1200024 66.84,70.64 C67.3200024,70.1599976 67.7666646,69.6133364 68.18,69 C68.5933354,68.3866636 68.9599984,67.7600032 69.28,67.12 C69.8666696,65.8933272 70.3333316,64.8000048 70.68,63.84 C71.0266684,62.8799952 71.4266644,61.9200048 71.88,60.96 C71.9333336,60.8799996 72.0133328,60.8266668 72.12,60.8 C72.2266672,60.7733332 72.3266662,60.7733332 72.42,60.8 C72.5133338,60.8266668 72.5866664,60.8866662 72.64,60.98 C72.6933336,61.0733338 72.6933336,61.1733328 72.64,61.28 C72.506666,61.5733348 72.373334,61.8733318 72.24,62.18 C72.106666,62.4866682 71.973334,62.7999984 71.84,63.12 C71.4933316,64.053338 71.1933346,65.0133284 70.94,66 C70.6866654,66.9866716 70.4533344,68.0266612 70.24,69.12 C70.0266656,70.186672 69.8466674,71.2733278 69.7,72.38 C69.5533326,73.4866722 69.3733344,74.639994 69.16,75.84 C69.82667,75.0666628 70.5333296,74.2200046 71.28,73.3 C72.0266704,72.3799954 72.7399966,71.486671 73.42,70.62 C74.1000034,69.753329 74.6999974,68.9466704 75.22,68.2 C75.7400026,67.4533296 76.1199988,66.880002 76.36,66.48 C76.3866668,66.3999996 76.4466662,66.3666666 76.54,66.38 C76.6333338,66.3933334 76.713333,66.4399996 76.78,66.52 C76.846667,66.6000004 76.8933332,66.6999994 76.92,66.82 C76.9466668,66.9400006 76.9333336,67.066666 76.88,67.2 C76.5333316,67.7866696 76.160002,68.3533306 75.76,68.9 C75.359998,69.4466694 74.9466688,69.9999972 74.52,70.56 C73.719996,71.5733384 72.8466714,72.6599942 71.9,73.82 C70.9533286,74.9800058 69.9866716,76.1199944 69,77.24 C68.5466644,80.0666808 68.0266696,82.979985 67.44,85.98 C66.8533304,88.980015 66.093338,91.9333188 65.16,94.84 C64.7866648,95.9866724 64.3600024,97.1333276 63.88,98.28 C63.3999976,99.4266724 62.8866694,100.459995 62.34,101.38 C61.7933306,102.300005 61.2333362,103.046664 60.66,103.62 C60.0866638,104.193336 59.533336,104.48 59,104.48 C58.5199976,104.48 58.1266682,104.253336 57.82,103.8 C57.5133318,103.346664 57.2800008,102.780003 57.12,102.1 C56.9599992,101.419997 56.8666668,100.686671 56.84,99.9 C56.8133332,99.1133294 56.8266664,98.4000032 56.88,97.76 C56.9600004,96.7733284 57.2066646,95.5666738 57.62,94.14 C58.0333354,92.7133262 58.6799956,91.1133422 59.56,89.34 C60.4400044,87.5666578 61.579993,85.6400104 62.98,83.56 C64.380007,81.4799896 66.1066564,79.2800116 68.16,76.96 L68.32,76.08 C68.5333344,74.6933264 68.7333324,73.3800062 68.92,72.14 C69.1066676,70.8999938 69.3066656,69.6933392 69.52,68.52 L69.64,68 C69.106664,69.0133384 68.4866702,69.9399958 67.78,70.78 C67.0733298,71.6200042 66.253338,72.2266648 65.32,72.6 C64.6799968,72.8933348 64.0400032,73.04 63.4,73.04 C62.5199956,73.04 61.8666688,72.7933358 61.44,72.3 C61.0133312,71.8066642 60.8,71.1733372 60.8,70.4 C60.8,68.9866596 61.1133302,67.6066734 61.74,66.26 C62.3666698,64.9133266 63.1733284,63.6800056 64.16,62.56 C65.1466716,61.4399944 66.2533272,60.4600042 67.48,59.62 C68.7066728,58.7799958 69.9066608,58.1733352 71.08,57.8 C71.4000016,57.666666 71.726665,57.5733336 72.06,57.52 C72.393335,57.4666664 72.7066652,57.4133336 73,57.36 L73,57.36 Z M59,103.68 C59.400002,103.68 59.8266644,103.446669 60.28,102.98 C60.7333356,102.513331 61.193331,101.873337 61.66,101.06 C62.126669,100.246663 62.5866644,99.2866722 63.04,98.18 C63.4933356,97.0733278 63.9333312,95.8933396 64.36,94.64 C64.8133356,93.2799932 65.2266648,91.8600074 65.6,90.38 C65.9733352,88.8999926 66.3066652,87.4400072 66.6,86 C66.8933348,84.5599928 67.1533322,83.1866732 67.38,81.88 C67.6066678,80.5733268 67.7999992,79.4133384 67.96,78.4 C66.0666572,80.6133444 64.4800064,82.6933236 63.2,84.64 C61.9199936,86.5866764 60.8866706,88.3799918 60.1,90.02 C59.3133294,91.6600082 58.7333352,93.1333268 58.36,94.44 C57.9866648,95.7466732 57.7600004,96.866662 57.68,97.8 C57.6266664,98.4933368 57.6133332,99.1866632 57.64,99.88 C57.6666668,100.573337 57.7333328,101.199997 57.84,101.76 C57.9466672,102.320003 58.0933324,102.779998 58.28,103.14 C58.4666676,103.500002 58.7066652,103.68 59,103.68 L59,103.68 Z M90,66.4 C90.0533336,66.3199996 90.113333,66.2999998 90.18,66.34 C90.246667,66.3800002 90.3066664,66.4599994 90.36,66.58 C90.4133336,66.7000006 90.4466666,66.8399992 90.46,67 C90.4733334,67.1600008 90.4400004,67.306666 90.36,67.44 C90.3066664,67.573334 90.2333338,67.7133326 90.14,67.86 C90.0466662,68.0066674 89.9466672,68.1733324 89.84,68.36 C89.5466652,68.8133356 89.2133352,69.2999974 88.84,69.82 C88.4666648,70.3400026 88.0600022,70.8266644 87.62,71.28 C87.1799978,71.7333356 86.7066692,72.1066652 86.2,72.4 C85.6933308,72.6933348 85.1866692,72.84 84.68,72.84 C83.9333296,72.84 83.4000016,72.5533362 83.08,71.98 C82.7599984,71.4066638 82.6,70.7333372 82.6,69.96 C82.6,69.159996 82.7266654,68.260005 82.98,67.26 C83.2333346,66.259995 83.5399982,65.2666716 83.9,64.28 C84.2600018,63.2933284 84.6266648,62.366671 85,61.5 C85.3733352,60.633329 85.693332,59.933336 85.96,59.4 C86.0400004,59.2399992 86.08,59.0800008 86.08,58.92 C86.08,58.8399996 86.0400004,58.8 85.96,58.8 C85.6399984,58.8 85.080004,59.033331 84.28,59.5 C83.479996,59.966669 82.6066714,60.6199958 81.66,61.46 C80.7133286,62.3000042 79.773338,63.2933276 78.84,64.44 C77.906662,65.5866724 77.1466696,66.8399932 76.56,68.2 C76.293332,68.9733372 76.0466678,69.69333 75.82,70.36 C75.5933322,71.02667 75.4000008,71.5999976 75.24,72.08 C75.0799992,72.480002 74.9466672,72.746666 74.84,72.88 C74.7333328,73.013334 74.5200016,72.9600012 74.2,72.72 C74.3866676,72.2133308 74.6066654,71.5800038 74.86,70.82 C75.1133346,70.0599962 75.3866652,69.246671 75.68,68.38 C75.9733348,67.513329 76.2666652,66.613338 76.56,65.68 C76.8533348,64.746662 77.133332,63.8400044 77.4,62.96 C77.6133344,62.1866628 77.7933326,61.4533368 77.94,60.76 C78.0866674,60.0666632 78.1999996,59.4266696 78.28,58.84 C78.3066668,58.6533324 78.3266666,58.4733342 78.34,58.3 C78.3533334,58.1266658 78.36,57.9600008 78.36,57.8 C78.36,57.6933328 78.3799998,57.540001 78.42,57.34 C78.4600002,57.139999 78.6399984,57.04 78.96,57.04 C79.0666672,57.04 79.1266666,57.1333324 79.14,57.32 C79.1533334,57.5066676 79.16,57.666666 79.16,57.8 C79.16,58.2800024 79.1066672,58.8266636 79,59.44 C78.8933328,60.0533364 78.7600008,60.69333 78.6,61.36 C78.4399992,62.02667 78.2666676,62.6799968 78.08,63.32 C77.8933324,63.9600032 77.7200008,64.546664 77.56,65.08 C78.2533368,64.013328 79.0133292,63.046671 79.84,62.18 C80.6666708,61.313329 81.4733294,60.5666698 82.26,59.94 C83.0466706,59.3133302 83.7666634,58.833335 84.42,58.5 C85.0733366,58.166665 85.5866648,58 85.96,58 C86.5733364,58 86.88,58.3066636 86.88,58.92 C86.88,59.053334 86.8333338,59.2333322 86.74,59.46 C86.6466662,59.6866678 86.4533348,60.13333 86.16,60.8 C85.8666652,61.4133364 85.5600016,62.1133294 85.24,62.9 C84.9199984,63.6866706 84.6200014,64.4933292 84.34,65.32 C84.0599986,66.1466708 83.8333342,66.9666626 83.66,67.78 C83.4866658,68.5933374 83.4,69.3199968 83.4,69.96 C83.4,70.6000032 83.5066656,71.0933316 83.72,71.44 C83.9333344,71.7600016 84.2133316,71.9466664 84.56,72 C84.9066684,72.0533336 85.279998,71.9733344 85.68,71.76 C86.1600024,71.5199988 86.6199978,71.166669 87.06,70.7 C87.5000022,70.233331 87.9066648,69.733336 88.28,69.2 C88.6533352,68.666664 88.9933318,68.1466692 89.3,67.64 C89.6066682,67.1333308 89.8399992,66.7200016 90,66.4 L90,66.4 Z" id="Design" fill="#F15C68" sketch:type="MSShapeGroup"></path>
        </g>
    </g>
</svg>